<?xml version="1.0" ?>
<svg xmlns="http://www.w3.org/2000/svg" width="34" height="34" viewBox="0 0 34 34">
  <path d="m32.67,23.38c-3.51,8.67 -13.38,12.85 -22.05,9.35C1.95,29.22 -2.23,19.35 1.27,10.68c3.51,-8.67 13.38,-12.85 22.05,-9.35 8.67,3.51 12.85,13.38 9.35,22.05" fill="#c8c4b7"/>
  <path d="m16.95,8.56 l-8.47,8.47 -0.01,14.65c0.68,0.39 1.39,0.75 2.15,1.05 0.34,0.14 0.69,0.26 1.04,0.38v-2.33h3.7v3.11c0.53,0.05 1.06,0.08 1.59,0.08h0.34c0.42,-0.01 0.83,-0.04 1.24,-0.07v-3.16h3.7v2.39c1.1,-0.36 2.17,-0.84 3.17,-1.42L25.42,17.03ZM15.1,11.74h3.7v4.23h-3.7zM11.66,18.09h3.7v4.23h-3.7zM18.54,18.09h3.7v4.23h-3.7zM11.66,24.44h3.7v4.23h-3.7zM18.54,24.44h3.7v4.23h-3.7z" fill="#fff"/>
  <path d="M6.37,17.03 L16.95,6.45 27.54,17.03" fill="none" stroke-linecap="square" stroke-width="3" stroke="#000"/>
  <path d="M6.37,16.04 L16.95,5.46 27.54,16.04" fill="none" stroke-linecap="square" stroke-width="3" stroke="#c84747"/>
  <path d="M15.1,11.74h3.7v1.06h-3.7z" fill="#000"/>
  <path d="M11.66,18.09h3.7v1.06h-3.7z" fill="#000"/>
  <path d="M18.54,18.09h3.7v1.06h-3.7z" fill="#000"/>
  <path d="M11.66,24.44h3.7v1.06h-3.7z" fill="#000"/>
  <path d="M18.54,24.44h3.7v1.06h-3.7z" fill="#000"/>
  <path d="M11.66,30.78h3.7v1.06h-3.7z" fill="#000"/>
  <path d="M18.54,30.73h3.7v1.06h-3.7z" fill="#000"/>
</svg>
