<?xml version="1.0" ?>
<svg xmlns="http://www.w3.org/2000/svg" width="128" height="128" viewBox="0 0 128 128">
  <path d="m128,64c0,35.346 -28.654,64 -64,64s-64,-28.654 -64,-64 28.654,-64 64,-64 64,28.654 64,64" fill="#ca72e2" stroke-width=".2"/>
  <path d="m36.222,24h55.056c4.694,0 8.472,3.779 8.472,8.472v63.056c0,4.694 -3.779,8.472 -8.472,8.472h-55.056c-4.694,0 -8.472,-3.779 -8.472,-8.472v-63.056c0,-4.694 3.779,-8.472 8.472,-8.472z" fill="none" stroke-width="8" stroke="#000"/>
  <path d="m36.347,20.111h55.056c4.694,0 8.472,3.779 8.472,8.472v63.056c0,4.694 -3.779,8.472 -8.472,8.472h-55.056c-4.694,0 -8.472,-3.779 -8.472,-8.472v-63.056c0,-4.694 3.779,-8.472 8.472,-8.472z" fill="#495aad" stroke-width="8" stroke="#fff"/>
  <path d="m67.194,83.081a7.194,7.194 0,0 1,-7.194 7.194,7.194 7.194,0 0,1 -7.194,-7.194 7.194,7.194 0,0 1,7.194 -7.194,7.194 7.194,0 0,1 7.194,7.194m23.443,-0.001a7.194,7.194 0,0 1,-7.194 7.194,7.194 7.194,0 0,1 -7.194,-7.194 7.194,7.194 0,0 1,7.194 -7.194,7.194 7.194,0 0,1 7.194,7.194m-26.637,-11.08 l9.092,11.04h10.391l-7.144,-11.04h-12.339m12.339,-2.598 l3.165,-0.007m-6.412,13.644 l3.247,-13.638m-16.236,13.638 l5.413,-16.115h5.195" fill="none" stroke-linejoin="round" stroke-linecap="round" stroke-width="2.5" stroke="#fff"/>
  <path d="m44,76v-40h12s12,0 12,12 -12,12 -12,12h-12" fill="none" stroke-linecap="square" stroke-width="8" stroke="#fff"/>
  <path d="m97.3,58.6c-4.363,0 -8.712,1.675 -12.012,5.025 -5.5,5.5 -6.544,13.986 -3.145,20.486l-26,26v6l2,2h10l3,-3v-6l1,-1h6l6,-6v-6l5,-5c6.5,3.6 14.744,2.313 20.144,-3.188 6.8,-6.7 6.8,-17.599 0.1,-24.299 -3.35,-3.35 -7.725,-5.025 -12.088,-5.025zM100.939,66.924c1.325,0 2.65,0.5 3.65,1.5 2.1,2 2.1,5.3 0,7.4 -2,2 -5.301,2 -7.301,0s-2,-5.3 0,-7.4c1,-1 2.325,-1.5 3.65,-1.5z" fill="#000"/>
  <path d="m109.42,59.63c-6.7,-6.7 -17.5,-6.7 -24.1,0 -5.5,5.5 -6.544,13.988 -3.144,20.488l-26,26v6l2,2h4l27,-27c6.5,3.6 14.744,2.313 20.144,-3.188 6.8,-6.7 6.8,-17.6 0.1,-24.3m-4.8,12.2c-2,2 -5.3,2 -7.3,0s-2,-5.3 0,-7.4c2,-2 5.3,-2 7.3,0 2.1,2 2.1,5.3 0,7.4" fill="#eda432"/>
  <path d="m71.15,111.12v-6l-9,9h6z" fill="#d68c3a"/>
  <path d="m84.15,98.11v-6l-12.056,12h6.056z" fill="#d68c3a"/>
  <path d="m85.15,83.11 l-29,29 2,2 29,-29z" fill="#d68c3a"/>
</svg>
