<svg xmlns="http://www.w3.org/2000/svg" width="16" height="16"><path d="M 3.5,2.0 C 3.224,2.0 3.0,2.224 3.0,2.5 L 3.0,3.0 L 2.0,3.0 C 1.723,3.0 1.5,3.224 1.5,3.5 C 1.5,3.776 1.723,4.0 2.0,4.0 L 3.0,4.0 L 3.0,5.0 L 2.0,5.0 C 1.723,5.001 1.5,5.224 1.5,5.5 C 1.5,5.776 1.723,5.999 2.0,6.0 L 3.0,6.0 L 3.0,6.5 C 3.0,6.597 3.028,6.688 3.075,6.764 L 6.0,11.638 L 6.0,14.5 C 6.0,14.776 6.224,15.0 6.5,15.0 C 6.776,15.0 7.0,14.776 7.0,14.5 L 7.0,14.0 L 8.0,14.0 L 8.0,14.5 C 8.0,14.776 8.224,15.0 8.5,15.0 C 8.776,15.0 9.0,14.776 9.0,14.5 L 9.0,11.638 L 11.924,6.764 C 11.972,6.688 12.0,6.597 12.0,6.5 L 12.0,6.0 L 13.0,6.0 C 13.277,5.999 13.5,5.776 13.5,5.5 C 13.5,5.224 13.277,5.001 13.0,5.0 L 12.0,5.0 L 12.0,4.0 L 13.0,4.0 C 13.277,4.0 13.5,3.776 13.5,3.5 C 13.5,3.224 13.277,3.0 13.0,3.0 L 12.0,3.0 L 12.0,2.501 C 12.0,2.224 11.776,2.0 11.5,2.0 C 11.224,2.0 11.0,2.224 11.0,2.5 L 11.0,3.0 L 4.0,3.0 L 4.0,2.501 C 4.0,2.224 3.776,2.0 3.5,2.0 M 4.0,5.0 L 4.0,4.0 L 11.0,4.0 L 11.0,5.0 L 4.0,5.0 M 4.0,6.25 L 4.0,6.0 L 11.0,6.0 L 11.0,6.25 L 7.5,8.875 L 4.0,6.25 M 6.46,10.462 L 5.242,8.431 L 6.866,9.65 L 6.46,10.462 M 8.134,9.65 L 9.758,8.431 L 8.54,10.462 L 8.134,9.65 M 7.0,11.618 L 7.5,10.618 L 8.0,11.618 L 8.0,13.0 L 7.0,13.0 L 7.0,11.618" fill="#000" /></svg>