<svg xmlns="http://www.w3.org/2000/svg" width="16" height="16"><path d="M 3.5,7.0 C 2.8333,7.0 2.3965,7.3965 2.1465,7.6465 C 1.8965,7.8965 1.8333,8.0 1.5,8.0 C 1.2239,8.0 1.0,8.2239 1.0,8.5 C 1.0,8.7761 1.2239,9.0 1.5,9.0 L 13.5,9.0 C 13.7761,9.0 14.0,8.7761 14.0,8.5 C 14.0,8.2239 13.7761,8.0 13.5,8.0 C 13.1667,8.0 13.1035,7.8965 12.8535,7.6465 C 12.6035,7.3965 12.1667,7.0 11.5,7.0 C 10.8333,7.0 10.3965,7.3965 10.1465,7.6465 C 9.8965,7.8965 9.8333,8.0 9.5,8.0 C 9.1667,8.0 9.1035,7.8965 8.8535,7.6465 C 8.6035,7.3965 8.1667,7.0 7.5,7.0 C 6.8333,7.0 6.3965,7.3965 6.1465,7.6465 C 5.8965,7.8965 5.8333,8.0 5.5,8.0 C 5.1667,8.0 5.1035,7.8965 4.8535,7.6465 C 4.6035,7.3965 4.1667,7.0 3.5,7.0" fill="#000" /></svg>