<?xml version="1.0" ?>
<svg xmlns="http://www.w3.org/2000/svg" width="128" height="128" viewBox="0 0 128 128">
  <path d="m128,64c0,35.346 -28.654,64 -64,64s-64,-28.654 -64,-64 28.654,-64 64,-64 64,28.654 64,64" fill="#ca72e2" stroke-width=".2"/>
  <path d="m36.222,24h55.056c4.694,0 8.472,3.779 8.472,8.472v63.056c0,4.694 -3.779,8.472 -8.472,8.472h-55.056c-4.694,0 -8.472,-3.779 -8.472,-8.472v-63.056c0,-4.694 3.779,-8.472 8.472,-8.472z" fill="#00000000" stroke-width="8" stroke="#000"/>
  <path d="m36.347,20.111h55.056c4.694,0 8.472,3.779 8.472,8.472v63.056c0,4.694 -3.779,8.472 -8.472,8.472h-55.056c-4.694,0 -8.472,-3.779 -8.472,-8.472v-63.056c0,-4.694 3.779,-8.472 8.472,-8.472z" fill="#495aad" stroke-width="8" stroke="#fff"/>
  <path d="m57.93,80.679a10.075,10.075 0,0 1,-10.075 10.075,10.075 10.075,0 0,1 -10.075,-10.075 10.075,10.075 0,0 1,10.075 -10.075,10.075 10.075,0 0,1 10.075,10.075m32.832,-0.002a10.075,10.075 0,0 1,-10.075 10.075,10.075 10.075,0 0,1 -10.075,-10.075 10.075,10.075 0,0 1,10.075 -10.075,10.075 10.075,0 0,1 10.075,10.075m-37.305,-15.517 l12.733,15.461h14.553l-10.005,-15.461h-17.281m17.281,-3.638 l4.433,-0.009m-8.98,19.108 l4.548,-19.1m-22.738,19.1 l7.581,-22.569h7.276" fill="#00000000" stroke-linejoin="round" stroke-linecap="round" stroke-width="3.5012" stroke="#fff"/>
  <path d="m87.877,34.554c-2.299,-2.295 -5.474,-3.701 -8.979,-3.675 -5.797,0 -10.82,3.914 -12.454,9.121h-27.405l-3.162,3.156v2.104l5.27,5.26h3.162l3.162,-3.156h1.054l3.162,3.156h6.324l3.162,-3.156h5.27c1.528,5.312 6.552,8.971 12.296,8.918 7.115,0.053 12.859,-5.68 12.859,-12.728 0,-3.524 -1.423,-6.706 -3.722,-9.001zM85.408,40.846c0.698,0.697 1.133,1.657 1.133,2.709 0.053,2.156 -1.687,3.892 -3.9,3.892 -2.108,0 -3.848,-1.736 -3.848,-3.84 0,-2.104 1.739,-3.84 3.9,-3.892 1.054,0 2.016,0.434 2.714,1.131z" fill="#fff" stroke-width=".74457"/>
</svg>
