<?xml version="1.0" ?>
<svg xmlns="http://www.w3.org/2000/svg" width="128" height="128" viewBox="0 0 128 128">
  <path d="m128,64c0,35.346 -28.654,64 -64,64s-64,-28.654 -64,-64 28.654,-64 64,-64 64,28.654 64,64" fill="#9bbe55"/>
  <path d="M56.003,109.471C35.504,95.788 20.49,79.31 16.057,65.63 12.883,55.834 14.419,44.798 20.097,36.588c5.433,-7.855 15.517,-11.9 25.495,-10.228 5.966,1 9.487,2.948 14.367,7.949l4.046,4.147 4.047,-4.147c4.889,-5.01 8.401,-6.949 14.414,-7.957 9.933,-1.665 20.003,2.418 25.562,10.361 5.543,7.922 7.074,19.199 3.925,28.917 -3.548,10.949 -14.927,24.91 -29.602,36.318 -7.427,5.773 -17.365,12.26 -18.683,12.195 -0.395,-0.02 -3.844,-2.122 -7.665,-4.672z" fill="#000"/>
  <path d="M56.003,105.471C35.504,91.788 20.49,75.31 16.057,61.63 12.883,51.834 14.419,40.798 20.097,32.588c5.433,-7.855 15.517,-11.9 25.495,-10.228 5.966,1 9.487,2.948 14.367,7.949l4.046,4.147 4.047,-4.147c4.889,-5.01 8.401,-6.949 14.414,-7.957 9.933,-1.665 20.003,2.418 25.562,10.361 5.543,7.922 7.074,19.199 3.925,28.917 -3.548,10.949 -14.927,24.91 -29.602,36.318 -7.427,5.773 -17.365,12.26 -18.683,12.195 -0.395,-0.02 -3.844,-2.122 -7.665,-4.672z" fill="#5a8049"/>
  <path d="M76.932,33.442 L63.999,60H80.396L51.682,93.41 62.768,67.236H46.833Z" fill="#fff"/>
</svg>
