<?xml version="1.0" ?>
<svg xmlns="http://www.w3.org/2000/svg" width="33.86667" height="33.86667" viewBox="0 0 33.86667 33.86667">
  <path d="m33.8667,16.9333c0,9.352 -7.5814,16.9333 -16.9333,16.9333 -9.352,0 -16.9333,-7.5814 -16.9333,-16.9333 0,-9.352 7.5814,-16.9333 16.9333,-16.9333 9.352,0 16.9333,7.5814 16.9333,16.9333" fill="#529add"/>
  <path d="m5.2973,10.5828c-0.5929,0 -1.0702,0.4773 -1.0702,1.0702v4.2096c0,0.5929 0.4773,1.0702 1.0702,1.0702h3.1631v2.1167h-4.2333v1.0583,1.0583h4.2333v4.2333h2.1167v-4.2333h12.7v4.2333h2.1167v-4.2333h4.2333v-1.0583,-1.0583h-4.2333v-2.1167h3.1631c0.5929,0 1.0702,-0.4774 1.0702,-1.0702v-4.2096c0,-0.5929 -0.4773,-1.0702 -1.0702,-1.0702zM10.5771,16.9328h12.7v2.1167h-12.7z" fill="#000"/>
  <path d="M8.4605,15.8745l2.1167,0l0,8.4667l-2.1167,0z" fill="#666666"/>
  <path d="M23.2771,15.8745l2.1167,0l0,8.4667l-2.1167,0z" fill="#666666"/>
  <path d="M5.2973,9.5245L28.557,9.5245A1.0702,1.0702 0,0 1,29.6272 10.5946L29.6272,14.8043A1.0702,1.0702 0,0 1,28.557 15.8745L5.2973,15.8745A1.0702,1.0702 0,0 1,4.2271 14.8043L4.2271,10.5946A1.0702,1.0702 0,0 1,5.2973 9.5245z" fill="#ae8862"/>
  <path d="M6.3438,10.5828l21.1667,0l0,1.0583l-21.1667,0z" fill="#896847"/>
  <path d="M4.2271,19.0495l25.4,0l0,1.0583l-25.4,0z" fill="#896847"/>
  <path d="M6.3438,13.7578l21.1667,0l0,1.0583l-21.1667,0z" fill="#896847"/>
  <path d="M9.5188,12.6995m-1.0583,0a1.0583,1.0583 0,1 1,2.1167 0a1.0583,1.0583 0,1 1,-2.1167 0" fill="#666666"/>
  <path d="M24.3355,12.6995m-1.0583,0a1.0583,1.0583 0,1 1,2.1167 0a1.0583,1.0583 0,1 1,-2.1167 0" fill="#666666"/>
  <path d="M4.2271,17.9911l25.4,0l0,1.0583l-25.4,0z" fill="#ae8862"/>
</svg>
