<?xml version="1.0" ?>
<svg xmlns="http://www.w3.org/2000/svg" width="34" height="34" viewBox="0 0 34 34">
  <path d="m33.87,16.93c0,9.35 -7.58,16.93 -16.93,16.93 -9.35,0 -16.93,-7.58 -16.93,-16.93 0,-9.35 7.58,-16.93 16.93,-16.93 9.35,0 16.93,7.58 16.93,16.93" fill="#529add"/>
  <path d="M21.1,7.41L25.46,7.41A2.05,2.12 0,0 1,27.52 9.52L27.52,21.17A2.05,2.12 0,0 1,25.46 23.28L21.1,23.28A2.05,2.12 0,0 1,19.05 21.17L19.05,9.52A2.05,2.12 0,0 1,21.1 7.41z" fill="#000"/>
  <path d="M21.1,6.35L25.46,6.35A2.05,2.12 0,0 1,27.52 8.47L27.52,20.11A2.05,2.12 0,0 1,25.46 22.22L21.1,22.22A2.05,2.12 0,0 1,19.05 20.11L19.05,8.47A2.05,2.12 0,0 1,21.1 6.35z" fill="#888"/>
  <path d="M20.56,18a2.64,2.66 0,1 0,5.28 0a2.64,2.66 0,1 0,-5.28 0z" fill="#69ff69" stroke-width="1" stroke="#555"/>
  <path d="m25.84,17.99c0,0 -1.19,1.75 -2.65,1.75 -1.46,0 -2.65,-1.75 -2.65,-1.75 0,1.46 1.18,2.65 2.65,2.65 1.46,0 2.65,-1.19 2.65,-2.66z" fill="#fff"/>
  <path d="M20.65,10.59a2.64,2.66 0,1 0,5.28 0a2.64,2.66 0,1 0,-5.28 0z" fill="#ff6969" stroke-width="1" stroke="#555"/>
  <path d="m25.93,10.58c0,0 -1.19,1.75 -2.65,1.75 -1.46,0 -2.65,-1.75 -2.65,-1.75 0,1.46 1.18,2.65 2.65,2.65 1.46,0 2.65,-1.19 2.65,-2.66z" fill="#fff"/>
  <path d="m7.47,26.92c3.42,-2.98 3.72,-5.81 3.95,-9.14 2.87,3.04 3.63,5.76 4.23,9.14" fill="none" stroke-linecap="round" stroke-width="3" stroke="#000"/>
  <path d="m7.69,17.69c-0.02,-2.47 1.03,-4.5 3.74,-5.59 1.94,1.66 2.95,4.13 6.28,5.75" fill="none" stroke-linejoin="round" stroke-linecap="round" stroke-width="3" stroke="#000"/>
  <path d="M12.43,7.07m-2.79,0a2.79,2.79 0,1 1,5.57 0a2.79,2.79 0,1 1,-5.57 0" fill="#000"/>
  <path d="m20.42,19.61 l7.29,7.87" fill="none" stroke-linecap="round" stroke-width="1.5" stroke="#000"/>
  <path d="m7.47,25.86c3.42,-2.98 3.72,-5.81 3.95,-9.14 2.87,3.04 3.63,5.76 4.23,9.14" fill="none" stroke-linecap="round" stroke-width="3" stroke="#fff"/>
  <path d="m11.43,11.04c-0.47,1.76 -0.11,4.13 0.21,5.89" fill="none" stroke-width="3" stroke="#fff"/>
  <path d="m7.69,16.63c-0.02,-2.47 1.03,-4.5 3.74,-5.59 1.94,1.66 2.95,4.13 6.28,5.75" fill="none" stroke-linejoin="round" stroke-linecap="round" stroke-width="3" stroke="#fff"/>
  <path d="M12.43,6.01m-2.79,0a2.79,2.79 0,1 1,5.57 0a2.79,2.79 0,1 1,-5.57 0" fill="#fff"/>
  <path d="m20.42,18.55 l7.29,7.87" fill="none" stroke-linecap="round" stroke-width="1.5" stroke="#fff"/>
</svg>
