<?xml version="1.0" ?>
<svg xmlns="http://www.w3.org/2000/svg" width="34" height="34" viewBox="0 0 34 34">
  <path d="m33.87,16.93c0,9.35 -7.58,16.93 -16.93,16.93 -9.35,0 -16.93,-7.58 -16.93,-16.93 0,-9.35 7.58,-16.93 16.93,-16.93 9.35,0 16.93,7.58 16.93,16.93" fill="#ffdd55"/>
  <path d="m30.69,17.46c0,7.6 -6.16,13.76 -13.76,13.76 -7.6,0 -13.76,-6.16 -13.76,-13.76 0,-7.6 6.16,-13.76 13.76,-13.76 7.6,0 13.76,6.16 13.76,13.76" fill="#000"/>
  <path d="m30.16,16.4c0,7.31 -5.92,13.23 -13.23,13.23 -7.31,0 -13.23,-5.92 -13.23,-13.23 0,-7.31 5.92,-13.23 13.23,-13.23 7.31,0 13.23,5.92 13.23,13.23" fill="#c84747" stroke-width="1" stroke="#fff"/>
  <path d="M16.93,16.4m-9.46,0a9.46,9.46 0,1 1,18.92 0a9.46,9.46 0,1 1,-18.92 0" fill="#444"/>
  <path d="m8.47,20.63c1.6,3.21 4.88,5.23 8.46,5.24 3.58,-0 6.86,-2.03 8.46,-5.24l-3.7,-4.22 3.69,-4.22c-1.6,-3.21 -4.87,-5.24 -8.46,-5.24 -3.58,0 -6.86,2.03 -8.46,5.24l3.69,4.22z" fill="#fff"/>
  <path d="m14.82,12.17c-0.85,0.53 -1.06,3.7 -1.06,3.7 -0.45,0.15 -1.07,0.61 -1.07,1.08l0.01,1.57c0,0.53 0.16,0.79 0.79,0.79v1.32c0,0 -0.01,0.52 0.26,0.53h1.06c0.26,0 0.26,-0.53 0.26,-0.53v-1.06h3.7v1.06c0,0 0,0.53 0.26,0.53h1.06c0.26,0 0.26,-0.53 0.26,-0.53v-1.32c0.63,0 0.79,-0.26 0.79,-0.79v-1.59c-0.12,-0.49 -0.69,-0.91 -1.06,-1.06 0,0 -0.21,-3.17 -1.06,-3.7zM18.52,13.23c0.53,0.79 0.53,2.65 0.53,2.65h-4.23c0,0 0,-1.85 0.53,-2.65z" fill="#444"/>
</svg>
