<?xml version="1.0" encoding="UTF-8"?>
<svg viewBox="0 0 15 15" version="1.1" xmlns="http://www.w3.org/2000/svg" xmlns:xlink="http://www.w3.org/1999/xlink">
  <path d="M4 7L4 14L2 14L2 7.78L1 8.16L1 6L14 1L14 3.14L4 7ZM6.75 7L12.25 7C12.67 7 13 7.33 13 7.75C13 8.17 12.67 8.5 12.25 8.5L11 8.5L11.46 10L13.25 10C13.67 10 14 10.33 14 10.75C14 11.17 13.67 11.5 13.25 11.5L11.92 11.5L13 14L12 14L10.92 11.5L8.08 11.5L7 14L6 14L7.08 11.5L5.75 11.5C5.33 11.5 5 11.17 5 10.75C5 10.33 5.33 10 5.75 10L7.54 10L8 8.5L6.75 8.5C6.33 8.5 6 8.17 6 7.75C6 7.33 6.33 7 6.75 7ZM9 8.5L8.54 10L10.46 10L10 8.5L9 8.5Z"/>
</svg>