<?xml version="1.0" ?>
<svg xmlns="http://www.w3.org/2000/svg" width="128" height="128" viewBox="0 0 128 128">
  <path d="m128,64c0,35.346 -28.654,64 -64,64s-64,-28.654 -64,-64 28.654,-64 64,-64 64,28.654 64,64" fill="#529add"/>
  <path d="M88.012,20.005L88.012,20.005A24,24 0,0 1,112.012 44.005L112.012,88.004A24,24 0,0 1,88.012 112.004L88.012,112.004A24,24 0,0 1,64.012 88.004L64.012,44.005A24,24 0,0 1,88.012 20.005z" fill="#000"/>
  <path d="M88.012,16.006L88.012,16.006A24,24 0,0 1,112.012 40.006L112.012,84.005A24,24 0,0 1,88.012 108.005L88.012,108.005A24,24 0,0 1,64.012 84.005L64.012,40.006A24,24 0,0 1,88.012 16.006z" fill="#888888"/>
  <path d="M103.407,83.999A15.401,15.527 0,0 1,88.006 99.526,15.401 15.527,0 0,1 72.604,83.999 15.401,15.527 0,0 1,88.006 68.472,15.401 15.527,0 0,1 103.407,83.999" fill="#69ff69" stroke-width="6.1768" stroke="#555"/>
  <path d="m103.392,83.951c0,0 -6.921,10.24 -15.457,10.24 -8.537,0 -15.444,-10.186 -15.444,-10.186 0,8.537 6.906,15.444 15.444,15.444 8.537,0 15.457,-6.961 15.457,-15.498z" fill="#fff"/>
  <path d="M103.405,40.39A15.401,15.527 0,0 1,88.004 55.917,15.401 15.527,0 0,1 72.602,40.39 15.401,15.527 0,0 1,88.004 24.863,15.401 15.527,0 0,1 103.405,40.39" fill="#ff6969" stroke-width="6.1768" stroke="#555"/>
  <path d="m103.405,40.344c0,0 -6.921,10.24 -15.457,10.24 -8.537,0 -15.444,-10.186 -15.444,-10.186 0,8.537 6.906,15.444 15.444,15.444 8.537,0 15.457,-6.961 15.457,-15.498z" fill="#fff"/>
  <path d="m18,92c-10.869,-12.447 -10.468,-35.106 0,-48m8,8c-5.572,10.962 -5.09,21.603 0,32" fill="none" stroke-linecap="round" stroke-width="6" stroke="#000"/>
  <path d="m34.774,46.276c-1.108,-0 -2.005,0.9 -2.001,2.007 0.068,14.248 -0.074,27.16 0,39.453 0.008,1.099 0.902,1.985 2.001,1.985h3.287c0.594,0 1.157,-0.263 1.537,-0.719l7.617,-9.142h8.926c1.105,0 2.002,-0.896 2.001,-2.001V58.137c-0.001,-1.104 -0.897,-1.998 -2.001,-1.998l-8.926,-0.003 -7.617,-9.142c-0.38,-0.456 -0.943,-0.719 -1.537,-0.719z" fill="#000"/>
  <path d="m34.774,42.276c-1.108,-0 -2.005,0.9 -2.001,2.007 0.068,14.248 -0.074,27.16 0,39.453 0.008,1.099 0.902,1.985 2.001,1.985h3.287c0.594,0 1.157,-0.263 1.537,-0.719l7.617,-9.142h8.926c1.105,0 2.002,-0.896 2.001,-2.001V54.137c-0.001,-1.104 -0.897,-1.998 -2.001,-1.998l-8.926,-0.003 -7.617,-9.142c-0.38,-0.456 -0.943,-0.719 -1.537,-0.719z" fill="#fff"/>
  <path d="m18,88c-10.869,-12.447 -10.468,-35.106 0,-48m8,8c-5.572,10.962 -5.09,21.603 0,32" fill="none" stroke-linecap="round" stroke-width="6" stroke="#fff"/>
</svg>
