<?xml version="1.0" ?>
<svg xmlns="http://www.w3.org/2000/svg" width="128" height="128" viewBox="0 0 128 128">
  <path d="m128,64c0,35.346 -28.654,64 -64,64s-64,-28.654 -64,-64 28.654,-64 64,-64 64,28.654 64,64" fill="#e9a76f"/>
  <path d="m64.015,14.08c-28.702,0 -51.971,23.269 -51.971,51.971s23.269,51.971 51.971,51.971 51.971,-23.269 51.971,-51.971 -23.269,-51.971 -51.971,-51.971z" fill="#000"/>
  <path d="m116.013,62.02c0,28.702 -23.268,51.97 -51.97,51.97s-51.97,-23.268 -51.97,-51.97 23.268,-51.97 51.97,-51.97 51.97,23.268 51.97,51.97" fill="#fff"/>
  <path d="M64,62m-39.999,0a39.999,39.999 0,1 1,79.999 0a39.999,39.999 0,1 1,-79.999 0" fill="#444"/>
  <path d="m44.001,36.001 l12,0.171 -0,19.829 16,-19.829 16,-0.171 -22,26 22,26 -16,0.171 -16,-20l0,20l-12,-0.171z" fill="#fff"/>
</svg>
