<?xml version="1.0" ?>
<svg xmlns="http://www.w3.org/2000/svg" width="128.0" height="128.0" viewBox="0 0 128.0 128.0">
  <path d="M128,64C128,99.35 99.35,128 64,128 28.65,128 0,99.35 0,64 0,28.65 28.65,0 64,0c35.35,0 64,28.65 64,64" fill="#aaa" stroke-width="0.5"/>
  <path d="m88.02,17.99c-0.14,0 -0.28,0.01 -0.41,0.04l-40,8c-0.7,0.14 -1.28,0.65 -1.51,1.33l-16,48c-0.49,1.46 0.78,2.9 2.29,2.59l17.11,-3.42 -7.47,41.1c-0.36,1.96 2.06,3.18 3.43,1.72L105.46,53.36c1.33,-1.42 0.05,-3.71 -1.85,-3.33l-35.57,7.11 21.67,-36.12c0.8,-1.32 -0.15,-3.01 -1.69,-3.03z" fill="#000" stroke-linejoin="round" stroke-width="4"/>
  <path d="m48,24 l-16,48 20,-4 -8,44L104,48 64,56 88,16Z" fill="#ffdd55" stroke-linejoin="round" stroke-width="4" stroke="#fac800"/>
</svg>
