<?xml version="1.0" encoding="UTF-8"?>
<!--Generator: Apple Native CoreSVG 326-->
<!DOCTYPE svg
PUBLIC "-//W3C//DTD SVG 1.1//EN"
       "http://www.w3.org/Graphics/SVG/1.1/DTD/svg11.dtd">
<svg version="1.1" xmlns="http://www.w3.org/2000/svg" xmlns:xlink="http://www.w3.org/1999/xlink" viewBox="0 0 24.7705 19.8535">
 <g>
  <rect height="19.8535" opacity="0" width="24.7705" x="0" y="0"/>
  <path d="M19.1895 7.95898C19.8584 7.95898 20.4004 7.41699 20.4004 6.74805C20.4004 6.07422 19.8584 5.53711 19.1895 5.53711C18.5156 5.53711 17.9785 6.07422 17.9785 6.74805C17.9785 7.41699 18.5156 7.95898 19.1895 7.95898ZM3.44727 19.2725L20.957 19.2725C23.1836 19.2725 24.4092 18.0566 24.4092 15.8447L24.4092 5.55664C24.4092 3.34473 23.1836 2.13379 20.957 2.13379L18.4863 2.13379C17.7295 2.13379 17.4561 2.02637 16.9336 1.52344L16.1768 0.761719C15.6299 0.234375 15.0977 0 14.1211 0L10.249 0C9.27734 0 8.74023 0.234375 8.19824 0.761719L7.43652 1.52344C6.91406 2.02148 6.64062 2.13379 5.88379 2.13379L3.44727 2.13379C1.2207 2.13379 0 3.34473 0 5.55664L0 15.8447C0 18.0566 1.2207 19.2725 3.44727 19.2725ZM3.7207 16.7529C2.94434 16.7529 2.51953 16.3672 2.51953 15.5371L2.51953 5.86914C2.51953 5.03906 2.94434 4.65332 3.7207 4.65332L6.72852 4.65332C7.60742 4.65332 8.02734 4.51172 8.52539 3.98438L9.2334 3.22754C9.76074 2.66602 10.083 2.51953 10.918 2.51953L13.4521 2.51953C14.292 2.51953 14.6094 2.6709 15.1172 3.21289L15.8496 3.98438C16.3477 4.50684 16.7676 4.65332 17.6416 4.65332L20.6787 4.65332C21.4648 4.65332 21.8896 5.03906 21.8896 5.86914L21.8896 15.5371C21.8896 16.3672 21.4648 16.7529 20.6787 16.7529ZM12.2021 15.6396C15.0732 15.6396 17.3779 13.3398 17.3779 10.4492C17.3779 7.56836 15.0781 5.26855 12.2021 5.26855C9.33594 5.26855 7.02637 7.56836 7.02637 10.4492C7.02637 13.3398 9.33594 15.6396 12.2021 15.6396ZM12.2021 13.4326C10.5664 13.4326 9.22852 12.1045 9.22852 10.4492C9.22852 8.79395 10.5615 7.4707 12.2021 7.4707C13.8525 7.4707 15.1758 8.79395 15.1758 10.4492C15.1758 12.1045 13.8525 13.4326 12.2021 13.4326Z" fill="black" fill-opacity="0.85"/>
 </g>
</svg>
