<?xml version="1.0" ?>
<svg xmlns="http://www.w3.org/2000/svg" width="33.866665" height="33.86667" viewBox="0 0 33.866665 33.86667">
  <path d="m31.6,25.4c-4.68,8.1 -15.03,10.87 -23.13,6.2 -8.1,-4.68 -10.87,-15.03 -6.2,-23.13 4.68,-8.1 15.03,-10.87 23.13,-6.2 8.1,4.68 10.87,15.03 6.2,23.13" fill="#e45f5f" stroke-width="0.05291667"/>
  <path d="m12.68,5.29h8.47l-1.59,16.93L14.26,22.22Z" fill="#000"/>
  <path d="M13.64,27.3a3.17,2.96 0,1 0,6.35 0a3.17,2.96 0,1 0,-6.35 0z" fill="#000"/>
  <path d="m12.68,4.23h8.47l-1.59,16.93L14.26,21.16Z" fill="#fff"/>
  <path d="M13.64,26.24a3.17,2.96 0,1 0,6.35 0a3.17,2.96 0,1 0,-6.35 0z" fill="#fff"/>
</svg>
