<?xml version="1.0" ?>
<svg xmlns="http://www.w3.org/2000/svg" width="128.0" height="128.0" viewBox="0 0 128.0 128.0">
  <path d="M128,64C128,99.35 99.35,128 64,128 28.65,128 0,99.35 0,64 0,28.65 28.65,0 64,0c35.35,0 64,28.65 64,64" fill="#c8c4b7"/>
  <path d="M56,16h16.04v112h-16.04z" fill="#666" stroke-width="26"/>
  <path d="m23.96,36c-4.43,0 -8,3.96 -8,8.87v38.27c0,4.91 3.57,8.87 8,8.87h79.99c4.43,0 8,-3.95 8,-8.87V44.87c0,-4.91 -3.57,-8.87 -8,-8.87z" fill="#000"/>
  <path d="M24,32L104,32A8,8.87 0,0 1,112 40.87L112,79.13A8,8.87 0,0 1,104 88L24,88A8,8.87 0,0 1,16 79.13L16,40.87A8,8.87 0,0 1,24 32z" fill="#495aad"/>
  <path d="m24,48v24c4,0 8,4 8,8h64c0,-4 4.69,-8 8,-8V48c-4,0 -8,-4 -8,-8h-64c0,4 -4,8 -8,8z" fill="none" stroke-width="5" stroke="#fff"/>
</svg>
