<?xml version="1.0" ?>
<svg xmlns="http://www.w3.org/2000/svg" width="128" height="128" viewBox="0 0 128 128">
  <path d="m128,64c0,35.35 -28.65,64 -64,64s-64,-28.65 -64,-64 28.65,-64 64,-64 64,28.65 64,64" fill="#9bbe55"/>
  <path d="m64,67.01c-13.87,0 -32.48,29.8 -40.84,46.26 11.08,9.2 25.31,14.73 40.84,14.73 15.98,0 30.57,-5.87 41.78,-15.55 -9.41,-17.22 -28.67,-45.44 -41.78,-45.44z" fill="#646464"/>
  <path d="m58,19v18h-18v12h18v36h12v-36h18v-12h-18v-18z" fill="#000000FF"/>
  <path d="m64.18,67.02c-1.58,0.04 -3.2,0.39 -4.86,1.01 -9.78,3.97 -20.92,19 -29.06,32.48 4.59,-2.6 9.51,-6.73 13.95,-6.63 6.23,0.14 8.41,8.4 14.64,8.16 4.67,-0.18 6.53,-5.39 11.19,-5.76 6.07,-0.48 8.99,8.55 15.07,8.16 5.01,-0.32 8.76,-2.89 11.43,-7.23 -9.87,-14.84 -22.73,-30 -32.36,-30.18z" fill="#f0f0f0"/>
  <path d="m58,15v18h-18v12h18v36h12v-36h18v-12h-18v-18z" fill="#9d6147"/>
</svg>
