<svg xmlns="http://www.w3.org/2000/svg" data-prefix="fas" data-icon="car-battery" class="svg-inline--fa fa-car-battery" role="img" viewBox="0 0 512 512" aria-hidden="true"><path fill="currentColor" d="M80 64c0-17.7 14.3-32 32-32l64 0c17.7 0 32 14.3 32 32l96 0c0-17.7 14.3-32 32-32l64 0c17.7 0 32 14.3 32 32l16 0c35.3 0 64 28.7 64 64l0 256c0 35.3-28.7 64-64 64L64 448c-35.3 0-64-28.7-64-64L0 128C0 92.7 28.7 64 64 64l16 0zM392 184c0-13.3-10.7-24-24-24s-24 10.7-24 24l0 32-32 0c-13.3 0-24 10.7-24 24s10.7 24 24 24l32 0 0 32c0 13.3 10.7 24 24 24s24-10.7 24-24l0-32 32 0c13.3 0 24-10.7 24-24s-10.7-24-24-24l-32 0 0-32zM64 240c0 13.3 10.7 24 24 24l112 0c13.3 0 24-10.7 24-24s-10.7-24-24-24L88 216c-13.3 0-24 10.7-24 24z"></path></svg>