<?xml version="1.0" ?>
<svg xmlns="http://www.w3.org/2000/svg" width="34" height="34" viewBox="0 0 34 34">
  <path d="m33.87,16.93c0,9.35 -7.58,16.93 -16.93,16.93C7.58,33.87 0,26.29 0,16.93c0,-9.35 7.58,-16.93 16.93,-16.93 9.35,0 16.93,7.58 16.93,16.93" fill="#e9a76f"/>
  <path d="M6.35,11.34l7.77,4.49l-2.49,4.32l-7.77,-4.49z" fill="#000"/>
  <path d="M14.12,15.83l11.23,6.48l-2.49,4.32l-11.23,-6.48z" fill="#000"/>
  <path d="M25.78,22.56l1.28,0.74l-2.49,4.32l-1.28,-0.74z" fill="#000"/>
  <path d="M27.51,23.56l1.3,0.75l-2.49,4.32l-1.3,-0.75z" fill="#000"/>
  <path d="M6.4,10.16l7.77,4.49l-2.49,4.32l-7.77,-4.49z" fill="#ffd47e"/>
  <path d="M14.17,14.65l11.23,6.48l-2.49,4.32l-11.23,-6.48z" fill="#fff"/>
  <path d="M25.83,21.38l1.28,0.74l-2.49,4.32l-1.28,-0.74z" fill="#666"/>
  <path d="M27.56,22.38l1.3,0.75l-2.49,4.32l-1.3,-0.75z" fill="#7b3b3b"/>
  <path d="m21.95,3.1c-5.71,10.27 16.06,12.52 6.42,18.73 1.84,-8.77 -20.49,-5.51 -6.42,-18.73z" fill="#000"/>
  <path d="m21.97,2.08c-5.71,10.27 16.06,12.52 6.42,18.73 1.84,-8.77 -20.49,-5.51 -6.42,-18.73z" fill="#666"/>
</svg>
