<?xml version="1.0" ?>
<svg xmlns="http://www.w3.org/2000/svg" width="34" height="34" viewBox="0 0 34 34">
  <path d="m33.87,16.93c0,9.35 -7.58,16.93 -16.93,16.93 -9.35,0 -16.93,-7.58 -16.93,-16.93 0,-9.35 7.58,-16.93 16.93,-16.93 9.35,0 16.93,7.58 16.93,16.93" fill="#ffdd55"/>
  <path d="m30.69,17.46c0,7.6 -6.16,13.76 -13.76,13.76 -7.6,0 -13.76,-6.16 -13.76,-13.76 0,-7.6 6.16,-13.76 13.76,-13.76 7.6,0 13.76,6.16 13.76,13.76" fill="#000" stroke-width="1"/>
  <path d="m30.16,16.4c0,7.31 -5.92,13.23 -13.23,13.23 -7.31,0 -13.23,-5.92 -13.23,-13.23 0,-7.31 5.92,-13.23 13.23,-13.23 7.31,0 13.23,5.92 13.23,13.23" fill="#c84747" stroke-width="1" stroke="#fff"/>
  <path d="M16.93,16.4m-9.46,0a9.46,9.46 0,1 1,18.92 0a9.46,9.46 0,1 1,-18.92 0" fill="#fff"/>
  <path d="m10.79,18.96a6.62,6.62 0,0 1,2.32 -7.56,6.62 6.62,0 0,1 7.91,0.07 6.62,6.62 0,0 1,2.18 7.61" fill="none" stroke-width="2" stroke="#444"/>
  <path d="m24.15,12.17 l-6.56,2.7c-0.6,-0.23 -1.26,-0.18 -1.82,0.14 -1.01,0.58 -1.36,1.88 -0.77,2.89 0.58,1.01 1.88,1.36 2.89,0.77 0.55,-0.32 0.93,-0.87 1.03,-1.5l5.63,-4.31z" fill="#444"/>
  <path d="m17.59,14.87 l6.56,-2.7 -1.4,-0.57 -4.63,1.92z" fill="#fff"/>
  <path d="m24.54,12.86 l-5.63,4.31 1.8,-0.13 4.15,-3.04z" fill="#fff"/>
</svg>
