<?xml version="1.0" ?>
<svg xmlns="http://www.w3.org/2000/svg" width="128" height="128" viewBox="0 0 128 128">
  <path d="m128,64c0,35.346 -28.654,64 -64,64s-64,-28.654 -64,-64 28.654,-64 64,-64 64,28.654 64,64" fill="#9bbe55" stroke-width=".2"/>
  <path d="m64,16c0,8.464 -31.855,47.229 -31.855,64 0,17.693 14.343,32.037 32.037,32.037 1.958,0 3.872,-0.185 5.732,-0.521 13.773,-1.942 25.489,-14.236 26.264,-29.867 0.001,-0.014 0.001,-0.027 0.002,-0.041 0.026,-0.532 0.039,-1.068 0.039,-1.607 0,-1.445 -0.235,-3.041 -0.633,-4.734 -3.731,-17.806 -22.607,-37.886 -31.586,-59.266z" fill="#000000FF" stroke-width="2.329"/>
  <path d="m96.131,75.996c0,17.693 -14.344,32.037 -32.037,32.037 -17.693,0 -32.037,-14.344 -32.037,-32.037 0,-16.771 31.854,-55.535 31.854,-63.998 0,8.176 32.218,46.364 32.218,63.998z" fill="#3581c8" stroke-width="2.3289042"/>
  <path d="m65.02,24.411c7.866,16.724 38.49,44.795 16.366,49.624 -22.124,4.83 -15.315,-35.921 -16.366,-49.624z" fill="#529add" stroke-width="2.3289042"/>
  <path d="m63.913,11.998c4.443,39.126 -15.874,95.324 3.677,95.744 15.207,-0.878 28.541,-14.486 28.541,-31.747 -0.885,-18.947 -22.435,-40.704 -32.218,-63.998z" fill="#529add" stroke-width="2.9593244"/>
  <path d="m66.309,27.042c7.866,16.724 26.264,35.041 13.018,36.671s-11.967,-22.966 -13.018,-36.671z" fill="#87bce1" stroke-width="2.3289042"/>
  <path d="m45.193,57.442c-21.894,24.649 -0.779,44.936 14.61,46.464 -6.528,-5.12 -22.662,-17.089 -14.61,-46.464z" fill="#2b68a3" stroke-width="2.3289042"/>
</svg>
