<?xml version="1.0" ?>
<svg xmlns="http://www.w3.org/2000/svg" width="128" height="128" viewBox="0 0 128 128">
  <path d="m128,64c0,35.35 -28.65,64 -64,64s-64,-28.65 -64,-64 28.65,-64 64,-64 64,28.65 64,64" fill="#e9a76f"/>
  <path d="m23,44s0,26 0.08,26.45c-5.41,0 -9.8,-4.39 -9.8,-9.8z" fill="#000"/>
  <path d="m111.28,60.65c0,5.41 -4.39,9.8 -9.8,9.8 -0.48,-0.45 1.52,-20.45 1.52,-20.45z" fill="#000"/>
  <path d="m16,96l92,0l0,-60l-92,0z" fill="#cb9781"/>
  <path d="M26,70l48,0l0,18l-48,0z" fill="#a4c1ee"/>
  <path d="M82,70l13,0l0,26l-13,0z" fill="#a4c1ee"/>
  <path d="M26,70l48,0l0,6l-48,0z" fill="#859dbf"/>
  <path d="M82,70l13,0l0,6l-13,0z" fill="#859dbf"/>
  <path d="M24,24l76,0l0,12l-76,0z" fill="#d6bdb1"/>
  <path d="m12.91,56.65 l8.09,-14.65l82,0l8.28,14.65z" fill="#c84747"/>
  <path d="m32.58,56.65c0,5.43 -4.4,9.84 -9.84,9.84s-9.84,-4.4 -9.84,-9.84z" fill="#9a2e2e"/>
  <path d="m52.26,56.65c0,5.43 -4.4,9.84 -9.84,9.84s-9.84,-4.4 -9.84,-9.84z" fill="#c8c8c8"/>
  <path d="m71.93,56.65c0,5.43 -4.4,9.84 -9.84,9.84s-9.84,-4.4 -9.84,-9.84z" fill="#9a2e2e"/>
  <path d="m91.61,56.65c0,5.43 -4.4,9.84 -9.84,9.84s-9.84,-4.4 -9.84,-9.84z" fill="#c8c8c8"/>
  <path d="m111.28,56.65c0,5.43 -4.4,9.84 -9.84,9.84s-9.84,-4.4 -9.84,-9.84z" fill="#9a2e2e"/>
  <path d="m32.58,56.65 l4.42,-14.65l17,0l-1.74,14.65z" fill="#fff"/>
  <path d="m71.93,56.65 l-1.93,-14.65l17,0l4.61,14.65z" fill="#fff"/>
  <path d="M16,96h92v4h-92z" fill="#000"/>
</svg>
