<?xml version="1.0" encoding="UTF-8"?>
<svg viewBox="0 0 15 15" version="1.1" xmlns="http://www.w3.org/2000/svg" xmlns:xlink="http://www.w3.org/1999/xlink">
  <path d="M4.58 2.38L5.25 4C6.08 5.98 6.5 8.1 6.5 10.25L6.5 13.5C6.5 13.78 6.28 14 6 14L1.5 14C1.22 14 1 13.78 1 13.5L1 1.5C1 1.22 1.22 1 1.5 1L2.5 1C3.41 1 4.23 1.55 4.58 2.38ZM10.42 2.38L9.75 4C8.92 5.98 8.5 8.1 8.5 10.25L8.5 13.5C8.5 13.78 8.72 14 9 14L13.5 14C13.78 14 14 13.78 14 13.5L14 1.5C14 1.22 13.78 1 13.5 1L12.5 1C11.59 1 10.77 1.55 10.42 2.38Z"/>
</svg>