<?xml version="1.0" ?>
<svg xmlns="http://www.w3.org/2000/svg" width="34" height="34" viewBox="0 0 34 34">
  <path d="m31.64,25.5c-4.68,8.1 -15.03,10.87 -23.13,6.2 -8.1,-4.68 -10.87,-15.03 -6.2,-23.13 4.68,-8.1 15.03,-10.87 23.13,-6.2 8.1,4.68 10.87,15.03 6.2,23.13" fill="#ffdd55"/>
  <path d="M15.37,4.32h3.22v29.63h-3.22z" fill="#666"/>
  <path d="M22.27,8.58L8.28,8.58l-4,3.5 4,3.5L22.27,15.57Z" fill="#000"/>
  <path d="M22.27,7.49L8.28,7.49l-4,3.5 4,3.5L22.27,14.49Z" fill="#fff"/>
  <path d="m12.51,19.19h13.99l4,3.5 -4,3.5 -13.99,0z" fill="#000"/>
  <path d="m12.51,18.08h13.99l4,3.5 -4,3.5L12.51,25.07Z" fill="#fff"/>
</svg>
