<svg xmlns="http://www.w3.org/2000/svg" width="16" height="16"><path d="M 7.5,7.0 C 7.3328,7.0 7.1767,7.0836 7.084,7.2227 C 6.1409,8.6373 4.1566,10.6316 2.1992,12.0996 C 1.8138,12.3881 2.0186,13.0011 2.5,13.0 L 13.5,13.0 C 13.9814,13.0011 14.1862,12.3881 13.8008,12.0996 C 11.8434,10.6316 9.8591,8.6373 8.916,7.2227 C 8.8233,7.0836 8.6672,7.0 8.5,7.0 L 7.5,7.0" fill="#000" /><path d="M 6.5,3.0 C 6.223,3.0 6.0,3.223 6.0,3.5 C 6.0,3.777 6.223,4.0 6.5,4.0 L 11.4492,4.0 C 11.7262,4.0 11.9492,3.777 11.9492,3.5 C 11.9492,3.223 11.7262,3.0 11.4492,3.0 L 6.5,3.0 M 7.5,5.0 C 7.223,5.0 7.0,5.223 7.0,5.5 C 7.0,5.777 7.223,6.0 7.5,6.0 L 8.5,6.0 C 8.777,6.0 9.0,5.777 9.0,5.5 C 9.0,5.223 8.777,5.0 8.5,5.0 L 7.5,5.0" fill="#000" /></svg>