<?xml version="1.0" encoding="UTF-8"?>
<svg version="1.1" xmlns="http://www.w3.org/2000/svg" xmlns:xlink="http://www.w3.org/1999/xlink" x="0" y="0" viewBox="0 0 15 15">
  <path d="M9 0.5C10 0.5 10 1 10 2L10 3.5C11.5 3.5 12.5 4.5 12.5 6L12.5 12C12.5 13 11.5 14 10 14L10 14.5L5 14.5L5 14C3.5 14 2.5 13 2.5 12L2.5 6C2.5 4.5 3.5 3.5 5 3.5C5 3.5 5 3 5 3C5 3 5.75 3 5.75 3C6 3 6 2.75 6 2.5L6 2C6 1.75 6 1.5 5.75 1.5L5 1.5C5 1 5 0.5 6 0.5L9 0.5zM8.5 1.5L7.5 1.5C7.25 1.5 7 1.75 7 2L7 2.5C7 2.75 7.25 3 7.5 3L8.5 3C8.75 3 9 2.75 9 2.5L9 2C9 1.75 8.75 1.5 8.5 1.5z"/>
</svg>