<svg xmlns="http://www.w3.org/2000/svg" width="16" height="16"><path d="M 3.5,2.0 C 3.236,2.0 3.02,2.204 3.0,2.463 L 2.957,3.0 L 2.5,3.0 C 2.223,3.0 2.0,3.224 2.0,3.5 C 2.0,3.776 2.223,4.0 2.499,4.0 L 2.873,4.0 L 2.79,5.0 L 2.5,5.0 C 2.223,5.001 2.0,5.224 2.0,5.5 C 2.0,5.776 2.223,5.999 2.499,6.0 L 2.707,6.0 L 2.623,7.0 L 2.5,7.0 C 2.223,7.001 2.0,7.224 2.0,7.5 C 2.0,7.776 2.223,7.999 2.499,8.0 L 2.54,8.0 L 2.002,14.453 C 2.0,14.468 2.0,14.484 2.0,14.5 C 2.0,14.776 2.224,15.0 2.5,15.0 C 2.764,15.0 2.98,14.796 3.0,14.537 L 3.543,8.0 L 11.457,8.0 L 12.0,14.537 C 12.02,14.796 12.236,15.0 12.5,15.0 C 12.776,15.0 13.0,14.776 13.0,14.5 C 13.0,14.484 13.0,14.468 12.998,14.453 L 12.46,8.0 L 12.5,8.0 C 12.777,7.999 13.0,7.776 13.0,7.5 C 13.0,7.224 12.777,7.001 12.501,7.0 L 12.377,7.0 L 12.293,6.0 L 12.5,6.0 C 12.777,5.999 13.0,5.776 13.0,5.5 C 13.0,5.224 12.777,5.001 12.501,5.0 L 12.21,5.0 L 12.127,4.0 L 12.5,4.0 C 12.777,4.0 13.0,3.776 13.0,3.5 C 13.0,3.224 12.777,3.0 12.501,3.0 L 12.043,3.0 L 12.0,2.463 C 11.98,2.204 11.764,2.0 11.5,2.0 C 11.224,2.0 11.0,2.224 11.0,2.5 C 11.0,2.516 11.0,2.532 11.002,2.547 L 11.04,3.0 L 3.96,3.0 L 3.998,2.547 C 4.0,2.532 4.0,2.516 4.0,2.5 C 4.0,2.224 3.776,2.0 3.5,2.0 M 3.793,5.0 L 3.877,4.0 L 11.123,4.0 L 11.207,5.0 L 3.793,5.0 M 3.627,7.0 L 3.71,6.0 L 11.29,6.0 L 11.373,7.0 L 3.627,7.0 M 5.5,8.5 C 5.224,8.5 5.0,8.724 5.0,9.0 L 5.0,10.0 C 5.0,10.276 5.224,10.5 5.5,10.5 C 5.776,10.5 6.0,10.276 6.0,10.0 L 6.0,9.0 C 6.0,8.724 5.776,8.5 5.5,8.5 M 9.5,8.5 C 9.224,8.5 9.0,8.724 9.0,9.0 L 9.0,10.0 C 9.0,10.276 9.224,10.5 9.5,10.5 C 9.776,10.5 10.0,10.276 10.0,10.0 L 10.0,9.0 C 10.0,8.724 9.776,8.5 9.5,8.5" fill="#000" /></svg>