<svg xmlns="http://www.w3.org/2000/svg" width="16" height="16"><path d="M 7.5,8.0 C 7.2847,7.9999 7.0935,8.1376 7.0254,8.3418 C 6.557,9.7469 5.616,11.1551 4.2227,12.084 C 3.8113,12.3585 4.0054,12.9998 4.5,13.0 L 11.5,13.0 C 11.9946,12.9998 12.1887,12.3585 11.7773,12.084 C 10.384,11.1551 9.443,9.7469 8.9746,8.3418 C 8.9065,8.1376 8.7153,7.9999 8.5,8.0 L 7.5,8.0" fill="#000" /><path d="M 6.5,4.0 C 6.223,4.0 6.0,4.223 6.0,4.5 C 6.0,4.777 6.223,5.0 6.5,5.0 L 11.4492,5.0 C 11.7262,5.0 11.9492,4.777 11.9492,4.5 C 11.9492,4.223 11.7262,4.0 11.4492,4.0 L 6.5,4.0 M 7.5,6.0 C 7.223,6.0 7.0,6.223 7.0,6.5 C 7.0,6.777 7.223,7.0 7.5,7.0 L 8.5,7.0 C 8.777,7.0 9.0,6.777 9.0,6.5 C 9.0,6.223 8.777,6.0 8.5,6.0 L 7.5,6.0" fill="#000" /></svg>