<svg xmlns="http://www.w3.org/2000/svg" width="16" height="16"><path d="M 6.5,2.0 C 6.223,2.0 6.0,2.223 6.0,2.5 L 6.0,3.5 C 6.0,3.777 6.223,4.0 6.5,4.0 L 7.0,4.0 L 7.0,12.0 L 6.5,12.0 C 6.223,12.0 6.0,12.223 6.0,12.5 L 6.0,13.0 L 4.5,13.0 C 4.223,13.0 4.0,13.223 4.0,13.5 C 4.0,13.777 4.223,14.0 4.5,14.0 L 11.5,14.0 C 11.777,14.0 12.0,13.777 12.0,13.5 C 12.0,13.223 11.777,13.0 11.5,13.0 L 10.0,13.0 L 10.0,12.5 C 10.0,12.223 9.777,12.0 9.5,12.0 L 9.0,12.0 L 9.0,4.0 L 9.5,4.0 C 9.777,4.0 10.0,3.777 10.0,3.5 L 10.0,2.5 C 10.0,2.223 9.777,2.0 9.5,2.0 L 6.5,2.0" fill="#000" /></svg>