<?xml version="1.0" ?>
<svg xmlns="http://www.w3.org/2000/svg" width="128" height="128" viewBox="0 0 128 128">
  <path d="M119.416,95.995C101.746,126.6 62.611,137.087 32.005,119.416 1.4,101.746 -9.087,62.611 8.584,32.005 26.254,1.4 65.389,-9.087 95.995,8.584 126.6,26.254 137.087,65.389 119.416,95.995" fill="#9bbe55" stroke-width="0.19996688"/>
  <path d="M36.457,23.894L91.418,23.894A8.457,8.483 0,0 1,99.876 32.377L99.876,95.517A8.457,8.483 0,0 1,91.418 104.001L36.457,104.001A8.457,8.483 0,0 1,27.999 95.517L27.999,32.377A8.457,8.483 0,0 1,36.457 23.894z" fill="none" stroke-width="7.99849367" stroke="#000"/>
  <path d="M36.582,19.999L91.543,19.999A8.457,8.483 0,0 1,100.001 28.483L100.001,91.623A8.457,8.483 0,0 1,91.543 100.106L36.582,100.106A8.457,8.483 0,0 1,28.124 91.623L28.124,28.483A8.457,8.483 0,0 1,36.582 19.999z" fill="#495aad" stroke-width="7.99849367" stroke="#fff"/>
  <path d="M78.554,88H52v-5.063c2.853,-0.069 4.799,-0.838 5.138,-3.684V69.964C56.84,66.511 54.019,65.711 51.155,65.198v-7.659l21.754,-0.879 0.507,0.507v21.646c0.084,2.355 1.568,3.137 3.448,3.786 0.541,0.158 1.104,0.27 1.69,0.338z" fill="#fff"/>
  <path d="M64.806,41.218m-9.925,0a9.925,9.925 0,1 1,19.849 0a9.925,9.925 0,1 1,-19.849 0" fill="#fff"/>
</svg>
