<svg xmlns="http://www.w3.org/2000/svg" width="16" height="16"><path d="M 7.5,7.0 C 7.3328,7.0 7.1767,7.0836 7.084,7.2227 C 6.1409,8.6373 4.1566,10.6316 2.1992,12.0996 C 1.8138,12.3881 2.0186,13.0011 2.5,13.0 L 13.5,13.0 C 13.9814,13.0011 14.1862,12.3881 13.8008,12.0996 C 11.8434,10.6316 9.8591,8.6373 8.916,7.2227 C 8.8233,7.0836 8.6672,7.0 8.5,7.0 L 7.5,7.0" fill="#000" /><path d="M 7.5,3.0 C 7.223,3.0 7.0,3.223 7.0,3.5 C 7.0,3.777 7.223,4.0 7.5,4.0 L 8.5,4.0 C 8.777,4.0 9.0,4.223 9.0,4.5 C 9.0,4.777 8.777,5.0 8.5,5.0 C 8.223,5.0 8.0,5.223 8.0,5.5 C 8.0,5.777 8.223,6.0 8.5,6.0 L 9.5,6.0 C 9.777,6.0 10.0,5.777 10.0,5.5 C 10.0,5.223 10.223,5.0 10.5,5.0 L 12.5,5.0 C 12.777,5.0 13.0,4.777 13.0,4.5 C 13.0,4.223 13.223,4.0 13.5,4.0 L 14.5,4.0 C 14.777,4.0 15.0,3.777 15.0,3.5 C 15.0,3.223 14.777,3.0 14.5,3.0 L 7.5,3.0" fill="#000" /></svg>