<?xml version="1.0" ?>
<svg xmlns="http://www.w3.org/2000/svg" width="128.0" height="128.0" viewBox="0 0 128.0 128.0">
  <path d="M64,64m-64,0a64,64 0,1 1,128 0a64,64 0,1 1,-128 0" fill="#aaa"/>
  <path d="m31.99,32.08v87.27a64,64 0,0 0,16 6.53V32.08Z" fill="#666"/>
  <path d="m79.99,32.08v93.84a64,64 0,0 0,16 -6.58V32.08Z" fill="#666"/>
  <path d="m23.99,44.08c-4.46,0 -8.04,3.59 -8.04,8.04v31.91c0,4.46 3.59,8.04 8.04,8.04h79.91c4.46,0 8.04,-3.59 8.04,-8.04V52.12c0,-4.46 -3.59,-8.04 -8.04,-8.04z" fill="#000"/>
  <path d="M24.04,40.08L103.95,40.08A8.04,8.04 0,0 1,111.99 48.12L111.99,80.04A8.04,8.04 0,0 1,103.95 88.08L24.04,88.08A8.04,8.04 0,0 1,15.99 80.04L15.99,48.12A8.04,8.04 0,0 1,24.04 40.08z" fill="#555"/>
  <path d="m23.99,40.08c-3.82,0 -6.99,2.65 -7.79,6.21L44.94,88.08L59.09,88.08l-32.33,-48zM40.61,40.08 L72.94,88.08L87.09,88.08l-32.33,-48zM68.61,40.08 L100.94,88.08h3.05c3.69,0 6.78,-2.48 7.71,-5.87L82.75,40.08ZM96.61,40.08 L111.99,62.08v-14c0,-4.43 -3.57,-8 -8,-8zM15.99,66.08v14c0,4.43 3.57,8 8,8h7.09z" fill="#ffe94c" stroke-width="4"/>
  <path d="M24.03,40.08L103.95,40.08A8.04,8.04 0,0 1,111.99 48.12L111.99,80.04A8.04,8.04 0,0 1,103.95 88.08L24.03,88.08A8.04,8.04 0,0 1,15.99 80.04L15.99,48.12A8.04,8.04 0,0 1,24.03 40.08z" fill="none" stroke-width="4" stroke="#555"/>
</svg>
