<?xml version="1.0" ?>
<svg xmlns="http://www.w3.org/2000/svg" width="128" height="128" viewBox="0 0 128 128">
  <path d="m128,64c0,35.346 -28.654,64 -64,64s-64,-28.654 -64,-64 28.654,-64 64,-64 64,28.654 64,64" fill="#529add"/>
  <path d="m39.99,120v-16h24v-16h24v-16h24" fill="none" stroke-width="8" stroke="#000"/>
  <path d="m43.272,55.529c-0.068,-7.573 5.492,-11.485 13.801,-14.828 5.956,5.09 11.023,15.172 18.915,3.301m-25.983,44c6.495,-12.989 2.996,-20.279 7.068,-29.883 10.305,7.791 17.174,-0.718 14.915,17.882m-14.915,-35.3c-1.427,5.412 -0.352,12.663 0.657,18.075" fill="none" stroke-linejoin="round" stroke-linecap="round" stroke-width="8" stroke="#000"/>
  <path d="m68.699,25.265a8.548,8.548 0,0 1,-8.548 8.548,8.548 8.548,0 0,1 -8.548,-8.548 8.548,8.548 0,0 1,8.548 -8.548,8.548 8.548,0 0,1 8.548,8.548" fill="#000"/>
  <path d="m39.99,116v-16h24v-16h24v-16h24" fill="none" stroke-width="8" stroke="#fff"/>
  <path d="m68.699,21.265a8.548,8.548 0,0 1,-8.548 8.548,8.548 8.548,0 0,1 -8.548,-8.548 8.548,8.548 0,0 1,8.548 -8.548,8.548 8.548,0 0,1 8.548,8.548" fill="#fff"/>
  <path d="m43.284,51.527c-0.068,-7.573 5.492,-11.485 13.801,-14.828 5.956,5.09 11.023,15.172 18.915,3.301m-25.983,44c6.495,-12.989 2.996,-20.279 7.068,-29.883 10.305,7.791 17.174,-0.718 14.915,17.882m-14.915,-35.3c-1.427,5.412 -0.352,12.663 0.657,18.075" fill="none" stroke-linejoin="round" stroke-linecap="round" stroke-width="8" stroke="#fff"/>
</svg>
