<?xml version="1.0" encoding="UTF-8"?>
<!--Generator: Apple Native CoreSVG 326-->
<!DOCTYPE svg
PUBLIC "-//W3C//DTD SVG 1.1//EN"
       "http://www.w3.org/Graphics/SVG/1.1/DTD/svg11.dtd">
<svg version="1.1" xmlns="http://www.w3.org/2000/svg" xmlns:xlink="http://www.w3.org/1999/xlink" viewBox="0 0 20.9912 20.6348">
 <g>
  <rect height="20.6348" opacity="0" width="20.9912" x="0" y="0"/>
  <path d="M10.3125 20.625C16.0107 20.625 20.6299 16.0059 20.6299 10.3125C20.6299 4.61914 16.0107 0 10.3125 0C4.61914 0 0 4.61914 0 10.3125C0 16.0059 4.61914 20.625 10.3125 20.625ZM10.3125 18.0566C6.03027 18.0566 2.56836 14.5947 2.56836 10.3125C2.56836 6.03027 6.03027 2.56836 10.3125 2.56836C14.5947 2.56836 18.0615 6.03027 18.0615 10.3125C18.0615 14.5947 14.5947 18.0566 10.3125 18.0566Z" fill="black" fill-opacity="0.85"/>
  <path d="M6.59668 15.0342L11.8945 12.6611C12.251 12.4951 12.5 12.2461 12.666 11.8945L15.0293 6.61133C15.3662 5.83008 14.7998 5.24414 14.0039 5.5957L8.73047 7.95898C8.37402 8.11523 8.13477 8.34961 7.96387 8.72559L5.58594 14.0186C5.25391 14.7852 5.84473 15.3662 6.59668 15.0342ZM10.3125 11.6406C9.58496 11.6406 9.00391 11.0547 9.00391 10.3271C9.00391 9.60938 9.58496 9.01367 10.3125 9.01367C11.0352 9.01367 11.626 9.60938 11.626 10.3271C11.626 11.0547 11.0352 11.6406 10.3125 11.6406Z" fill="black" fill-opacity="0.85"/>
 </g>
</svg>
