<svg xmlns="http://www.w3.org/2000/svg" width="16" height="16"><path d="M 6.5,2.0 C 6.374,2.0 6.26,2.046 6.173,2.122 L 2.677,5.118 C 2.569,5.21 2.5,5.347 2.5,5.5 C 2.5,5.776 2.723,5.999 3.0,6.0 L 6.0,6.0 L 6.0,7.27 L 2.677,10.118 C 2.569,10.21 2.5,10.347 2.5,10.5 C 2.5,10.776 2.723,11.0 3.0,11.0 L 5.691,11.0 L 4.057,14.267 C 4.021,14.337 4.0,14.416 4.0,14.5 C 4.0,14.776 4.224,15.0 4.5,15.0 C 4.7,15.0 4.872,14.883 4.952,14.714 L 5.309,14.0 L 9.691,14.0 L 10.048,14.714 C 10.128,14.883 10.3,15.0 10.5,15.0 C 10.776,15.0 11.0,14.776 11.0,14.5 C 11.0,14.416 10.979,14.337 10.943,14.267 L 9.309,11.0 L 12.0,11.0 C 12.277,11.0 12.5,10.776 12.5,10.5 C 12.5,10.347 12.431,10.21 12.323,10.118 L 9.0,7.27 L 9.0,2.501 C 9.0,2.224 8.777,2.0 8.501,2.0 L 6.5,2.0 M 7.0,5.0 L 7.0,3.0 L 8.0,3.0 L 8.0,5.0 L 7.0,5.0 M 4.352,5.0 L 6.0,3.587 L 6.0,5.0 L 4.352,5.0 M 7.0,7.0 L 7.0,6.0 L 8.0,6.0 L 8.0,7.0 L 7.0,7.0 M 7.0,10.0 L 7.0,8.0 L 8.0,8.0 L 8.0,10.0 L 7.0,10.0 M 4.352,10.0 L 6.0,8.587 L 6.0,10.0 L 4.352,10.0 M 9.0,10.0 L 9.0,8.587 L 10.648,10.0 L 9.0,10.0 M 5.809,13.0 L 6.809,11.0 L 8.191,11.0 L 9.191,13.0 L 5.809,13.0" fill="#000" /></svg>