<?xml version="1.0" encoding="UTF-8"?>
<svg version="1.1" xmlns="http://www.w3.org/2000/svg" xmlns:xlink="http://www.w3.org/1999/xlink" viewBox="0 0 15 15">
  <path d="M1 3.5L5 3.5L5 11.5L1 11.5zM10 8.5C9 8.5 8.5 9.5 8 9.5C7.5 9.5 7 8.5 6 8.5C6 8.5 6 9.5 6 9.5C6.5 9.5 7 10.5 8 10.5C9 10.5 9.5 9.5 10 9.5C10.5 9.5 11 10.5 12 10.5C13 10.5 13.5 9.5 14 9.5C14 9.5 14 8.5 14 8.5C13 8.5 12.5 9.5 12 9.5C11.5 9.5 11 8.5 10 8.5zM14 6.5C13 6.5 12.5 7.5 12 7.5C11.5 7.5 11 6.5 10 6.5C9 6.5 8.5 7.5 8 7.5C7.5 7.5 7 6.5 6 6.5C6 6.5 6 7.5 6 7.5C6.5 7.5 7 8.5 8 8.5C9 8.5 9.5 7.5 10 7.5C10.5 7.5 11 8.5 12 8.5C13 8.5 13.5 7.5 14 7.5C14 7.5 14 6.5 14 6.5"/>
</svg>