<?xml version="1.0" encoding="UTF-8"?>
<!--Generator: Apple Native CoreSVG 123-->
<!DOCTYPE svg
PUBLIC "-//W3C//DTD SVG 1.1//EN"
       "http://www.w3.org/Graphics/SVG/1.1/DTD/svg11.dtd">
<svg version="1.1" xmlns="http://www.w3.org/2000/svg" xmlns:xlink="http://www.w3.org/1999/xlink" width="3300" height="2200">
 <!--glyph: "uni1002D1.medium", point size: 100.000000, font version: "Version 15.0d7e11", template writer version: "5"-->
 <g id="Notes">
  <rect height="2200" id="artboard" style="fill:white;opacity:1" width="3300" x="0" y="0"/>
  <line id="" style="fill:none;stroke:black;opacity:1;stroke-width:0.5;" x1="263" x2="3036" y1="292" y2="292"/>
  <text style="stroke:none;fill:black;font-family:-apple-system,&quot;SF Pro Display&quot;,&quot;SF Pro Text&quot;,Helvetica,sans-serif;font-weight:bold;" transform="matrix(1 0 0 1 263 322)">Weight/Scale Variations</text>
  <text style="stroke:none;fill:black;font-family:-apple-system,&quot;SF Pro Display&quot;,&quot;SF Pro Text&quot;,Helvetica,sans-serif;text-anchor:middle;" transform="matrix(1 0 0 1 559.711 322)">Ultralight</text>
  <text style="stroke:none;fill:black;font-family:-apple-system,&quot;SF Pro Display&quot;,&quot;SF Pro Text&quot;,Helvetica,sans-serif;text-anchor:middle;" transform="matrix(1 0 0 1 856.422 322)">Thin</text>
  <text style="stroke:none;fill:black;font-family:-apple-system,&quot;SF Pro Display&quot;,&quot;SF Pro Text&quot;,Helvetica,sans-serif;text-anchor:middle;" transform="matrix(1 0 0 1 1153.13 322)">Light</text>
  <text style="stroke:none;fill:black;font-family:-apple-system,&quot;SF Pro Display&quot;,&quot;SF Pro Text&quot;,Helvetica,sans-serif;text-anchor:middle;" transform="matrix(1 0 0 1 1449.84 322)">Regular</text>
  <text style="stroke:none;fill:black;font-family:-apple-system,&quot;SF Pro Display&quot;,&quot;SF Pro Text&quot;,Helvetica,sans-serif;text-anchor:middle;" transform="matrix(1 0 0 1 1746.56 322)">Medium</text>
  <text style="stroke:none;fill:black;font-family:-apple-system,&quot;SF Pro Display&quot;,&quot;SF Pro Text&quot;,Helvetica,sans-serif;text-anchor:middle;" transform="matrix(1 0 0 1 2043.27 322)">Semibold</text>
  <text style="stroke:none;fill:black;font-family:-apple-system,&quot;SF Pro Display&quot;,&quot;SF Pro Text&quot;,Helvetica,sans-serif;text-anchor:middle;" transform="matrix(1 0 0 1 2339.98 322)">Bold</text>
  <text style="stroke:none;fill:black;font-family:-apple-system,&quot;SF Pro Display&quot;,&quot;SF Pro Text&quot;,Helvetica,sans-serif;text-anchor:middle;" transform="matrix(1 0 0 1 2636.69 322)">Heavy</text>
  <text style="stroke:none;fill:black;font-family:-apple-system,&quot;SF Pro Display&quot;,&quot;SF Pro Text&quot;,Helvetica,sans-serif;text-anchor:middle;" transform="matrix(1 0 0 1 2933.4 322)">Black</text>
  <line id="" style="fill:none;stroke:black;opacity:1;stroke-width:0.5;" x1="263" x2="3036" y1="1903" y2="1903"/>
  <g id="" transform="matrix(1 0 0 1 263 1933)">
   <path d="M 9.24805 0.830078 C 13.5547 0.830078 17.1387 -2.74414 17.1387 -7.05078 C 17.1387 -11.3574 13.5449 -14.9316 9.23828 -14.9316 C 4.94141 -14.9316 1.36719 -11.3574 1.36719 -7.05078 C 1.36719 -2.74414 4.95117 0.830078 9.24805 0.830078 Z M 9.24805 -0.654297 C 5.70312 -0.654297 2.87109 -3.49609 2.87109 -7.05078 C 2.87109 -10.6055 5.69336 -13.4473 9.23828 -13.4473 C 12.793 -13.4473 15.6348 -10.6055 15.6445 -7.05078 C 15.6543 -3.49609 12.8027 -0.654297 9.24805 -0.654297 Z M 9.22852 -3.42773 C 9.69727 -3.42773 9.9707 -3.74023 9.9707 -4.25781 L 9.9707 -6.31836 L 12.1973 -6.31836 C 12.6953 -6.31836 13.0371 -6.57227 13.0371 -7.04102 C 13.0371 -7.51953 12.7148 -7.7832 12.1973 -7.7832 L 9.9707 -7.7832 L 9.9707 -10.0098 C 9.9707 -10.5273 9.69727 -10.8496 9.22852 -10.8496 C 8.75977 -10.8496 8.50586 -10.5078 8.50586 -10.0098 L 8.50586 -7.7832 L 6.29883 -7.7832 C 5.78125 -7.7832 5.44922 -7.51953 5.44922 -7.04102 C 5.44922 -6.57227 5.80078 -6.31836 6.29883 -6.31836 L 8.50586 -6.31836 L 8.50586 -4.25781 C 8.50586 -3.75977 8.75977 -3.42773 9.22852 -3.42773 Z"/>
  </g>
  <g id="" transform="matrix(1 0 0 1 281.506 1933)">
   <path d="M 11.709 2.91016 C 17.1582 2.91016 21.6699 -1.60156 21.6699 -7.05078 C 21.6699 -12.4902 17.1484 -17.0117 11.6992 -17.0117 C 6.25977 -17.0117 1.74805 -12.4902 1.74805 -7.05078 C 1.74805 -1.60156 6.26953 2.91016 11.709 2.91016 Z M 11.709 1.25 C 7.09961 1.25 3.41797 -2.44141 3.41797 -7.05078 C 3.41797 -11.6504 7.08984 -15.3516 11.6992 -15.3516 C 16.3086 -15.3516 20 -11.6504 20.0098 -7.05078 C 20.0195 -2.44141 16.3184 1.25 11.709 1.25 Z M 11.6895 -2.41211 C 12.207 -2.41211 12.5195 -2.77344 12.5195 -3.33984 L 12.5195 -6.23047 L 15.5762 -6.23047 C 16.123 -6.23047 16.5039 -6.51367 16.5039 -7.03125 C 16.5039 -7.55859 16.1426 -7.86133 15.5762 -7.86133 L 12.5195 -7.86133 L 12.5195 -10.9277 C 12.5195 -11.5039 12.207 -11.8555 11.6895 -11.8555 C 11.1719 -11.8555 10.8789 -11.4844 10.8789 -10.9277 L 10.8789 -7.86133 L 7.83203 -7.86133 C 7.26562 -7.86133 6.89453 -7.55859 6.89453 -7.03125 C 6.89453 -6.51367 7.28516 -6.23047 7.83203 -6.23047 L 10.8789 -6.23047 L 10.8789 -3.33984 C 10.8789 -2.79297 11.1719 -2.41211 11.6895 -2.41211 Z"/>
  </g>
  <g id="" transform="matrix(1 0 0 1 304.924 1933)">
   <path d="M 14.9707 5.67383 C 21.9336 5.67383 27.6953 -0.078125 27.6953 -7.04102 C 27.6953 -14.0039 21.9238 -19.7559 14.9609 -19.7559 C 8.00781 -19.7559 2.25586 -14.0039 2.25586 -7.04102 C 2.25586 -0.078125 8.01758 5.67383 14.9707 5.67383 Z M 14.9707 3.85742 C 8.93555 3.85742 4.08203 -1.00586 4.08203 -7.04102 C 4.08203 -13.0762 8.92578 -17.9395 14.9609 -17.9395 C 21.0059 -17.9395 25.8594 -13.0762 25.8691 -7.04102 C 25.8789 -1.00586 21.0156 3.85742 14.9707 3.85742 Z M 14.9512 -1.06445 C 15.5176 -1.06445 15.8691 -1.45508 15.8691 -2.06055 L 15.8691 -6.13281 L 20.1074 -6.13281 C 20.6934 -6.13281 21.1133 -6.46484 21.1133 -7.02148 C 21.1133 -7.59766 20.7227 -7.93945 20.1074 -7.93945 L 15.8691 -7.93945 L 15.8691 -12.1875 C 15.8691 -12.8027 15.5176 -13.1934 14.9512 -13.1934 C 14.3848 -13.1934 14.0625 -12.7832 14.0625 -12.1875 L 14.0625 -7.93945 L 9.83398 -7.93945 C 9.21875 -7.93945 8.80859 -7.59766 8.80859 -7.02148 C 8.80859 -6.46484 9.23828 -6.13281 9.83398 -6.13281 L 14.0625 -6.13281 L 14.0625 -2.06055 C 14.0625 -1.47461 14.3848 -1.06445 14.9512 -1.06445 Z"/>
  </g>
  <text style="stroke:none;fill:black;font-family:-apple-system,&quot;SF Pro Display&quot;,&quot;SF Pro Text&quot;,Helvetica,sans-serif;font-weight:bold;" transform="matrix(1 0 0 1 263 1953)">Design Variations</text>
  <text style="stroke:none;fill:black;font-family:-apple-system,&quot;SF Pro Display&quot;,&quot;SF Pro Text&quot;,Helvetica,sans-serif;" transform="matrix(1 0 0 1 263 1971)">Symbols are supported in up to nine weights and three scales.</text>
  <text style="stroke:none;fill:black;font-family:-apple-system,&quot;SF Pro Display&quot;,&quot;SF Pro Text&quot;,Helvetica,sans-serif;" transform="matrix(1 0 0 1 263 1989)">For optimal layout with text and other symbols, vertically align</text>
  <text style="stroke:none;fill:black;font-family:-apple-system,&quot;SF Pro Display&quot;,&quot;SF Pro Text&quot;,Helvetica,sans-serif;" transform="matrix(1 0 0 1 263 2007)">symbols with the adjacent text.</text>
  <rect height="14" id="" style="fill:#00AEEF;stroke:none;opacity:0.4;" width="3" x="776" y="1919"/>
  <g id="" transform="matrix(1 0 0 1 779 1933)">
   <path d="M 10.5273 0 L 12.373 0 L 7.17773 -14.0918 L 5.43945 -14.0918 L 0.244141 0 L 2.08984 0 L 3.50586 -4.0332 L 9.11133 -4.0332 Z M 6.2793 -11.9531 L 6.33789 -11.9531 L 8.59375 -5.52734 L 4.02344 -5.52734 Z"/>
  </g>
  <rect height="14" id="" style="fill:#00AEEF;stroke:none;opacity:0.4;" width="3" x="791.617" y="1919"/>
  <text style="stroke:none;fill:black;font-family:-apple-system,&quot;SF Pro Display&quot;,&quot;SF Pro Text&quot;,Helvetica,sans-serif;font-weight:bold;" transform="matrix(1 0 0 1 776 1953)">Margins</text>
  <text style="stroke:none;fill:black;font-family:-apple-system,&quot;SF Pro Display&quot;,&quot;SF Pro Text&quot;,Helvetica,sans-serif;" transform="matrix(1 0 0 1 776 1971)">Leading and trailing margins on the left and right side of each symbol</text>
  <text style="stroke:none;fill:black;font-family:-apple-system,&quot;SF Pro Display&quot;,&quot;SF Pro Text&quot;,Helvetica,sans-serif;" transform="matrix(1 0 0 1 776 1989)">can be adjusted by modifying the width of the blue rectangles.</text>
  <text style="stroke:none;fill:black;font-family:-apple-system,&quot;SF Pro Display&quot;,&quot;SF Pro Text&quot;,Helvetica,sans-serif;" transform="matrix(1 0 0 1 776 2007)">Modifications are automatically applied proportionally to all</text>
  <text style="stroke:none;fill:black;font-family:-apple-system,&quot;SF Pro Display&quot;,&quot;SF Pro Text&quot;,Helvetica,sans-serif;" transform="matrix(1 0 0 1 776 2025)">scales and weights.</text>
  <g id="" transform="matrix(1 0 0 1 1289 1933)">
   <path d="M 2.83203 3.11523 L 4.375 4.6582 C 5.22461 5.48828 6.19141 5.41992 7.06055 4.46289 L 17.2754 -6.66016 C 17.7051 -6.36719 18.0957 -6.37695 18.5645 -6.47461 L 19.6094 -6.68945 L 20.3027 -5.99609 L 20.2539 -5.47852 C 20.1855 -4.95117 20.3516 -4.53125 20.8496 -4.0332 L 21.6602 -3.22266 C 22.168 -2.71484 22.8223 -2.68555 23.3008 -3.16406 L 26.5527 -6.41602 C 27.0312 -6.89453 27.0117 -7.54883 26.5039 -8.05664 L 25.6836 -8.87695 C 25.1855 -9.375 24.7754 -9.55078 24.2383 -9.47266 L 23.7109 -9.41406 L 23.0566 -10.0781 L 23.3398 -11.2207 C 23.4863 -11.7871 23.3398 -12.2559 22.7148 -12.8613 L 20.3027 -15.2539 C 16.7578 -18.7793 12.2266 -18.6719 9.11133 -15.5371 C 8.69141 -15.1074 8.64258 -14.5215 8.91602 -14.0918 C 9.15039 -13.7207 9.62891 -13.4961 10.2734 -13.6621 C 11.7871 -14.043 13.3008 -13.9258 14.7852 -12.9199 L 14.1602 -11.3379 C 13.9258 -10.752 13.9453 -10.2734 14.1797 -9.83398 L 3.01758 0.439453 C 2.08008 1.30859 1.97266 2.25586 2.83203 3.11523 Z M 10.6738 -15.1465 C 13.3398 -17.1387 16.6504 -16.8262 19.0527 -14.4141 L 21.6797 -11.8066 C 21.9141 -11.5723 21.9434 -11.3867 21.8848 -11.0938 L 21.5039 -9.53125 L 23.0762 -7.95898 L 24.043 -8.04688 C 24.3262 -8.07617 24.4141 -8.05664 24.6387 -7.83203 L 25.2637 -7.20703 L 22.5098 -4.46289 L 21.8848 -5.07812 C 21.6602 -5.30273 21.6406 -5.40039 21.6699 -5.68359 L 21.7578 -6.64062 L 20.1953 -8.20312 L 18.5742 -7.89062 C 18.291 -7.83203 18.1445 -7.83203 17.9102 -8.07617 L 15.7324 -10.2539 C 15.5078 -10.4883 15.4785 -10.625 15.6055 -10.9473 L 16.5527 -13.2227 C 14.9512 -14.7559 12.8418 -15.6055 10.8008 -14.9512 C 10.7129 -14.9219 10.6445 -14.9414 10.6152 -14.9805 C 10.5859 -15.0293 10.5859 -15.0781 10.6738 -15.1465 Z M 4.10156 2.41211 C 3.61328 1.91406 3.78906 1.61133 4.12109 1.30859 L 15.0781 -8.80859 L 16.3086 -7.57812 L 6.15234 3.34961 C 5.84961 3.68164 5.46875 3.7793 5.06836 3.37891 Z"/>
  </g>
  <text style="stroke:none;fill:black;font-family:-apple-system,&quot;SF Pro Display&quot;,&quot;SF Pro Text&quot;,Helvetica,sans-serif;font-weight:bold;" transform="matrix(1 0 0 1 1289 1953)">Exporting</text>
  <text style="stroke:none;fill:black;font-family:-apple-system,&quot;SF Pro Display&quot;,&quot;SF Pro Text&quot;,Helvetica,sans-serif;" transform="matrix(1 0 0 1 1289 1971)">Symbols should be outlined when exporting to ensure the</text>
  <text style="stroke:none;fill:black;font-family:-apple-system,&quot;SF Pro Display&quot;,&quot;SF Pro Text&quot;,Helvetica,sans-serif;" transform="matrix(1 0 0 1 1289 1989)">design is preserved when submitting to Xcode.</text>
  <text id="template-version" style="stroke:none;fill:black;font-family:-apple-system,&quot;SF Pro Display&quot;,&quot;SF Pro Text&quot;,Helvetica,sans-serif;text-anchor:end;" transform="matrix(1 0 0 1 3036 1933)">Template v.1.0</text>
  <text style="stroke:none;fill:black;font-family:-apple-system,&quot;SF Pro Display&quot;,&quot;SF Pro Text&quot;,Helvetica,sans-serif;text-anchor:end;" transform="matrix(1 0 0 1 3036 1951)">Generated from location</text>
  <text style="stroke:none;fill:black;font-family:-apple-system,&quot;SF Pro Display&quot;,&quot;SF Pro Text&quot;,Helvetica,sans-serif;text-anchor:end;" transform="matrix(1 0 0 1 3036 1969)">Typeset at 100 points</text>
  <text style="stroke:none;fill:black;font-family:-apple-system,&quot;SF Pro Display&quot;,&quot;SF Pro Text&quot;,Helvetica,sans-serif;" transform="matrix(1 0 0 1 263 726)">Small</text>
  <text style="stroke:none;fill:black;font-family:-apple-system,&quot;SF Pro Display&quot;,&quot;SF Pro Text&quot;,Helvetica,sans-serif;" transform="matrix(1 0 0 1 263 1156)">Medium</text>
  <text style="stroke:none;fill:black;font-family:-apple-system,&quot;SF Pro Display&quot;,&quot;SF Pro Text&quot;,Helvetica,sans-serif;" transform="matrix(1 0 0 1 263 1586)">Large</text>
 </g>
 <g id="Guides">
  <g id="H-reference" style="fill:#27AAE1;stroke:none;" transform="matrix(1 0 0 1 339 696)">
   <path d="M 54.9316 0 L 57.666 0 L 30.5664 -70.459 L 28.0762 -70.459 L 0.976562 0 L 3.66211 0 L 12.9395 -24.4629 L 45.7031 -24.4629 Z M 29.1992 -67.0898 L 29.4434 -67.0898 L 44.8242 -26.709 L 13.8184 -26.709 Z"/>
  </g>
  <line id="Baseline-S" style="fill:none;stroke:#27AAE1;opacity:1;stroke-width:0.577;" x1="263" x2="3036" y1="696" y2="696"/>
  <line id="Capline-S" style="fill:none;stroke:#27AAE1;opacity:1;stroke-width:0.577;" x1="263" x2="3036" y1="625.541" y2="625.541"/>
  <g id="H-reference" style="fill:#27AAE1;stroke:none;" transform="matrix(1 0 0 1 339 1126)">
   <path d="M 54.9316 0 L 57.666 0 L 30.5664 -70.459 L 28.0762 -70.459 L 0.976562 0 L 3.66211 0 L 12.9395 -24.4629 L 45.7031 -24.4629 Z M 29.1992 -67.0898 L 29.4434 -67.0898 L 44.8242 -26.709 L 13.8184 -26.709 Z"/>
  </g>
  <line id="Baseline-M" style="fill:none;stroke:#27AAE1;opacity:1;stroke-width:0.577;" x1="263" x2="3036" y1="1126" y2="1126"/>
  <line id="Capline-M" style="fill:none;stroke:#27AAE1;opacity:1;stroke-width:0.577;" x1="263" x2="3036" y1="1055.54" y2="1055.54"/>
  <g id="H-reference" style="fill:#27AAE1;stroke:none;" transform="matrix(1 0 0 1 339 1556)">
   <path d="M 54.9316 0 L 57.666 0 L 30.5664 -70.459 L 28.0762 -70.459 L 0.976562 0 L 3.66211 0 L 12.9395 -24.4629 L 45.7031 -24.4629 Z M 29.1992 -67.0898 L 29.4434 -67.0898 L 44.8242 -26.709 L 13.8184 -26.709 Z"/>
  </g>
  <line id="Baseline-L" style="fill:none;stroke:#27AAE1;opacity:1;stroke-width:0.577;" x1="263" x2="3036" y1="1556" y2="1556"/>
  <line id="Capline-L" style="fill:none;stroke:#27AAE1;opacity:1;stroke-width:0.577;" x1="263" x2="3036" y1="1485.54" y2="1485.54"/>
  <rect height="119.336" id="left-margin" style="fill:#00AEEF;stroke:none;opacity:0.4;" width="7.4707" x="1389.44" y="1030.79"/>
  <rect height="119.336" id="right-margin" style="fill:#00AEEF;stroke:none;opacity:0.4;" width="14.6973" x="1495.55" y="1030.79"/>
 </g>
 <g id="Symbols">
  <g id="Black-L" transform="matrix(1 0 0 1 2849.17 1556)">
   <path d="M 30.5176 -25.7812 L 70.1172 -25.7324 C 71.3379 -25.7324 71.6797 -25.2441 71.6797 -24.1699 L 71.7285 15.4297 C 71.7285 26.9043 74.1211 36.2793 84.1797 36.2793 C 91.8945 36.2793 96.3867 29.3457 100.098 21.1426 L 146.143 -80.0781 C 147.998 -84.082 149.121 -87.7441 149.121 -91.0645 C 149.121 -97.9492 143.701 -103.125 137.012 -103.125 C 133.74 -103.125 130.029 -101.953 126.025 -100.146 L 24.8047 -54.1504 C 16.8945 -50.5859 9.66797 -45.9473 9.66797 -38.1836 C 9.66797 -28.2715 18.9453 -25.7812 30.5176 -25.7812 Z M 47.3145 -43.3105 C 46.582 -43.3105 46.1914 -44.1406 47.168 -44.5801 L 124.268 -79.3945 C 125.342 -79.834 125.732 -79.1504 125.391 -78.3203 L 90.3809 -1.17188 C 90.0879 -0.390625 89.3066 -0.537109 89.3066 -1.36719 L 89.502 -34.1309 C 89.5996 -41.4551 87.4512 -43.6523 80.0781 -43.5547 Z"/>
  </g>
  <g id="Heavy-L" transform="matrix(1 0 0 1 2554.22 1556)">
   <path d="M 27.7832 -26.9531 L 69.6777 -26.8555 C 70.8008 -26.8555 71.1426 -26.416 71.1426 -25.3906 L 71.1914 16.4551 C 71.1914 26.416 73.584 34.5703 82.2754 34.5703 C 89.1602 34.5703 93.1152 28.3691 96.4355 21.0938 L 143.115 -81.0059 C 144.775 -84.5703 145.801 -87.8418 145.801 -90.7715 C 145.801 -96.875 141.016 -101.514 135.01 -101.514 C 132.129 -101.514 128.809 -100.488 125.244 -98.8281 L 23.1445 -52.1973 C 16.1133 -49.0234 9.66797 -44.9219 9.66797 -38.0371 C 9.66797 -29.4434 17.6758 -26.9531 27.7832 -26.9531 Z M 41.5039 -42.2363 C 40.8203 -42.2363 40.5273 -43.0176 41.4062 -43.3594 L 124.268 -81.0547 C 125.342 -81.543 125.732 -80.9082 125.342 -79.9805 L 87.5488 2.92969 C 87.2559 3.61328 86.4746 3.4668 86.4746 2.73438 L 86.7188 -34.3262 C 86.7676 -40.4785 84.7656 -42.5293 78.5156 -42.4805 Z"/>
  </g>
  <g id="Bold-L" transform="matrix(1 0 0 1 2259.46 1556)">
   <path d="M 24.7559 -28.2715 L 69.1406 -28.1738 C 70.166 -28.1738 70.5078 -27.7344 70.5078 -26.7578 L 70.6055 17.5781 C 70.6055 25.8301 72.998 32.666 80.1758 32.666 C 86.084 32.666 89.4531 27.2949 92.2852 21.0938 L 139.795 -82.0312 C 141.211 -85.1562 142.041 -87.9395 142.041 -90.4297 C 142.041 -95.6543 137.988 -99.6582 132.764 -99.6582 C 130.273 -99.6582 127.49 -98.8281 124.365 -97.4121 L 21.2402 -49.9512 C 15.2344 -47.2656 9.66797 -43.7988 9.66797 -37.793 C 9.66797 -30.7617 16.3086 -28.2715 24.7559 -28.2715 Z M 35.0098 -41.0156 C 34.375 -41.0156 34.1797 -41.748 34.9121 -42.041 L 124.268 -82.959 C 125.293 -83.3984 125.732 -82.8613 125.293 -81.8848 L 84.3262 7.4707 C 84.0332 8.10547 83.3496 7.95898 83.3496 7.32422 L 83.5938 -34.5703 C 83.6426 -39.4043 81.7871 -41.3086 76.8066 -41.3086 Z"/>
  </g>
  <g id="Semibold-L" transform="matrix(1 0 0 1 1964.12 1556)">
   <path d="M 22.6562 -29.1992 L 68.75 -29.0527 C 69.7266 -29.0527 70.0684 -28.6621 70.0684 -27.7344 L 70.166 18.3594 C 70.166 25.4883 72.5586 31.3477 78.6621 31.3477 C 83.9355 31.3477 86.9141 26.5625 89.4531 21.0938 L 137.451 -82.7637 C 138.721 -85.5469 139.453 -87.9883 139.453 -90.1855 C 139.453 -94.8242 135.889 -98.3887 131.201 -98.3887 C 129.053 -98.3887 126.514 -97.7051 123.779 -96.3867 L 19.9219 -48.4375 C 14.6484 -46.0449 9.66797 -42.9688 9.66797 -37.6953 C 9.66797 -31.6406 15.332 -29.1992 22.6562 -29.1992 Z M 30.5176 -40.1855 C 29.9316 -40.1855 29.7852 -40.8691 30.4688 -41.1621 L 124.268 -84.2773 C 125.244 -84.7168 125.732 -84.1797 125.293 -83.2031 L 82.1289 10.5957 C 81.8359 11.2305 81.2012 11.084 81.2012 10.4492 L 81.4453 -34.7168 C 81.4453 -38.6719 79.7363 -40.4785 75.6348 -40.4785 Z"/>
  </g>
  <g id="Medium-L" transform="matrix(1 0 0 1 1668.43 1556)">
   <path d="M 21.0449 -29.8828 L 68.5059 -29.7363 C 69.3848 -29.7363 69.7754 -29.3457 69.7754 -28.4668 L 69.873 18.8965 C 69.873 25.1953 72.2656 30.3223 77.5879 30.3223 C 82.3242 30.3223 85.0098 26.0254 87.2559 21.0449 L 135.693 -83.3008 C 136.865 -85.8398 137.5 -88.0371 137.5 -89.9902 C 137.5 -94.1406 134.277 -97.4121 129.98 -97.4121 C 128.076 -97.4121 125.83 -96.8262 123.34 -95.6543 L 18.8965 -47.3145 C 14.1602 -45.1172 9.66797 -42.3828 9.66797 -37.5488 C 9.66797 -32.373 14.5996 -29.8828 21.0449 -29.8828 Z M 27.0996 -39.5508 C 26.5625 -39.5508 26.4648 -40.1855 27.0996 -40.4785 L 124.268 -85.2539 C 125.244 -85.6934 125.732 -85.2051 125.244 -84.2285 L 80.4688 12.9395 C 80.1758 13.5742 79.541 13.4277 79.541 12.8418 L 79.834 -34.8633 C 79.834 -38.1348 78.2227 -39.8438 74.7559 -39.8438 Z"/>
  </g>
  <g id="Regular-L" transform="matrix(1 0 0 1 1373.04 1556)">
   <path d="M 18.9941 -30.8105 L 68.1152 -30.6152 C 68.9453 -30.6152 69.3359 -30.2246 69.3359 -29.3945 L 69.4824 19.6777 C 69.4824 24.8047 71.8262 29.0039 76.123 29.0039 C 80.2246 29.0039 82.5195 25.293 84.4727 21.0449 L 133.398 -84.0332 C 134.424 -86.2305 134.912 -88.0859 134.912 -89.7461 C 134.912 -93.3105 132.227 -96.1426 128.467 -96.1426 C 126.855 -96.1426 124.902 -95.7031 122.754 -94.6777 L 17.627 -45.8008 C 13.5742 -43.9453 9.66797 -41.6016 9.66797 -37.4512 C 9.66797 -33.252 13.6719 -30.8105 18.9941 -30.8105 Z M 22.7051 -38.7207 C 22.168 -38.7207 22.1191 -39.3066 22.6562 -39.5508 L 124.268 -86.5234 C 125.244 -86.9629 125.732 -86.5723 125.244 -85.498 L 78.2715 16.0645 C 78.0273 16.6504 77.3926 16.4551 77.3926 15.9668 L 77.6855 -35.0098 C 77.6855 -37.4023 76.1719 -39.0137 73.584 -39.0137 Z"/>
  </g>
  <g id="Light-L" transform="matrix(1 0 0 1 1077.86 1556)">
   <path d="M 16.9434 -31.4941 L 68.1152 -31.3477 C 68.7988 -31.3477 69.1406 -30.957 69.1406 -30.2734 L 69.2383 20.8496 C 69.2383 24.8535 71.2402 28.125 74.6094 28.125 C 77.7832 28.125 79.5898 25.3906 81.1035 22.1191 L 131.006 -84.4727 C 131.836 -86.2305 132.227 -87.793 132.227 -89.1113 C 132.227 -91.8945 130.078 -94.2871 126.953 -94.2871 C 125.684 -94.2871 124.072 -93.9453 122.314 -93.1152 L 15.6738 -43.3105 C 12.5488 -41.8945 9.66797 -39.9902 9.66797 -36.8164 C 9.66797 -33.4961 12.7441 -31.4941 16.9434 -31.4941 Z M 19.5801 -37.5977 C 19.043 -37.5977 19.043 -38.1836 19.5312 -38.4277 L 123.633 -86.9629 C 124.805 -87.5 125.391 -87.0117 124.805 -85.7422 L 76.2695 18.2617 C 75.9766 18.8965 75.3906 18.7012 75.3906 18.2129 L 75.5859 -34.3262 C 75.5859 -36.4258 74.3652 -37.793 71.9727 -37.793 Z"/>
  </g>
  <g id="Thin-L" transform="matrix(1 0 0 1 783.18 1556)">
   <path d="M 14.209 -32.373 L 68.0664 -32.2754 C 68.5547 -32.2754 68.8965 -31.9336 68.8965 -31.4453 L 68.9941 22.3633 C 68.9941 24.9512 70.4102 26.9531 72.6074 26.9531 C 74.5117 26.9531 75.7812 25.4883 76.709 23.5352 L 127.832 -85.0586 C 128.369 -86.2305 128.662 -87.3535 128.662 -88.2324 C 128.662 -89.9902 127.246 -91.7969 124.951 -91.7969 C 124.121 -91.7969 122.949 -91.6016 121.729 -91.0645 L 13.0859 -40.0879 C 11.2305 -39.209 9.66797 -37.8418 9.66797 -35.9863 C 9.66797 -33.8867 11.5234 -32.373 14.209 -32.373 Z M 15.4785 -36.084 C 14.9414 -36.084 14.9414 -36.7188 15.4297 -36.9629 L 122.803 -87.5 C 124.219 -88.1836 124.951 -87.5977 124.17 -86.0352 L 73.6328 21.1914 C 73.3398 21.8262 72.7051 21.6309 72.7051 21.1426 L 72.8027 -33.3984 C 72.8027 -35.1074 71.9727 -36.1816 69.8242 -36.1816 Z"/>
  </g>
  <g id="Ultralight-L" transform="matrix(1 0 0 1 487.519 1556)">
   <path d="M 12.8418 -32.8613 L 68.0176 -32.7637 C 68.457 -32.7637 68.7988 -32.4707 68.7988 -32.0312 L 68.8477 23.1934 C 68.8477 25 70.0195 26.3672 71.582 26.3672 C 72.8516 26.3672 73.8281 25.5371 74.4141 24.2676 L 126.221 -85.3516 C 126.611 -86.2793 126.807 -87.1094 126.807 -87.793 C 126.807 -89.0137 125.781 -90.5273 123.926 -90.5273 C 123.291 -90.5273 122.363 -90.4297 121.436 -89.9902 L 11.7676 -38.4277 C 10.5469 -37.8418 9.66797 -36.7676 9.66797 -35.5469 C 9.66797 -34.082 10.8887 -32.8613 12.8418 -32.8613 Z M 13.3789 -35.3027 C 12.793 -35.3027 12.793 -35.9375 13.2812 -36.1816 L 122.363 -87.7441 C 123.926 -88.5254 124.707 -87.9395 123.877 -86.1816 L 72.2656 22.7051 C 71.9727 23.3398 71.2891 23.0957 71.2891 22.6562 L 71.3867 -32.959 C 71.3867 -34.4727 70.752 -35.3516 68.7012 -35.3516 Z"/>
  </g>
  <g id="Black-M" transform="matrix(1 0 0 1 2866.58 1126)">
   <path d="M 26.2207 -26.6602 L 54.9805 -26.709 C 55.957 -26.709 56.2012 -26.3184 56.2012 -25.4395 L 56.2012 3.32031 C 56.2012 13.5742 57.8613 22.0215 67.041 22.0215 C 73.6328 22.0215 77.5879 16.1621 80.7617 9.0332 L 116.016 -68.9453 C 117.578 -72.4121 118.652 -75.6348 118.652 -78.5645 C 118.652 -84.5703 113.867 -89.0625 108.105 -89.0625 C 105.225 -89.0625 101.953 -87.9883 98.4863 -86.4258 L 20.459 -51.2695 C 13.623 -48.1934 7.4707 -44.0918 7.4707 -37.4512 C 7.4707 -28.418 15.8691 -26.6602 26.2207 -26.6602 Z M 42.8223 -42.2852 C 42.1875 -42.2852 41.7969 -43.0664 42.6758 -43.457 L 95.9473 -67.3828 C 96.9727 -67.8223 97.2656 -67.1875 96.9727 -66.4551 L 72.8516 -13.1348 C 72.6074 -12.5 71.875 -12.5488 71.875 -13.2812 L 72.0215 -33.6914 C 72.0703 -40.8203 70.4102 -42.5781 63.2324 -42.4805 Z"/>
  </g>
  <g id="Heavy-M" transform="matrix(1 0 0 1 2571.38 1126)">
   <path d="M 23.7793 -27.7832 L 54.4434 -27.7832 C 55.3711 -27.7832 55.6641 -27.3926 55.6641 -26.5625 L 55.6641 4.10156 C 55.6641 13.0371 57.4219 20.4102 65.332 20.4102 C 71.2402 20.4102 74.7559 15.0879 77.6367 8.74023 L 113.379 -69.873 C 114.795 -72.9492 115.723 -75.8301 115.723 -78.418 C 115.723 -83.7402 111.475 -87.7441 106.299 -87.7441 C 103.76 -87.7441 100.83 -86.8652 97.7539 -85.4492 L 19.1406 -49.7559 C 13.0371 -46.9727 7.4707 -43.3594 7.4707 -37.4023 C 7.4707 -29.6387 14.7461 -27.7832 23.7793 -27.7832 Z M 37.3047 -41.4551 C 36.7188 -41.4551 36.4258 -42.1387 37.207 -42.4316 L 96.1426 -69.1406 C 97.0215 -69.5312 97.3633 -68.9453 97.0215 -68.2129 L 70.2148 -9.22852 C 69.9707 -8.64258 69.3359 -8.74023 69.3359 -9.42383 L 69.5312 -34.1309 C 69.5801 -40.0391 67.9688 -41.6992 61.9629 -41.6504 Z"/>
  </g>
  <g id="Bold-M" transform="matrix(1 0 0 1 2276.38 1126)">
   <path d="M 21.0449 -29.0527 L 53.9062 -28.9551 C 54.7363 -28.9551 55.0293 -28.6133 55.0293 -27.832 L 55.0781 4.98047 C 55.0781 12.4512 56.9336 18.5547 63.4277 18.5547 C 68.6035 18.5547 71.582 13.8672 74.0723 8.39844 L 110.4 -70.8984 C 111.621 -73.584 112.402 -76.0254 112.402 -78.2227 C 112.402 -82.8125 108.789 -86.2793 104.248 -86.2793 C 102.1 -86.2793 99.6094 -85.5469 96.9238 -84.3262 L 17.627 -48.0469 C 12.3535 -45.6543 7.4707 -42.5781 7.4707 -37.3535 C 7.4707 -30.957 13.4766 -29.0527 21.0449 -29.0527 Z M 31.1035 -40.4297 C 30.5664 -40.4297 30.3711 -41.0645 31.0059 -41.3574 L 96.3379 -71.0449 C 97.1191 -71.4355 97.4609 -70.9473 97.1191 -70.2637 L 67.334 -4.93164 C 67.0898 -4.39453 66.5039 -4.49219 66.5039 -5.07812 L 66.6992 -34.5703 C 66.748 -39.1602 65.2344 -40.7227 60.5957 -40.6738 Z"/>
  </g>
  <g id="Semibold-M" transform="matrix(1 0 0 1 1980.84 1126)">
   <path d="M 19.1895 -29.8828 L 53.5156 -29.7852 C 54.2969 -29.7852 54.5898 -29.4922 54.5898 -28.7109 L 54.6875 5.61523 C 54.6875 12.0117 56.5918 17.2852 62.1094 17.2852 C 66.748 17.2852 69.3848 13.0371 71.6309 8.20312 L 108.35 -71.582 C 109.473 -73.9746 110.107 -76.1719 110.107 -78.0762 C 110.107 -82.1777 106.934 -85.3027 102.881 -85.3027 C 100.977 -85.3027 98.7793 -84.668 96.3379 -83.5449 L 16.6016 -46.875 C 11.9141 -44.7266 7.4707 -42.041 7.4707 -37.3535 C 7.4707 -31.8848 12.5977 -29.8828 19.1895 -29.8828 Z M 26.8066 -39.7949 C 26.3672 -39.7949 26.2207 -40.332 26.7578 -40.5762 L 96.4355 -72.4121 C 97.168 -72.7539 97.5098 -72.3145 97.2168 -71.6309 L 65.332 -1.95312 C 65.0879 -1.46484 64.5508 -1.5625 64.5508 -2.05078 L 64.7949 -34.9121 C 64.7949 -38.5254 63.3301 -40.0391 59.6191 -39.9902 Z"/>
  </g>
  <g id="Medium-M" transform="matrix(1 0 0 1 1685.01 1126)">
   <path d="M 17.7246 -30.5664 L 53.2227 -30.4199 C 53.9551 -30.4199 54.248 -30.127 54.248 -29.3457 L 54.3457 6.05469 C 54.3457 11.6699 56.3477 16.3086 61.1328 16.3086 C 65.3809 16.3086 67.7246 12.4512 69.7754 8.00781 L 106.787 -72.1191 C 107.812 -74.3164 108.35 -76.2695 108.35 -77.9785 C 108.35 -81.6895 105.518 -84.5215 101.807 -84.5215 C 100.098 -84.5215 98.1445 -83.9844 95.8984 -82.959 L 15.8203 -45.9473 C 11.5723 -44.043 7.4707 -41.6016 7.4707 -37.3047 C 7.4707 -32.6172 11.9629 -30.5664 17.7246 -30.5664 Z M 23.584 -39.2578 C 23.1445 -39.2578 23.0469 -39.7949 23.5352 -39.9902 L 96.5332 -73.4375 C 97.2168 -73.7305 97.6074 -73.3887 97.2656 -72.7051 L 63.7695 0.292969 C 63.5742 0.78125 63.0859 0.683594 63.0859 0.244141 L 63.3301 -35.1562 C 63.3301 -38.0859 61.9141 -39.502 58.8867 -39.502 Z"/>
  </g>
  <g id="Regular-M" transform="matrix(1 0 0 1 1389.44 1126)">
   <path d="M 15.8691 -31.3965 L 52.832 -31.25 C 53.5156 -31.25 53.8574 -30.957 53.8574 -30.2246 L 53.9551 6.64062 C 53.9551 11.2793 56.0059 15.0879 59.8633 15.0879 C 63.5742 15.0879 65.5762 11.6211 67.334 7.76367 L 104.736 -72.8027 C 105.664 -74.707 106.104 -76.416 106.104 -77.832 C 106.104 -81.0547 103.711 -83.4961 100.439 -83.4961 C 98.9746 -83.4961 97.2656 -83.1055 95.3613 -82.1777 L 14.7949 -44.8242 C 11.084 -43.1152 7.4707 -41.0645 7.4707 -37.3047 C 7.4707 -33.5449 11.084 -31.3965 15.8691 -31.3965 Z M 19.3359 -38.5742 C 18.9453 -38.5742 18.8965 -39.0625 19.3359 -39.2578 L 96.6797 -74.7559 C 97.2656 -75.0488 97.6562 -74.7559 97.3145 -74.0723 L 61.8164 3.27148 C 61.6211 3.71094 61.1328 3.56445 61.1328 3.17383 L 61.4258 -35.4492 C 61.4258 -37.4512 60.0586 -38.8672 57.959 -38.8672 Z"/>
  </g>
  <g id="Light-M" transform="matrix(1 0 0 1 1094.12 1126)">
   <path d="M 14.0625 -32.0312 L 52.7832 -31.8848 C 53.3691 -31.8848 53.6621 -31.5918 53.6621 -31.0059 L 53.7598 7.71484 C 53.7598 11.3281 55.4688 14.2578 58.4961 14.2578 C 61.377 14.2578 62.9883 11.7188 64.3555 8.74023 L 102.588 -73.1934 C 103.32 -74.7559 103.662 -76.123 103.662 -77.2949 C 103.662 -79.7852 101.758 -81.8359 99.0723 -81.8359 C 97.9004 -81.8359 96.5332 -81.4941 94.9707 -80.7617 L 13.0371 -42.5781 C 10.2051 -41.3086 7.4707 -39.5996 7.4707 -36.7188 C 7.4707 -33.7891 10.2539 -32.0312 14.0625 -32.0312 Z M 16.5527 -37.5488 C 16.1621 -37.5488 16.1133 -38.0371 16.5527 -38.2324 L 96.0938 -75.1465 C 96.9238 -75.4883 97.3633 -75.1465 96.9238 -74.2676 L 60.0098 5.22461 C 59.8145 5.71289 59.3262 5.56641 59.3262 5.17578 L 59.5215 -34.8145 C 59.5215 -36.5723 58.4473 -37.7441 56.4941 -37.7441 Z"/>
  </g>
  <g id="Thin-M" transform="matrix(1 0 0 1 799.22 1126)">
   <path d="M 11.6211 -32.8125 L 52.7344 -32.7637 C 53.1738 -32.7637 53.4668 -32.4707 53.4668 -32.0312 L 53.5156 9.08203 C 53.5156 11.377 54.7363 13.2324 56.6895 13.2324 C 58.4473 13.2324 59.5703 11.8164 60.4004 10.0098 L 99.7559 -73.7305 C 100.244 -74.7559 100.488 -75.6836 100.488 -76.5137 C 100.488 -78.0762 99.2188 -79.6387 97.2656 -79.6387 C 96.5332 -79.6387 95.5078 -79.4434 94.4824 -78.9551 L 10.6934 -39.6973 C 8.98438 -38.8672 7.4707 -37.6953 7.4707 -35.9863 C 7.4707 -34.1309 9.17969 -32.8125 11.6211 -32.8125 Z M 12.8906 -36.2305 C 12.4512 -36.2305 12.4512 -36.7188 12.8418 -36.8652 L 95.3613 -75.5859 C 96.3867 -76.123 96.9238 -75.6836 96.3379 -74.5117 L 57.666 7.86133 C 57.4219 8.34961 56.9336 8.20312 56.9336 7.8125 L 57.0312 -34.0332 C 57.0312 -35.4492 56.2988 -36.3281 54.5898 -36.3281 Z"/>
  </g>
  <g id="Ultralight-M" transform="matrix(1 0 0 1 503.437 1126)">
   <path d="M 10.3516 -33.252 L 52.7344 -33.1543 C 53.0762 -33.1543 53.3203 -32.9102 53.3203 -32.5684 L 53.418 9.81445 C 53.418 11.4258 54.3945 12.6953 55.7617 12.6953 C 56.9824 12.6953 57.8125 11.8652 58.3496 10.6445 L 98.291 -73.9746 C 98.6328 -74.7559 98.8281 -75.4883 98.8281 -76.123 C 98.8281 -77.1973 97.9492 -78.4668 96.3379 -78.4668 C 95.8008 -78.4668 95.0195 -78.3691 94.1895 -77.9785 L 9.52148 -38.1836 C 8.34961 -37.6465 7.4707 -36.7188 7.4707 -35.5957 C 7.4707 -34.2773 8.59375 -33.252 10.3516 -33.252 Z M 10.9863 -35.498 C 10.5469 -35.498 10.5469 -36.0352 10.9375 -36.1816 L 94.9707 -75.8301 C 96.1426 -76.416 96.7285 -75.9766 96.0938 -74.6582 L 56.4453 9.22852 C 56.2012 9.7168 55.6641 9.52148 55.6641 9.17969 L 55.7617 -33.5938 C 55.7617 -34.8145 55.1758 -35.5957 53.5645 -35.5957 Z"/>
  </g>
  <g id="Black-S" transform="matrix(1 0 0 1 2881.15 696)">
   <path d="M 20.3613 -28.6133 L 43.0176 -28.6133 C 43.7988 -28.6133 43.9941 -28.3203 43.9941 -27.6367 L 43.9941 -4.98047 C 43.9941 2.97852 45.3125 9.52148 52.3926 9.52148 C 57.5195 9.52148 60.5957 4.93164 63.0859 -0.585938 L 90.7227 -61.7188 C 91.9434 -64.4043 92.7734 -66.8945 92.7734 -69.1895 C 92.7734 -73.8281 89.0625 -77.3438 84.5703 -77.3438 C 82.3242 -77.3438 79.7852 -76.5137 77.0996 -75.293 L 15.9668 -47.7051 C 10.6445 -45.3125 5.85938 -42.1387 5.85938 -36.9629 C 5.85938 -29.9805 12.3535 -28.6133 20.3613 -28.6133 Z M 33.1543 -40.7227 C 32.666 -40.7227 32.373 -41.3086 33.0566 -41.6016 L 75.1953 -60.5469 C 75.9766 -60.8887 76.2207 -60.4004 75.9766 -59.8145 L 56.8848 -17.627 C 56.6895 -17.1387 56.1523 -17.1875 56.1523 -17.7734 L 56.25 -34.082 C 56.2988 -39.5508 54.9805 -40.918 49.4629 -40.8691 Z"/>
  </g>
  <g id="Heavy-S" transform="matrix(1 0 0 1 2585.44 696)">
   <path d="M 18.7012 -29.3945 L 42.627 -29.3457 C 43.3594 -29.3457 43.6035 -29.1016 43.6035 -28.418 L 43.6035 -4.49219 C 43.6035 2.53906 45.0195 8.34961 51.2695 8.34961 C 55.957 8.34961 58.6914 4.10156 60.9863 -0.927734 L 88.916 -62.3535 C 90.0391 -64.8438 90.7715 -67.0898 90.7715 -69.1406 C 90.7715 -73.3398 87.4512 -76.5137 83.3496 -76.5137 C 81.2988 -76.5137 79.0527 -75.7812 76.5625 -74.6582 L 15.1367 -46.7773 C 10.3027 -44.5801 5.85938 -41.748 5.85938 -37.0117 C 5.85938 -30.8594 11.5723 -29.3945 18.7012 -29.3945 Z M 29.248 -40.1855 C 28.7598 -40.1855 28.5645 -40.6738 29.1504 -40.9668 L 75.3906 -61.8164 C 76.0742 -62.1582 76.3184 -61.7188 76.0742 -61.1816 L 55.0781 -14.8926 C 54.8828 -14.4531 54.3945 -14.502 54.3945 -15.0391 L 54.541 -34.4727 C 54.5898 -39.0625 53.3203 -40.3809 48.6816 -40.332 Z"/>
  </g>
  <g id="Bold-S" transform="matrix(1 0 0 1 2289.86 696)">
   <path d="M 16.8457 -30.2734 L 42.1875 -30.2246 C 42.9199 -30.2246 43.1152 -29.9316 43.1152 -29.2969 L 43.1641 -3.95508 C 43.1641 2.09961 44.7266 7.03125 49.9512 7.03125 C 54.1992 7.03125 56.5918 3.17383 58.6426 -1.26953 L 86.9141 -63.0859 C 87.9395 -65.2832 88.5254 -67.2852 88.5254 -69.043 C 88.5254 -72.8027 85.5957 -75.5859 81.9336 -75.5859 C 80.1758 -75.5859 78.1738 -75 75.9766 -73.9746 L 14.209 -45.752 C 9.91211 -43.7988 5.85938 -41.3086 5.85938 -37.0605 C 5.85938 -31.8848 10.7422 -30.2734 16.8457 -30.2734 Z M 24.8535 -39.5508 C 24.4629 -39.5508 24.2676 -39.9902 24.8047 -40.2344 L 75.6348 -63.2812 C 76.1719 -63.5254 76.4648 -63.1836 76.2207 -62.6953 L 53.0762 -11.8164 C 52.9297 -11.4258 52.4902 -11.4746 52.4902 -11.9141 L 52.6367 -34.9121 C 52.6855 -38.4766 51.416 -39.7461 47.8027 -39.7461 Z"/>
  </g>
  <g id="Semibold-S" transform="matrix(1 0 0 1 1993.93 696)">
   <path d="M 15.5762 -30.8594 L 41.8945 -30.7617 C 42.5781 -30.7617 42.8223 -30.5176 42.8223 -29.8828 L 42.8711 -3.56445 C 42.8711 1.75781 44.5312 6.15234 49.0723 6.15234 C 52.9785 6.15234 55.1758 2.53906 57.0312 -1.5625 L 85.5469 -63.5742 C 86.4746 -65.625 87.0117 -67.3828 87.0117 -68.9941 C 87.0117 -72.4121 84.375 -74.9512 81.0059 -74.9512 C 79.3945 -74.9512 77.5879 -74.4629 75.5859 -73.5352 L 13.5742 -45.0195 C 9.61914 -43.2617 5.85938 -41.0156 5.85938 -37.0605 C 5.85938 -32.5684 10.1562 -30.8594 15.5762 -30.8594 Z M 21.8262 -39.1113 C 21.4355 -39.1113 21.3379 -39.5508 21.7773 -39.7461 L 75.7812 -64.2578 C 76.2695 -64.502 76.5137 -64.209 76.3184 -63.7207 L 51.709 -9.7168 C 51.5137 -9.32617 51.123 -9.42383 51.123 -9.81445 L 51.3184 -35.2051 C 51.3184 -38.0859 50.0977 -39.3555 47.168 -39.3066 Z"/>
  </g>
  <g id="Medium-S" transform="matrix(1 0 0 1 1697.8 696)">
   <path d="M 14.5996 -31.3477 L 41.6992 -31.2012 C 42.334 -31.2012 42.5781 -30.957 42.5781 -30.3223 L 42.627 -3.27148 C 42.627 1.51367 44.3848 5.46875 48.4375 5.46875 C 52.0508 5.46875 54.0527 2.05078 55.8105 -1.75781 L 84.4727 -63.9648 C 85.3516 -65.8691 85.8398 -67.4805 85.8398 -68.9453 C 85.8398 -72.1191 83.3984 -74.5117 80.2734 -74.5117 C 78.8086 -74.5117 77.1484 -74.0234 75.293 -73.1445 L 13.0371 -44.4824 C 9.42383 -42.8223 5.85938 -40.7715 5.85938 -37.1094 C 5.85938 -33.1055 9.66797 -31.3477 14.5996 -31.3477 Z M 19.5312 -38.7695 C 19.1895 -38.7695 19.0918 -39.1602 19.4824 -39.3555 L 75.8789 -65.0391 C 76.3184 -65.2344 76.5625 -64.9902 76.3672 -64.502 L 50.6348 -8.10547 C 50.4883 -7.76367 50.0977 -7.86133 50.0977 -8.20312 L 50.3418 -35.4004 C 50.3418 -37.793 49.1211 -39.0137 46.7285 -39.0137 Z"/>
  </g>
  <g id="Regular-S" transform="matrix(1 0 0 1 1401.87 696)">
   <path d="M 13.3301 -31.9336 L 41.4062 -31.7871 C 42.041 -31.7871 42.2363 -31.543 42.2363 -30.9082 L 42.334 -2.92969 C 42.334 1.17188 44.1406 4.54102 47.5586 4.54102 C 50.8789 4.54102 52.6367 1.41602 54.1992 -2.00195 L 83.1055 -64.4531 C 83.9355 -66.1621 84.2773 -67.627 84.2773 -68.8965 C 84.2773 -71.7773 82.1777 -73.877 79.3457 -73.877 C 78.0762 -73.877 76.6113 -73.4863 74.9023 -72.7051 L 12.4023 -43.7988 C 9.13086 -42.2852 5.85938 -40.4785 5.85938 -37.1094 C 5.85938 -33.7891 9.08203 -31.9336 13.3301 -31.9336 Z M 16.5039 -38.3789 C 16.2109 -38.3789 16.1621 -38.7207 16.5039 -38.8672 L 76.0254 -66.0156 C 76.416 -66.1621 76.6602 -65.9668 76.4648 -65.5762 L 49.2676 -6.05469 C 49.1211 -5.71289 48.7793 -5.81055 48.7793 -6.10352 L 49.0234 -35.6934 C 49.0234 -37.4023 47.8516 -38.623 46.0938 -38.623 Z"/>
  </g>
  <g id="Light-S" transform="matrix(1 0 0 1 1106.38 696)">
   <path d="M 11.7188 -32.4707 L 41.3574 -32.373 C 41.8945 -32.373 42.0898 -32.1289 42.0898 -31.6406 L 42.1875 -2.00195 C 42.1875 1.2207 43.6523 3.85742 46.3379 3.85742 C 48.9258 3.85742 50.3418 1.51367 51.5625 -1.17188 L 81.2012 -64.7949 C 81.8359 -66.1621 82.1289 -67.3828 82.1289 -68.4082 C 82.1289 -70.6055 80.4688 -72.3633 78.125 -72.3633 C 77.0996 -72.3633 75.9277 -72.0703 74.5605 -71.4355 L 10.8887 -41.8457 C 8.34961 -40.6738 5.85938 -39.209 5.85938 -36.6211 C 5.85938 -33.9844 8.34961 -32.4707 11.7188 -32.4707 Z M 14.0625 -37.4512 C 13.7207 -37.4512 13.7207 -37.793 14.0137 -37.9395 L 75.5371 -66.3574 C 76.0742 -66.6016 76.3672 -66.3574 76.0742 -65.7227 L 47.7051 -4.29688 C 47.5586 -3.90625 47.168 -4.05273 47.168 -4.3457 L 47.3633 -35.1562 C 47.3633 -36.6211 46.3867 -37.6465 44.8242 -37.6465 Z"/>
  </g>
  <g id="Thin-S" transform="matrix(1 0 0 1 811.256 696)">
   <path d="M 9.57031 -33.2031 L 41.3574 -33.1055 C 41.6992 -33.1055 41.9434 -32.9102 41.9434 -32.5195 L 41.9922 -0.78125 C 41.9922 1.26953 43.0176 2.92969 44.7754 2.92969 C 46.3379 2.92969 47.3145 1.61133 48.0469 -0.0488281 L 78.7109 -65.2832 C 79.1016 -66.2109 79.3457 -67.041 79.3457 -67.7246 C 79.3457 -69.1406 78.2227 -70.4102 76.5625 -70.4102 C 75.8789 -70.4102 75.0488 -70.2637 74.1211 -69.8242 L 8.83789 -39.2578 C 7.27539 -38.5742 5.85938 -37.5488 5.85938 -35.9863 C 5.85938 -34.2773 7.42188 -33.2031 9.57031 -33.2031 Z M 10.791 -36.2793 C 10.4492 -36.2793 10.4492 -36.6211 10.7422 -36.7676 L 74.8535 -66.748 C 75.6348 -67.1387 76.0254 -66.8457 75.5859 -65.9668 L 45.6055 -1.95312 C 45.4102 -1.5625 45.0684 -1.70898 45.0684 -2.00195 L 45.166 -34.4238 C 45.166 -35.5957 44.5312 -36.377 43.1152 -36.377 Z"/>
  </g>
  <g id="Ultralight-S" transform="matrix(1 0 0 1 515.375 696)">
   <path d="M 8.44727 -33.5449 L 41.3086 -33.4961 C 41.6016 -33.4961 41.7969 -33.3008 41.7969 -33.0078 L 41.8945 -0.146484 C 41.8945 1.31836 42.7246 2.44141 43.9453 2.44141 C 45.0195 2.44141 45.752 1.66016 46.2402 0.537109 L 77.3926 -65.5273 C 77.7344 -66.2109 77.8809 -66.8457 77.8809 -67.3828 C 77.8809 -68.3594 77.0508 -69.4336 75.7324 -69.4336 C 75.2441 -69.4336 74.5605 -69.2871 73.877 -68.9941 L 7.76367 -37.9395 C 6.73828 -37.4512 5.85938 -36.6699 5.85938 -35.6445 C 5.85938 -34.4238 6.88477 -33.5449 8.44727 -33.5449 Z M 9.13086 -35.6445 C 8.78906 -35.6445 8.78906 -36.0352 9.08203 -36.1816 L 74.5117 -66.9922 C 75.3906 -67.4316 75.8301 -67.0898 75.3418 -66.0645 L 44.5312 -0.78125 C 44.3359 -0.390625 43.9453 -0.537109 43.9453 -0.830078 L 43.9941 -34.082 C 43.9941 -35.0586 43.5547 -35.6934 42.2363 -35.6934 Z"/>
  </g>
 </g>
</svg>
