<?xml version="1.0" encoding="UTF-8"?>
<!--Generator: Apple Native CoreSVG 326-->
<!DOCTYPE svg
PUBLIC "-//W3C//DTD SVG 1.1//EN"
       "http://www.w3.org/Graphics/SVG/1.1/DTD/svg11.dtd">
<svg version="1.1" xmlns="http://www.w3.org/2000/svg" xmlns:xlink="http://www.w3.org/1999/xlink" viewBox="0 0 23.6719 18.6816">
 <g>
  <rect height="18.6816" opacity="0" width="23.6719" x="0" y="0"/>
  <path d="M22.2754 14.6436L16.5186 9.25293C16.0889 8.85742 15.5762 8.66211 15.0635 8.66211C14.5312 8.66211 14.0479 8.84277 13.6084 9.23828L9.2041 13.1738L7.41211 11.5576C7.00195 11.1914 6.54785 11.0059 6.09375 11.0059C5.62012 11.0059 5.24414 11.1816 4.83887 11.5479L1.21582 14.751C1.24512 16.6064 2.28516 17.6172 4.18945 17.6172L19.0723 17.6172C21.3721 17.6172 22.5049 16.5625 22.2754 14.6436ZM3.44727 18.6816L19.8633 18.6816C22.0947 18.6816 23.3105 17.4707 23.3105 15.2588L23.3105 3.4375C23.3105 1.2207 22.0947 0.00976562 19.8633 0.00976562L3.44727 0.00976562C1.2207 0.00976562 0 1.2207 0 3.4375L0 15.2588C0 17.4707 1.2207 18.6816 3.44727 18.6816ZM3.7207 16.1621C2.93457 16.1621 2.51953 15.7764 2.51953 14.9463L2.51953 3.74512C2.51953 2.91504 2.93457 2.5293 3.7207 2.5293L19.5898 2.5293C20.3711 2.5293 20.791 2.91504 20.791 3.74512L20.791 14.9463C20.791 15.7764 20.3711 16.1621 19.5898 16.1621Z" fill="black" fill-opacity="0.85"/>
  <path d="M8.08105 9.67285C9.39453 9.67285 10.4834 8.58398 10.4834 7.25586C10.4834 5.94238 9.39453 4.84375 8.08105 4.84375C6.75293 4.84375 5.66406 5.94238 5.66406 7.25586C5.66406 8.58398 6.75293 9.67285 8.08105 9.67285Z" fill="black" fill-opacity="0.85"/>
 </g>
</svg>
