<?xml version="1.0" ?>
<svg xmlns="http://www.w3.org/2000/svg" width="128" height="128" viewBox="0 0 128 128">
  <path d="m128,64c0,35.346 -28.654,64 -64,64s-64,-28.654 -64,-64 28.654,-64 64,-64 64,28.654 64,64" fill="#ca72e2" stroke-width=".2"/>
  <path d="m36.222,24h55.056c4.694,0 8.472,3.779 8.472,8.472v63.056c0,4.694 -3.779,8.472 -8.472,8.472h-55.056c-4.694,0 -8.472,-3.779 -8.472,-8.472v-63.056c0,-4.694 3.779,-8.472 8.472,-8.472z" fill="#00000000" stroke-width="8" stroke="#000"/>
  <path d="m36.347,20.111h55.056c4.694,0 8.472,3.779 8.472,8.472v63.056c0,4.694 -3.779,8.472 -8.472,8.472h-55.056c-4.694,0 -8.472,-3.779 -8.472,-8.472v-63.056c0,-4.694 3.779,-8.472 8.472,-8.472z" fill="#495aad" stroke-width="8" stroke="#fff"/>
  <path d="m87.877,34.851c-2.299,-2.295 -5.474,-3.701 -8.979,-3.675 -5.797,0 -10.82,3.914 -12.454,9.121h-27.405l-3.162,3.156v2.104l5.27,5.26h3.162l3.162,-3.156h1.054l3.162,3.156h6.324l3.162,-3.156h5.27c1.528,5.312 6.552,8.971 12.296,8.918 7.115,0.053 12.859,-5.68 12.859,-12.728 0,-3.524 -1.423,-6.706 -3.722,-9.001zM85.408,41.143c0.698,0.697 1.133,1.657 1.133,2.709 0.053,2.156 -1.687,3.892 -3.9,3.892 -2.108,0 -3.848,-1.736 -3.848,-3.84s1.739,-3.84 3.9,-3.892c1.054,0 2.016,0.434 2.714,1.131z" fill="#fff" stroke-width=".74457"/>
  <path d="m39.599,67.319c2.299,-2.295 5.474,-3.701 8.979,-3.675 5.797,0 10.82,3.914 12.454,9.121h27.405l3.162,3.156v2.104l-5.27,5.26h-3.162l-3.162,-3.156h-1.054l-3.162,3.156h-6.324l-3.162,-3.156h-5.27c-1.528,5.312 -6.552,8.971 -12.296,8.918 -7.115,0.053 -12.859,-5.68 -12.859,-12.728 0,-3.524 1.423,-6.706 3.722,-9.001zM42.068,73.611c-0.698,0.697 -1.133,1.657 -1.133,2.709 -0.053,2.156 1.687,3.892 3.9,3.892 2.108,0 3.848,-1.736 3.848,-3.84s-1.739,-3.84 -3.9,-3.892c-1.054,0 -2.016,0.434 -2.714,1.131z" fill="#fff" stroke-width=".74457"/>
  <path d="m36.348,16.111c-6.84,0 -12.473,5.63 -12.473,12.471v63.057c0,6.84 5.632,12.473 12.473,12.473h55.055c6.84,0 12.473,-5.632 12.473,-12.473v-63.057c0,-6.84 -5.632,-12.471 -12.473,-12.471zM36.348,24.111h55.055c2.547,0 4.473,1.924 4.473,4.471v63.057c0,2.547 -1.926,4.473 -4.473,4.473h-55.055c-2.547,0 -4.473,-1.926 -4.473,-4.473v-63.057c0,-2.547 1.926,-4.471 4.473,-4.471z" fill="#fff"/>
</svg>
