<?xml version="1.0" encoding="UTF-8"?>
<!--Generator: Apple Native CoreSVG 123-->
<!DOCTYPE svg
PUBLIC "-//W3C//DTD SVG 1.1//EN"
       "http://www.w3.org/Graphics/SVG/1.1/DTD/svg11.dtd">
<svg version="1.1" xmlns="http://www.w3.org/2000/svg" xmlns:xlink="http://www.w3.org/1999/xlink" width="3300" height="2200">
 <!--glyph: "uni10013C.medium", point size: 100.000000, font version: "Version 15.0d7e11", template writer version: "5"-->
 <g id="Notes">
  <rect height="2200" id="artboard" style="fill:white;opacity:1" width="3300" x="0" y="0"/>
  <line id="" style="fill:none;stroke:black;opacity:1;stroke-width:0.5;" x1="263" x2="3036" y1="292" y2="292"/>
  <text style="stroke:none;fill:black;font-family:-apple-system,&quot;SF Pro Display&quot;,&quot;SF Pro Text&quot;,Helvetica,sans-serif;font-weight:bold;" transform="matrix(1 0 0 1 263 322)">Weight/Scale Variations</text>
  <text style="stroke:none;fill:black;font-family:-apple-system,&quot;SF Pro Display&quot;,&quot;SF Pro Text&quot;,Helvetica,sans-serif;text-anchor:middle;" transform="matrix(1 0 0 1 559.711 322)">Ultralight</text>
  <text style="stroke:none;fill:black;font-family:-apple-system,&quot;SF Pro Display&quot;,&quot;SF Pro Text&quot;,Helvetica,sans-serif;text-anchor:middle;" transform="matrix(1 0 0 1 856.422 322)">Thin</text>
  <text style="stroke:none;fill:black;font-family:-apple-system,&quot;SF Pro Display&quot;,&quot;SF Pro Text&quot;,Helvetica,sans-serif;text-anchor:middle;" transform="matrix(1 0 0 1 1153.13 322)">Light</text>
  <text style="stroke:none;fill:black;font-family:-apple-system,&quot;SF Pro Display&quot;,&quot;SF Pro Text&quot;,Helvetica,sans-serif;text-anchor:middle;" transform="matrix(1 0 0 1 1449.84 322)">Regular</text>
  <text style="stroke:none;fill:black;font-family:-apple-system,&quot;SF Pro Display&quot;,&quot;SF Pro Text&quot;,Helvetica,sans-serif;text-anchor:middle;" transform="matrix(1 0 0 1 1746.56 322)">Medium</text>
  <text style="stroke:none;fill:black;font-family:-apple-system,&quot;SF Pro Display&quot;,&quot;SF Pro Text&quot;,Helvetica,sans-serif;text-anchor:middle;" transform="matrix(1 0 0 1 2043.27 322)">Semibold</text>
  <text style="stroke:none;fill:black;font-family:-apple-system,&quot;SF Pro Display&quot;,&quot;SF Pro Text&quot;,Helvetica,sans-serif;text-anchor:middle;" transform="matrix(1 0 0 1 2339.98 322)">Bold</text>
  <text style="stroke:none;fill:black;font-family:-apple-system,&quot;SF Pro Display&quot;,&quot;SF Pro Text&quot;,Helvetica,sans-serif;text-anchor:middle;" transform="matrix(1 0 0 1 2636.69 322)">Heavy</text>
  <text style="stroke:none;fill:black;font-family:-apple-system,&quot;SF Pro Display&quot;,&quot;SF Pro Text&quot;,Helvetica,sans-serif;text-anchor:middle;" transform="matrix(1 0 0 1 2933.4 322)">Black</text>
  <line id="" style="fill:none;stroke:black;opacity:1;stroke-width:0.5;" x1="263" x2="3036" y1="1903" y2="1903"/>
  <g id="" transform="matrix(1 0 0 1 263 1933)">
   <path d="M 9.24805 0.830078 C 13.5547 0.830078 17.1387 -2.74414 17.1387 -7.05078 C 17.1387 -11.3574 13.5449 -14.9316 9.23828 -14.9316 C 4.94141 -14.9316 1.36719 -11.3574 1.36719 -7.05078 C 1.36719 -2.74414 4.95117 0.830078 9.24805 0.830078 Z M 9.24805 -0.654297 C 5.70312 -0.654297 2.87109 -3.49609 2.87109 -7.05078 C 2.87109 -10.6055 5.69336 -13.4473 9.23828 -13.4473 C 12.793 -13.4473 15.6348 -10.6055 15.6445 -7.05078 C 15.6543 -3.49609 12.8027 -0.654297 9.24805 -0.654297 Z M 9.22852 -3.42773 C 9.69727 -3.42773 9.9707 -3.74023 9.9707 -4.25781 L 9.9707 -6.31836 L 12.1973 -6.31836 C 12.6953 -6.31836 13.0371 -6.57227 13.0371 -7.04102 C 13.0371 -7.51953 12.7148 -7.7832 12.1973 -7.7832 L 9.9707 -7.7832 L 9.9707 -10.0098 C 9.9707 -10.5273 9.69727 -10.8496 9.22852 -10.8496 C 8.75977 -10.8496 8.50586 -10.5078 8.50586 -10.0098 L 8.50586 -7.7832 L 6.29883 -7.7832 C 5.78125 -7.7832 5.44922 -7.51953 5.44922 -7.04102 C 5.44922 -6.57227 5.80078 -6.31836 6.29883 -6.31836 L 8.50586 -6.31836 L 8.50586 -4.25781 C 8.50586 -3.75977 8.75977 -3.42773 9.22852 -3.42773 Z"/>
  </g>
  <g id="" transform="matrix(1 0 0 1 281.506 1933)">
   <path d="M 11.709 2.91016 C 17.1582 2.91016 21.6699 -1.60156 21.6699 -7.05078 C 21.6699 -12.4902 17.1484 -17.0117 11.6992 -17.0117 C 6.25977 -17.0117 1.74805 -12.4902 1.74805 -7.05078 C 1.74805 -1.60156 6.26953 2.91016 11.709 2.91016 Z M 11.709 1.25 C 7.09961 1.25 3.41797 -2.44141 3.41797 -7.05078 C 3.41797 -11.6504 7.08984 -15.3516 11.6992 -15.3516 C 16.3086 -15.3516 20 -11.6504 20.0098 -7.05078 C 20.0195 -2.44141 16.3184 1.25 11.709 1.25 Z M 11.6895 -2.41211 C 12.207 -2.41211 12.5195 -2.77344 12.5195 -3.33984 L 12.5195 -6.23047 L 15.5762 -6.23047 C 16.123 -6.23047 16.5039 -6.51367 16.5039 -7.03125 C 16.5039 -7.55859 16.1426 -7.86133 15.5762 -7.86133 L 12.5195 -7.86133 L 12.5195 -10.9277 C 12.5195 -11.5039 12.207 -11.8555 11.6895 -11.8555 C 11.1719 -11.8555 10.8789 -11.4844 10.8789 -10.9277 L 10.8789 -7.86133 L 7.83203 -7.86133 C 7.26562 -7.86133 6.89453 -7.55859 6.89453 -7.03125 C 6.89453 -6.51367 7.28516 -6.23047 7.83203 -6.23047 L 10.8789 -6.23047 L 10.8789 -3.33984 C 10.8789 -2.79297 11.1719 -2.41211 11.6895 -2.41211 Z"/>
  </g>
  <g id="" transform="matrix(1 0 0 1 304.924 1933)">
   <path d="M 14.9707 5.67383 C 21.9336 5.67383 27.6953 -0.078125 27.6953 -7.04102 C 27.6953 -14.0039 21.9238 -19.7559 14.9609 -19.7559 C 8.00781 -19.7559 2.25586 -14.0039 2.25586 -7.04102 C 2.25586 -0.078125 8.01758 5.67383 14.9707 5.67383 Z M 14.9707 3.85742 C 8.93555 3.85742 4.08203 -1.00586 4.08203 -7.04102 C 4.08203 -13.0762 8.92578 -17.9395 14.9609 -17.9395 C 21.0059 -17.9395 25.8594 -13.0762 25.8691 -7.04102 C 25.8789 -1.00586 21.0156 3.85742 14.9707 3.85742 Z M 14.9512 -1.06445 C 15.5176 -1.06445 15.8691 -1.45508 15.8691 -2.06055 L 15.8691 -6.13281 L 20.1074 -6.13281 C 20.6934 -6.13281 21.1133 -6.46484 21.1133 -7.02148 C 21.1133 -7.59766 20.7227 -7.93945 20.1074 -7.93945 L 15.8691 -7.93945 L 15.8691 -12.1875 C 15.8691 -12.8027 15.5176 -13.1934 14.9512 -13.1934 C 14.3848 -13.1934 14.0625 -12.7832 14.0625 -12.1875 L 14.0625 -7.93945 L 9.83398 -7.93945 C 9.21875 -7.93945 8.80859 -7.59766 8.80859 -7.02148 C 8.80859 -6.46484 9.23828 -6.13281 9.83398 -6.13281 L 14.0625 -6.13281 L 14.0625 -2.06055 C 14.0625 -1.47461 14.3848 -1.06445 14.9512 -1.06445 Z"/>
  </g>
  <text style="stroke:none;fill:black;font-family:-apple-system,&quot;SF Pro Display&quot;,&quot;SF Pro Text&quot;,Helvetica,sans-serif;font-weight:bold;" transform="matrix(1 0 0 1 263 1953)">Design Variations</text>
  <text style="stroke:none;fill:black;font-family:-apple-system,&quot;SF Pro Display&quot;,&quot;SF Pro Text&quot;,Helvetica,sans-serif;" transform="matrix(1 0 0 1 263 1971)">Symbols are supported in up to nine weights and three scales.</text>
  <text style="stroke:none;fill:black;font-family:-apple-system,&quot;SF Pro Display&quot;,&quot;SF Pro Text&quot;,Helvetica,sans-serif;" transform="matrix(1 0 0 1 263 1989)">For optimal layout with text and other symbols, vertically align</text>
  <text style="stroke:none;fill:black;font-family:-apple-system,&quot;SF Pro Display&quot;,&quot;SF Pro Text&quot;,Helvetica,sans-serif;" transform="matrix(1 0 0 1 263 2007)">symbols with the adjacent text.</text>
  <rect height="14" id="" style="fill:#00AEEF;stroke:none;opacity:0.4;" width="3" x="776" y="1919"/>
  <g id="" transform="matrix(1 0 0 1 779 1933)">
   <path d="M 10.5273 0 L 12.373 0 L 7.17773 -14.0918 L 5.43945 -14.0918 L 0.244141 0 L 2.08984 0 L 3.50586 -4.0332 L 9.11133 -4.0332 Z M 6.2793 -11.9531 L 6.33789 -11.9531 L 8.59375 -5.52734 L 4.02344 -5.52734 Z"/>
  </g>
  <rect height="14" id="" style="fill:#00AEEF;stroke:none;opacity:0.4;" width="3" x="791.617" y="1919"/>
  <text style="stroke:none;fill:black;font-family:-apple-system,&quot;SF Pro Display&quot;,&quot;SF Pro Text&quot;,Helvetica,sans-serif;font-weight:bold;" transform="matrix(1 0 0 1 776 1953)">Margins</text>
  <text style="stroke:none;fill:black;font-family:-apple-system,&quot;SF Pro Display&quot;,&quot;SF Pro Text&quot;,Helvetica,sans-serif;" transform="matrix(1 0 0 1 776 1971)">Leading and trailing margins on the left and right side of each symbol</text>
  <text style="stroke:none;fill:black;font-family:-apple-system,&quot;SF Pro Display&quot;,&quot;SF Pro Text&quot;,Helvetica,sans-serif;" transform="matrix(1 0 0 1 776 1989)">can be adjusted by modifying the width of the blue rectangles.</text>
  <text style="stroke:none;fill:black;font-family:-apple-system,&quot;SF Pro Display&quot;,&quot;SF Pro Text&quot;,Helvetica,sans-serif;" transform="matrix(1 0 0 1 776 2007)">Modifications are automatically applied proportionally to all</text>
  <text style="stroke:none;fill:black;font-family:-apple-system,&quot;SF Pro Display&quot;,&quot;SF Pro Text&quot;,Helvetica,sans-serif;" transform="matrix(1 0 0 1 776 2025)">scales and weights.</text>
  <g id="" transform="matrix(1 0 0 1 1289 1933)">
   <path d="M 2.83203 3.11523 L 4.375 4.6582 C 5.22461 5.48828 6.19141 5.41992 7.06055 4.46289 L 17.2754 -6.66016 C 17.7051 -6.36719 18.0957 -6.37695 18.5645 -6.47461 L 19.6094 -6.68945 L 20.3027 -5.99609 L 20.2539 -5.47852 C 20.1855 -4.95117 20.3516 -4.53125 20.8496 -4.0332 L 21.6602 -3.22266 C 22.168 -2.71484 22.8223 -2.68555 23.3008 -3.16406 L 26.5527 -6.41602 C 27.0312 -6.89453 27.0117 -7.54883 26.5039 -8.05664 L 25.6836 -8.87695 C 25.1855 -9.375 24.7754 -9.55078 24.2383 -9.47266 L 23.7109 -9.41406 L 23.0566 -10.0781 L 23.3398 -11.2207 C 23.4863 -11.7871 23.3398 -12.2559 22.7148 -12.8613 L 20.3027 -15.2539 C 16.7578 -18.7793 12.2266 -18.6719 9.11133 -15.5371 C 8.69141 -15.1074 8.64258 -14.5215 8.91602 -14.0918 C 9.15039 -13.7207 9.62891 -13.4961 10.2734 -13.6621 C 11.7871 -14.043 13.3008 -13.9258 14.7852 -12.9199 L 14.1602 -11.3379 C 13.9258 -10.752 13.9453 -10.2734 14.1797 -9.83398 L 3.01758 0.439453 C 2.08008 1.30859 1.97266 2.25586 2.83203 3.11523 Z M 10.6738 -15.1465 C 13.3398 -17.1387 16.6504 -16.8262 19.0527 -14.4141 L 21.6797 -11.8066 C 21.9141 -11.5723 21.9434 -11.3867 21.8848 -11.0938 L 21.5039 -9.53125 L 23.0762 -7.95898 L 24.043 -8.04688 C 24.3262 -8.07617 24.4141 -8.05664 24.6387 -7.83203 L 25.2637 -7.20703 L 22.5098 -4.46289 L 21.8848 -5.07812 C 21.6602 -5.30273 21.6406 -5.40039 21.6699 -5.68359 L 21.7578 -6.64062 L 20.1953 -8.20312 L 18.5742 -7.89062 C 18.291 -7.83203 18.1445 -7.83203 17.9102 -8.07617 L 15.7324 -10.2539 C 15.5078 -10.4883 15.4785 -10.625 15.6055 -10.9473 L 16.5527 -13.2227 C 14.9512 -14.7559 12.8418 -15.6055 10.8008 -14.9512 C 10.7129 -14.9219 10.6445 -14.9414 10.6152 -14.9805 C 10.5859 -15.0293 10.5859 -15.0781 10.6738 -15.1465 Z M 4.10156 2.41211 C 3.61328 1.91406 3.78906 1.61133 4.12109 1.30859 L 15.0781 -8.80859 L 16.3086 -7.57812 L 6.15234 3.34961 C 5.84961 3.68164 5.46875 3.7793 5.06836 3.37891 Z"/>
  </g>
  <text style="stroke:none;fill:black;font-family:-apple-system,&quot;SF Pro Display&quot;,&quot;SF Pro Text&quot;,Helvetica,sans-serif;font-weight:bold;" transform="matrix(1 0 0 1 1289 1953)">Exporting</text>
  <text style="stroke:none;fill:black;font-family:-apple-system,&quot;SF Pro Display&quot;,&quot;SF Pro Text&quot;,Helvetica,sans-serif;" transform="matrix(1 0 0 1 1289 1971)">Symbols should be outlined when exporting to ensure the</text>
  <text style="stroke:none;fill:black;font-family:-apple-system,&quot;SF Pro Display&quot;,&quot;SF Pro Text&quot;,Helvetica,sans-serif;" transform="matrix(1 0 0 1 1289 1989)">design is preserved when submitting to Xcode.</text>
  <text id="template-version" style="stroke:none;fill:black;font-family:-apple-system,&quot;SF Pro Display&quot;,&quot;SF Pro Text&quot;,Helvetica,sans-serif;text-anchor:end;" transform="matrix(1 0 0 1 3036 1933)">Template v.1.0</text>
  <text style="stroke:none;fill:black;font-family:-apple-system,&quot;SF Pro Display&quot;,&quot;SF Pro Text&quot;,Helvetica,sans-serif;text-anchor:end;" transform="matrix(1 0 0 1 3036 1951)">Generated from arrow.uturn.left</text>
  <text style="stroke:none;fill:black;font-family:-apple-system,&quot;SF Pro Display&quot;,&quot;SF Pro Text&quot;,Helvetica,sans-serif;text-anchor:end;" transform="matrix(1 0 0 1 3036 1969)">Typeset at 100 points</text>
  <text style="stroke:none;fill:black;font-family:-apple-system,&quot;SF Pro Display&quot;,&quot;SF Pro Text&quot;,Helvetica,sans-serif;" transform="matrix(1 0 0 1 263 726)">Small</text>
  <text style="stroke:none;fill:black;font-family:-apple-system,&quot;SF Pro Display&quot;,&quot;SF Pro Text&quot;,Helvetica,sans-serif;" transform="matrix(1 0 0 1 263 1156)">Medium</text>
  <text style="stroke:none;fill:black;font-family:-apple-system,&quot;SF Pro Display&quot;,&quot;SF Pro Text&quot;,Helvetica,sans-serif;" transform="matrix(1 0 0 1 263 1586)">Large</text>
 </g>
 <g id="Guides">
  <g id="H-reference" style="fill:#27AAE1;stroke:none;" transform="matrix(1 0 0 1 339 696)">
   <path d="M 54.9316 0 L 57.666 0 L 30.5664 -70.459 L 28.0762 -70.459 L 0.976562 0 L 3.66211 0 L 12.9395 -24.4629 L 45.7031 -24.4629 Z M 29.1992 -67.0898 L 29.4434 -67.0898 L 44.8242 -26.709 L 13.8184 -26.709 Z"/>
  </g>
  <line id="Baseline-S" style="fill:none;stroke:#27AAE1;opacity:1;stroke-width:0.577;" x1="263" x2="3036" y1="696" y2="696"/>
  <line id="Capline-S" style="fill:none;stroke:#27AAE1;opacity:1;stroke-width:0.577;" x1="263" x2="3036" y1="625.541" y2="625.541"/>
  <g id="H-reference" style="fill:#27AAE1;stroke:none;" transform="matrix(1 0 0 1 339 1126)">
   <path d="M 54.9316 0 L 57.666 0 L 30.5664 -70.459 L 28.0762 -70.459 L 0.976562 0 L 3.66211 0 L 12.9395 -24.4629 L 45.7031 -24.4629 Z M 29.1992 -67.0898 L 29.4434 -67.0898 L 44.8242 -26.709 L 13.8184 -26.709 Z"/>
  </g>
  <line id="Baseline-M" style="fill:none;stroke:#27AAE1;opacity:1;stroke-width:0.577;" x1="263" x2="3036" y1="1126" y2="1126"/>
  <line id="Capline-M" style="fill:none;stroke:#27AAE1;opacity:1;stroke-width:0.577;" x1="263" x2="3036" y1="1055.54" y2="1055.54"/>
  <g id="H-reference" style="fill:#27AAE1;stroke:none;" transform="matrix(1 0 0 1 339 1556)">
   <path d="M 54.9316 0 L 57.666 0 L 30.5664 -70.459 L 28.0762 -70.459 L 0.976562 0 L 3.66211 0 L 12.9395 -24.4629 L 45.7031 -24.4629 Z M 29.1992 -67.0898 L 29.4434 -67.0898 L 44.8242 -26.709 L 13.8184 -26.709 Z"/>
  </g>
  <line id="Baseline-L" style="fill:none;stroke:#27AAE1;opacity:1;stroke-width:0.577;" x1="263" x2="3036" y1="1556" y2="1556"/>
  <line id="Capline-L" style="fill:none;stroke:#27AAE1;opacity:1;stroke-width:0.577;" x1="263" x2="3036" y1="1485.54" y2="1485.54"/>
  <rect height="119.336" id="left-margin" style="fill:#00AEEF;stroke:none;opacity:0.4;" width="12.4512" x="1391.25" y="1030.79"/>
  <rect height="119.336" id="right-margin" style="fill:#00AEEF;stroke:none;opacity:0.4;" width="12.4512" x="1495.99" y="1030.79"/>
 </g>
 <g id="Symbols">
  <g id="Black-L" transform="matrix(1 0 0 1 2854.25 1556)">
   <path d="M 142.236 -13.916 C 142.236 -42.1387 123.242 -61.6699 94.7266 -61.6699 L 64.7949 -61.6699 L 51.0254 -61.0352 L 58.8867 -67.2852 L 68.1641 -76.2695 C 70.2637 -78.3691 71.875 -80.8594 71.875 -84.4238 C 71.875 -90.5762 67.4316 -95.2637 60.8398 -95.2637 C 57.9102 -95.2637 54.9805 -93.9941 52.6855 -91.6992 L 19.3848 -58.6426 C 17.334 -56.5918 16.0645 -53.3203 16.0645 -50.2441 C 16.0645 -47.168 17.334 -43.8965 19.3848 -41.8457 L 52.6855 -8.83789 C 54.9805 -6.5918 57.9102 -5.32227 60.8398 -5.32227 C 67.4316 -5.32227 71.875 -9.96094 71.875 -16.1133 C 71.875 -19.6777 70.2637 -22.168 68.1641 -24.2676 L 58.8867 -33.2031 L 51.0254 -39.4531 L 64.7949 -38.8184 L 93.2617 -38.8184 C 109.521 -38.8184 119.971 -28.5156 119.971 -14.1113 C 119.971 0.292969 109.521 10.3516 93.2617 10.3516 L 78.5156 10.3516 C 71.9727 10.3516 66.9434 15.4785 66.9434 21.7773 C 66.9434 28.125 71.9727 33.2031 78.5156 33.2031 L 95.0684 33.2031 C 123.389 33.2031 142.236 14.9414 142.236 -13.916 Z"/>
  </g>
  <g id="Heavy-L" transform="matrix(1 0 0 1 2558.47 1556)">
   <path d="M 140.381 -13.1348 C 140.381 -40.2832 122.119 -58.9844 93.8477 -58.9844 L 60.1074 -58.9844 L 46.0449 -58.3496 L 55.0781 -65.7227 L 66.6504 -77.0508 C 68.5059 -78.8086 69.8242 -81.0059 69.8242 -84.0332 C 69.8242 -89.4043 66.0156 -93.4082 60.3027 -93.4082 C 57.7637 -93.4082 55.1758 -92.334 53.2227 -90.332 L 18.9453 -56.3965 C 17.1387 -54.5898 16.0645 -51.8066 16.0645 -49.1211 C 16.0645 -46.4844 17.1387 -43.6523 18.9453 -41.8945 L 53.2227 -7.95898 C 55.1758 -6.00586 57.7637 -4.88281 60.3027 -4.88281 C 66.0156 -4.88281 69.8242 -8.93555 69.8242 -14.2578 C 69.8242 -17.334 68.5059 -19.4824 66.6504 -21.2891 L 55.0781 -32.5684 L 46.0449 -39.9414 L 60.1074 -39.2578 L 92.9199 -39.2578 C 110.4 -39.2578 121.143 -28.5645 121.143 -13.4277 C 121.143 1.66016 110.4 12.4023 92.9199 12.4023 L 77.832 12.4023 C 72.1191 12.4023 67.8223 16.7969 67.8223 22.2168 C 67.8223 27.6855 72.1191 32.0801 77.832 32.0801 L 94.3359 32.0801 C 122.314 32.0801 140.381 14.4043 140.381 -13.1348 Z"/>
  </g>
  <g id="Bold-L" transform="matrix(1 0 0 1 2262.78 1556)">
   <path d="M 138.33 -12.3047 C 138.33 -38.1836 120.85 -55.957 92.9199 -55.957 L 54.834 -55.957 L 40.5273 -55.3711 L 50.7812 -63.916 L 65.0391 -77.8809 C 66.5039 -79.3457 67.5293 -81.1523 67.5293 -83.5938 C 67.5293 -88.0371 64.4043 -91.3574 59.668 -91.3574 C 57.6172 -91.3574 55.4688 -90.4297 53.8574 -88.8672 L 18.5059 -53.8574 C 16.9434 -52.3438 16.0645 -50.0977 16.0645 -47.9004 C 16.0645 -45.7031 16.9434 -43.457 18.5059 -41.8945 L 53.8574 -6.93359 C 55.4688 -5.37109 57.6172 -4.44336 59.668 -4.44336 C 64.4043 -4.44336 67.5293 -7.76367 67.5293 -12.207 C 67.5293 -14.6484 66.5039 -16.4551 65.0391 -17.9199 L 50.7812 -31.8359 L 40.5273 -40.4297 L 54.834 -39.7949 L 92.5293 -39.7949 C 111.328 -39.7949 122.461 -28.6133 122.461 -12.6953 C 122.461 3.27148 111.328 14.6484 92.5293 14.6484 L 77.0508 14.6484 C 72.2656 14.6484 68.8477 18.2617 68.8477 22.7051 C 68.8477 27.1973 72.3145 30.8105 77.0508 30.8105 L 93.457 30.8105 C 121.094 30.8105 138.33 13.8184 138.33 -12.3047 Z"/>
  </g>
  <g id="Semibold-L" transform="matrix(1 0 0 1 1966.75 1556)">
   <path d="M 136.963 -11.7676 C 136.963 -36.7676 120.02 -53.9062 92.2363 -53.9062 L 51.2207 -53.9062 L 36.7676 -53.2715 L 47.8027 -62.6953 L 63.8672 -78.4668 C 65.1367 -79.7363 65.9668 -81.25 65.9668 -83.3008 C 65.9668 -87.1094 63.2812 -89.9414 59.2285 -89.9414 C 57.5195 -89.9414 55.6152 -89.1602 54.2969 -87.793 L 18.1641 -52.0996 C 16.7969 -50.7812 16.0645 -48.9258 16.0645 -47.0215 C 16.0645 -45.166 16.7969 -43.2617 18.1641 -41.9434 L 54.2969 -6.25 C 55.6152 -4.93164 57.5195 -4.15039 59.2285 -4.15039 C 63.2812 -4.15039 65.9668 -6.93359 65.9668 -10.791 C 65.9668 -12.8418 65.1367 -14.3555 63.8672 -15.5762 L 47.8027 -31.3477 L 36.7676 -40.7715 L 51.2207 -40.1855 L 92.2852 -40.1855 C 112.012 -40.1855 123.389 -28.6621 123.389 -12.1582 C 123.389 4.3457 112.012 16.1621 92.2852 16.1621 L 76.4648 16.1621 C 72.4121 16.1621 69.5312 19.2383 69.5312 23.0469 C 69.5312 26.8555 72.4121 29.9316 76.5137 29.9316 L 92.9199 29.9316 C 120.264 29.9316 136.963 13.4277 136.963 -11.7676 Z"/>
  </g>
  <g id="Medium-L" transform="matrix(1 0 0 1 1670.58 1556)">
   <path d="M 135.889 -11.3281 C 135.889 -35.6445 119.336 -52.3438 91.748 -52.3438 L 48.4375 -52.3438 L 33.9355 -51.7578 L 45.5566 -61.7676 L 63.0371 -78.9062 C 64.1113 -79.9805 64.7461 -81.2988 64.7461 -83.1055 C 64.7461 -86.4258 62.4023 -88.8672 58.8867 -88.8672 C 57.4219 -88.8672 55.7617 -88.1836 54.5898 -87.0117 L 17.9688 -50.7812 C 16.6992 -49.6094 16.0645 -47.998 16.0645 -46.3867 C 16.0645 -44.7266 16.6992 -43.1641 17.9688 -41.9434 L 54.5898 -5.76172 C 55.7617 -4.58984 57.4219 -3.90625 58.8867 -3.90625 C 62.4023 -3.90625 64.7461 -6.34766 64.7461 -9.66797 C 64.7461 -11.4746 64.1113 -12.793 63.0371 -13.8672 L 45.5566 -30.957 L 33.9355 -41.0156 L 48.4375 -40.4297 L 92.0898 -40.4297 C 112.5 -40.4297 124.072 -28.6621 124.072 -11.7676 C 124.072 5.17578 112.5 17.3828 92.0898 17.3828 L 76.0742 17.3828 C 72.5098 17.3828 70.0195 20.0195 70.0195 23.291 C 70.0195 26.6113 72.5098 29.248 76.0742 29.248 L 92.4316 29.248 C 119.629 29.248 135.889 13.1348 135.889 -11.3281 Z"/>
  </g>
  <g id="Regular-L" transform="matrix(1 0 0 1 1374.58 1556)">
   <path d="M 134.473 -10.7422 C 134.473 -34.2285 118.506 -50.293 91.1133 -50.293 L 44.873 -50.293 L 30.3223 -49.707 L 42.627 -60.5957 L 61.9141 -79.4922 C 62.7441 -80.3223 63.1836 -81.3965 63.1836 -82.8125 C 63.1836 -85.498 61.3281 -87.5 58.4961 -87.5 C 57.3242 -87.5 55.957 -86.9141 55.0293 -85.9863 L 17.627 -49.0723 C 16.5527 -48.0469 16.0645 -46.875 16.0645 -45.5566 C 16.0645 -44.1895 16.5527 -43.0176 17.627 -41.9922 L 55.0293 -5.07812 C 55.957 -4.15039 57.3242 -3.56445 58.4961 -3.56445 C 61.3281 -3.56445 63.1836 -5.56641 63.1836 -8.30078 C 63.1836 -9.66797 62.7441 -10.7422 61.9141 -11.5723 L 42.627 -30.4688 L 30.3223 -41.3574 L 44.873 -40.7715 L 91.7969 -40.7715 C 113.135 -40.7715 125 -28.7109 125 -11.2305 C 125 6.25 113.135 18.8965 91.7969 18.8965 L 75.5371 18.8965 C 72.6074 18.8965 70.7031 21.0449 70.7031 23.6328 C 70.7031 26.2695 72.6562 28.3691 75.5859 28.3691 L 91.8945 28.3691 C 118.848 28.3691 134.473 12.7441 134.473 -10.7422 Z"/>
  </g>
  <g id="Light-L" transform="matrix(1 0 0 1 1078.3 1556)">
   <path d="M 133.594 -11.377 C 133.594 -33.9844 117.969 -49.3164 92.4805 -49.3164 L 40.8691 -49.3164 L 26.709 -48.877 L 39.502 -60.6445 L 60.3027 -81.2012 C 60.8887 -81.7871 61.2305 -82.666 61.2305 -83.6914 C 61.2305 -85.6934 59.8145 -87.207 57.666 -87.207 C 56.7871 -87.207 55.8105 -86.8164 55.127 -86.084 L 17.2363 -48.3887 C 16.4551 -47.6562 16.0645 -46.7773 16.0645 -45.752 C 16.0645 -44.7266 16.4551 -43.8477 17.2363 -43.1152 L 55.127 -5.41992 C 55.8105 -4.73633 56.7871 -4.29688 57.666 -4.29688 C 59.8145 -4.29688 61.2305 -5.81055 61.2305 -7.8125 C 61.2305 -8.83789 60.8887 -9.7168 60.3027 -10.3027 L 39.502 -30.9082 L 26.709 -42.627 L 40.8691 -42.2363 L 92.8711 -42.2363 C 113.965 -42.2363 126.514 -29.834 126.514 -11.6699 C 126.514 6.44531 113.965 19.1895 92.8711 19.1895 L 74.1699 19.1895 C 72.0215 19.1895 70.6055 20.8008 70.6055 22.7539 C 70.6055 24.707 72.0703 26.2695 74.2188 26.2695 L 92.9688 26.2695 C 118.213 26.2695 133.594 11.2305 133.594 -11.377 Z"/>
  </g>
  <g id="Thin-L" transform="matrix(1 0 0 1 782.179 1556)">
   <path d="M 132.422 -12.207 C 132.422 -33.6426 117.334 -47.998 94.2871 -47.998 L 35.6445 -47.998 L 22.1191 -47.8027 L 35.3516 -60.6934 L 58.1543 -83.3984 C 58.4473 -83.7402 58.6426 -84.2773 58.6426 -84.9121 C 58.6426 -85.9375 57.8613 -86.8164 56.6406 -86.8164 C 56.0547 -86.8164 55.6152 -86.6211 55.2246 -86.2305 L 16.6992 -47.5098 C 16.2598 -47.0703 16.0645 -46.6309 16.0645 -46.0449 C 16.0645 -45.459 16.2598 -45.0195 16.6992 -44.6289 L 55.2246 -5.85938 C 55.6152 -5.46875 56.0547 -5.27344 56.6406 -5.27344 C 57.8613 -5.27344 58.6426 -6.15234 58.6426 -7.22656 C 58.6426 -7.8125 58.4473 -8.34961 58.1543 -8.69141 L 35.3516 -31.4453 L 22.1191 -44.3359 L 35.6445 -44.0918 L 94.2871 -44.0918 C 115.039 -44.0918 128.516 -31.3477 128.516 -12.2559 C 128.516 6.78711 115.039 19.6289 94.2871 19.6289 L 72.3633 19.6289 C 71.1914 19.6289 70.459 20.459 70.459 21.582 C 70.459 22.7051 71.2891 23.5352 72.4121 23.5352 L 94.4336 23.5352 C 117.383 23.5352 132.422 9.22852 132.422 -12.207 Z"/>
  </g>
  <g id="Ultralight-L" transform="matrix(1 0 0 1 485.761 1556)">
   <path d="M 131.836 -12.6465 C 131.836 -33.4961 116.992 -47.3145 95.2637 -47.3145 L 32.959 -47.3145 L 19.7754 -47.2656 L 33.2031 -60.6934 L 57.0312 -84.5703 C 57.1777 -84.7168 57.3242 -85.1562 57.3242 -85.498 C 57.3242 -86.084 56.8359 -86.6699 56.1035 -86.6699 C 55.7129 -86.6699 55.5176 -86.5234 55.2734 -86.2793 L 16.4062 -47.0215 C 16.1621 -46.7773 16.0645 -46.582 16.0645 -46.1914 C 16.0645 -45.8008 16.1621 -45.6055 16.4062 -45.3613 L 55.2734 -6.10352 C 55.5176 -5.85938 55.7129 -5.76172 56.1035 -5.76172 C 56.8359 -5.76172 57.3242 -6.29883 57.3242 -6.88477 C 57.3242 -7.27539 57.1777 -7.66602 57.0312 -7.86133 L 33.2031 -31.6895 L 19.7754 -45.166 L 32.959 -45.0684 L 94.9707 -45.0684 C 115.576 -45.0684 129.541 -32.0801 129.541 -12.5977 C 129.541 6.93359 115.576 19.8242 94.9707 19.8242 L 71.4355 19.8242 C 70.8008 19.8242 70.4102 20.3125 70.4102 20.9961 C 70.4102 21.6309 70.8984 22.1191 71.5332 22.1191 L 95.166 22.1191 C 116.943 22.1191 131.836 8.25195 131.836 -12.6465 Z"/>
  </g>
  <g id="Black-M" transform="matrix(1 0 0 1 2871.07 1126)">
   <path d="M 112.207 -20.0195 C 112.207 -43.0176 96.7773 -58.8379 75.293 -58.8379 L 54.4434 -58.8379 L 44.1895 -58.3496 L 49.1211 -62.2559 L 53.9062 -66.8945 C 55.8594 -68.7988 57.4219 -71.0938 57.4219 -74.3652 C 57.4219 -79.834 53.418 -84.082 47.5098 -84.082 C 44.7754 -84.082 42.1875 -82.9102 40.1367 -80.8594 L 15.332 -56.0547 C 13.5742 -54.2969 12.4512 -51.2695 12.4512 -48.4863 C 12.4512 -45.7031 13.5742 -42.6758 15.332 -40.918 L 40.1367 -16.1621 C 42.1875 -14.1113 44.7754 -12.9395 47.5098 -12.9395 C 53.418 -12.9395 57.4219 -17.1875 57.4219 -22.6562 C 57.4219 -25.9766 55.8594 -28.2227 53.9062 -30.127 L 49.1211 -34.7168 L 44.1895 -38.623 L 54.4434 -38.1348 L 73.291 -38.1348 C 84.1797 -38.1348 92.1387 -30.5664 92.1387 -20.0195 C 92.1387 -9.47266 84.1797 -2.44141 73.291 -2.44141 L 61.084 -2.44141 C 55.2246 -2.44141 50.6348 2.14844 50.6348 7.91016 C 50.6348 13.623 55.2246 18.2617 61.084 18.2617 L 75.293 18.2617 C 96.7285 18.2617 112.207 3.56445 112.207 -20.0195 Z"/>
  </g>
  <g id="Heavy-M" transform="matrix(1 0 0 1 2575.24 1126)">
   <path d="M 110.449 -19.043 C 110.449 -41.0156 95.6543 -56.1523 74.0234 -56.1523 L 50.3418 -56.1523 L 39.7461 -55.6641 L 45.752 -60.498 L 52.7344 -67.2852 C 54.3945 -68.9453 55.6641 -70.8984 55.6641 -73.6816 C 55.6641 -78.4668 52.2461 -82.1289 47.1191 -82.1289 C 44.7754 -82.1289 42.4805 -81.1523 40.7227 -79.3457 L 14.9902 -53.7598 C 13.4277 -52.1973 12.4512 -49.6094 12.4512 -47.2168 C 12.4512 -44.8242 13.4277 -42.2363 14.9902 -40.6738 L 40.7227 -15.0879 C 42.4805 -13.3301 44.7754 -12.3535 47.1191 -12.3535 C 52.2461 -12.3535 55.6641 -15.9668 55.6641 -20.752 C 55.6641 -23.584 54.3945 -25.5371 52.7344 -27.1484 L 45.752 -33.9355 L 39.7461 -38.7695 L 50.3418 -38.2812 L 72.6562 -38.2812 C 84.9121 -38.2812 93.0664 -30.3223 93.0664 -19.1895 C 93.0664 -8.00781 84.9121 -0.341797 72.6562 -0.341797 L 60.6445 -0.341797 C 55.5664 -0.341797 51.6113 3.66211 51.6113 8.59375 C 51.6113 13.5742 55.5664 17.5293 60.6445 17.5293 L 74.1699 17.5293 C 95.752 17.5293 110.449 3.36914 110.449 -19.043 Z"/>
  </g>
  <g id="Bold-M" transform="matrix(1 0 0 1 2279.53 1126)">
   <path d="M 108.447 -17.9688 C 108.447 -38.7695 94.4336 -53.125 72.5586 -53.125 L 45.752 -53.125 L 34.8145 -52.6367 L 41.9922 -58.5449 L 51.416 -67.7734 C 52.7832 -69.0918 53.7598 -70.7031 53.7598 -72.9492 C 53.7598 -76.9531 50.8789 -79.9805 46.6309 -79.9805 C 44.7754 -79.9805 42.8223 -79.1504 41.3574 -77.6855 L 14.5996 -51.2207 C 13.2324 -49.8535 12.4512 -47.7539 12.4512 -45.8008 C 12.4512 -43.7988 13.2324 -41.6992 14.5996 -40.3809 L 41.3574 -13.916 C 42.8223 -12.4512 44.7754 -11.6211 46.6309 -11.6211 C 50.8789 -11.6211 53.7598 -14.6484 53.7598 -18.6523 C 53.7598 -20.8984 52.7832 -22.5098 51.416 -23.877 L 41.9922 -33.0078 L 34.8145 -38.916 L 45.752 -38.4277 L 71.9238 -38.4277 C 85.6934 -38.4277 94.0918 -30.0781 94.0918 -18.2129 C 94.0918 -6.34766 85.6934 2.05078 71.9238 2.05078 L 60.2051 2.05078 C 55.9082 2.05078 52.7344 5.32227 52.7344 9.42383 C 52.7344 13.4766 55.957 16.748 60.2051 16.748 L 72.9492 16.748 C 94.5801 16.748 108.447 3.17383 108.447 -17.9688 Z"/>
  </g>
  <g id="Semibold-M" transform="matrix(1 0 0 1 1983.48 1126)">
   <path d="M 107.129 -17.2363 C 107.129 -37.2559 93.6035 -51.0742 71.5332 -51.0742 L 42.5781 -51.0742 L 31.3965 -50.5859 L 39.4043 -57.2266 L 50.4883 -68.0664 C 51.6602 -69.1895 52.4414 -70.5566 52.4414 -72.4609 C 52.4414 -75.9277 50 -78.4668 46.3379 -78.4668 C 44.7266 -78.4668 43.0664 -77.7832 41.7969 -76.5625 L 14.3555 -49.4141 C 13.1348 -48.2422 12.4512 -46.4844 12.4512 -44.8242 C 12.4512 -43.1152 13.1348 -41.3574 14.3555 -40.1855 L 41.7969 -13.0859 C 43.0664 -11.8652 44.7266 -11.1328 46.3379 -11.1328 C 50 -11.1328 52.4414 -13.7207 52.4414 -17.1875 C 52.4414 -19.0918 51.6602 -20.459 50.4883 -21.582 L 39.4043 -32.4219 L 31.3965 -39.0625 L 42.5781 -38.5254 L 71.4355 -38.5254 C 86.2305 -38.5254 94.7754 -29.8828 94.7754 -17.5293 C 94.7754 -5.22461 86.2305 3.66211 71.4355 3.66211 L 59.8633 3.66211 C 56.2012 3.66211 53.5156 6.49414 53.5156 9.96094 C 53.5156 13.3789 56.2012 16.2109 59.8633 16.2109 L 72.0703 16.2109 C 93.7988 16.2109 107.129 3.02734 107.129 -17.2363 Z"/>
  </g>
  <g id="Medium-M" transform="matrix(1 0 0 1 1687.3 1126)">
   <path d="M 106.055 -16.6504 C 106.055 -36.084 92.9688 -49.5117 70.8008 -49.5117 L 40.1367 -49.5117 L 28.8574 -48.9746 L 37.4023 -56.2012 L 49.8047 -68.3105 C 50.7812 -69.2383 51.416 -70.459 51.416 -72.0703 C 51.416 -75.1465 49.2676 -77.3438 46.0938 -77.3438 C 44.7266 -77.3438 43.2129 -76.709 42.1387 -75.6836 L 14.1602 -48.0957 C 13.0371 -47.0215 12.4512 -45.5566 12.4512 -44.043 C 12.4512 -42.5781 13.0371 -41.1133 14.1602 -40.0391 L 42.1387 -12.4512 C 43.2129 -11.4258 44.7266 -10.791 46.0938 -10.791 C 49.2676 -10.791 51.416 -12.9883 51.416 -16.0645 C 51.416 -17.6758 50.7812 -18.8477 49.8047 -19.8242 L 37.4023 -31.9336 L 28.8574 -39.1113 L 40.1367 -38.623 L 71.0449 -38.623 C 86.6699 -38.623 95.3125 -29.7363 95.3125 -17.041 C 95.3125 -4.3457 86.6699 4.93164 71.0449 4.93164 L 59.6191 4.93164 C 56.3965 4.93164 54.1016 7.37305 54.1016 10.3516 C 54.1016 13.3301 56.3965 15.7715 59.668 15.7715 L 71.4355 15.7715 C 93.2129 15.7715 106.055 2.92969 106.055 -16.6504 Z"/>
  </g>
  <g id="Regular-M" transform="matrix(1 0 0 1 1391.25 1126)">
   <path d="M 104.736 -15.918 C 104.736 -34.5703 92.0898 -47.4609 69.8242 -47.4609 L 37.0117 -47.4609 L 25.5859 -46.9238 L 34.8145 -54.834 L 48.9258 -68.6035 C 49.6582 -69.3848 50.0977 -70.3125 50.0977 -71.582 C 50.0977 -74.1211 48.3887 -75.8789 45.752 -75.8789 C 44.7266 -75.8789 43.457 -75.3418 42.627 -74.5117 L 13.916 -46.3379 C 12.9395 -45.4102 12.4512 -44.2871 12.4512 -43.0664 C 12.4512 -41.8945 12.9395 -40.7715 13.916 -39.8438 L 42.627 -11.6699 C 43.457 -10.791 44.7266 -10.3027 45.752 -10.3027 C 48.3887 -10.3027 50.0977 -12.0605 50.0977 -14.5996 C 50.0977 -15.8691 49.6582 -16.7969 48.9258 -17.5781 L 34.8145 -31.2988 L 25.5859 -39.209 L 37.0117 -38.7207 L 70.5566 -38.7207 C 87.207 -38.7207 95.9961 -29.541 95.9961 -16.4062 C 95.9961 -3.22266 87.207 6.54297 70.5566 6.54297 L 59.3262 6.54297 C 56.6406 6.54297 54.8828 8.49609 54.8828 10.8887 C 54.8828 13.2812 56.6406 15.2344 59.3262 15.2344 L 70.6055 15.2344 C 92.4316 15.2344 104.736 2.7832 104.736 -15.918 Z"/>
  </g>
  <g id="Light-M" transform="matrix(1 0 0 1 1094.93 1126)">
   <path d="M 103.955 -16.4551 C 103.955 -34.375 91.6504 -46.582 71.0449 -46.582 L 33.4473 -46.582 L 22.3145 -46.1914 L 32.0312 -54.8828 L 47.4609 -70.1172 C 47.998 -70.6543 48.3398 -71.4355 48.3398 -72.3633 C 48.3398 -74.2676 47.0215 -75.6348 45.0684 -75.6348 C 44.2383 -75.6348 43.3105 -75.2441 42.6758 -74.6094 L 13.5254 -45.752 C 12.793 -45.0195 12.4512 -44.1895 12.4512 -43.3105 C 12.4512 -42.3828 12.793 -41.5527 13.5254 -40.8203 L 42.6758 -11.9629 C 43.3105 -11.3281 44.2383 -10.9375 45.0684 -10.9375 C 47.0215 -10.9375 48.3398 -12.3047 48.3398 -14.209 C 48.3398 -15.1367 47.998 -15.918 47.4609 -16.4551 L 32.0312 -31.6895 L 22.3145 -40.3809 L 33.4473 -39.9902 L 71.4844 -39.9902 C 87.9395 -39.9902 97.3633 -30.5664 97.3633 -16.7969 C 97.3633 -3.02734 87.9395 6.83594 71.4844 6.83594 L 58.1055 6.83594 C 56.1035 6.83594 54.7852 8.30078 54.7852 10.1074 C 54.7852 11.9141 56.1035 13.3789 58.1055 13.3789 L 71.582 13.3789 C 91.8945 13.3789 103.955 1.46484 103.955 -16.4551 Z"/>
  </g>
  <g id="Thin-M" transform="matrix(1 0 0 1 798.756 1126)">
   <path d="M 102.881 -17.1875 C 102.881 -34.082 91.0645 -45.4102 72.7051 -45.4102 L 28.7598 -45.4102 L 18.1152 -45.166 L 28.2715 -54.9316 L 45.5078 -72.0703 C 45.8496 -72.4121 45.9961 -72.9004 45.9961 -73.4375 C 45.9961 -74.4629 45.2637 -75.293 44.1406 -75.293 C 43.6035 -75.293 43.1152 -75.0977 42.7734 -74.707 L 13.0371 -44.9219 C 12.6465 -44.5312 12.4512 -44.0918 12.4512 -43.5547 C 12.4512 -43.0176 12.6465 -42.5781 13.0371 -42.1875 L 42.7734 -12.4023 C 43.1152 -12.0117 43.6035 -11.8164 44.1406 -11.8164 C 45.2637 -11.8164 45.9961 -12.5977 45.9961 -13.623 C 45.9961 -14.209 45.8496 -14.6973 45.5078 -14.9902 L 28.2715 -32.1777 L 18.1152 -41.8945 L 28.7598 -41.6992 L 72.7539 -41.6992 C 88.916 -41.6992 99.1699 -31.8848 99.1699 -17.334 C 99.1699 -2.73438 88.916 7.17773 72.7539 7.17773 L 56.4453 7.17773 C 55.3711 7.17773 54.6387 8.00781 54.6387 9.0332 C 54.6387 10.1074 55.4199 10.8887 56.543 10.8887 L 72.8516 10.8887 C 91.1621 10.8887 102.881 -0.341797 102.881 -17.1875 Z"/>
  </g>
  <g id="Ultralight-M" transform="matrix(1 0 0 1 502.314 1126)">
   <path d="M 102.344 -17.5781 C 102.344 -33.9355 90.7715 -44.8242 73.5352 -44.8242 L 26.3184 -44.8242 L 16.0156 -44.6777 L 26.3672 -54.9805 L 44.5312 -73.0957 C 44.7266 -73.291 44.8242 -73.6328 44.8242 -74.0234 C 44.8242 -74.6094 44.3359 -75.1465 43.6523 -75.1465 C 43.2617 -75.1465 43.0664 -75 42.8223 -74.7559 L 12.793 -44.5312 C 12.5488 -44.2871 12.4512 -44.043 12.4512 -43.7012 C 12.4512 -43.3105 12.5488 -43.1152 12.793 -42.8711 L 42.8223 -12.5977 C 43.0664 -12.3535 43.2617 -12.2559 43.6523 -12.2559 C 44.3359 -12.2559 44.8242 -12.793 44.8242 -13.3789 C 44.8242 -13.7207 44.7266 -14.0625 44.5312 -14.2578 L 26.3672 -32.4219 L 16.0156 -42.6758 L 26.3184 -42.5781 L 73.3887 -42.5781 C 89.4043 -42.5781 100.098 -32.5684 100.098 -17.5781 C 100.098 -2.58789 89.4043 7.37305 73.3887 7.37305 L 55.6152 7.37305 C 54.9805 7.37305 54.5898 7.86133 54.5898 8.49609 C 54.5898 9.17969 55.0293 9.61914 55.7129 9.61914 L 73.5352 9.61914 C 90.7715 9.61914 102.344 -1.2207 102.344 -17.5781 Z"/>
  </g>
  <g id="Black-S" transform="matrix(1 0 0 1 2884.62 696)">
   <path d="M 87.793 -23.2422 C 87.793 -41.1621 75.7324 -53.5156 58.8867 -53.5156 L 42.3828 -53.5156 L 34.3262 -53.125 L 38.2812 -56.25 L 42.1875 -60.0586 C 43.7012 -61.5234 44.873 -63.2812 44.873 -65.8203 C 44.873 -70.0684 41.7969 -73.3398 37.207 -73.3398 C 35.1074 -73.3398 33.1055 -72.4609 31.4941 -70.8496 L 12.0117 -51.3672 C 10.6445 -50 9.76562 -47.6562 9.76562 -45.5078 C 9.76562 -43.3594 10.6445 -41.0156 12.0117 -39.6484 L 31.4941 -20.2148 C 33.1055 -18.6035 35.1074 -17.7246 37.207 -17.7246 C 41.7969 -17.7246 44.873 -20.9961 44.873 -25.2441 C 44.873 -27.7832 43.7012 -29.541 42.1875 -31.0059 L 38.2812 -34.7656 L 34.3262 -37.8906 L 42.3828 -37.5 L 57.373 -37.5 C 66.0156 -37.5 72.2656 -31.543 72.2656 -23.2422 C 72.2656 -14.9414 66.0156 -9.375 57.373 -9.375 L 47.8516 -9.375 C 43.3105 -9.375 39.7461 -5.81055 39.7461 -1.36719 C 39.7461 3.07617 43.3105 6.64062 47.8516 6.64062 L 58.8867 6.64062 C 75.7324 6.64062 87.793 -4.83398 87.793 -23.2422 Z"/>
  </g>
  <g id="Heavy-S" transform="matrix(1 0 0 1 2588.54 696)">
   <path d="M 86.5234 -22.4121 C 86.5234 -39.6484 74.9512 -51.5625 57.7637 -51.5625 L 39.6484 -51.5625 L 31.3477 -51.1719 L 36.0352 -54.9316 L 41.4551 -60.2051 C 42.7734 -61.4746 43.75 -63.0371 43.75 -65.2344 C 43.75 -68.9941 41.0156 -71.875 36.9629 -71.875 C 35.1562 -71.875 33.3496 -71.0938 31.9336 -69.6777 L 11.7676 -49.707 C 10.5469 -48.4375 9.76562 -46.3867 9.76562 -44.5312 C 9.76562 -42.627 10.5469 -40.5762 11.7676 -39.3555 L 31.9336 -19.3848 C 33.3496 -17.9688 35.1562 -17.1875 36.9629 -17.1875 C 41.0156 -17.1875 43.75 -20.0684 43.75 -23.8281 C 43.75 -26.0254 42.7734 -27.5879 41.4551 -28.8574 L 36.0352 -34.1309 L 31.3477 -37.8418 L 39.6484 -37.4512 L 56.7871 -37.4512 C 66.5039 -37.4512 72.8027 -31.25 72.8027 -22.5586 C 72.8027 -13.8184 66.5039 -7.76367 56.7871 -7.76367 L 47.6562 -7.76367 C 43.6035 -7.76367 40.5273 -4.63867 40.5273 -0.732422 C 40.5273 3.17383 43.6035 6.29883 47.6562 6.29883 L 57.9102 6.29883 C 75 6.29883 86.5234 -4.83398 86.5234 -22.4121 Z"/>
  </g>
  <g id="Bold-S" transform="matrix(1 0 0 1 2292.54 696)">
   <path d="M 85.1074 -21.5332 C 85.1074 -37.9883 74.0723 -49.3652 56.4941 -49.3652 L 36.5723 -49.3652 L 27.9785 -48.9746 L 33.4961 -53.418 L 40.625 -60.3516 C 41.6992 -61.4258 42.4805 -62.7441 42.4805 -64.5508 C 42.4805 -67.8223 40.1855 -70.2637 36.7188 -70.2637 C 35.2051 -70.2637 33.5938 -69.5801 32.4219 -68.4082 L 11.5234 -47.8027 C 10.4004 -46.6797 9.76562 -45.0195 9.76562 -43.4082 C 9.76562 -41.7969 10.4004 -40.0879 11.5234 -39.0137 L 32.4219 -18.4082 C 33.5938 -17.2363 35.2051 -16.5527 36.7188 -16.5527 C 40.1855 -16.5527 42.4805 -18.9941 42.4805 -22.2656 C 42.4805 -24.0723 41.6992 -25.3906 40.625 -26.4648 L 33.4961 -33.3984 L 27.9785 -37.8418 L 36.5723 -37.4512 L 56.1035 -37.4512 C 66.9922 -37.4512 73.4375 -30.9082 73.4375 -21.7773 C 73.4375 -12.5977 66.9922 -6.00586 56.1035 -6.00586 L 47.4609 -6.00586 C 43.9941 -6.00586 41.4062 -3.32031 41.4062 -0.0488281 C 41.4062 3.27148 43.9941 5.95703 47.4609 5.95703 L 56.8848 5.95703 C 74.2188 5.95703 85.1074 -4.83398 85.1074 -21.5332 Z"/>
  </g>
  <g id="Semibold-S" transform="matrix(1 0 0 1 1996.32 696)">
   <path d="M 84.1309 -20.8984 C 84.1309 -36.8652 73.4375 -47.8516 55.6152 -47.8516 L 34.4238 -47.8516 L 25.6836 -47.4609 L 31.7383 -52.3926 L 40.0391 -60.4492 C 41.0156 -61.377 41.6016 -62.5488 41.6016 -64.1113 C 41.6016 -67.041 39.5996 -69.1406 36.5234 -69.1406 C 35.2051 -69.1406 33.7891 -68.5547 32.7637 -67.5293 L 11.377 -46.4844 C 10.3516 -45.5078 9.76562 -44.043 9.76562 -42.627 C 9.76562 -41.2109 10.3516 -39.7461 11.377 -38.7695 L 32.7637 -17.7734 C 33.7891 -16.748 35.2051 -16.1133 36.5234 -16.1133 C 39.5996 -16.1133 41.6016 -18.2617 41.6016 -21.1914 C 41.6016 -22.7539 41.0156 -23.877 40.0391 -24.8047 L 31.7383 -32.8613 L 25.6836 -37.8418 L 34.4238 -37.4023 L 55.6641 -37.4023 C 67.334 -37.4023 73.8281 -30.6641 73.8281 -21.2402 C 73.8281 -11.7676 67.334 -4.78516 55.6641 -4.78516 L 47.3145 -4.78516 C 44.2383 -4.78516 41.9922 -2.44141 41.9922 0.439453 C 41.9922 3.32031 44.2383 5.66406 47.3145 5.66406 L 56.1035 5.66406 C 73.6816 5.66406 84.1309 -4.78516 84.1309 -20.8984 Z"/>
  </g>
  <g id="Medium-S" transform="matrix(1 0 0 1 1699.97 696)">
   <path d="M 83.3984 -20.4102 C 83.3984 -35.9863 72.998 -46.7285 54.9805 -46.7285 L 32.8613 -46.7285 L 23.9258 -46.2891 L 30.4199 -51.6113 L 39.5996 -60.5469 C 40.4297 -61.377 40.9668 -62.4023 40.9668 -63.7695 C 40.9668 -66.4062 39.1602 -68.3105 36.377 -68.3105 C 35.2539 -68.3105 33.9355 -67.7734 33.0078 -66.8457 L 11.2305 -45.5078 C 10.2539 -44.5801 9.76562 -43.3105 9.76562 -42.041 C 9.76562 -40.7715 10.2539 -39.502 11.2305 -38.5742 L 33.0078 -17.2363 C 33.9355 -16.3574 35.2539 -15.8203 36.377 -15.8203 C 39.1602 -15.8203 40.9668 -17.7246 40.9668 -20.3613 C 40.9668 -21.7285 40.4297 -22.7539 39.5996 -23.584 L 30.4199 -32.4707 L 23.9258 -37.793 L 32.8613 -37.4023 L 55.2734 -37.4023 C 67.627 -37.4023 74.1699 -30.5176 74.1699 -20.8008 C 74.1699 -11.1328 67.627 -3.85742 55.2734 -3.85742 L 47.2168 -3.85742 C 44.3848 -3.85742 42.4805 -1.75781 42.4805 0.830078 C 42.4805 3.36914 44.3848 5.46875 47.2168 5.46875 L 55.5664 5.46875 C 73.2422 5.46875 83.3984 -4.78516 83.3984 -20.4102 Z"/>
  </g>
  <g id="Regular-S" transform="matrix(1 0 0 1 1403.75 696)">
   <path d="M 82.4219 -19.8242 C 82.4219 -34.8145 72.4121 -45.2148 54.1016 -45.2148 L 30.7617 -45.2148 L 21.6797 -44.7754 L 28.6621 -50.5859 L 39.0137 -60.6445 C 39.7461 -61.3281 40.0879 -62.207 40.0879 -63.3301 C 40.0879 -65.625 38.5742 -67.1875 36.2305 -67.1875 C 35.2539 -67.1875 34.1309 -66.748 33.3496 -65.9668 L 11.084 -44.2383 C 10.2051 -43.4082 9.76562 -42.3828 9.76562 -41.3086 C 9.76562 -40.2344 10.2051 -39.1602 11.084 -38.3301 L 33.3496 -16.6016 C 34.1309 -15.8691 35.2539 -15.3809 36.2305 -15.3809 C 38.5742 -15.3809 40.0879 -16.9922 40.0879 -19.2871 C 40.0879 -20.4102 39.7461 -21.2402 39.0137 -21.9238 L 28.6621 -31.9824 L 21.6797 -37.793 L 30.7617 -37.3535 L 54.834 -37.3535 C 67.9688 -37.3535 74.5605 -30.2734 74.5605 -20.2637 C 74.5605 -10.2539 67.9688 -2.63672 54.834 -2.63672 L 47.0703 -2.63672 C 44.6289 -2.63672 43.0664 -0.878906 43.0664 1.26953 C 43.0664 3.4668 44.6289 5.22461 47.0703 5.22461 L 54.834 5.22461 C 72.7051 5.22461 82.4219 -4.78516 82.4219 -19.8242 Z"/>
  </g>
  <g id="Light-S" transform="matrix(1 0 0 1 1107.38 696)">
   <path d="M 81.7383 -20.3125 C 81.7383 -34.6191 71.9727 -44.4336 55.1758 -44.4336 L 27.5879 -44.4336 L 18.75 -44.0918 L 26.1719 -50.6348 L 37.7441 -61.9629 C 38.2812 -62.5 38.5742 -63.1836 38.5742 -64.0137 C 38.5742 -65.7715 37.3535 -66.9922 35.5957 -66.9922 C 34.8633 -66.9922 33.9844 -66.6504 33.3984 -66.0645 L 10.7422 -43.7012 C 10.1074 -43.0664 9.76562 -42.2852 9.76562 -41.4551 C 9.76562 -40.625 10.1074 -39.8926 10.7422 -39.2578 L 33.3984 -16.8945 C 33.9844 -16.3086 34.8633 -15.9668 35.5957 -15.9668 C 37.3535 -15.9668 38.5742 -17.1875 38.5742 -18.8965 C 38.5742 -19.7754 38.2812 -20.459 37.7441 -20.9473 L 26.1719 -32.3242 L 18.75 -38.8184 L 27.5879 -38.4766 L 55.6641 -38.4766 C 68.6523 -38.4766 75.7812 -31.2012 75.7812 -20.6055 C 75.7812 -10.0586 68.6523 -2.39258 55.6641 -2.39258 L 45.9961 -2.39258 C 44.1406 -2.39258 42.9688 -1.07422 42.9688 0.585938 C 42.9688 2.24609 44.1895 3.56445 45.9961 3.56445 L 55.7129 3.56445 C 72.2168 3.56445 81.7383 -6.00586 81.7383 -20.3125 Z"/>
  </g>
  <g id="Thin-S" transform="matrix(1 0 0 1 811.134 696)">
   <path d="M 80.8105 -20.9473 C 80.8105 -34.375 71.4844 -43.4082 56.6406 -43.4082 L 23.4375 -43.4082 L 14.9902 -43.2129 L 22.9004 -50.6348 L 36.0352 -63.7207 C 36.3281 -64.0137 36.5234 -64.4531 36.5234 -64.9902 C 36.5234 -65.918 35.791 -66.6992 34.7656 -66.6992 C 34.2773 -66.6992 33.8379 -66.5039 33.4961 -66.1621 L 10.3516 -42.9688 C 9.96094 -42.627 9.76562 -42.1875 9.76562 -41.6992 C 9.76562 -41.2109 9.96094 -40.7715 10.3516 -40.4297 L 33.4961 -17.2363 C 33.8379 -16.8945 34.2773 -16.6992 34.7656 -16.6992 C 35.791 -16.6992 36.5234 -17.4316 36.5234 -18.4082 C 36.5234 -18.9453 36.3281 -19.3848 36.0352 -19.6777 L 22.9004 -32.7148 L 14.9902 -40.1855 L 23.4375 -39.9902 L 56.7871 -39.9902 C 69.4824 -39.9902 77.3438 -32.373 77.3438 -21.0938 C 77.3438 -9.81445 69.4824 -2.05078 56.7871 -2.05078 L 44.5801 -2.05078 C 43.5059 -2.05078 42.8711 -1.31836 42.8711 -0.341797 C 42.8711 0.634766 43.5547 1.36719 44.5801 1.36719 L 56.8359 1.36719 C 71.582 1.36719 80.8105 -7.56836 80.8105 -20.9473 Z"/>
  </g>
  <g id="Ultralight-S" transform="matrix(1 0 0 1 514.667 696)">
   <path d="M 80.3223 -21.2891 C 80.3223 -34.2773 71.1914 -42.8711 57.373 -42.8711 L 21.2891 -42.8711 L 13.1348 -42.7734 L 21.1914 -50.6836 L 35.1562 -64.6484 C 35.3516 -64.7949 35.4492 -65.1367 35.4492 -65.4785 C 35.4492 -66.0645 35.0098 -66.5527 34.3262 -66.5527 C 33.9844 -66.5527 33.7402 -66.4062 33.5449 -66.2109 L 10.1074 -42.627 C 9.86328 -42.3828 9.76562 -42.1387 9.76562 -41.7969 C 9.76562 -41.5039 9.86328 -41.2598 10.1074 -41.0156 L 33.5449 -17.4316 C 33.7402 -17.2363 33.9844 -17.0898 34.3262 -17.0898 C 35.0098 -17.0898 35.4492 -17.5781 35.4492 -18.1641 C 35.4492 -18.5059 35.3516 -18.8477 35.1562 -18.9941 L 21.1914 -32.959 L 13.1348 -40.8691 L 21.2891 -40.7227 L 57.3242 -40.7227 C 69.9219 -40.7227 78.1738 -32.959 78.1738 -21.3379 C 78.1738 -9.7168 69.9219 -1.9043 57.3242 -1.9043 L 43.7988 -1.9043 C 43.2129 -1.9043 42.7734 -1.41602 42.7734 -0.830078 C 42.7734 -0.195312 43.2129 0.244141 43.8477 0.244141 L 57.4219 0.244141 C 71.2402 0.244141 80.3223 -8.34961 80.3223 -21.2891 Z"/>
  </g>
 </g>
</svg>
