<?xml version="1.0" ?>
<svg xmlns="http://www.w3.org/2000/svg" width="34" height="34" viewBox="0 0 34 34">
  <path d="m33.87,16.93c0,9.35 -7.58,16.93 -16.93,16.93 -9.35,0 -16.93,-7.58 -16.93,-16.93 0,-9.35 7.58,-16.93 16.93,-16.93 9.35,0 16.93,7.58 16.93,16.93" fill="#529add"/>
  <path d="m21.21,26.58a6.13,6.13 55.15,0 1,-6.24 2.34,6.13 6.13,55.15 0,1 -4.69,-4.73 6.13,6.13 55.15,0 1,2.4 -6.21" fill="none" stroke-linecap="round" stroke-width="2.5" stroke="#000"/>
  <path d="m25.4,26.44 l-3.24,-6.59 -5.62,-1.03c0.83,-1.78 1.35,-4.9 1.38,-6.79" fill="none" stroke-linejoin="round" stroke-linecap="round" stroke-width="3" stroke="#000"/>
  <path d="m9.86,15.94c1.04,-3.05 3.5,-3.97 8.06,-3.91" fill="none" stroke-linejoin="round" stroke-linecap="round" stroke-width="2.5" stroke="#000"/>
  <path d="M20.16,7.24m-2.69,0a2.69,2.69 0,1 1,5.37 0a2.69,2.69 0,1 1,-5.37 0" fill="#000"/>
  <path d="m21.21,25.54a6.13,6.13 61.96,0 1,-6.24 2.34,6.13 6.13,55.15 0,1 -4.69,-4.73 6.13,6.13 55.15,0 1,2.4 -6.21" fill="none" stroke-linecap="round" stroke-width="2.5" stroke="#fff"/>
  <path d="m25.4,25.4 l-3.24,-6.59 -5.62,-1.03c0.83,-1.78 1.35,-4.9 1.38,-6.79" fill="none" stroke-linejoin="round" stroke-linecap="round" stroke-width="3" stroke="#fff"/>
  <path d="m9.86,14.9c1.04,-3.05 3.5,-3.97 8.06,-3.91" fill="none" stroke-linejoin="round" stroke-linecap="round" stroke-width="2.5" stroke="#fff"/>
  <path d="M20.16,6.2m-2.69,0a2.69,2.69 0,1 1,5.37 0a2.69,2.69 0,1 1,-5.37 0" fill="#fff"/>
</svg>
