<svg xmlns="http://www.w3.org/2000/svg" width="16" height="16"><path d="M 7.5,7.0 C 7.3328,7.0 7.1767,7.0836 7.084,7.2227 C 6.1409,8.6373 4.1566,10.6316 2.1992,12.0996 C 1.8138,12.3881 2.0186,13.0011 2.5,13.0 L 13.5,13.0 C 13.9814,13.0011 14.1862,12.3881 13.8008,12.0996 C 11.8434,10.6316 9.8591,8.6373 8.916,7.2227 C 8.8233,7.0836 8.6672,7.0 8.5,7.0 L 7.5,7.0" fill="#000" /><path d="M 6.0,2.5 C 4.0489,2.5 3.0,3.8137 2.9999,5.5 C 3.0039,5.7714 3.2287,5.9962 3.4999,6.0 C 3.7711,5.9962 3.9963,5.7715 3.9999,5.5 C 4.0,4.7061 4.5211,4.0 5.5,4.0 C 6.3343,4.0 7.0,4.6657 7.0,5.5 C 7.002,5.776 7.2264,5.9983 7.5,6.0 L 8.5,6.0 C 8.7421,5.9992 8.9988,5.8029 9.0,5.5 C 9.0,4.6656 9.6657,4.0 10.5,4.0 C 11.3343,4.0 12.0,4.6656 12.0,5.5 L 12.0,6.5 C 12.0,6.7761 12.2239,7.0 12.5,7.0 C 12.7761,7.0 13.0,6.7761 13.0,6.5 L 13.0,5.5 C 13.0,3.8172 11.6818,2.5 10.0,2.5 C 9.2336,2.5 8.5315,2.7908 8.0,3.2676 C 7.4685,2.7908 6.7664,2.5 6.0,2.5 M 14.5,6.0 C 14.2239,6.0 14.0,6.2239 14.0,6.5 C 14.0,6.7761 14.2239,7.0 14.5,7.0 C 14.7761,7.0 15.0,6.7761 15.0,6.5 C 15.0,6.2239 14.7761,6.0 14.5,6.0 M 4.5,7.0 C 4.2239,7.0 4.0,7.2239 4.0,7.5 C 4.0,7.7761 4.2239,8.0 4.5,8.0 C 4.7761,8.0 5.0,7.7761 5.0,7.5 C 5.0,7.2239 4.7761,7.0 4.5,7.0 M 2.5,8.0 C 2.2239,8.0 2.0,8.2239 2.0,8.5 C 2.0,8.7761 2.2239,9.0 2.5,9.0 C 2.7761,9.0 3.0,8.7761 3.0,8.5 C 3.0,8.2239 2.7761,8.0 2.5,8.0 M 13.5,8.0 C 13.2239,8.0 13.0,8.2239 13.0,8.5 C 13.0,8.7761 13.2239,9.0 13.5,9.0 C 13.7761,9.0 14.0,8.7761 14.0,8.5 C 14.0,8.2239 13.7761,8.0 13.5,8.0" fill="#000" /></svg>