<?xml version="1.0" ?>
<svg xmlns="http://www.w3.org/2000/svg" width="34" height="34" viewBox="0 0 34 34">
  <path d="m33.87,16.93c0,9.35 -7.58,16.93 -16.93,16.93 -9.35,0 -16.93,-7.58 -16.93,-16.93 0,-9.35 7.58,-16.93 16.93,-16.93 9.35,0 16.93,7.58 16.93,16.93" fill="#e9a76f"/>
  <path d="m11,6.08c-4.08,0.68 -4.69,3.05 -4.72,3.15 2.06,8.9 12.59,17.42 18.94,19.41 1.94,-0.02 3.56,-4.4 3.65,-4.9 -0.74,-1.47 -3.91,-3.77 -5.55,-3.65 -1.1,0.94 -2.62,1.94 -3.27,2.04 -4.39,-2.15 -6.84,-6.27 -6.94,-7.05 -0.05,-0.44 2.31,-2.47 2.21,-3.53 -0.96,-2.41 -2.55,-4.53 -4.32,-5.47z" fill="#000"/>
  <path d="m10.98,5.03c-4.08,0.68 -4.69,3.05 -4.72,3.15 2.06,8.9 12.59,17.42 18.94,19.41 1.94,-0.02 3.56,-4.4 3.65,-4.9C28.1,21.22 24.94,18.92 23.3,19.04c-1.1,0.94 -2.62,1.94 -3.27,2.04 -4.39,-2.15 -6.84,-6.27 -6.94,-7.05 -0.05,-0.44 2.31,-2.47 2.21,-3.53 -0.96,-2.41 -2.55,-4.53 -4.32,-5.47z" fill="#fff"/>
</svg>
