<?xml version="1.0" ?>
<svg xmlns="http://www.w3.org/2000/svg" width="128.0" height="128.0" viewBox="0 0 128.0 128.0">
  <path d="m128,64c0,35.35 -28.65,64 -64,64 -35.35,0 -64,-28.65 -64,-64 0,-35.35 28.65,-64 64,-64 35.35,0 64,28.65 64,64" fill="#e9a76f"/>
  <path d="m34.26,16.62c-1.59,0 -2.88,1.29 -2.88,2.88v20.15c0,8.97 1.88,16.57 8.64,19.18v55.68c0,3.18 2.58,5.76 5.76,5.76 3.18,0 5.76,-2.58 5.76,-5.76v-55.68c6.76,-2.61 8.64,-10.2 8.64,-19.18v-20.15c0,-1.59 -1.29,-2.88 -2.88,-2.88 -1.59,0 -2.88,1.29 -2.88,2.88v20.15c0,1.59 -1.29,2.88 -2.88,2.88 -1.59,0 -2.88,-1.29 -2.88,-2.88v-20.15c0,-1.59 -1.29,-2.88 -2.88,-2.88 -1.59,0 -2.88,1.29 -2.88,2.88v20.15c0,1.59 -1.29,2.88 -2.88,2.88 -1.59,0 -2.88,-1.29 -2.88,-2.88v-20.15c0,-1.59 -1.29,-2.88 -2.88,-2.88z" fill="#000"/>
  <path d="m34.63,11.78c-1.59,0 -2.88,1.29 -2.88,2.88v20.15c0,8.97 1.88,16.57 8.64,19.18v55.68c0,3.18 2.58,5.76 5.76,5.76 3.18,0 5.76,-2.58 5.76,-5.76v-55.68c6.76,-2.61 8.64,-10.2 8.64,-19.18v-20.15c0,-1.59 -1.29,-2.88 -2.88,-2.88 -1.59,0 -2.88,1.29 -2.88,2.88v20.15c0,1.59 -1.29,2.88 -2.88,2.88 -1.59,0 -2.88,-1.29 -2.88,-2.88v-20.15c0,-1.59 -1.29,-2.88 -2.88,-2.88 -1.59,0 -2.88,1.29 -2.88,2.88v20.15c0,1.59 -1.29,2.88 -2.88,2.88 -1.59,0 -2.88,-1.29 -2.88,-2.88v-20.15c0,-1.59 -1.29,-2.88 -2.88,-2.88z" fill="#fff"/>
  <path d="m89.28,16.66c-5.63,0 -14.08,14.08 -14.08,30.96 0,12.73 4.03,18.54 8.45,21.1v43.65c0,3.11 2.52,5.63 5.63,5.63 3.11,0 5.63,-2.52 5.63,-5.63v-42.23,-45.04c0,-5.63 -2.81,-8.45 -5.63,-8.45z" fill="#000"/>
  <path d="m89.65,11.93c-5.63,0 -14.08,14.08 -14.08,30.96 0,12.73 4.03,18.54 8.45,21.1v43.65c0,3.11 2.52,5.63 5.63,5.63 3.11,0 5.63,-2.52 5.63,-5.63v-42.23,-45.04c0,-5.63 -2.81,-8.45 -5.63,-8.45z" fill="#fff"/>
</svg>
