<?xml version="1.0" ?>
<svg xmlns="http://www.w3.org/2000/svg" width="128.0" height="128.0" viewBox="0 0 128.0 128.0">
  <path d="M128,64C128,99.35 99.35,128 64,128 28.65,128 0,99.35 0,64 0,28.65 28.65,0 64,0c35.35,0 64,28.65 64,64" fill="#9bbe55" stroke-width="0.2"/>
  <path d="m20.02,40c-2.24,0 -4.04,1.8 -4.04,4.04v15.91c0,2.24 1.8,4.05 4.04,4.05h11.96v8h-16v4,4h16v16h8v-16h48v16h8v-16h16v-4,-4h-16v-8h11.96c2.24,0 4.04,-1.8 4.04,-4.05v-15.91c0,-2.24 -1.8,-4.04 -4.04,-4.04zM39.98,64h48v8h-48z" fill="#000"/>
  <path d="M31.98,60h8v32h-8z" fill="#666"/>
  <path d="M87.98,60h8v32h-8z" fill="#666"/>
  <path d="M20.02,36L107.93,36A4.04,4.04 0,0 1,111.98 40.04L111.98,55.95A4.04,4.04 0,0 1,107.93 60L20.02,60A4.04,4.04 0,0 1,15.98 55.95L15.98,40.04A4.04,4.04 0,0 1,20.02 36z" fill="#ae8862"/>
  <path d="M23.98,40h80v4h-80z" fill="#896847"/>
  <path d="M15.98,72h96v4h-96z" fill="#896847"/>
  <path d="M23.98,52h80v4h-80z" fill="#896847"/>
  <path d="M35.98,48m-4,0a4,4 0,1 1,8 0a4,4 0,1 1,-8 0" fill="#666"/>
  <path d="M91.98,48m-4,0a4,4 0,1 1,8 0a4,4 0,1 1,-8 0" fill="#666"/>
  <path d="M15.98,68h96v4h-96z" fill="#ae8862"/>
</svg>
