<?xml version="1.0" ?>
<svg xmlns="http://www.w3.org/2000/svg" width="128" height="128" viewBox="0 0 128 128">
  <path d="M128,64C128,99 99,128 64,128 28.654,128 0,99.346 0,64 0,28.654 28.654,0 64,0c35.346,0 64,28.654 64,64" fill="#c8c4b7" stroke-width="0.2"/>
  <path d="M2.047,47.892C1.133,51.499 0.513,55.369 0.23,58.773v10.453c2.566,31.714 28.236,56.893 60.168,58.666h7.203c33.669,-1.869 60.398,-29.756 60.398,-63.893 -0.159,-5.846 -0.718,-10.948 -2.047,-16.107z" fill="#c5a787"/>
  <path d="m64,108 l24,-24v-28h-16v20h-16v-20h-16v28z" fill="#000"/>
  <path d="m94,88 l-30,30 -30,-30" fill="none" stroke-linecap="square" stroke-width="8" stroke="#000"/>
  <path d="m64,104 l24,-24v-28h-16v20h-16v-20h-16v28z" fill="#fff"/>
  <path d="m94,84 l-30,30 -30,-30" fill="none" stroke-linecap="square" stroke-width="8" stroke="#c84747"/>
  <path d="m3,44c-0.859,2.598 -1.557,5.267 -2.08,8h125.68c-0.524,-2.733 -1.221,-5.402 -2.08,-8z" fill="#79ae54"/>
</svg>
