<svg xmlns="http://www.w3.org/2000/svg" width="16" height="16"><path d="M 7.5,1.0 C 7.275,1.0 7.085,1.148 7.022,1.353 L 6.069,4.211 L 2.677,7.118 C 2.569,7.21 2.5,7.347 2.5,7.5 C 2.5,7.776 2.723,7.999 3.0,8.0 L 6.0,8.0 L 6.0,10.382 L 4.057,14.267 C 4.021,14.337 4.0,14.416 4.0,14.5 C 4.0,14.776 4.224,15.0 4.5,15.0 C 4.7,15.0 4.872,14.883 4.952,14.714 L 5.309,14.0 L 9.691,14.0 L 10.048,14.714 C 10.128,14.883 10.3,15.0 10.5,15.0 C 10.776,15.0 11.0,14.776 11.0,14.5 C 11.0,14.416 10.979,14.337 10.943,14.267 L 9.0,10.382 L 9.0,8.0 L 12.0,8.0 C 12.277,7.999 12.5,7.776 12.5,7.5 C 12.5,7.347 12.431,7.21 12.323,7.118 L 8.931,4.211 L 7.978,1.353 C 7.915,1.148 7.725,1.0 7.5,1.0 M 7.194,4.0 L 7.5,3.081 L 7.806,4.0 L 7.194,4.0 M 7.0,7.0 L 7.0,5.0 L 8.0,5.0 L 8.0,7.0 L 7.0,7.0 M 4.352,7.0 L 6.0,5.587 L 6.0,7.0 L 4.352,7.0 M 9.0,7.0 L 9.0,5.587 L 10.648,7.0 L 9.0,7.0 M 7.0,10.0 L 7.0,8.0 L 8.0,8.0 L 8.0,10.0 L 7.0,10.0 M 5.809,13.0 L 6.809,11.0 L 8.191,11.0 L 9.191,13.0 L 5.809,13.0" fill="#000" /></svg>