<?xml version="1.0" ?>
<svg xmlns="http://www.w3.org/2000/svg" width="34" height="34" viewBox="0 0 34 34">
  <path d="m31.6,25.4c-4.68,8.1 -15.03,10.87 -23.13,6.2 -8.1,-4.68 -10.87,-15.03 -6.2,-23.13 4.68,-8.1 15.03,-10.87 23.13,-6.2 8.1,4.68 10.87,15.03 6.2,23.13" fill="#ffdd55"/>
  <path d="M9.5,7.41L24.07,7.41A2.24,2.24 0,0 1,26.31 9.65L26.31,26.33A2.24,2.24 0,0 1,24.07 28.57L9.5,28.57A2.24,2.24 0,0 1,7.26 26.33L7.26,9.65A2.24,2.24 0,0 1,9.5 7.41z" fill="none" stroke-width="2" stroke="#000"/>
  <path d="M9.5,6.35L24.07,6.35A2.24,2.24 0,0 1,26.31 8.59L26.31,25.27A2.24,2.24 0,0 1,24.07 27.51L9.5,27.51A2.24,2.24 0,0 1,7.26 25.27L7.26,8.59A2.24,2.24 0,0 1,9.5 6.35z" fill="#495aad" stroke-width="2" stroke="#fff"/>
  <path d="m13.61,22.22v-10.58h3.18c0,0 3.17,0 3.17,3.17 0,3.17 -3.17,3.17 -3.17,3.17h-3.18" fill="none" stroke-linecap="square" stroke-width="2" stroke="#fff"/>
</svg>
