<svg xmlns="http://www.w3.org/2000/svg" width="16" height="16"><path d="M 4.5,2.0 C 4.236,2.0 4.02,2.204 4.001,2.463 L 3.957,3.0 L 2.5,3.0 C 2.223,3.0 2.0,3.224 2.0,3.5 C 2.0,3.776 2.223,4.0 2.499,4.0 L 3.873,4.0 L 3.002,14.453 C 3.0,14.468 3.0,14.484 3.0,14.5 C 3.0,14.776 3.224,15.0 3.5,15.0 C 3.764,15.0 3.98,14.796 4.0,14.537 L 4.877,4.0 L 10.123,4.0 L 11.0,14.537 C 11.02,14.796 11.236,15.0 11.5,15.0 C 11.776,15.0 12.0,14.776 12.0,14.5 C 12.0,14.484 12.0,14.468 11.998,14.453 L 11.127,4.0 L 12.5,4.0 C 12.777,4.0 13.0,3.776 13.0,3.5 C 13.0,3.224 12.777,3.0 12.501,3.0 L 11.043,3.0 L 11.0,2.463 C 10.98,2.204 10.764,2.0 10.5,2.0 C 10.224,2.0 10.0,2.224 10.0,2.5 C 10.0,2.516 10.0,2.532 10.002,2.547 L 10.04,3.0 L 4.96,3.0 L 4.998,2.547 C 4.999,2.532 5.0,2.516 5.0,2.5 C 5.0,2.224 4.776,2.0 4.5,2.0 M 2.5,4.5 C 2.224,4.5 2.0,4.724 2.0,5.0 L 2.0,6.0 C 2.0,6.276 2.224,6.5 2.5,6.5 C 2.776,6.5 3.0,6.276 3.0,6.0 L 3.0,5.001 C 3.0,4.724 2.776,4.5 2.5,4.5 M 7.5,4.5 C 7.224,4.5 7.0,4.724 7.0,5.0 L 7.0,6.0 C 7.0,6.276 7.224,6.5 7.5,6.5 C 7.776,6.5 8.0,6.276 8.0,6.0 L 8.0,5.001 C 8.0,4.724 7.776,4.5 7.5,4.5 M 12.5,4.5 C 12.224,4.5 12.0,4.724 12.0,5.0 L 12.0,6.0 C 12.0,6.276 12.224,6.5 12.5,6.5 C 12.776,6.5 13.0,6.276 13.0,6.0 L 13.0,5.001 C 13.0,4.724 12.776,4.5 12.5,4.5" fill="#000" /></svg>