<?xml version="1.0" encoding="UTF-8"?>
<!--Generator: Apple Native CoreSVG 123-->
<!DOCTYPE svg
PUBLIC "-//W3C//DTD SVG 1.1//EN"
       "http://www.w3.org/Graphics/SVG/1.1/DTD/svg11.dtd">
<svg version="1.1" xmlns="http://www.w3.org/2000/svg" xmlns:xlink="http://www.w3.org/1999/xlink" width="3300" height="2200">
 <!--glyph: "uni10064A.medium", point size: 100.000000, font version: "Version 15.0d7e11", template writer version: "5"-->
 <g id="Notes">
  <rect height="2200" id="artboard" style="fill:white;opacity:1" width="3300" x="0" y="0"/>
  <line id="" style="fill:none;stroke:black;opacity:1;stroke-width:0.5;" x1="263" x2="3036" y1="292" y2="292"/>
  <text style="stroke:none;fill:black;font-family:-apple-system,&quot;SF Pro Display&quot;,&quot;SF Pro Text&quot;,Helvetica,sans-serif;font-weight:bold;" transform="matrix(1 0 0 1 263 322)">Weight/Scale Variations</text>
  <text style="stroke:none;fill:black;font-family:-apple-system,&quot;SF Pro Display&quot;,&quot;SF Pro Text&quot;,Helvetica,sans-serif;text-anchor:middle;" transform="matrix(1 0 0 1 559.711 322)">Ultralight</text>
  <text style="stroke:none;fill:black;font-family:-apple-system,&quot;SF Pro Display&quot;,&quot;SF Pro Text&quot;,Helvetica,sans-serif;text-anchor:middle;" transform="matrix(1 0 0 1 856.422 322)">Thin</text>
  <text style="stroke:none;fill:black;font-family:-apple-system,&quot;SF Pro Display&quot;,&quot;SF Pro Text&quot;,Helvetica,sans-serif;text-anchor:middle;" transform="matrix(1 0 0 1 1153.13 322)">Light</text>
  <text style="stroke:none;fill:black;font-family:-apple-system,&quot;SF Pro Display&quot;,&quot;SF Pro Text&quot;,Helvetica,sans-serif;text-anchor:middle;" transform="matrix(1 0 0 1 1449.84 322)">Regular</text>
  <text style="stroke:none;fill:black;font-family:-apple-system,&quot;SF Pro Display&quot;,&quot;SF Pro Text&quot;,Helvetica,sans-serif;text-anchor:middle;" transform="matrix(1 0 0 1 1746.56 322)">Medium</text>
  <text style="stroke:none;fill:black;font-family:-apple-system,&quot;SF Pro Display&quot;,&quot;SF Pro Text&quot;,Helvetica,sans-serif;text-anchor:middle;" transform="matrix(1 0 0 1 2043.27 322)">Semibold</text>
  <text style="stroke:none;fill:black;font-family:-apple-system,&quot;SF Pro Display&quot;,&quot;SF Pro Text&quot;,Helvetica,sans-serif;text-anchor:middle;" transform="matrix(1 0 0 1 2339.98 322)">Bold</text>
  <text style="stroke:none;fill:black;font-family:-apple-system,&quot;SF Pro Display&quot;,&quot;SF Pro Text&quot;,Helvetica,sans-serif;text-anchor:middle;" transform="matrix(1 0 0 1 2636.69 322)">Heavy</text>
  <text style="stroke:none;fill:black;font-family:-apple-system,&quot;SF Pro Display&quot;,&quot;SF Pro Text&quot;,Helvetica,sans-serif;text-anchor:middle;" transform="matrix(1 0 0 1 2933.4 322)">Black</text>
  <line id="" style="fill:none;stroke:black;opacity:1;stroke-width:0.5;" x1="263" x2="3036" y1="1903" y2="1903"/>
  <g id="" transform="matrix(1 0 0 1 263 1933)">
   <path d="M 9.24805 0.830078 C 13.5547 0.830078 17.1387 -2.74414 17.1387 -7.05078 C 17.1387 -11.3574 13.5449 -14.9316 9.23828 -14.9316 C 4.94141 -14.9316 1.36719 -11.3574 1.36719 -7.05078 C 1.36719 -2.74414 4.95117 0.830078 9.24805 0.830078 Z M 9.24805 -0.654297 C 5.70312 -0.654297 2.87109 -3.49609 2.87109 -7.05078 C 2.87109 -10.6055 5.69336 -13.4473 9.23828 -13.4473 C 12.793 -13.4473 15.6348 -10.6055 15.6445 -7.05078 C 15.6543 -3.49609 12.8027 -0.654297 9.24805 -0.654297 Z M 9.22852 -3.42773 C 9.69727 -3.42773 9.9707 -3.74023 9.9707 -4.25781 L 9.9707 -6.31836 L 12.1973 -6.31836 C 12.6953 -6.31836 13.0371 -6.57227 13.0371 -7.04102 C 13.0371 -7.51953 12.7148 -7.7832 12.1973 -7.7832 L 9.9707 -7.7832 L 9.9707 -10.0098 C 9.9707 -10.5273 9.69727 -10.8496 9.22852 -10.8496 C 8.75977 -10.8496 8.50586 -10.5078 8.50586 -10.0098 L 8.50586 -7.7832 L 6.29883 -7.7832 C 5.78125 -7.7832 5.44922 -7.51953 5.44922 -7.04102 C 5.44922 -6.57227 5.80078 -6.31836 6.29883 -6.31836 L 8.50586 -6.31836 L 8.50586 -4.25781 C 8.50586 -3.75977 8.75977 -3.42773 9.22852 -3.42773 Z"/>
  </g>
  <g id="" transform="matrix(1 0 0 1 281.506 1933)">
   <path d="M 11.709 2.91016 C 17.1582 2.91016 21.6699 -1.60156 21.6699 -7.05078 C 21.6699 -12.4902 17.1484 -17.0117 11.6992 -17.0117 C 6.25977 -17.0117 1.74805 -12.4902 1.74805 -7.05078 C 1.74805 -1.60156 6.26953 2.91016 11.709 2.91016 Z M 11.709 1.25 C 7.09961 1.25 3.41797 -2.44141 3.41797 -7.05078 C 3.41797 -11.6504 7.08984 -15.3516 11.6992 -15.3516 C 16.3086 -15.3516 20 -11.6504 20.0098 -7.05078 C 20.0195 -2.44141 16.3184 1.25 11.709 1.25 Z M 11.6895 -2.41211 C 12.207 -2.41211 12.5195 -2.77344 12.5195 -3.33984 L 12.5195 -6.23047 L 15.5762 -6.23047 C 16.123 -6.23047 16.5039 -6.51367 16.5039 -7.03125 C 16.5039 -7.55859 16.1426 -7.86133 15.5762 -7.86133 L 12.5195 -7.86133 L 12.5195 -10.9277 C 12.5195 -11.5039 12.207 -11.8555 11.6895 -11.8555 C 11.1719 -11.8555 10.8789 -11.4844 10.8789 -10.9277 L 10.8789 -7.86133 L 7.83203 -7.86133 C 7.26562 -7.86133 6.89453 -7.55859 6.89453 -7.03125 C 6.89453 -6.51367 7.28516 -6.23047 7.83203 -6.23047 L 10.8789 -6.23047 L 10.8789 -3.33984 C 10.8789 -2.79297 11.1719 -2.41211 11.6895 -2.41211 Z"/>
  </g>
  <g id="" transform="matrix(1 0 0 1 304.924 1933)">
   <path d="M 14.9707 5.67383 C 21.9336 5.67383 27.6953 -0.078125 27.6953 -7.04102 C 27.6953 -14.0039 21.9238 -19.7559 14.9609 -19.7559 C 8.00781 -19.7559 2.25586 -14.0039 2.25586 -7.04102 C 2.25586 -0.078125 8.01758 5.67383 14.9707 5.67383 Z M 14.9707 3.85742 C 8.93555 3.85742 4.08203 -1.00586 4.08203 -7.04102 C 4.08203 -13.0762 8.92578 -17.9395 14.9609 -17.9395 C 21.0059 -17.9395 25.8594 -13.0762 25.8691 -7.04102 C 25.8789 -1.00586 21.0156 3.85742 14.9707 3.85742 Z M 14.9512 -1.06445 C 15.5176 -1.06445 15.8691 -1.45508 15.8691 -2.06055 L 15.8691 -6.13281 L 20.1074 -6.13281 C 20.6934 -6.13281 21.1133 -6.46484 21.1133 -7.02148 C 21.1133 -7.59766 20.7227 -7.93945 20.1074 -7.93945 L 15.8691 -7.93945 L 15.8691 -12.1875 C 15.8691 -12.8027 15.5176 -13.1934 14.9512 -13.1934 C 14.3848 -13.1934 14.0625 -12.7832 14.0625 -12.1875 L 14.0625 -7.93945 L 9.83398 -7.93945 C 9.21875 -7.93945 8.80859 -7.59766 8.80859 -7.02148 C 8.80859 -6.46484 9.23828 -6.13281 9.83398 -6.13281 L 14.0625 -6.13281 L 14.0625 -2.06055 C 14.0625 -1.47461 14.3848 -1.06445 14.9512 -1.06445 Z"/>
  </g>
  <text style="stroke:none;fill:black;font-family:-apple-system,&quot;SF Pro Display&quot;,&quot;SF Pro Text&quot;,Helvetica,sans-serif;font-weight:bold;" transform="matrix(1 0 0 1 263 1953)">Design Variations</text>
  <text style="stroke:none;fill:black;font-family:-apple-system,&quot;SF Pro Display&quot;,&quot;SF Pro Text&quot;,Helvetica,sans-serif;" transform="matrix(1 0 0 1 263 1971)">Symbols are supported in up to nine weights and three scales.</text>
  <text style="stroke:none;fill:black;font-family:-apple-system,&quot;SF Pro Display&quot;,&quot;SF Pro Text&quot;,Helvetica,sans-serif;" transform="matrix(1 0 0 1 263 1989)">For optimal layout with text and other symbols, vertically align</text>
  <text style="stroke:none;fill:black;font-family:-apple-system,&quot;SF Pro Display&quot;,&quot;SF Pro Text&quot;,Helvetica,sans-serif;" transform="matrix(1 0 0 1 263 2007)">symbols with the adjacent text.</text>
  <rect height="14" id="" style="fill:#00AEEF;stroke:none;opacity:0.4;" width="3" x="776" y="1919"/>
  <g id="" transform="matrix(1 0 0 1 779 1933)">
   <path d="M 10.5273 0 L 12.373 0 L 7.17773 -14.0918 L 5.43945 -14.0918 L 0.244141 0 L 2.08984 0 L 3.50586 -4.0332 L 9.11133 -4.0332 Z M 6.2793 -11.9531 L 6.33789 -11.9531 L 8.59375 -5.52734 L 4.02344 -5.52734 Z"/>
  </g>
  <rect height="14" id="" style="fill:#00AEEF;stroke:none;opacity:0.4;" width="3" x="791.617" y="1919"/>
  <text style="stroke:none;fill:black;font-family:-apple-system,&quot;SF Pro Display&quot;,&quot;SF Pro Text&quot;,Helvetica,sans-serif;font-weight:bold;" transform="matrix(1 0 0 1 776 1953)">Margins</text>
  <text style="stroke:none;fill:black;font-family:-apple-system,&quot;SF Pro Display&quot;,&quot;SF Pro Text&quot;,Helvetica,sans-serif;" transform="matrix(1 0 0 1 776 1971)">Leading and trailing margins on the left and right side of each symbol</text>
  <text style="stroke:none;fill:black;font-family:-apple-system,&quot;SF Pro Display&quot;,&quot;SF Pro Text&quot;,Helvetica,sans-serif;" transform="matrix(1 0 0 1 776 1989)">can be adjusted by modifying the width of the blue rectangles.</text>
  <text style="stroke:none;fill:black;font-family:-apple-system,&quot;SF Pro Display&quot;,&quot;SF Pro Text&quot;,Helvetica,sans-serif;" transform="matrix(1 0 0 1 776 2007)">Modifications are automatically applied proportionally to all</text>
  <text style="stroke:none;fill:black;font-family:-apple-system,&quot;SF Pro Display&quot;,&quot;SF Pro Text&quot;,Helvetica,sans-serif;" transform="matrix(1 0 0 1 776 2025)">scales and weights.</text>
  <g id="" transform="matrix(1 0 0 1 1289 1933)">
   <path d="M 2.83203 3.11523 L 4.375 4.6582 C 5.22461 5.48828 6.19141 5.41992 7.06055 4.46289 L 17.2754 -6.66016 C 17.7051 -6.36719 18.0957 -6.37695 18.5645 -6.47461 L 19.6094 -6.68945 L 20.3027 -5.99609 L 20.2539 -5.47852 C 20.1855 -4.95117 20.3516 -4.53125 20.8496 -4.0332 L 21.6602 -3.22266 C 22.168 -2.71484 22.8223 -2.68555 23.3008 -3.16406 L 26.5527 -6.41602 C 27.0312 -6.89453 27.0117 -7.54883 26.5039 -8.05664 L 25.6836 -8.87695 C 25.1855 -9.375 24.7754 -9.55078 24.2383 -9.47266 L 23.7109 -9.41406 L 23.0566 -10.0781 L 23.3398 -11.2207 C 23.4863 -11.7871 23.3398 -12.2559 22.7148 -12.8613 L 20.3027 -15.2539 C 16.7578 -18.7793 12.2266 -18.6719 9.11133 -15.5371 C 8.69141 -15.1074 8.64258 -14.5215 8.91602 -14.0918 C 9.15039 -13.7207 9.62891 -13.4961 10.2734 -13.6621 C 11.7871 -14.043 13.3008 -13.9258 14.7852 -12.9199 L 14.1602 -11.3379 C 13.9258 -10.752 13.9453 -10.2734 14.1797 -9.83398 L 3.01758 0.439453 C 2.08008 1.30859 1.97266 2.25586 2.83203 3.11523 Z M 10.6738 -15.1465 C 13.3398 -17.1387 16.6504 -16.8262 19.0527 -14.4141 L 21.6797 -11.8066 C 21.9141 -11.5723 21.9434 -11.3867 21.8848 -11.0938 L 21.5039 -9.53125 L 23.0762 -7.95898 L 24.043 -8.04688 C 24.3262 -8.07617 24.4141 -8.05664 24.6387 -7.83203 L 25.2637 -7.20703 L 22.5098 -4.46289 L 21.8848 -5.07812 C 21.6602 -5.30273 21.6406 -5.40039 21.6699 -5.68359 L 21.7578 -6.64062 L 20.1953 -8.20312 L 18.5742 -7.89062 C 18.291 -7.83203 18.1445 -7.83203 17.9102 -8.07617 L 15.7324 -10.2539 C 15.5078 -10.4883 15.4785 -10.625 15.6055 -10.9473 L 16.5527 -13.2227 C 14.9512 -14.7559 12.8418 -15.6055 10.8008 -14.9512 C 10.7129 -14.9219 10.6445 -14.9414 10.6152 -14.9805 C 10.5859 -15.0293 10.5859 -15.0781 10.6738 -15.1465 Z M 4.10156 2.41211 C 3.61328 1.91406 3.78906 1.61133 4.12109 1.30859 L 15.0781 -8.80859 L 16.3086 -7.57812 L 6.15234 3.34961 C 5.84961 3.68164 5.46875 3.7793 5.06836 3.37891 Z"/>
  </g>
  <text style="stroke:none;fill:black;font-family:-apple-system,&quot;SF Pro Display&quot;,&quot;SF Pro Text&quot;,Helvetica,sans-serif;font-weight:bold;" transform="matrix(1 0 0 1 1289 1953)">Exporting</text>
  <text style="stroke:none;fill:black;font-family:-apple-system,&quot;SF Pro Display&quot;,&quot;SF Pro Text&quot;,Helvetica,sans-serif;" transform="matrix(1 0 0 1 1289 1971)">Symbols should be outlined when exporting to ensure the</text>
  <text style="stroke:none;fill:black;font-family:-apple-system,&quot;SF Pro Display&quot;,&quot;SF Pro Text&quot;,Helvetica,sans-serif;" transform="matrix(1 0 0 1 1289 1989)">design is preserved when submitting to Xcode.</text>
  <text id="template-version" style="stroke:none;fill:black;font-family:-apple-system,&quot;SF Pro Display&quot;,&quot;SF Pro Text&quot;,Helvetica,sans-serif;text-anchor:end;" transform="matrix(1 0 0 1 3036 1933)">Template v.1.0</text>
  <text style="stroke:none;fill:black;font-family:-apple-system,&quot;SF Pro Display&quot;,&quot;SF Pro Text&quot;,Helvetica,sans-serif;text-anchor:end;" transform="matrix(1 0 0 1 3036 1951)">Generated from map</text>
  <text style="stroke:none;fill:black;font-family:-apple-system,&quot;SF Pro Display&quot;,&quot;SF Pro Text&quot;,Helvetica,sans-serif;text-anchor:end;" transform="matrix(1 0 0 1 3036 1969)">Typeset at 100 points</text>
  <text style="stroke:none;fill:black;font-family:-apple-system,&quot;SF Pro Display&quot;,&quot;SF Pro Text&quot;,Helvetica,sans-serif;" transform="matrix(1 0 0 1 263 726)">Small</text>
  <text style="stroke:none;fill:black;font-family:-apple-system,&quot;SF Pro Display&quot;,&quot;SF Pro Text&quot;,Helvetica,sans-serif;" transform="matrix(1 0 0 1 263 1156)">Medium</text>
  <text style="stroke:none;fill:black;font-family:-apple-system,&quot;SF Pro Display&quot;,&quot;SF Pro Text&quot;,Helvetica,sans-serif;" transform="matrix(1 0 0 1 263 1586)">Large</text>
 </g>
 <g id="Guides">
  <g id="H-reference" style="fill:#27AAE1;stroke:none;" transform="matrix(1 0 0 1 339 696)">
   <path d="M 54.9316 0 L 57.666 0 L 30.5664 -70.459 L 28.0762 -70.459 L 0.976562 0 L 3.66211 0 L 12.9395 -24.4629 L 45.7031 -24.4629 Z M 29.1992 -67.0898 L 29.4434 -67.0898 L 44.8242 -26.709 L 13.8184 -26.709 Z"/>
  </g>
  <line id="Baseline-S" style="fill:none;stroke:#27AAE1;opacity:1;stroke-width:0.577;" x1="263" x2="3036" y1="696" y2="696"/>
  <line id="Capline-S" style="fill:none;stroke:#27AAE1;opacity:1;stroke-width:0.577;" x1="263" x2="3036" y1="625.541" y2="625.541"/>
  <g id="H-reference" style="fill:#27AAE1;stroke:none;" transform="matrix(1 0 0 1 339 1126)">
   <path d="M 54.9316 0 L 57.666 0 L 30.5664 -70.459 L 28.0762 -70.459 L 0.976562 0 L 3.66211 0 L 12.9395 -24.4629 L 45.7031 -24.4629 Z M 29.1992 -67.0898 L 29.4434 -67.0898 L 44.8242 -26.709 L 13.8184 -26.709 Z"/>
  </g>
  <line id="Baseline-M" style="fill:none;stroke:#27AAE1;opacity:1;stroke-width:0.577;" x1="263" x2="3036" y1="1126" y2="1126"/>
  <line id="Capline-M" style="fill:none;stroke:#27AAE1;opacity:1;stroke-width:0.577;" x1="263" x2="3036" y1="1055.54" y2="1055.54"/>
  <g id="H-reference" style="fill:#27AAE1;stroke:none;" transform="matrix(1 0 0 1 339 1556)">
   <path d="M 54.9316 0 L 57.666 0 L 30.5664 -70.459 L 28.0762 -70.459 L 0.976562 0 L 3.66211 0 L 12.9395 -24.4629 L 45.7031 -24.4629 Z M 29.1992 -67.0898 L 29.4434 -67.0898 L 44.8242 -26.709 L 13.8184 -26.709 Z"/>
  </g>
  <line id="Baseline-L" style="fill:none;stroke:#27AAE1;opacity:1;stroke-width:0.577;" x1="263" x2="3036" y1="1556" y2="1556"/>
  <line id="Capline-L" style="fill:none;stroke:#27AAE1;opacity:1;stroke-width:0.577;" x1="263" x2="3036" y1="1485.54" y2="1485.54"/>
  <rect height="119.336" id="left-margin" style="fill:#00AEEF;stroke:none;opacity:0.4;" width="12.4512" x="1386.61" y="1030.79"/>
  <rect height="119.336" id="right-margin" style="fill:#00AEEF;stroke:none;opacity:0.4;" width="12.4512" x="1500.63" y="1030.79"/>
 </g>
 <g id="Symbols">
  <g id="Black-L" transform="matrix(1 0 0 1 2844.97 1556)">
   <path d="M 110.205 33.4961 C 114.307 33.4961 118.945 31.25 122.51 29.248 L 151.855 12.8906 C 158.252 9.32617 160.791 4.93164 160.791 -1.75781 L 160.791 -91.9434 C 160.791 -99.4629 155.615 -104.492 147.803 -104.492 C 144.238 -104.492 141.357 -103.027 137.451 -100.781 L 106.689 -83.3984 L 78.2715 -101.318 C 74.707 -103.613 70.8984 -105.566 66.8457 -105.566 C 62.5977 -105.566 58.3496 -103.418 54.541 -101.318 L 25.0488 -84.9121 C 18.5547 -81.3965 16.0645 -76.9531 16.0645 -70.2637 L 16.0645 19.873 C 16.0645 27.3926 21.2402 32.4219 29.0527 32.4219 C 32.666 32.4219 35.5469 30.9082 39.4531 28.7109 L 69.8242 11.8164 L 98.4375 29.1504 C 101.758 31.2012 106.201 33.4961 110.205 33.4961 Z M 35.3516 9.375 C 34.0332 9.375 33.3984 8.30078 33.3984 6.78711 L 33.3984 -64.5508 C 33.3984 -67.1875 34.1797 -68.1641 36.4258 -69.5312 L 56.6406 -81.5918 C 57.1289 -81.8848 57.5684 -82.1289 58.1055 -82.4219 L 58.1055 -2.88086 L 37.1582 8.83789 C 36.4258 9.22852 35.791 9.375 35.3516 9.375 Z M 118.799 10.4492 L 118.799 -69.1406 L 139.697 -80.9082 C 140.43 -81.2988 141.064 -81.4453 141.553 -81.4453 C 142.871 -81.4453 143.506 -80.3711 143.506 -78.9062 L 143.506 -7.51953 C 143.506 -4.88281 142.676 -3.85742 140.479 -2.53906 L 121.68 8.78906 C 120.703 9.42383 119.775 9.86328 118.799 10.4492 Z M 100.781 9.17969 C 100.098 8.78906 99.4141 8.34961 98.7305 7.95898 L 76.123 -6.15234 L 76.123 -81.25 C 76.8066 -80.8594 77.4902 -80.4688 78.1738 -80.0293 L 100.781 -65.3809 Z"/>
  </g>
  <g id="Heavy-L" transform="matrix(1 0 0 1 2550.19 1556)">
   <path d="M 107.959 32.0312 C 111.572 32.0312 115.625 30.1758 118.799 28.3691 L 148.926 11.4258 C 154.639 8.25195 156.934 4.29688 156.934 -1.75781 L 156.934 -91.1133 C 156.934 -97.8516 152.441 -102.295 145.508 -102.295 C 142.432 -102.295 139.844 -101.025 136.426 -99.0723 L 105.127 -81.4453 L 75.3906 -100.049 C 72.168 -102.051 68.7988 -103.711 65.1855 -103.711 C 61.377 -103.711 57.6172 -101.953 54.248 -100.049 L 24.0723 -83.1055 C 18.3594 -79.9316 16.0645 -75.9277 16.0645 -69.9219 L 16.0645 19.4336 C 16.0645 26.1719 20.5566 30.6152 27.4902 30.6152 C 30.5664 30.6152 33.1543 29.3457 36.5723 27.3926 L 67.3828 10.3516 L 97.3633 28.2715 C 100.488 30.127 104.395 32.0312 107.959 32.0312 Z M 33.0566 10.4004 C 31.9336 10.4004 31.3477 9.47266 31.3477 8.1543 L 31.3477 -65.0391 C 31.3477 -67.3828 32.0801 -68.457 34.1309 -69.6777 L 55.957 -82.666 C 56.543 -83.0078 57.0312 -83.252 57.5684 -83.5938 L 57.5684 -2.88086 L 34.668 9.91211 C 34.0332 10.2539 33.4961 10.4004 33.0566 10.4004 Z M 99.6094 10.7422 C 98.877 10.3516 98.1934 9.91211 97.4609 9.52148 L 73.3887 -5.17578 L 73.3887 -82.4219 C 74.0723 -82.0801 74.7559 -81.6406 75.4395 -81.2012 L 99.6094 -65.8691 Z M 115.43 11.9141 L 115.43 -68.7988 L 138.33 -81.5918 C 138.965 -81.9336 139.551 -82.0801 139.941 -82.0801 C 141.113 -82.0801 141.65 -81.1523 141.65 -79.834 L 141.65 -6.64062 C 141.65 -4.24805 140.918 -3.22266 138.867 -2.00195 L 118.262 10.3516 C 117.285 10.9375 116.406 11.377 115.43 11.9141 Z"/>
  </g>
  <g id="Bold-L" transform="matrix(1 0 0 1 2255.63 1556)">
   <path d="M 105.469 30.3711 C 108.545 30.3711 111.914 28.9551 114.648 27.3926 L 145.654 9.86328 C 150.586 7.08008 152.637 3.61328 152.637 -1.70898 L 152.637 -90.1855 C 152.637 -96.0938 148.877 -99.8047 142.92 -99.8047 C 140.381 -99.8047 138.232 -98.8281 135.352 -97.168 L 103.32 -79.2969 L 72.168 -98.584 C 69.3848 -100.342 66.4062 -101.611 63.2812 -101.611 C 60.0586 -101.611 56.7871 -100.244 53.9062 -98.584 L 22.998 -81.0547 C 18.0664 -78.3203 16.0645 -74.8047 16.0645 -69.4824 L 16.0645 18.9453 C 16.0645 24.8047 19.8242 28.5645 25.7812 28.5645 C 28.2715 28.5645 30.4688 27.5391 33.3496 25.9277 L 64.6484 8.69141 L 96.2402 27.2461 C 99.0234 28.9062 102.344 30.3711 105.469 30.3711 Z M 30.5176 11.5234 C 29.541 11.5234 29.0527 10.791 29.0527 9.66797 L 29.0527 -65.5762 C 29.0527 -67.6758 29.7363 -68.7012 31.5918 -69.8242 L 55.2246 -83.8379 C 55.8594 -84.2285 56.3965 -84.5215 57.0312 -84.8633 L 57.0312 -2.88086 L 31.8848 11.084 C 31.3477 11.377 30.8594 11.5234 30.5176 11.5234 Z M 98.3398 12.4512 C 97.5586 12.0605 96.7773 11.6699 95.9961 11.2305 L 70.3613 -4.10156 L 70.3613 -83.7402 C 71.0449 -83.3984 71.7285 -83.0078 72.4121 -82.5684 L 98.3398 -66.3574 Z M 111.67 13.5742 L 111.67 -68.457 L 136.816 -82.373 C 137.354 -82.6172 137.842 -82.7637 138.184 -82.7637 C 139.16 -82.7637 139.648 -82.0312 139.648 -80.957 L 139.648 -5.61523 C 139.648 -3.56445 138.965 -2.49023 137.109 -1.36719 L 114.453 12.0605 C 113.525 12.6465 112.598 13.0859 111.67 13.5742 Z"/>
  </g>
  <g id="Semibold-L" transform="matrix(1 0 0 1 1960.41 1556)">
   <path d="M 103.711 29.248 C 106.445 29.248 109.375 28.125 111.816 26.7578 L 143.408 8.74023 C 147.803 6.29883 149.658 3.125 149.658 -1.70898 L 149.658 -89.5508 C 149.658 -94.873 146.387 -98.0957 141.162 -98.0957 C 139.014 -98.0957 137.061 -97.2656 134.57 -95.8984 L 102.1 -77.7832 L 69.9707 -97.6074 C 67.4805 -99.1699 64.7461 -100.195 62.0117 -100.195 C 59.1309 -100.195 56.25 -99.1211 53.6621 -97.6074 L 22.2656 -79.6387 C 17.9199 -77.1973 16.0645 -74.0234 16.0645 -69.2383 L 16.0645 18.6035 C 16.0645 23.877 19.3359 27.1484 24.5605 27.1484 C 26.709 27.1484 28.6133 26.3184 31.1035 24.9023 L 62.7441 7.56836 L 95.4102 26.5625 C 97.998 28.0762 100.977 29.248 103.711 29.248 Z M 28.7109 12.3047 C 27.9297 12.3047 27.4902 11.6699 27.4902 10.7422 L 27.4902 -65.9668 C 27.4902 -67.8711 28.125 -68.8965 29.834 -69.9707 L 54.6875 -84.668 C 55.3711 -85.0586 56.0059 -85.3516 56.6406 -85.6934 L 56.6406 -2.88086 L 29.9316 11.9141 C 29.4922 12.1582 29.0527 12.3047 28.7109 12.3047 Z M 97.4121 13.6719 C 96.6309 13.2812 95.8496 12.8418 95.0195 12.4023 L 68.2617 -3.36914 L 68.2617 -84.6191 C 68.9453 -84.2773 69.6289 -83.9355 70.3125 -83.4961 L 97.4121 -66.6992 Z M 109.082 14.6973 L 109.082 -68.2129 L 135.791 -82.9102 C 136.23 -83.1055 136.621 -83.252 136.963 -83.252 C 137.793 -83.252 138.232 -82.6172 138.232 -81.6895 L 138.232 -4.93164 C 138.232 -3.07617 137.598 -2.00195 135.889 -0.976562 L 111.816 13.2324 C 110.889 13.7695 109.961 14.2578 109.082 14.6973 Z"/>
  </g>
  <g id="Medium-L" transform="matrix(1 0 0 1 1664.82 1556)">
   <path d="M 102.441 28.3691 C 104.883 28.3691 107.422 27.4902 109.619 26.2207 L 141.748 7.91016 C 145.654 5.66406 147.412 2.73438 147.412 -1.66016 L 147.412 -89.0625 C 147.412 -93.9453 144.531 -96.7773 139.795 -96.7773 C 137.939 -96.7773 136.23 -96.1426 134.033 -94.873 L 101.172 -76.6602 L 68.2617 -96.875 C 66.0156 -98.2422 63.5254 -99.1211 61.0352 -99.1211 C 58.3984 -99.1211 55.8105 -98.2422 53.5156 -96.875 L 21.7285 -78.6133 C 17.7734 -76.3672 16.0645 -73.4375 16.0645 -68.9941 L 16.0645 18.3105 C 16.0645 23.1934 18.9453 26.0742 23.6328 26.0742 C 25.4883 26.0742 27.2461 25.3906 29.4434 24.1699 L 61.3281 6.68945 L 94.8242 26.0742 C 97.2656 27.4414 99.9023 28.3691 102.441 28.3691 Z M 27.3926 12.8906 C 26.709 12.8906 26.2695 12.3535 26.2695 11.5234 L 26.2695 -66.2598 C 26.2695 -67.9688 26.8555 -69.0918 28.4668 -70.0195 L 54.2969 -85.3027 C 55.0293 -85.6934 55.6641 -86.0352 56.3477 -86.377 L 56.3477 -2.88086 L 28.4668 12.5488 C 28.0762 12.7441 27.6855 12.8906 27.3926 12.8906 Z M 96.7773 14.5996 C 95.9473 14.209 95.1172 13.7695 94.2871 13.3301 L 66.6992 -2.7832 L 66.6992 -85.3027 C 67.334 -85.0098 68.0664 -84.6191 68.7012 -84.2285 L 96.7773 -66.9434 Z M 107.08 15.5762 L 107.08 -68.0176 L 134.961 -83.3008 C 135.352 -83.4961 135.742 -83.6426 136.035 -83.6426 C 136.768 -83.6426 137.158 -83.1055 137.158 -82.2754 L 137.158 -4.44336 C 137.158 -2.68555 136.572 -1.61133 134.961 -0.634766 L 109.814 14.1113 C 108.887 14.6484 108.008 15.1367 107.08 15.5762 Z"/>
  </g>
  <g id="Regular-L" transform="matrix(1 0 0 1 1369.6 1556)">
   <path d="M 100.732 27.2461 C 102.832 27.2461 104.883 26.6602 106.787 25.5859 L 139.502 6.83594 C 142.92 4.88281 144.434 2.29492 144.434 -1.66016 L 144.434 -88.4277 C 144.434 -92.7246 142.09 -95.1172 138.037 -95.1172 C 136.572 -95.1172 135.107 -94.6289 133.252 -93.6035 L 99.9512 -75.1953 L 66.0645 -95.8984 C 64.0625 -97.0703 61.9141 -97.6562 59.7168 -97.6562 C 57.5195 -97.6562 55.2734 -97.0703 53.2715 -95.8984 L 20.9961 -77.1973 C 17.5781 -75.293 16.0645 -72.6562 16.0645 -68.75 L 16.0645 17.9688 C 16.0645 22.2656 18.4082 24.707 22.4609 24.707 C 23.9258 24.707 25.3906 24.1699 27.2461 23.1445 L 59.4727 5.56641 L 94.043 25.3906 C 96.2402 26.6113 98.5352 27.2461 100.732 27.2461 Z M 25.6348 13.6719 C 25.0977 13.6719 24.707 13.2324 24.707 12.5488 L 24.707 -66.6504 C 24.707 -68.1641 25.2441 -69.2871 26.7578 -70.166 L 53.8086 -86.084 C 54.541 -86.5234 55.2246 -86.8652 56.0059 -87.2559 L 56.0059 -2.88086 L 26.5625 13.3789 C 26.2695 13.5254 25.9277 13.6719 25.6348 13.6719 Z M 95.8496 15.7715 C 95.0195 15.3809 94.1406 14.9414 93.3105 14.502 L 64.6484 -2.05078 L 64.6484 -86.2305 C 65.2832 -85.8887 66.0156 -85.5469 66.6016 -85.1562 L 95.8496 -67.2852 Z M 104.541 16.6992 L 104.541 -67.7734 L 133.936 -83.8379 C 134.277 -83.9844 134.57 -84.1309 134.863 -84.1309 C 135.449 -84.1309 135.791 -83.6914 135.791 -83.0078 L 135.791 -3.75977 C 135.791 -2.24609 135.254 -1.12305 133.789 -0.244141 L 107.178 15.2832 C 106.299 15.8203 105.42 16.3086 104.541 16.6992 Z"/>
  </g>
  <g id="Light-L" transform="matrix(1 0 0 1 1074.69 1556)">
   <path d="M 98.4375 25.9277 C 100.342 25.9277 102.295 25.3418 104.248 24.2188 L 136.572 5.37109 C 139.551 3.71094 140.82 1.66016 140.82 -1.9043 L 140.82 -87.8418 C 140.82 -91.6016 138.77 -93.7012 135.4 -93.7012 C 134.131 -93.7012 132.812 -93.2617 131.25 -92.4316 L 98.0957 -74.1699 L 64.6484 -94.5312 C 62.5977 -95.752 60.4492 -96.3867 58.3496 -96.3867 C 56.1523 -96.3867 54.0039 -95.752 51.9531 -94.5312 L 20.3125 -75.8301 C 17.334 -74.1699 16.0645 -72.1191 16.0645 -68.5547 L 16.0645 17.3828 C 16.0645 21.1426 18.1152 23.291 21.4844 23.291 C 22.7539 23.291 24.0723 22.8027 25.6348 21.9238 L 58.1055 3.95508 L 92.2852 24.0723 C 94.3848 25.293 96.4355 25.9277 98.4375 25.9277 Z M 23.7305 15.0391 C 23.1445 15.0391 22.7051 14.5508 22.7051 13.8184 L 22.7051 -67.041 C 22.7051 -68.5547 23.1934 -69.6289 24.6582 -70.5078 L 53.3691 -87.6465 C 54.0527 -88.0371 54.7363 -88.3789 55.4199 -88.6719 L 55.4199 -2.34375 L 24.707 14.7461 C 24.3652 14.9414 24.0234 15.0391 23.7305 15.0391 Z M 94.8242 17.334 C 94.0918 17.041 93.2617 16.6504 92.5293 16.2598 L 62.0605 -1.80664 L 62.0605 -87.9883 C 62.6953 -87.7441 63.4277 -87.4023 64.0137 -87.0605 L 94.8242 -68.2129 Z M 101.465 17.9688 L 101.465 -68.5547 L 132.227 -85.2539 C 132.52 -85.4004 132.861 -85.498 133.154 -85.498 C 133.789 -85.498 134.229 -85.0586 134.229 -84.2773 L 134.229 -3.41797 C 134.229 -1.9043 133.691 -0.830078 132.227 0.0488281 L 103.857 16.7969 C 103.076 17.2363 102.246 17.627 101.465 17.9688 Z"/>
  </g>
  <g id="Thin-L" transform="matrix(1 0 0 1 780.372 1556)">
   <path d="M 95.4102 24.1211 C 97.1191 24.1211 98.8281 23.584 100.83 22.4121 L 132.715 3.51562 C 135.059 2.14844 136.035 0.830078 136.035 -2.19727 L 136.035 -87.1094 C 136.035 -90.1855 134.375 -91.8945 131.934 -91.8945 C 130.859 -91.8945 129.785 -91.4551 128.613 -90.8691 L 95.6055 -72.8516 L 62.793 -92.7734 C 60.6445 -94.043 58.5449 -94.6777 56.543 -94.6777 C 54.3945 -94.6777 52.2949 -94.043 50.2441 -92.7734 L 19.3848 -74.0234 C 17.041 -72.6562 16.0645 -71.3379 16.0645 -68.3105 L 16.0645 16.5527 C 16.0645 19.6289 17.7246 21.4355 20.166 21.4355 C 21.2402 21.4355 22.3145 20.9473 23.4863 20.3125 L 56.3477 1.80664 L 89.9414 22.3633 C 91.8945 23.584 93.7012 24.1211 95.4102 24.1211 Z M 21.2402 16.8457 C 20.5078 16.8457 19.9707 16.3086 19.9707 15.4297 L 19.9707 -67.5293 C 19.9707 -69.0918 20.4102 -70.1172 21.9238 -70.9961 L 52.7344 -89.6484 C 53.3691 -89.9902 54.0527 -90.332 54.6875 -90.5273 L 54.6875 -1.66016 L 22.2168 16.6016 C 21.875 16.748 21.5332 16.8457 21.2402 16.8457 Z M 93.457 19.4336 C 92.8223 19.2383 92.041 18.8965 91.4551 18.5547 L 58.6426 -1.51367 L 58.6426 -90.3809 C 59.2773 -90.1855 60.0098 -89.8438 60.5469 -89.5508 L 93.457 -69.4336 Z M 97.4121 19.6289 L 97.4121 -69.5312 L 129.883 -87.1094 C 130.225 -87.3047 130.566 -87.3535 130.859 -87.3535 C 131.543 -87.3535 132.08 -86.8164 132.08 -85.9863 L 132.08 -2.97852 C 132.08 -1.46484 131.689 -0.390625 130.176 0.488281 L 99.4141 18.75 C 98.7305 19.0918 98.0957 19.4336 97.4121 19.6289 Z"/>
  </g>
  <g id="Ultralight-L" transform="matrix(1 0 0 1 484.882 1556)">
   <path d="M 93.8965 23.2422 C 95.459 23.2422 97.0703 22.6562 99.1211 21.4844 L 130.762 2.53906 C 132.764 1.31836 133.594 0.390625 133.594 -2.39258 L 133.594 -86.7188 C 133.594 -89.4531 132.178 -90.9668 130.127 -90.9668 C 129.199 -90.9668 128.223 -90.5762 127.295 -90.0391 L 94.3359 -72.168 L 61.8652 -91.8457 C 59.668 -93.1641 57.5684 -93.7988 55.5664 -93.7988 C 53.5156 -93.7988 51.416 -93.1641 49.3164 -91.8457 L 18.8965 -73.0957 C 16.8945 -71.875 16.0645 -70.9473 16.0645 -68.1641 L 16.0645 16.1621 C 16.0645 18.8965 17.4805 20.5078 19.5312 20.5078 C 20.4102 20.5078 21.4355 20.0195 22.3633 19.4824 L 55.4199 0.732422 L 88.7695 21.4844 C 90.625 22.7051 92.2852 23.2422 93.8965 23.2422 Z M 92.7734 20.5078 C 92.1387 20.3613 91.4551 20.0684 90.918 19.7266 L 56.8848 -1.31836 L 56.8848 -91.6016 C 57.5195 -91.4551 58.252 -91.1133 58.7891 -90.8203 L 92.7734 -70.0684 Z M 19.9219 17.7734 C 19.1895 17.7734 18.6035 17.1875 18.6035 16.2598 L 18.6035 -67.8223 C 18.6035 -69.3359 18.9941 -70.3613 20.5566 -71.2402 L 52.4414 -90.6738 C 53.0762 -91.0156 53.7109 -91.3086 54.3457 -91.4551 L 54.3457 -1.31836 L 20.8984 17.5293 C 20.6055 17.6758 20.2637 17.7734 19.9219 17.7734 Z M 95.3125 20.459 L 95.3125 -70.0195 L 128.711 -88.0859 C 129.053 -88.2324 129.395 -88.3301 129.688 -88.3301 C 130.42 -88.3301 131.006 -87.7441 131.006 -86.8164 L 131.006 -2.73438 C 131.006 -1.2207 130.664 -0.195312 129.102 0.683594 L 97.168 19.7266 C 96.5332 20.0195 95.9473 20.3613 95.3125 20.459 Z"/>
  </g>
  <g id="Black-M" transform="matrix(1 0 0 1 2863.23 1126)">
   <path d="M 87.207 19.3359 C 90.918 19.3359 95.2637 17.041 98.584 15.1855 L 120.02 3.22266 C 125.684 0.0976562 127.881 -3.61328 127.881 -9.47266 L 127.881 -80.0293 C 127.881 -86.5723 123.145 -91.1621 116.211 -91.1621 C 112.891 -91.1621 110.303 -89.6973 106.787 -87.6953 L 83.8379 -74.6094 L 63.8184 -87.4512 C 60.4492 -89.5996 57.0801 -91.5527 53.3203 -91.5527 C 49.4141 -91.5527 45.5078 -89.4043 41.9922 -87.4512 L 20.3125 -75.4883 C 14.5996 -72.3145 12.4512 -68.6523 12.4512 -62.793 L 12.4512 7.76367 C 12.4512 14.3066 17.1875 18.8965 24.1211 18.8965 C 27.4414 18.8965 30.0293 17.4805 33.5938 15.4297 L 56.6406 2.34375 L 76.7578 15.1855 C 79.6387 17.041 83.5938 19.3359 87.207 19.3359 Z M 29.4434 -1.26953 C 28.1738 -1.26953 27.5391 -2.34375 27.5391 -3.80859 L 27.5391 -57.4707 C 27.5391 -59.8633 28.2227 -60.5957 30.1758 -61.8164 L 44.5312 -70.5566 C 44.8242 -70.752 45.0684 -70.8496 45.4102 -71.0449 L 45.4102 -9.86328 L 31.1523 -1.80664 C 30.4688 -1.41602 29.8828 -1.26953 29.4434 -1.26953 Z M 94.9707 -1.17188 L 94.9707 -62.3047 L 109.18 -70.459 C 109.863 -70.8496 110.449 -70.9473 110.889 -70.9473 C 112.207 -70.9473 112.793 -69.873 112.793 -68.4082 L 112.793 -14.7949 C 112.793 -12.4023 112.109 -11.6211 110.156 -10.4492 L 97.1191 -2.39258 C 96.3867 -1.9043 95.7031 -1.61133 94.9707 -1.17188 Z M 79.1016 -2.09961 C 78.6621 -2.34375 78.2227 -2.63672 77.832 -2.88086 L 61.2305 -13.8672 L 61.2305 -70.3125 C 61.8164 -69.9707 62.3047 -69.6777 62.8906 -69.2871 L 79.1016 -58.4961 Z"/>
  </g>
  <g id="Heavy-M" transform="matrix(1 0 0 1 2568.16 1126)">
   <path d="M 85.3516 18.0664 C 88.623 18.0664 92.334 16.2109 95.166 14.5996 L 117.627 2.05078 C 122.607 -0.78125 124.609 -4.15039 124.609 -9.375 L 124.609 -79.248 C 124.609 -85.1074 120.508 -89.1113 114.404 -89.1113 C 111.572 -89.1113 109.277 -87.8906 106.201 -86.1328 L 82.5684 -72.7539 L 61.0352 -86.377 C 58.1055 -88.2324 55.127 -89.8438 51.8555 -89.8438 C 48.4375 -89.8438 45.0684 -88.0859 41.9922 -86.377 L 19.4336 -73.8281 C 14.4043 -71.0449 12.4512 -67.6758 12.4512 -62.4512 L 12.4512 7.42188 C 12.4512 13.2812 16.5527 17.2852 22.6562 17.2852 C 25.4883 17.2852 27.7832 16.0645 30.8594 14.3066 L 54.3457 1.17188 L 76.0742 14.5508 C 78.7109 16.1621 82.1777 18.0664 85.3516 18.0664 Z M 27.4414 -0.537109 C 26.3672 -0.537109 25.8301 -1.41602 25.8301 -2.63672 L 25.8301 -57.9102 C 25.8301 -60.0098 26.4648 -60.791 28.2227 -61.8652 L 43.9453 -71.2891 C 44.2871 -71.5332 44.6289 -71.6797 44.9707 -71.9238 L 44.9707 -10.0098 L 28.9062 -0.976562 C 28.3203 -0.634766 27.832 -0.537109 27.4414 -0.537109 Z M 92.0898 0.146484 L 92.0898 -61.7676 L 108.154 -70.8496 C 108.74 -71.1426 109.229 -71.2891 109.619 -71.2891 C 110.742 -71.2891 111.23 -70.4102 111.23 -69.1406 L 111.23 -13.8672 C 111.23 -11.7676 110.596 -10.9863 108.838 -9.91211 L 94.2871 -1.12305 C 93.5059 -0.634766 92.8223 -0.292969 92.0898 0.146484 Z M 78.125 -0.78125 C 77.5879 -1.07422 77.0996 -1.36719 76.6113 -1.66016 L 58.9844 -12.8418 L 58.9844 -71.0938 C 59.5215 -70.8008 60.0098 -70.5078 60.5469 -70.1172 L 78.125 -58.7402 Z"/>
  </g>
  <g id="Bold-M" transform="matrix(1 0 0 1 2273.28 1126)">
   <path d="M 83.252 16.6504 C 85.9863 16.6504 89.0137 15.2832 91.4062 13.916 L 114.893 0.683594 C 119.189 -1.70898 120.947 -4.73633 120.947 -9.27734 L 120.947 -78.418 C 120.947 -83.4961 117.578 -86.8164 112.354 -86.8164 C 110.059 -86.8164 108.154 -85.8398 105.615 -84.4238 L 81.2012 -70.7031 L 57.9102 -85.2051 C 55.4688 -86.7676 52.9297 -87.9395 50.1953 -87.9395 C 47.3633 -87.9395 44.5312 -86.6699 41.9922 -85.2051 L 18.5059 -72.0215 C 14.1602 -69.6289 12.4512 -66.6016 12.4512 -62.0605 L 12.4512 7.08008 C 12.4512 12.1582 15.8203 15.4785 21.0449 15.4785 C 23.3398 15.4785 25.2441 14.502 27.832 13.0859 L 51.7578 -0.146484 L 75.293 13.8184 C 77.6367 15.2344 80.5664 16.6504 83.252 16.6504 Z M 25.1953 0.292969 C 24.3652 0.292969 23.9258 -0.390625 23.9258 -1.36719 L 23.9258 -58.3984 C 23.9258 -60.2051 24.5117 -60.9863 26.0254 -61.9629 L 43.2617 -72.168 C 43.7012 -72.4121 44.0918 -72.6562 44.5312 -72.9004 L 44.5312 -10.1562 L 26.416 -0.0488281 C 25.9277 0.195312 25.5371 0.292969 25.1953 0.292969 Z M 77.002 0.683594 C 76.416 0.341797 75.8789 0.0488281 75.293 -0.292969 L 56.3965 -11.7676 L 56.3965 -72.0215 C 56.9336 -71.7285 57.4707 -71.4355 58.0078 -71.0938 L 77.002 -59.0332 Z M 88.8672 1.5625 L 88.8672 -61.1816 L 106.982 -71.2891 C 107.471 -71.5332 107.861 -71.6309 108.203 -71.6309 C 109.082 -71.6309 109.473 -70.9473 109.473 -69.9707 L 109.473 -12.8906 C 109.473 -11.1328 108.887 -10.3027 107.373 -9.375 L 91.0645 0.341797 C 90.332 0.830078 89.5996 1.17188 88.8672 1.5625 Z"/>
  </g>
  <g id="Semibold-M" transform="matrix(1 0 0 1 1977.84 1126)">
   <path d="M 81.8359 15.625 C 84.2285 15.625 86.7676 14.5996 88.8184 13.4766 L 113.037 -0.244141 C 116.846 -2.34375 118.408 -5.12695 118.408 -9.17969 L 118.408 -77.832 C 118.408 -82.373 115.527 -85.2051 110.938 -85.2051 C 109.033 -85.2051 107.373 -84.4727 105.176 -83.2031 L 80.2246 -69.2383 L 55.7617 -84.4238 C 53.6621 -85.7422 51.416 -86.6699 49.0723 -86.6699 C 46.6309 -86.6699 44.1895 -85.6445 41.9922 -84.4238 L 17.8223 -70.752 C 14.0137 -68.6523 12.4512 -65.8691 12.4512 -61.7676 L 12.4512 6.78711 C 12.4512 11.3281 15.332 14.209 19.9219 14.209 C 21.8262 14.209 23.4863 13.4766 25.7324 12.207 L 50 -1.07422 L 74.8047 13.3301 C 76.9043 14.5996 79.4922 15.625 81.8359 15.625 Z M 23.6816 0.878906 C 22.998 0.878906 22.6074 0.341797 22.6074 -0.439453 L 22.6074 -58.7402 C 22.6074 -60.3027 23.1445 -61.1328 24.5605 -62.0117 L 42.7734 -72.7539 C 43.3105 -73.0469 43.75 -73.291 44.2383 -73.584 L 44.2383 -10.2539 L 24.707 0.537109 C 24.3164 0.78125 23.9258 0.878906 23.6816 0.878906 Z M 76.2207 1.66016 C 75.6348 1.31836 75 0.976562 74.3652 0.634766 L 54.6387 -10.9863 L 54.6387 -72.6074 C 55.1758 -72.3633 55.7129 -72.0215 56.2012 -71.7285 L 76.2207 -59.2285 Z M 86.6211 2.58789 L 86.6211 -60.791 L 106.201 -71.582 C 106.592 -71.7773 106.934 -71.875 107.227 -71.875 C 107.91 -71.875 108.252 -71.3379 108.252 -70.5566 L 108.252 -12.207 C 108.252 -10.6445 107.715 -9.81445 106.348 -8.98438 L 88.8672 1.36719 C 88.0859 1.80664 87.3535 2.19727 86.6211 2.58789 Z"/>
  </g>
  <g id="Medium-M" transform="matrix(1 0 0 1 1682.08 1126)">
   <path d="M 80.7617 14.8926 C 82.8613 14.8926 85.0098 14.1113 86.8164 13.1348 L 111.621 -0.927734 C 115.039 -2.83203 116.504 -5.41992 116.504 -9.13086 L 116.504 -77.3438 C 116.504 -81.4941 114.014 -83.9844 109.863 -83.9844 C 108.252 -83.9844 106.787 -83.3984 104.834 -82.3242 L 79.4922 -68.1641 L 54.1016 -83.7891 C 52.2949 -84.9121 50.293 -85.6445 48.1934 -85.6445 C 46.0449 -85.6445 43.8965 -84.9121 42.041 -83.7891 L 17.334 -69.7754 C 13.916 -67.8711 12.4512 -65.2832 12.4512 -61.5723 L 12.4512 6.5918 C 12.4512 10.7422 14.9414 13.2324 19.0918 13.2324 C 20.7031 13.2324 22.168 12.6465 24.1211 11.5723 L 48.6328 -1.75781 L 74.3652 12.9395 C 76.3672 14.1113 78.6621 14.8926 80.7617 14.8926 Z M 22.5098 1.31836 C 21.9238 1.31836 21.6309 0.878906 21.6309 0.244141 L 21.6309 -59.0332 C 21.6309 -60.4004 22.1191 -61.2793 23.3887 -62.0117 L 42.4316 -73.1934 C 42.9688 -73.5352 43.457 -73.7793 43.9941 -74.0723 L 43.9941 -10.3516 L 23.3887 1.02539 C 23.0469 1.2207 22.7539 1.31836 22.5098 1.31836 Z M 75.6348 2.44141 C 75 2.05078 74.3652 1.70898 73.6816 1.36719 L 53.3203 -10.4004 L 53.3203 -73.0957 C 53.8086 -72.8027 54.3457 -72.5098 54.8828 -72.2168 L 75.6348 -59.375 Z M 84.9609 3.32031 L 84.9609 -60.4492 L 105.566 -71.7773 C 105.908 -71.9727 106.201 -72.0703 106.445 -72.0703 C 107.031 -72.0703 107.324 -71.6309 107.324 -70.9961 L 107.324 -11.7188 C 107.324 -10.3027 106.836 -9.47266 105.566 -8.69141 L 87.1582 2.09961 C 86.4258 2.53906 85.6934 2.92969 84.9609 3.32031 Z"/>
  </g>
  <g id="Regular-M" transform="matrix(1 0 0 1 1386.61 1126)">
   <path d="M 79.3457 13.916 C 81.0547 13.916 82.7637 13.4766 84.2285 12.6465 L 109.766 -1.85547 C 112.695 -3.4668 114.014 -5.81055 114.014 -9.08203 L 114.014 -76.8066 C 114.014 -80.4199 112.012 -82.4219 108.496 -82.4219 C 107.275 -82.4219 106.006 -82.0312 104.395 -81.1523 L 78.5156 -66.748 L 52.002 -83.0078 C 50.4883 -83.8867 48.7793 -84.375 47.0703 -84.375 C 45.3125 -84.375 43.5547 -83.8867 42.041 -83.0078 L 16.6504 -68.5547 C 13.7695 -66.8945 12.4512 -64.5508 12.4512 -61.2793 L 12.4512 6.34766 C 12.4512 9.96094 14.4531 12.0117 17.9688 12.0117 C 19.1895 12.0117 20.459 11.5723 22.0215 10.6934 L 46.875 -2.68555 L 73.877 12.4512 C 75.6348 13.4277 77.5391 13.916 79.3457 13.916 Z M 20.9473 1.9043 C 20.5566 1.9043 20.3125 1.61133 20.3125 1.12305 L 20.3125 -59.375 C 20.3125 -60.5469 20.752 -61.377 21.9238 -62.0605 L 41.9434 -73.7793 C 42.5781 -74.1211 43.1152 -74.4141 43.7012 -74.7559 L 43.7012 -10.4492 L 21.6797 1.66016 C 21.4355 1.75781 21.1914 1.9043 20.9473 1.9043 Z M 74.9023 3.41797 C 74.2188 3.02734 73.4863 2.68555 72.7539 2.29492 L 51.5625 -9.66797 L 51.5625 -73.7305 C 52.0508 -73.4375 52.6367 -73.1445 53.125 -72.8516 L 74.9023 -59.5703 Z M 82.7637 4.29688 L 82.7637 -60.0586 L 104.785 -72.0703 C 105.029 -72.2168 105.273 -72.3145 105.469 -72.3145 C 105.908 -72.3145 106.152 -72.0215 106.152 -71.5332 L 106.152 -11.0352 C 106.152 -9.81445 105.664 -8.98438 104.541 -8.30078 L 84.9609 3.07617 C 84.2285 3.51562 83.4961 3.95508 82.7637 4.29688 Z"/>
  </g>
  <g id="Light-M" transform="matrix(1 0 0 1 1091.54 1126)">
   <path d="M 77.2949 12.7441 C 78.8574 12.7441 80.4199 12.3047 81.9336 11.4258 L 107.178 -3.125 C 109.668 -4.54102 110.742 -6.34766 110.742 -9.27734 L 110.742 -76.2695 C 110.742 -79.3945 109.033 -81.2012 106.104 -81.2012 C 105.029 -81.2012 103.955 -80.8105 102.637 -80.0781 L 76.8555 -65.8691 L 50.7324 -81.7871 C 49.1699 -82.7148 47.5098 -83.2031 45.8496 -83.2031 C 44.1406 -83.2031 42.4316 -82.7148 40.8691 -81.7871 L 16.0645 -67.334 C 13.5742 -65.918 12.4512 -64.0625 12.4512 -61.1328 L 12.4512 5.81055 C 12.4512 8.98438 14.1602 10.7422 17.0898 10.7422 C 18.1641 10.7422 19.2383 10.3516 20.6055 9.61914 L 45.6543 -4.15039 L 72.3145 11.3281 C 73.9746 12.2559 75.6836 12.7441 77.2949 12.7441 Z M 19.2383 3.125 C 18.7988 3.125 18.5059 2.7832 18.5059 2.19727 L 18.5059 -59.7168 C 18.5059 -60.8887 18.8965 -61.7188 20.0684 -62.4023 L 41.5527 -75.1465 C 42.1387 -75.4883 42.627 -75.7324 43.2129 -76.0254 L 43.2129 -10.0098 L 19.9707 2.88086 C 19.7266 3.02734 19.4824 3.125 19.2383 3.125 Z M 73.9746 4.83398 C 73.3398 4.54102 72.6562 4.19922 72.0703 3.85742 L 49.2676 -9.42383 L 49.2676 -75.3418 C 49.7559 -75.0977 50.293 -74.8047 50.7812 -74.5605 L 73.9746 -60.4004 Z M 79.9805 5.41992 L 79.9805 -60.6934 L 103.223 -73.3398 C 103.467 -73.4863 103.711 -73.584 103.955 -73.584 C 104.395 -73.584 104.736 -73.2422 104.736 -72.6562 L 104.736 -10.7422 C 104.736 -9.52148 104.297 -8.69141 103.174 -8.00781 L 81.9824 4.39453 C 81.2988 4.78516 80.6641 5.12695 79.9805 5.41992 Z"/>
  </g>
  <g id="Thin-M" transform="matrix(1 0 0 1 796.974 1126)">
   <path d="M 74.6094 11.1816 C 75.9766 11.1816 77.3438 10.7422 78.9062 9.81445 L 103.711 -4.78516 C 105.664 -5.9082 106.445 -7.12891 106.445 -9.57031 L 106.445 -75.5859 C 106.445 -78.125 105.127 -79.541 102.979 -79.541 C 102.148 -79.541 101.221 -79.1992 100.244 -78.6621 L 74.6094 -64.6973 L 49.0723 -80.2246 C 47.4121 -81.2012 45.8008 -81.6895 44.1895 -81.6895 C 42.5293 -81.6895 40.918 -81.2012 39.3066 -80.2246 L 15.2344 -65.6738 C 13.2812 -64.5508 12.4512 -63.3789 12.4512 -60.9375 L 12.4512 5.07812 C 12.4512 7.61719 13.8184 9.08203 15.918 9.08203 C 16.7969 9.08203 17.6758 8.69141 18.6523 8.1543 L 44.043 -6.05469 L 70.2148 9.76562 C 71.7773 10.7422 73.1934 11.1816 74.6094 11.1816 Z M 16.9922 4.73633 C 16.4551 4.73633 16.0645 4.3457 16.0645 3.71094 L 16.0645 -60.1562 C 16.0645 -61.3281 16.4062 -62.1582 17.5781 -62.8418 L 41.0156 -76.9531 C 41.5039 -77.2461 42.041 -77.4902 42.5293 -77.6855 L 42.5293 -9.375 L 17.7246 4.54102 C 17.4805 4.6875 17.2363 4.73633 16.9922 4.73633 Z M 72.7539 6.68945 C 72.2168 6.49414 71.582 6.25 71.0938 5.95703 L 46.1914 -9.17969 L 46.1914 -77.4414 C 46.6797 -77.2949 47.2168 -77.0508 47.7051 -76.7578 L 72.7539 -61.4746 Z M 76.3672 6.93359 L 76.3672 -61.5723 L 101.172 -75.0488 C 101.416 -75.1465 101.66 -75.2441 101.904 -75.2441 C 102.441 -75.2441 102.832 -74.8535 102.832 -74.1699 L 102.832 -10.3516 C 102.832 -9.13086 102.49 -8.30078 101.318 -7.61719 L 78.0273 6.15234 C 77.4414 6.44531 76.9043 6.73828 76.3672 6.93359 Z"/>
  </g>
  <g id="Ultralight-M" transform="matrix(1 0 0 1 501.362 1126)">
   <path d="M 73.2422 10.3516 C 74.4629 10.3516 75.7812 9.91211 77.3438 8.98438 L 101.953 -5.66406 C 103.613 -6.64062 104.248 -7.4707 104.248 -9.7168 L 104.248 -75.2441 C 104.248 -77.4414 103.076 -78.7109 101.367 -78.7109 C 100.635 -78.7109 99.8535 -78.3691 99.0234 -77.9785 L 73.4863 -64.0625 L 48.2422 -79.3945 C 46.5332 -80.3711 44.9219 -80.8594 43.3594 -80.8594 C 41.748 -80.8594 40.1367 -80.3711 38.4766 -79.3945 L 14.7949 -64.8438 C 13.1348 -63.8672 12.4512 -63.0371 12.4512 -60.791 L 12.4512 4.73633 C 12.4512 6.93359 13.623 8.25195 15.332 8.25195 C 16.0645 8.25195 16.8945 7.86133 17.6758 7.42188 L 43.2129 -7.03125 L 69.1406 8.98438 C 70.6543 9.91211 71.9238 10.3516 73.2422 10.3516 Z M 72.1191 7.61719 C 71.6309 7.51953 71.0449 7.27539 70.6055 7.03125 L 44.6289 -9.0332 L 44.6289 -78.5156 C 45.1172 -78.418 45.6543 -78.1738 46.0938 -77.9297 L 72.1191 -62.0605 Z M 15.8691 5.56641 C 15.2832 5.56641 14.8438 5.12695 14.8438 4.44336 L 14.8438 -60.4004 C 14.8438 -61.5723 15.1367 -62.4023 16.3574 -63.0859 L 40.7227 -77.8809 C 41.2109 -78.1738 41.6992 -78.418 42.2363 -78.5156 L 42.2363 -9.08203 L 16.6016 5.37109 C 16.3574 5.51758 16.1133 5.56641 15.8691 5.56641 Z M 74.5117 7.66602 L 74.5117 -62.0117 L 100.098 -75.9277 C 100.391 -76.0254 100.635 -76.0742 100.879 -76.0742 C 101.416 -76.0742 101.855 -75.6348 101.855 -74.9512 L 101.855 -10.1074 C 101.855 -8.93555 101.562 -8.1543 100.391 -7.4707 L 75.9766 7.08008 C 75.4883 7.32422 75 7.56836 74.5117 7.66602 Z"/>
  </g>
  <g id="Black-S" transform="matrix(1 0 0 1 2878.52 696)">
   <path d="M 68.2129 7.42188 C 71.0938 7.42188 74.4629 5.66406 77.002 4.24805 L 93.8965 -5.17578 C 98.291 -7.61719 100 -10.498 100 -15.0391 L 100 -70.2637 C 100 -75.3418 96.3379 -78.9062 90.9668 -78.9062 C 88.3789 -78.9062 86.377 -77.7832 83.6426 -76.2207 L 65.625 -65.9668 L 49.8047 -76.0742 C 47.2168 -77.7344 44.5801 -79.248 41.6992 -79.248 C 38.6719 -79.248 35.6445 -77.5879 32.9102 -76.0742 L 15.8691 -66.6504 C 11.4258 -64.209 9.76562 -61.3281 9.76562 -56.7871 L 9.76562 -1.5625 C 9.76562 3.51562 13.4277 7.08008 18.7988 7.08008 C 21.3867 7.08008 23.3887 5.95703 26.123 4.39453 L 44.2383 -5.85938 L 60.1074 4.24805 C 62.3535 5.66406 65.4297 7.42188 68.2129 7.42188 Z M 22.9492 -8.59375 C 21.9727 -8.59375 21.4844 -9.42383 21.4844 -10.5469 L 21.4844 -52.6855 C 21.4844 -54.541 22.0215 -55.127 23.5352 -56.0547 L 34.8633 -62.9395 C 35.1074 -63.0859 35.3027 -63.1836 35.5469 -63.3301 L 35.5469 -15.3809 L 24.2676 -8.98438 C 23.7305 -8.69141 23.291 -8.59375 22.9492 -8.59375 Z M 74.2188 -8.44727 L 74.2188 -56.3965 L 85.498 -62.8418 C 86.0352 -63.1348 86.4746 -63.2324 86.8164 -63.2324 C 87.8418 -63.2324 88.2812 -62.4023 88.2812 -61.2793 L 88.2812 -19.1406 C 88.2812 -17.2852 87.7441 -16.6992 86.2305 -15.7715 L 75.9277 -9.42383 C 75.3418 -9.0332 74.8047 -8.78906 74.2188 -8.44727 Z M 61.9141 -9.17969 C 61.5723 -9.375 61.2305 -9.61914 60.8887 -9.81445 L 47.8516 -18.4082 L 47.8516 -62.7441 C 48.291 -62.5 48.6816 -62.2559 49.1211 -61.9629 L 61.9141 -53.4668 Z"/>
  </g>
  <g id="Heavy-S" transform="matrix(1 0 0 1 2582.88 696)">
   <path d="M 67.041 6.5918 C 69.5801 6.5918 72.4609 5.17578 74.6582 3.90625 L 92.334 -5.95703 C 96.2891 -8.1543 97.8516 -10.8398 97.8516 -14.9414 L 97.8516 -69.7266 C 97.8516 -74.3164 94.6289 -77.4902 89.8438 -77.4902 C 87.5977 -77.4902 85.8398 -76.5137 83.3984 -75.1465 L 64.8438 -64.6484 L 47.8027 -75.3906 C 45.5566 -76.8555 43.2129 -78.0762 40.7227 -78.0762 C 38.0859 -78.0762 35.4004 -76.709 33.0566 -75.3906 L 15.2832 -65.5273 C 11.2793 -63.3301 9.76562 -60.6445 9.76562 -56.543 L 9.76562 -1.75781 C 9.76562 2.83203 12.9883 5.95703 17.7734 5.95703 C 20.0195 5.95703 21.7773 5.0293 24.2188 3.66211 L 42.627 -6.5918 L 59.7656 3.90625 C 61.8164 5.12695 64.5508 6.5918 67.041 6.5918 Z M 21.6309 -8.1543 C 20.8008 -8.1543 20.3613 -8.83789 20.3613 -9.76562 L 20.3613 -52.9785 C 20.3613 -54.6387 20.8984 -55.2246 22.2656 -56.0547 L 34.4238 -63.3789 C 34.7656 -63.5742 35.0098 -63.6719 35.3027 -63.8672 L 35.3027 -15.5273 L 22.7539 -8.49609 C 22.2656 -8.25195 21.9238 -8.1543 21.6309 -8.1543 Z M 72.3145 -7.56836 L 72.3145 -55.9082 L 84.8633 -62.9883 C 85.3516 -63.2324 85.6934 -63.3301 86.0352 -63.3301 C 86.8652 -63.3301 87.2559 -62.6465 87.2559 -61.7188 L 87.2559 -18.5059 C 87.2559 -16.8457 86.7188 -16.2598 85.3516 -15.4297 L 74.0723 -8.59375 C 73.4863 -8.20312 72.9004 -7.91016 72.3145 -7.56836 Z M 61.2793 -8.34961 C 60.8398 -8.59375 60.4492 -8.83789 60.0586 -9.0332 L 46.3379 -17.6758 L 46.3379 -63.1836 C 46.7773 -62.9395 47.168 -62.6953 47.6074 -62.4023 L 61.2793 -53.5645 Z"/>
  </g>
  <g id="Bold-S" transform="matrix(1 0 0 1 2287.37 696)">
   <path d="M 65.6738 5.66406 C 67.8711 5.66406 70.2148 4.58984 72.0703 3.56445 L 90.5762 -6.83594 C 94.043 -8.74023 95.459 -11.1816 95.459 -14.8438 L 95.459 -69.1406 C 95.459 -73.1934 92.7734 -75.8789 88.5742 -75.8789 C 86.7676 -75.8789 85.2051 -75.1465 83.1543 -73.9746 L 63.9648 -63.1836 L 45.6055 -74.6582 C 43.7012 -75.8301 41.6992 -76.7578 39.5996 -76.7578 C 37.4023 -76.7578 35.1562 -75.7812 33.2031 -74.6582 L 14.6484 -64.3066 C 11.1816 -62.3535 9.76562 -59.9121 9.76562 -56.25 L 9.76562 -1.95312 C 9.76562 2.09961 12.4512 4.73633 16.6504 4.73633 C 18.457 4.73633 20.0195 4.00391 22.0703 2.83203 L 40.7715 -7.42188 L 59.375 3.4668 C 61.2305 4.58984 63.5742 5.66406 65.6738 5.66406 Z M 20.1172 -7.66602 C 19.4824 -7.66602 19.1406 -8.20312 19.1406 -8.93555 L 19.1406 -53.3203 C 19.1406 -54.7363 19.6289 -55.3711 20.8008 -56.1035 L 33.9844 -63.8672 C 34.3262 -64.0625 34.668 -64.2578 35.0098 -64.4531 L 35.0098 -15.7227 L 21.0449 -7.95898 C 20.6543 -7.76367 20.3613 -7.66602 20.1172 -7.66602 Z M 60.5469 -7.42188 C 60.0586 -7.66602 59.6191 -7.95898 59.1309 -8.20312 L 44.6777 -16.8457 L 44.6777 -63.6719 C 45.1172 -63.4277 45.5078 -63.1836 45.9473 -62.9395 L 60.5469 -53.6621 Z M 70.2148 -6.64062 L 70.2148 -55.3711 L 84.1797 -63.1836 C 84.5703 -63.3789 84.8633 -63.4766 85.1074 -63.4766 C 85.791 -63.4766 86.084 -62.9395 86.084 -62.207 L 86.084 -17.7734 C 86.084 -16.4062 85.5957 -15.7715 84.4238 -15.0391 L 71.9727 -7.61719 C 71.3867 -7.27539 70.8008 -6.98242 70.2148 -6.64062 Z"/>
  </g>
  <g id="Semibold-S" transform="matrix(1 0 0 1 1991.48 696)">
   <path d="M 64.7461 4.98047 C 66.6504 4.98047 68.7012 4.19922 70.2637 3.32031 L 89.4043 -7.42188 C 92.4805 -9.13086 93.7988 -11.4746 93.7988 -14.7461 L 93.7988 -68.75 C 93.7988 -72.4609 91.4551 -74.7559 87.6953 -74.7559 C 86.1328 -74.7559 84.8145 -74.1699 83.0078 -73.1445 L 63.3789 -62.1582 L 44.043 -74.1699 C 42.4316 -75.1465 40.6738 -75.8789 38.8184 -75.8789 C 36.9141 -75.8789 35.0098 -75.0977 33.3008 -74.1699 L 14.1602 -63.4277 C 11.084 -61.7188 9.76562 -59.375 9.76562 -56.0547 L 9.76562 -2.09961 C 9.76562 1.5625 12.1094 3.90625 15.8691 3.90625 C 17.4316 3.90625 18.75 3.27148 20.5566 2.29492 L 39.502 -8.00781 L 59.1309 3.17383 C 60.791 4.15039 62.8906 4.98047 64.7461 4.98047 Z M 19.0918 -7.32422 C 18.5547 -7.32422 18.3105 -7.71484 18.3105 -8.34961 L 18.3105 -53.5645 C 18.3105 -54.7852 18.75 -55.4199 19.8242 -56.1035 L 33.6426 -64.1602 C 34.082 -64.4043 34.4238 -64.5996 34.8145 -64.8438 L 34.8145 -15.8203 L 19.873 -7.56836 C 19.5312 -7.42188 19.2871 -7.32422 19.0918 -7.32422 Z M 60.0098 -6.78711 C 59.5215 -7.03125 59.0332 -7.32422 58.4961 -7.61719 L 43.5547 -16.3086 L 43.5547 -64.0137 C 43.9453 -63.7695 44.3848 -63.5254 44.7754 -63.2812 L 60.0098 -53.7598 Z M 68.75 -5.95703 L 68.75 -54.9805 L 83.6914 -63.2812 C 83.9844 -63.4277 84.2773 -63.5254 84.4727 -63.5254 C 85.0098 -63.5254 85.2539 -63.1348 85.2539 -62.5488 L 85.2539 -17.2852 C 85.2539 -16.0645 84.8145 -15.3809 83.7402 -14.7461 L 70.5566 -6.98242 C 69.9219 -6.5918 69.3359 -6.29883 68.75 -5.95703 Z"/>
  </g>
  <g id="Medium-S" transform="matrix(1 0 0 1 1695.41 696)">
   <path d="M 64.0625 4.49219 C 65.7715 4.49219 67.5293 3.90625 68.8965 3.125 L 88.4766 -7.86133 C 91.3086 -9.42383 92.5293 -11.6699 92.5293 -14.6973 L 92.5293 -68.457 C 92.5293 -71.875 90.4785 -73.9258 87.0117 -73.9258 C 85.6934 -73.9258 84.4727 -73.4375 82.8613 -72.5098 L 62.9395 -61.377 L 42.8711 -73.7793 C 41.5039 -74.6094 39.8926 -75.1953 38.2812 -75.1953 C 36.5723 -75.1953 34.8633 -74.6094 33.3984 -73.7793 L 13.8184 -62.793 C 10.9863 -61.1816 9.76562 -58.9844 9.76562 -55.9082 L 9.76562 -2.24609 C 9.76562 1.17188 11.8164 3.22266 15.2832 3.22266 C 16.6016 3.22266 17.8223 2.73438 19.4336 1.85547 L 38.5742 -8.44727 L 58.8867 2.97852 C 60.498 3.85742 62.3535 4.49219 64.0625 4.49219 Z M 18.3105 -7.08008 C 17.8711 -7.08008 17.627 -7.37305 17.627 -7.86133 L 17.627 -53.7109 C 17.627 -54.834 18.0664 -55.4688 19.043 -56.1035 L 33.3984 -64.4531 C 33.8379 -64.6973 34.2285 -64.8926 34.668 -65.1855 L 34.668 -15.918 L 18.9453 -7.32422 C 18.7012 -7.17773 18.457 -7.08008 18.3105 -7.08008 Z M 59.6191 -6.29883 C 59.082 -6.5918 58.5449 -6.88477 58.0078 -7.17773 L 42.6758 -15.8691 L 42.6758 -64.2578 C 43.0664 -64.0137 43.5059 -63.7695 43.8965 -63.5254 L 59.6191 -53.8086 Z M 67.627 -5.46875 L 67.627 -54.7363 L 83.3496 -63.3789 C 83.5938 -63.4766 83.8379 -63.5742 84.0332 -63.5742 C 84.4727 -63.5742 84.668 -63.2812 84.668 -62.793 L 84.668 -16.8945 C 84.668 -15.8203 84.2285 -15.1367 83.252 -14.5508 L 69.4824 -6.49414 C 68.8477 -6.10352 68.2617 -5.81055 67.627 -5.46875 Z"/>
  </g>
  <g id="Regular-S" transform="matrix(1 0 0 1 1399.5 696)">
   <path d="M 63.1836 3.85742 C 64.5996 3.85742 66.0156 3.51562 67.1387 2.88086 L 87.3047 -8.44727 C 89.7461 -9.81445 90.918 -11.9141 90.918 -14.6484 L 90.918 -68.0176 C 90.918 -71.0938 89.209 -72.8027 86.1328 -72.8027 C 85.1074 -72.8027 84.0332 -72.4609 82.666 -71.7285 L 62.3535 -60.3516 L 41.3574 -73.2422 C 40.2344 -73.9258 38.8672 -74.2676 37.5 -74.2676 C 36.084 -74.2676 34.668 -73.9258 33.4961 -73.2422 L 13.3789 -61.9141 C 10.8887 -60.5469 9.76562 -58.4473 9.76562 -55.7129 L 9.76562 -2.39258 C 9.76562 0.683594 11.4746 2.39258 14.502 2.39258 C 15.5762 2.39258 16.6016 2.05078 17.9688 1.31836 L 37.3047 -9.0332 L 58.6426 2.68555 C 60.1074 3.4668 61.6699 3.85742 63.1836 3.85742 Z M 17.2852 -6.73828 C 16.9434 -6.73828 16.7969 -6.93359 16.7969 -7.27539 L 16.7969 -53.9551 C 16.7969 -54.8828 17.1875 -55.5664 18.0664 -56.1035 L 33.1055 -64.7461 C 33.5938 -65.0391 34.0332 -65.2832 34.4727 -65.5762 L 34.4727 -16.0645 L 17.8223 -6.93359 C 17.627 -6.83594 17.4316 -6.73828 17.2852 -6.73828 Z M 59.1309 -5.66406 C 58.5449 -5.95703 57.959 -6.25 57.373 -6.5918 L 41.5527 -15.2832 L 41.5527 -64.5996 C 41.9434 -64.3555 42.3828 -64.1113 42.7734 -63.8672 L 59.1309 -53.9062 Z M 66.1621 -4.78516 L 66.1621 -54.3457 L 82.8613 -63.4766 C 83.0566 -63.5742 83.252 -63.6719 83.3984 -63.6719 C 83.6914 -63.6719 83.8379 -63.4766 83.8379 -63.1348 L 83.8379 -16.4062 C 83.8379 -15.4785 83.4961 -14.7949 82.6172 -14.2578 L 68.0176 -5.85938 C 67.4316 -5.46875 66.7969 -5.12695 66.1621 -4.78516 Z"/>
  </g>
  <g id="Light-S" transform="matrix(1 0 0 1 1104.23 696)">
   <path d="M 61.377 2.83203 C 62.6465 2.83203 63.916 2.49023 65.0879 1.80664 L 84.9609 -9.57031 C 87.0605 -10.791 88.0371 -12.4023 88.0371 -14.8438 L 88.0371 -67.5781 C 88.0371 -70.2148 86.5723 -71.7285 84.082 -71.7285 C 83.1543 -71.7285 82.2266 -71.3867 81.1035 -70.752 L 60.8398 -59.5703 L 40.2344 -72.168 C 39.0625 -72.9004 37.6953 -73.2422 36.4258 -73.2422 C 35.0586 -73.2422 33.6914 -72.9004 32.4707 -72.168 L 12.8418 -60.8398 C 10.6934 -59.6191 9.76562 -58.0078 9.76562 -55.5664 L 9.76562 -2.88086 C 9.76562 -0.244141 11.2305 1.26953 13.7207 1.26953 C 14.6484 1.26953 15.5762 0.976562 16.6992 0.341797 L 36.2305 -10.3027 L 57.2266 1.66016 C 58.5938 2.44141 60.0098 2.83203 61.377 2.83203 Z M 15.7715 -5.66406 C 15.4297 -5.66406 15.1855 -5.9082 15.1855 -6.29883 L 15.1855 -54.248 C 15.1855 -55.1758 15.5273 -55.8594 16.4062 -56.3965 L 32.7148 -65.9668 C 33.1543 -66.2598 33.5938 -66.4551 34.0332 -66.6992 L 34.0332 -15.625 L 16.3086 -5.85938 C 16.1133 -5.76172 15.918 -5.66406 15.7715 -5.66406 Z M 58.3008 -4.39453 C 57.8125 -4.63867 57.2754 -4.93164 56.7383 -5.17578 L 39.502 -15.0879 L 39.502 -66.0156 C 39.8926 -65.8203 40.332 -65.625 40.6738 -65.3809 L 58.3008 -54.6387 Z M 63.7207 -3.80859 L 63.7207 -54.9316 L 81.4941 -64.5996 C 81.6895 -64.6973 81.8848 -64.7949 82.0312 -64.7949 C 82.373 -64.7949 82.6172 -64.5508 82.6172 -64.1113 L 82.6172 -16.1621 C 82.6172 -15.2344 82.2754 -14.5508 81.3477 -14.0137 L 65.3809 -4.6875 C 64.8438 -4.3457 64.3066 -4.05273 63.7207 -3.80859 Z"/>
  </g>
  <g id="Thin-S" transform="matrix(1 0 0 1 809.425 696)">
   <path d="M 58.9844 1.41602 C 60.0586 1.41602 61.1816 1.07422 62.4023 0.390625 L 81.9336 -11.084 C 83.5449 -12.0117 84.2285 -13.0371 84.2285 -15.0879 L 84.2285 -66.9922 C 84.2285 -69.0918 83.1055 -70.2637 81.2988 -70.2637 C 80.5664 -70.2637 79.834 -69.9707 79.0039 -69.5312 L 58.8867 -58.5449 L 38.7695 -70.752 C 37.5 -71.5332 36.2305 -71.9238 34.9609 -71.9238 C 33.6426 -71.9238 32.3242 -71.5332 31.1035 -70.752 L 12.1094 -59.4238 C 10.4492 -58.4473 9.76562 -57.4219 9.76562 -55.4199 L 9.76562 -3.51562 C 9.76562 -1.41602 10.8887 -0.195312 12.6953 -0.195312 C 13.4277 -0.195312 14.1602 -0.488281 14.9902 -0.927734 L 34.8145 -12.0117 L 55.4199 0.341797 C 56.6406 1.07422 57.8125 1.41602 58.9844 1.41602 Z M 13.7695 -4.24805 C 13.3789 -4.24805 13.0859 -4.54102 13.0859 -5.0293 L 13.0859 -54.6875 C 13.0859 -55.6152 13.3301 -56.25 14.2578 -56.7871 L 32.2266 -67.5781 C 32.666 -67.8223 33.0566 -68.0176 33.4961 -68.1641 L 33.4961 -15.0879 L 14.3555 -4.39453 C 14.1602 -4.29688 13.9648 -4.24805 13.7695 -4.24805 Z M 57.2266 -2.73438 C 56.7871 -2.92969 56.2988 -3.125 55.9082 -3.36914 L 36.7676 -14.8438 L 36.7676 -67.9199 C 37.1582 -67.7734 37.5977 -67.5781 37.9395 -67.334 L 57.2266 -55.5664 Z M 60.5469 -2.49023 L 60.5469 -55.7129 L 79.6875 -66.1133 C 79.8828 -66.2109 80.0781 -66.2598 80.2246 -66.2598 C 80.6641 -66.2598 80.957 -65.9668 80.957 -65.4785 L 80.957 -15.8203 C 80.957 -14.8926 80.6641 -14.209 79.7363 -13.6719 L 61.8652 -3.125 C 61.4258 -2.88086 60.9863 -2.63672 60.5469 -2.49023 Z"/>
  </g>
  <g id="Ultralight-S" transform="matrix(1 0 0 1 513.691 696)">
   <path d="M 57.7637 0.683594 C 58.7402 0.683594 59.8145 0.341797 60.9863 -0.390625 L 80.3223 -11.8164 C 81.7383 -12.6465 82.2754 -13.3789 82.2754 -15.1855 L 82.2754 -66.6504 C 82.2754 -68.5059 81.2988 -69.5312 79.8828 -69.5312 C 79.248 -69.5312 78.6133 -69.2383 77.9297 -68.8965 L 57.9102 -58.0078 L 38.0371 -70.0195 C 36.7188 -70.8008 35.4492 -71.1914 34.2285 -71.1914 C 32.9102 -71.1914 31.6406 -70.8008 30.3711 -70.0195 L 11.7188 -58.6426 C 10.3516 -57.8613 9.76562 -57.0801 9.76562 -55.2734 L 9.76562 -3.80859 C 9.76562 -2.00195 10.7422 -0.927734 12.1582 -0.927734 C 12.793 -0.927734 13.4277 -1.2207 14.1113 -1.61133 L 34.082 -12.8906 L 54.4434 -0.390625 C 55.6641 0.341797 56.6895 0.683594 57.7637 0.683594 Z M 12.7441 -3.4668 C 12.3047 -3.4668 11.9629 -3.80859 11.9629 -4.3457 L 11.9629 -54.8828 C 11.9629 -55.8105 12.207 -56.4453 13.1348 -56.9824 L 31.9824 -68.4082 C 32.373 -68.6035 32.7637 -68.7988 33.1543 -68.8965 L 33.1543 -14.7949 L 13.3301 -3.66211 C 13.1348 -3.56445 12.9395 -3.4668 12.7441 -3.4668 Z M 56.6895 -1.9043 C 56.25 -2.00195 55.8105 -2.19727 55.4688 -2.39258 L 35.4004 -14.7461 L 35.4004 -68.8477 C 35.791 -68.75 36.2305 -68.5547 36.5723 -68.3594 L 56.6895 -56.1035 Z M 58.8867 -1.80664 L 58.8867 -56.1035 L 78.7109 -66.8457 C 78.9062 -66.9434 79.1016 -66.9922 79.2969 -66.9922 C 79.7363 -66.9922 80.0781 -66.6992 80.0781 -66.1621 L 80.0781 -15.625 C 80.0781 -14.6973 79.834 -14.0625 78.9062 -13.5254 L 60.0586 -2.34375 C 59.668 -2.14844 59.2773 -1.9043 58.8867 -1.80664 Z"/>
  </g>
 </g>
</svg>
