<svg xmlns="http://www.w3.org/2000/svg" width="16" height="16"><path d="M 2.5,3.0 C 2.224,3.0 2.0,3.224 2.0,3.5 C 2.0,3.62 2.042,3.729 2.112,3.815 L 6.0,8.675 L 6.0,9.404 L 4.04,14.304 C 4.014,14.364 4.0,14.43 4.0,14.5 C 4.0,14.776 4.224,15.0 4.5,15.0 C 4.617,15.0 4.725,14.96 4.81,14.892 L 7.5,12.8 L 10.19,14.892 C 10.275,14.96 10.383,15.0 10.5,15.0 C 10.776,15.0 11.0,14.776 11.0,14.5 C 11.0,14.43 10.986,14.364 10.96,14.304 L 9.0,9.404 L 9.0,8.675 L 12.888,3.816 C 12.958,3.729 13.0,3.62 13.0,3.5 C 13.0,3.224 12.776,3.0 12.5,3.0 C 12.403,3.0 12.312,3.028 12.236,3.075 L 7.5,5.917 L 2.764,3.075 C 2.688,3.028 2.597,3.0 2.5,3.0 M 8.154,6.691 L 10.372,5.36 L 8.598,7.577 L 8.154,6.691 M 6.402,7.577 L 4.628,5.36 L 6.846,6.691 L 6.402,7.577 M 7.0,8.618 L 7.5,7.618 L 8.0,8.618 L 8.0,9.0 L 7.0,9.0 L 7.0,8.618 M 6.528,10.777 L 6.839,10.0 L 8.161,10.0 L 8.472,10.777 L 7.5,11.533 L 6.528,10.777 M 8.314,12.167 L 8.859,11.743 L 9.35,12.973 L 8.314,12.167 M 5.65,12.973 L 6.141,11.743 L 6.686,12.167 L 5.65,12.973" fill="#000" /></svg>