<?xml version="1.0" ?>
<svg xmlns="http://www.w3.org/2000/svg" width="128" height="128" viewBox="0 0 128 128">
  <path d="m128,64c0,35.35 -28.65,64 -64,64 -35.35,0 -64,-28.65 -64,-64 0,-35.35 28.65,-64 64,-64 35.35,0 64,28.65 64,64" fill="#c8c4b7" stroke-width=".2"/>
  <path d="m34.09,22.18h59.9c7.78,0 14.04,6.26 14.04,14.04v59.79c0,7.78 -6.26,14.04 -14.04,14.04h-59.9c-7.78,0 -14.04,-6.26 -14.04,-14.04v-59.79c0,-7.78 6.26,-14.04 14.04,-14.04z" fill="#000000FF"/>
  <path d="m34.22,18.31h59.9c7.78,0 14.04,6.26 14.04,14.04v59.79c0,7.78 -6.26,14.04 -14.04,14.04h-59.9c-7.78,0 -14.04,-6.26 -14.04,-14.04v-59.79c0,-7.78 6.26,-14.04 14.04,-14.04z" fill="#765c41"/>
  <path d="m28.92,41.08v42.23c7.04,0 14.08,7.04 14.08,14.08h42.23c0,-7.04 7.04,-14.08 14.08,-14.08v-42.23c-7.04,0 -14.08,-7.04 -14.08,-14.08h-42.23c0,7.04 -7.04,14.08 -14.08,14.08z" fill="#00000000" stroke-width="5.0152" stroke="#fff"/>
  <path d="m71,44 l-0.01,27.95c-0,1.69 1.2,2.12 2.58,2.09l2.43,-0.04 0,6h-20l-0,-6 2.66,0.04c1.32,0.02 2.34,-0.55 2.34,-2.09l0,-17.95c0,2 -8,2 -8,2l0,-6c4,0 9,-2 9,-6z" fill="#fff"/>
</svg>
