<?xml version="1.0" ?>
<svg xmlns="http://www.w3.org/2000/svg" width="34" height="34" viewBox="0 0 34 34">
  <path d="m31.6,25.39c-4.68,8.1 -15.03,10.87 -23.13,6.2 -8.1,-4.68 -10.87,-15.03 -6.2,-23.13 4.68,-8.1 15.03,-10.87 23.13,-6.2 8.1,4.68 10.87,15.03 6.2,23.13" fill="#ffdd55"/>
  <path d="m25.4,2.27c-2.67,-1.54 -5.59,-2.27 -8.47,-2.27L2.27,25.4c1.44,2.5 3.53,4.66 6.2,6.2 2.67,1.54 5.58,2.27 8.45,2.27l14.67,-25.41c-1.44,-2.49 -3.52,-4.65 -6.19,-6.19z" fill="#999"/>
  <path d="M9.14,28.31l1.83,1.06l-1.59,2.75l-1.83,-1.06z" fill="#fff"/>
  <path d="M13.9,20.06l1.83,1.06l-2.65,4.58l-1.83,-1.06z" fill="#fff"/>
  <path d="m17.99,33.86c0.89,-0.05 1.78,-0.18 2.65,-0.37l12.47,-21.55c-0.27,-0.85 -0.45,-1.51 -1.09,-2.38 0,0 -14.02,24.34 -14.02,24.3z" fill="#000"/>
  <path d="M18.67,11.81l1.83,1.06l-2.65,4.58l-1.83,-1.06z" fill="#fff"/>
  <path d="M23.43,3.57l1.83,1.06l-2.65,4.58l-1.83,-1.06z" fill="#fff"/>
  <path d="m31.61,8.45 l-14.66,25.4c0.86,-0 1.71,-0.07 2.56,-0.2l13.21,-22.89c-0.31,-0.8 -0.68,-1.57 -1.11,-2.31z" fill="#fff"/>
  <path d="m16.94,-0.02c-0.86,0 -1.71,0.07 -2.56,0.2L1.17,23.06c0.31,0.8 0.68,1.57 1.11,2.31z" fill="#fff"/>
</svg>
