<svg xmlns="http://www.w3.org/2000/svg" width="16" height="16"><path d="M 3.5,3.0 C 3.2239,3.0 3.0,3.2239 3.0,3.5 L 3.0,11.5 C 3.0,11.7761 3.2239,12.0 3.5,12.0 L 11.5,12.0 C 11.7761,12.0 12.0,11.7761 12.0,11.5 L 12.0,7.5 C 12.0,7.2239 11.7761,7.0 11.5,7.0 C 11.2239,7.0 11.0,7.2239 11.0,7.5 L 11.0,11.0 L 8.0,11.0 L 8.0,10.0 L 9.5,10.0 C 9.7761,10.0 10.0,9.7761 10.0,9.5 C 10.0,9.2239 9.7761,9.0 9.5,9.0 L 7.5,9.0 C 7.2239,9.0 7.0,9.2239 7.0,9.5 L 7.0,11.0 L 4.0,11.0 L 4.0,8.0 L 5.0,8.0 L 5.0,9.5 C 5.0,9.7761 5.2239,10.0 5.5,10.0 C 5.7761,10.0 6.0,9.7761 6.0,9.5 L 6.0,5.5 C 6.0,5.2239 5.7761,5.0 5.5,5.0 C 5.2239,5.0 5.0,5.2239 5.0,5.5 L 5.0,7.0 L 4.0,7.0 L 4.0,4.0 L 11.0,4.0 L 11.0,5.0 L 9.5,5.0 C 9.2239,5.0 9.0,5.2239 9.0,5.5 L 9.0,7.0 L 8.0,7.0 L 8.0,5.5 C 8.0,5.2239 7.7761,5.0 7.5,5.0 C 7.2239,5.0 7.0,5.2239 7.0,5.5 L 7.0,7.5 C 7.0,7.7761 7.2239,8.0 7.5,8.0 L 9.5,8.0 C 9.7761,8.0 10.0,7.7761 10.0,7.5 L 10.0,6.0 L 11.5,6.0 C 11.7761,6.0 12.0,5.7761 12.0,5.5 L 12.0,3.5 C 12.0,3.2239 11.7761,3.0 11.5,3.0 L 3.5,3.0" fill="#000" /></svg>