<?xml version="1.0" ?>
<svg xmlns="http://www.w3.org/2000/svg" width="34" height="34" viewBox="0 0 34 34">
  <path d="m31.6,25.4c-4.68,8.1 -15.03,10.87 -23.13,6.2 -8.1,-4.68 -10.87,-15.03 -6.2,-23.13 4.68,-8.1 15.03,-10.87 23.13,-6.2 8.1,4.68 10.87,15.03 6.2,23.13" fill="#529add"/>
  <path d="m11.49,5.29v2.12L7.26,7.41c-0.28,3.27 1.59,3.31 4.23,5.29v2.12L7.26,14.81c-0.28,3.27 1.59,3.31 4.23,5.29v2.12L7.26,22.22c-0.28,3.27 1.59,3.31 4.23,5.29v3.17h10.58v-3.17c2.64,-1.98 4.51,-2.02 4.23,-5.29h-4.23v-2.12c2.64,-1.98 4.51,-2.02 4.23,-5.29h-4.23v-2.12c2.64,-1.98 4.51,-2.02 4.23,-5.29h-4.23v-2.12z" fill="#000" stroke-width="2.5"/>
  <path d="M11.49,4.23h10.58v25.4h-10.58z" fill="#888"/>
  <path d="M16.81,9.91m-3.17,0a3.17,3.17 0,1 1,6.35 0a3.17,3.17 0,1 1,-6.35 0" fill="#ff6969" stroke-width="1" stroke="#555"/>
  <path d="M16.81,17.32m-3.17,0a3.17,3.17 0,1 1,6.35 0a3.17,3.17 0,1 1,-6.35 0" fill="#ffff69" stroke-width="1" stroke="#555"/>
  <path d="M16.81,24.74m-3.17,0a3.17,3.17 0,1 1,6.35 0a3.17,3.17 0,1 1,-6.35 0" fill="#69ff69" stroke-width="1" stroke="#555"/>
  <path d="M11.49,6.35L7.26,6.35c-0.28,3.27 1.59,3.31 4.23,5.29z" fill="#555"/>
  <path d="M11.49,13.76L7.26,13.76c-0.28,3.27 1.59,3.31 4.23,5.29z" fill="#555"/>
  <path d="M11.49,21.16L7.26,21.16c-0.28,3.27 1.59,3.31 4.23,5.29z" fill="#555"/>
  <path d="m22.08,6.35h4.23c0.28,3.27 -1.59,3.31 -4.23,5.29z" fill="#555"/>
  <path d="m22.08,13.76h4.23c0.28,3.27 -1.59,3.31 -4.23,5.29z" fill="#555"/>
  <path d="m22.08,21.16h4.23c0.28,3.27 -1.59,3.31 -4.23,5.29z" fill="#555"/>
  <path d="m19.99,24.73c0,0 -1.42,2.1 -3.17,2.1 -1.75,0 -3.17,-2.09 -3.17,-2.09 0,1.75 1.42,3.17 3.17,3.17 1.75,0 3.17,-1.43 3.17,-3.18z" fill="#fff"/>
  <path d="M15.2,29.63h3.19v4.23h-3.19z" fill="#555"/>
  <path d="m19.98,17.31c0,0 -1.42,2.1 -3.17,2.1 -1.75,0 -3.17,-2.09 -3.17,-2.09 0,1.75 1.42,3.17 3.17,3.17 1.75,0 3.17,-1.43 3.17,-3.18z" fill="#fff"/>
  <path d="m19.98,9.9c0,0 -1.42,2.1 -3.17,2.1 -1.75,0 -3.17,-2.09 -3.17,-2.09 0,1.75 1.42,3.17 3.17,3.17 1.75,0 3.17,-1.43 3.17,-3.18z" fill="#fff"/>
  <path d="M16.64,17.06m-7.32,0a7.32,7.32 0,1 1,14.64 0a7.32,7.32 0,1 1,-14.64 0" fill="#ffff69"/>
</svg>
