<svg xmlns="http://www.w3.org/2000/svg" width="16" height="16"><path d="M 6.5,1.0 C 6.374,1.0 6.26,1.046 6.173,1.122 L 2.677,4.118 C 2.569,4.21 2.5,4.347 2.5,4.5 C 2.5,4.776 2.723,4.999 3.0,5.0 L 6.0,5.0 L 6.0,7.27 L 2.677,10.118 C 2.569,10.21 2.5,10.347 2.5,10.5 C 2.5,10.776 2.723,11.0 3.0,11.0 L 5.691,11.0 L 4.057,14.267 C 4.021,14.337 4.0,14.416 4.0,14.5 C 4.0,14.776 4.224,15.0 4.5,15.0 C 4.7,15.0 4.872,14.883 4.952,14.714 L 5.309,14.0 L 9.691,14.0 L 10.048,14.714 C 10.128,14.883 10.3,15.0 10.5,15.0 C 10.776,15.0 11.0,14.776 11.0,14.5 C 11.0,14.416 10.979,14.337 10.943,14.267 L 9.0,10.382 L 9.0,8.0 L 12.0,8.0 C 12.277,7.999 12.5,7.776 12.5,7.5 C 12.5,7.347 12.431,7.21 12.323,7.118 L 9.0,4.27 L 9.0,1.501 C 9.0,1.224 8.777,1.0 8.501,1.0 L 6.5,1.0 M 7.0,4.0 L 7.0,2.0 L 8.0,2.0 L 8.0,4.0 L 7.0,4.0 M 4.352,4.0 L 6.0,2.587 L 6.0,4.0 L 4.352,4.0 M 7.0,7.0 L 7.0,5.0 L 8.0,5.0 L 8.0,7.0 L 7.0,7.0 M 9.0,7.0 L 9.0,5.587 L 10.648,7.0 L 9.0,7.0 M 7.0,10.0 L 7.0,8.0 L 8.0,8.0 L 8.0,10.0 L 7.0,10.0 M 4.352,10.0 L 6.0,8.587 L 6.0,10.0 L 4.352,10.0 M 8.0,11.0 C 8.062,11.0 8.121,10.989 8.175,10.968 L 9.191,13.0 L 5.809,13.0 L 6.809,11.0 L 8.0,11.0" fill="#000" /></svg>