<?xml version="1.0" ?>
<svg xmlns="http://www.w3.org/2000/svg" width="128" height="128" viewBox="0 0 128 128">
  <path d="m128,64c0,35.346 -28.654,64 -64,64s-64,-28.654 -64,-64 28.654,-64 64,-64 64,28.654 64,64" fill="#9bbe55" stroke-width=".2"/>
  <path d="m48,93.375v8l10,4h12l10,-4v-8z" fill="#000"/>
  <path d="m6.117,36.68c-3.918,8.287 -6.117,17.545 -6.117,27.32 0,15.65 5.625,29.98 14.953,41.1l37.047,-17.1h24l37.047,17.1c9.328,-11.12 14.953,-25.45 14.953,-41.1 0,-9.775 -2.199,-19.033 -6.117,-27.32l-29.883,3.32h-56z" fill="#ffffdf" stroke-width=".2"/>
  <path d="m40,40 l8,48h32l8,-48z" fill="#ffffdf" stroke-width="4" stroke="#c1a551"/>
  <path d="m52,40 l4,48" fill="none" stroke-width="4" stroke="#c1a551"/>
  <path d="m76,40 l-4,48" fill="none" stroke-width="4" stroke="#c1a551"/>
  <path d="m64,12c-12,4 -20,20 -32,20v8h64v-8c-12,0 -20,-16 -32,-20zM48,88v8l10,4v27.711c1.977,0.184 3.975,0.289 6,0.289s4.023,-0.105 6,-0.289v-27.711l10,-4v-8z" fill="#555"/>
</svg>
