<?xml version="1.0" encoding="UTF-8"?>
<svg version="1.1" xmlns="http://www.w3.org/2000/svg" xmlns:xlink="http://www.w3.org/1999/xlink" viewBox="0 0 15 15">
  <path d="M2 12L6 12L6 10C6 9.5 6.5 9 7 9L13 9L13 6L2 6L2 12zM2 13L2 14L1 14L1 1.5C1 1.22 1.22 1 1.5 1C1.78 1 2 1.22 2 1.5L2 5L6 5L6 3C6 2.5 6.5 2 7 2L12.5 2C13.5 2 14 2.5 14 3.5L14 14L13 14L13 13L2 13zM4 4.5C3.17 4.5 2.5 3.83 2.5 3C2.5 2.17 3.17 1.5 4 1.5C4.83 1.5 5.5 2.17 5.5 3C5.5 3.83 4.83 4.5 4 4.5zM4 11.5C3.17 11.5 2.5 10.83 2.5 10C2.5 9.17 3.17 8.5 4 8.5C4.83 8.5 5.5 9.17 5.5 10C5.5 10.83 4.83 11.5 4 11.5z"/>
</svg>