<svg xmlns="http://www.w3.org/2000/svg" width="16" height="16"><path d="M 2.5,3.0 C 2.224,3.0 2.0,3.224 2.0,3.5 C 2.0,3.605 2.032,3.703 2.088,3.783 L 6.0,9.651 L 6.0,10.438 L 5.018,14.368 C 5.006,14.41 5.0,14.454 5.0,14.5 C 5.0,14.776 5.224,15.0 5.5,15.0 C 5.738,15.0 5.937,14.834 5.988,14.611 L 6.14,14.0 L 8.86,14.0 L 9.012,14.611 C 9.063,14.834 9.262,15.0 9.5,15.0 C 9.776,15.0 10.0,14.776 10.0,14.5 C 10.0,14.454 9.994,14.41 9.982,14.368 L 9.0,10.438 L 9.0,9.651 L 12.912,3.783 C 12.968,3.703 13.0,3.605 13.0,3.5 C 13.0,3.224 12.776,3.0 12.5,3.0 C 12.38,3.0 12.271,3.042 12.185,3.112 L 7.5,6.86 L 2.816,3.112 C 2.729,3.042 2.62,3.0 2.5,3.0 M 8.128,7.638 L 10.298,5.902 L 8.562,8.506 L 8.128,7.638 M 6.438,8.506 L 4.702,5.902 L 6.872,7.638 L 6.438,8.506 M 7.0,9.618 L 7.5,8.618 L 8.0,9.618 L 8.0,10.0 L 7.0,10.0 L 7.0,9.618 M 6.39,13.0 L 6.89,11.0 L 8.11,11.0 L 8.61,13.0 L 6.39,13.0" fill="#000" /></svg>