<?xml version="1.0" encoding="UTF-8"?>
<svg version="1.1" xmlns="http://www.w3.org/2000/svg" xmlns:xlink="http://www.w3.org/1999/xlink" x="0" y="0" viewBox="0 0 15 15">
  <path d="M0 8.5C2 9 4.5 10 4.5 10C4.5 10 5.5 9.5 6 9.5L8 9.5L11 9C11 9 11.5 9.5 11 10C10.5 10.5 8.5 11 8 11C7.5 11 8.5 11.5 8.5 11.5L10 11.5C10 11.5 12 11.5 13 11C14 10.5 15 10 15 10.5C13 12.5 12 13 12 13C12 13 10 13.5 8 13.5C7.5 13.5 6 12.5 5.5 12.5C5 12.5 0 13 0 12.5L0 8.5zM12.5 0.5C14 0.5 14 2 14 2.5C14 4.5 11 7.5 10.5 7.5C10 7.5 7 4.5 7 2.5C7 2 7 0.5 8.5 0.5C10 0.5 10.5 2 10.5 2C10.5 2 11 0.5 12.5 0.5z"/>
</svg>