<svg xmlns="http://www.w3.org/2000/svg" width="16" height="16"><path d="M 3.5,1.0 C 3.224,1.0 3.0,1.224 3.0,1.5 L 3.0,2.0 L 2.0,2.0 C 1.723,2.0 1.5,2.224 1.5,2.5 C 1.5,2.776 1.723,3.0 2.0,3.0 L 3.0,3.0 L 3.0,4.0 L 2.0,4.0 C 1.723,4.001 1.5,4.224 1.5,4.5 C 1.5,4.776 1.723,4.999 2.0,5.0 L 3.0,5.0 L 3.0,6.0 L 2.0,6.0 C 1.723,6.001 1.5,6.224 1.5,6.5 C 1.5,6.776 1.723,6.999 2.0,7.0 L 3.217,7.0 L 6.0,11.638 L 6.0,14.5 C 6.0,14.776 6.224,15.0 6.5,15.0 C 6.776,15.0 7.0,14.776 7.0,14.5 L 7.0,14.0 L 8.0,14.0 L 8.0,14.5 C 8.0,14.776 8.224,15.0 8.5,15.0 C 8.776,15.0 9.0,14.776 9.0,14.5 L 9.0,11.638 L 11.783,7.0 L 13.0,7.0 C 13.277,6.999 13.5,6.776 13.5,6.5 C 13.5,6.224 13.277,6.001 13.0,6.0 L 12.0,6.0 L 12.0,5.0 L 13.0,5.0 C 13.277,4.999 13.5,4.776 13.5,4.5 C 13.5,4.224 13.277,4.001 13.0,4.0 L 12.0,4.0 L 12.0,3.0 L 13.0,3.0 C 13.277,3.0 13.5,2.776 13.5,2.5 C 13.5,2.224 13.277,2.0 13.0,2.0 L 12.0,2.0 L 12.0,1.501 C 12.0,1.224 11.776,1.0 11.5,1.0 C 11.224,1.0 11.0,1.224 11.0,1.5 L 11.0,2.0 L 4.0,2.0 L 4.0,1.501 C 4.0,1.224 3.776,1.0 3.5,1.0 M 4.0,4.0 L 4.0,3.0 L 11.0,3.0 L 11.0,4.0 L 4.0,4.0 M 4.0,6.0 L 4.0,5.0 L 11.0,5.0 L 11.0,6.0 L 4.0,6.0 M 7.5,8.875 L 5.0,7.0 L 10.0,7.0 L 7.5,8.875 M 6.46,10.462 L 5.242,8.431 L 6.866,9.65 L 6.46,10.462 M 8.134,9.65 L 9.758,8.431 L 8.54,10.462 L 8.134,9.65 M 7.0,11.618 L 7.5,10.618 L 8.0,11.618 L 8.0,13.0 L 7.0,13.0 L 7.0,11.618" fill="#000" /></svg>