<?xml version="1.0" ?>
<svg xmlns="http://www.w3.org/2000/svg" width="128" height="128" viewBox="0 0 128 128">
  <path d="m128,64c0,35.346 -28.654,64 -64,64s-64,-28.654 -64,-64 28.654,-64 64,-64 64,28.654 64,64" fill="#529add" stroke-width=".2"/>
  <path d="m40,104v-20h-32" fill="none" stroke-width="8" stroke="#000"/>
  <path d="m40,100v-20h-32" fill="none" stroke-width="8" stroke="#fff"/>
  <path d="m111.3,91.55c-10.077,-8.792 -10.967,-17.136 -11.654,-26.935 -8.458,8.95 -10.695,16.984 -12.476,26.935" fill="none" stroke-linecap="round" stroke-width="8.5769" stroke="#000"/>
  <path d="m110.67,64.344c0.065,-7.274 -3.043,-13.249 -11.023,-16.46 -5.72,4.889 -8.703,12.169 -18.497,16.947" fill="none" stroke-linejoin="round" stroke-linecap="round" stroke-width="8.5769" stroke="#000"/>
  <path d="m88.478,33.059a8.21,8.21 0,0 0,8.21 8.21,8.21 8.21,0 0,0 8.21,-8.21 8.21,8.21 0,0 0,-8.21 -8.21,8.21 8.21,0 0,0 -8.21,8.21" fill="#000" stroke-width=".16881"/>
  <path d="m73.152,70.001 l-21.484,23.189" fill="none" stroke-linecap="round" stroke-width="4.6784" stroke="#000"/>
  <path d="m111.3,88.061c-10.077,-8.792 -10.967,-17.136 -11.654,-26.935 -8.458,8.95 -10.695,16.984 -12.476,26.935" fill="none" stroke-linecap="round" stroke-width="8.5769" stroke="#fff"/>
  <path d="m99.645,44.397c1.371,5.198 0.338,12.162 -0.631,17.36" fill="none" stroke-width="9.3568" stroke="#fff"/>
  <path d="m110.67,60.856c0.065,-7.274 -3.043,-13.249 -11.023,-16.46 -5.72,4.889 -8.703,12.169 -18.497,16.947" fill="none" stroke-linejoin="round" stroke-linecap="round" stroke-width="8.5769" stroke="#fff"/>
  <path d="m88.478,29.57a8.21,8.21 0,0 0,8.21 8.21,8.21 8.21,0 0,0 8.21,-8.21 8.21,8.21 0,0 0,-8.21 -8.21,8.21 8.21,0 0,0 -8.21,8.21" fill="#fff" stroke-width=".16881"/>
  <path d="m73.152,66.513 l-21.484,23.189" fill="none" stroke-linecap="round" stroke-width="4.6784" stroke="#fff"/>
</svg>
