<svg xmlns="http://www.w3.org/2000/svg" data-prefix="fas" data-icon="code" class="svg-inline--fa fa-code" role="img" viewBox="0 0 576 512" aria-hidden="true"><path fill="currentColor" d="M360.8 1.2c-17-4.9-34.7 5-39.6 22l-128 448c-4.9 17 5 34.7 22 39.6s34.7-5 39.6-22l128-448c4.9-17-5-34.7-22-39.6zm64.6 136.1c-12.5 12.5-12.5 32.8 0 45.3l73.4 73.4-73.4 73.4c-12.5 12.5-12.5 32.8 0 45.3s32.8 12.5 45.3 0l96-96c12.5-12.5 12.5-32.8 0-45.3l-96-96c-12.5-12.5-32.8-12.5-45.3 0zm-274.7 0c-12.5-12.5-32.8-12.5-45.3 0l-96 96c-12.5 12.5-12.5 32.8 0 45.3l96 96c12.5 12.5 32.8 12.5 45.3 0s12.5-32.8 0-45.3L77.3 256 150.6 182.6c12.5-12.5 12.5-32.8 0-45.3z"></path></svg>