<svg xmlns="http://www.w3.org/2000/svg" width="16" height="16"><path d="M 8.0,1.5 C 7.724,1.5 7.5,1.724 7.5,2.0 L 7.5,3.0 C 7.5,3.276 7.724,3.5 8.0,3.5 C 8.276,3.5 8.5,3.276 8.5,3.0 L 8.5,2.0 C 8.5,1.724 8.276,1.5 8.0,1.5 M 2.5,2.5 C 2.224,2.5 2.0,2.724 2.0,3.0 L 2.0,4.0 C 2.0,4.276 2.224,4.5 2.5,4.5 C 2.776,4.5 3.0,4.276 3.0,4.0 L 3.0,3.0 C 3.0,2.724 2.776,2.5 2.5,2.5 M 13.5,2.5 C 13.224,2.5 13.0,2.724 13.0,3.0 L 13.0,4.0 C 13.0,4.276 13.224,4.5 13.5,4.5 C 13.776,4.5 14.0,4.276 14.0,4.0 L 14.0,3.0 C 14.0,2.724 13.776,2.5 13.5,2.5 M 7.5,4.0 C 7.223,4.001 7.0,4.224 7.0,4.5 L 7.0,5.0 L 2.5,5.0 C 2.223,5.001 2.0,5.224 2.0,5.5 C 2.0,5.776 2.223,5.999 2.499,6.0 L 7.0,6.0 L 7.0,14.5 C 7.0,14.776 7.223,15.0 7.499,15.0 L 8.5,15.0 C 8.777,15.0 9.0,14.776 9.0,14.5 L 9.0,6.0 L 13.5,6.0 C 13.777,5.999 14.0,5.776 14.0,5.5 C 14.0,5.224 13.777,5.001 13.501,5.0 L 9.0,5.0 L 9.0,4.501 C 9.0,4.224 8.777,4.001 8.501,4.0 L 7.5,4.0" fill="#000" /></svg>