<?xml version="1.0" encoding="UTF-8"?>
<!--Generator: Apple Native CoreSVG 326-->
<!DOCTYPE svg
PUBLIC "-//W3C//DTD SVG 1.1//EN"
       "http://www.w3.org/Graphics/SVG/1.1/DTD/svg11.dtd">
<svg version="1.1" xmlns="http://www.w3.org/2000/svg" xmlns:xlink="http://www.w3.org/1999/xlink" viewBox="0 0 23.298 25.3443">
 <g>
  <rect height="25.3443" opacity="0" width="23.298" x="0" y="0"/>
  <path d="M15.6919 3.26852L13.9606 4.99672C12.6289 4.27807 11.1631 3.85381 9.67634 3.85381C5.72126 3.85381 3.06989 6.63702 3.06989 10.597C3.06989 14.9134 6.0777 19.8108 12.6304 21.3294C13.3238 21.5149 13.6949 21.8665 13.6949 22.4964C13.6949 23.3362 13.0064 23.6634 12.2056 23.5364C6.91755 22.8431 0.779851 17.6771 0.779851 10.6605C0.779851 5.49932 4.36384 1.55889 9.8863 1.55889C11.8526 1.55889 13.8761 2.18466 15.6919 3.26852ZM22.1129 13.5071C22.1129 17.2278 19.5445 19.8206 15.7603 19.8206C13.3867 19.8206 10.8545 18.7905 9.05209 17.0717L11.499 16.0826C12.6833 17.0735 14.1922 17.7112 15.6431 17.7112C17.9771 17.7112 19.8668 16.0315 19.8668 13.4925C19.8668 12.0815 19.356 10.5841 18.4852 9.20255L20.1841 7.50053C21.3852 9.28107 22.1129 11.3464 22.1129 13.5071Z" fill="black" fill-opacity="0.85"/>
  <path d="M10.6724 14.679L19.5591 5.79229L17.5328 3.77081L8.65094 12.6526L7.72809 14.9769C7.58161 15.3626 7.97712 15.7044 8.31891 15.5726ZM20.3062 5.05499L21.2193 4.10284C21.7174 3.57549 21.7906 2.80889 21.2828 2.30108L20.9361 1.9544C20.5015 1.51983 19.7252 1.60284 19.2222 2.096L18.2847 3.02862Z" fill="black" fill-opacity="0.85"/>
 </g>
</svg>
