<?xml version="1.0" ?>
<svg xmlns="http://www.w3.org/2000/svg" width="128" height="128" viewBox="0 0 128 128">
  <path d="m128,64c0,35.346 -28.654,64 -64,64s-64,-28.654 -64,-64 28.654,-64 64,-64 64,28.654 64,64" fill="#ca72e2"/>
  <path d="m48,16c-4,0 -4,8 0,8h16.135l-0.135,12h-12v8h4v56h-4v1.531c-1.53,-0.407 -2.706,-1.066 -3.586,-1.945 -1.529,-1.529 -2.414,-3.919 -2.414,-7.586v-28c0,-4.333 -1.09,-7.855 -3.244,-10.316s-5.311,-3.684 -8.756,-3.684 -6.602,1.222 -8.756,3.684 -3.244,5.983 -3.244,10.316v12h-2v-6.344h-4v12h4v2.344h12v-8h-6v-12c0,-3.667 0.91,-6.145 2.256,-7.684s3.189,-2.316 5.744,-2.316 4.398,0.778 5.744,2.316 2.256,4.017 2.256,7.684v28c0,4.333 1.115,7.943 3.586,10.414 1.662,1.662 3.849,2.697 6.414,3.205v3.381l-12,3v4h56v-4l-16,-4v-64h4v-8h-12v-12h16c4,0 4,-8 0,-8z" fill="#000000FF"/>
  <path d="m96,108 l-0,4h-56l0,-4 16,-4h24z" fill="#444"/>
  <path d="m56,104h24l0,-64h-24z" fill="#8ea0ad"/>
  <path d="m52,40h32l-0,-8h-32z" fill="#444"/>
  <path d="m64,32h8v-12h-7.865z" fill="#666"/>
  <path d="m56,100c-8,0 -12,-4 -12,-12l0,-28c0,-8 -4,-12 -10,-12s-10,4 -10,12v12" fill="none" stroke-width="4" stroke="#666"/>
  <path d="m60,104h8v-64h-8z" fill="#c4ced4"/>
  <path d="m52,108h8v-12h-8z" fill="#444"/>
  <path d="m48,12c-4,0 -4,8 0,8h40c4,0 4,-8 0,-8z" fill="#333"/>
  <path d="m20,80v-8h12v8z" fill="#333"/>
  <path d="m16,77.657v-12h4v12z" fill="#333"/>
</svg>
