<?xml version="1.0" ?>
<svg xmlns="http://www.w3.org/2000/svg" width="34" height="34" viewBox="0 0 34 34">
  <path d="m32.64,23.28c-3.51,8.67 -13.38,12.85 -22.05,9.35 -8.67,-3.51 -12.85,-13.38 -9.35,-22.05 3.51,-8.67 13.38,-12.85 22.05,-9.35 8.67,3.51 12.85,13.38 9.35,22.05" fill="#c8c4b7"/>
  <path d="m16.98,5.29 l-9.53,3.17 -0.05,17.99 9.57,-3.17 9.48,3.17 0.05,-17.99z" fill="#000"/>
  <path d="m8.21,26.72 l8.73,-2.91 8.73,2.91v2.91h-6.35v-2.38h-4.76v2.38L8.21,29.63Z" fill="#000"/>
  <path d="m7.41,7.41 l9.52,-3.17v17.99l-9.53,3.17z" fill="#c84747"/>
  <path d="m16.94,4.23 l9.52,3.17v17.99l-9.52,-3.17z" fill="#aa3333"/>
  <path d="m8.21,25.67 l8.78,-2.91 8.68,2.91v2.91h-6.35v-2.38h-4.76v2.38L8.21,28.58Z" fill="#fff"/>
</svg>
