<svg xmlns="http://www.w3.org/2000/svg" width="16" height="16"><path d="M 6.0001,2.5687 L 6.0001,13.43 C 6.0001,13.9064 6.5324,14.1776 6.8965,13.8128 L 8.0,12.707 L 8.0,13.5 C 7.99,14.1762 9.0096,14.1762 9.0,13.5 L 9.0,2.5 C 9.004,2.2177 8.7745,1.9878 8.4922,1.9922 C 8.216,1.9962 7.9957,2.2239 8.0,2.5 L 8.0,3.293 L 6.8984,2.1914 C 6.5364,1.8294 6.0001,2.0507 6.0001,2.5687 L 6.0001,2.5687 M 7.0,3.707 L 8.0,4.707 L 8.0,5.293 L 7.0,6.293 L 7.0,3.707 M 8.0,6.707 L 8.0,9.293 L 7.0,8.293 L 7.0,7.707 L 8.0,6.707 M 7.0,9.707 L 8.0,10.707 L 8.0,11.293 L 7.0,12.293 L 7.0,9.707" fill="#000" /></svg>