<svg xmlns="http://www.w3.org/2000/svg" width="16" height="16"><path d="M 7.5,9.0 C 7.3674,9.0 7.2402,9.0527 7.1465,9.1465 C 6.2054,10.0876 4.7718,11.0522 2.3144,12.0352 C 1.8014,12.2387 1.948,13.0012 2.5,13.0 L 13.5,13.0 C 14.052,13.0012 14.1986,12.2387 13.6856,12.0352 C 11.2282,11.0522 9.7946,10.0876 8.8535,9.1465 C 8.7598,9.0527 8.6326,9.0 8.5,9.0 L 7.5,9.0" fill="#000" /><path d="M 6.5,5.0 C 6.223,5.0 6.0,5.223 6.0,5.5 C 6.0,5.777 6.223,6.0 6.5,6.0 L 11.4492,6.0 C 11.7262,6.0 11.9492,5.777 11.9492,5.5 C 11.9492,5.223 11.7262,5.0 11.4492,5.0 L 6.5,5.0 M 7.5,7.0 C 7.223,7.0 7.0,7.223 7.0,7.5 C 7.0,7.777 7.223,8.0 7.5,8.0 L 8.5,8.0 C 8.777,8.0 9.0,7.777 9.0,7.5 C 9.0,7.223 8.777,7.0 8.5,7.0 L 7.5,7.0" fill="#000" /></svg>