<?xml version="1.0" ?>
<svg xmlns="http://www.w3.org/2000/svg" width="128" height="128" viewBox="0 0 128 128">
  <path d="M64,64m-64,0a64,64 0,1 1,128 0a64,64 0,1 1,-128 0" fill="#c8c4b7"/>
  <path d="m36,108v-84h56v84" fill="none" stroke-width="8" stroke="#000"/>
  <path d="m52,32 l36,-4v80l-36,-4z" fill="#000"/>
  <path d="m52,28 l36,-4v80l-36,-4z" fill="#ae8862"/>
  <path d="m82,33 l-24,2v21h24z" fill="none" stroke-width="4" stroke="#896847"/>
  <path d="M52,61L58,61A2,2 0,0 1,60 63L60,65A2,2 0,0 1,58 67L52,67A2,2 0,0 1,50 65L50,63A2,2 0,0 1,52 61z" fill="#555"/>
  <path d="m82,95 l-24,-2v-21h24z" fill="none" stroke-width="4" stroke="#896847"/>
  <path d="m36,104v-84h56v84" fill="none" stroke-width="8" stroke="#896847"/>
</svg>
