<svg xmlns="http://www.w3.org/2000/svg" data-prefix="fas" data-icon="baby-carriage" class="svg-inline--fa fa-baby-carriage" role="img" viewBox="0 0 512 512" aria-hidden="true"><path fill="currentColor" d="M64 208l0 80c0 53 43 96 96 96l192 0c53 0 96-43 96-96l0-112 40 0c13.3 0 24-10.7 24-24s-10.7-24-24-24l-64 0c-13.3 0-24 10.7-24 24l0 56-336 0zm.2-48l223.8 0 0-128c0-17.7-14.3-32-32-32L232 0C141.9 0 68.4 70.9 64.2 160zM160 464a48 48 0 1 0 -96 0 48 48 0 1 0 96 0zm288 0a48 48 0 1 0 -96 0 48 48 0 1 0 96 0z"></path></svg>