<?xml version="1.0" encoding="UTF-8"?>
<svg viewBox="0 0 15 15" version="1.1" xmlns="http://www.w3.org/2000/svg" xmlns:xlink="http://www.w3.org/1999/xlink">
  <path d="M4 7L4 14L2 14L2 7.78L1 8.16L1 6L14 1L14 3.14L4 7ZM6.83 11.66C5.82 11.66 5 10.84 5 9.83C5 8.82 5.82 8 6.83 8C7.83 8 8.65 8.82 8.65 9.83C8.65 10.84 7.83 11.66 6.83 11.66ZM14 14L11.5 14L11.5 8.71L14 8.71L14 14ZM9.21 12.2L9.21 9.48C9.21 8.98 9.61 8.58 10.11 8.58C10.6 8.58 11.01 8.98 11.01 9.48L11.01 13.1C11.01 13.59 10.6 14 10.11 14L5.94 14C5.44 14 5.04 13.59 5.04 13.1C5.04 12.6 5.44 12.2 5.94 12.2L9.21 12.2Z"/>
</svg>