<?xml version="1.0" ?>
<svg xmlns="http://www.w3.org/2000/svg" width="34" height="34" viewBox="0 0 34 34">
  <path d="m31.6,25.4c-4.68,8.1 -15.03,10.87 -23.13,6.2 -8.1,-4.68 -10.87,-15.03 -6.2,-23.13 4.68,-8.1 15.03,-10.87 23.13,-6.2 8.1,4.68 10.87,15.03 6.2,23.13" fill="#ffdd55"/>
  <path d="m30.71,17.44c0,7.6 -6.16,13.76 -13.76,13.76 -7.6,0 -13.76,-6.16 -13.76,-13.76 0,-7.6 6.16,-13.76 13.76,-13.76 7.6,0 13.76,6.16 13.76,13.76" fill="#000"/>
  <path d="m30.18,16.38c0,7.31 -5.92,13.23 -13.23,13.23 -7.31,0 -13.23,-5.92 -13.23,-13.23 -0,-7.31 5.92,-13.23 13.23,-13.23 7.31,0 13.23,5.92 13.23,13.23" fill="#c84747" stroke-width="1" stroke="#fff"/>
  <path d="M6.36,13.74h21.17v5.29h-21.17z" fill="#fff"/>
</svg>
