<?xml version="1.0" ?>
<svg xmlns="http://www.w3.org/2000/svg" width="128" height="128" viewBox="0 0 128 128">
  <path d="m128,64c0,35.346 -28.654,64 -64,64s-64,-28.654 -64,-64 28.654,-64 64,-64 64,28.654 64,64" fill="#9bbe55"/>
  <path d="m32,52v8h16l-10.4,16h-19.6c-2.216,0 -4,1.784 -4,4s1.784,4 4,4h14.4l-10.4,16h10l10.4,-16h43.199l10.4,16h10l-10.4,-16h14.4c2.216,0 4,-1.784 4,-4s-1.784,-4 -4,-4h-19.6l-10.4,-16h16v-8zM58,60h12l10.4,16h-32.801z" fill="#000000FF"/>
  <path d="m58,56 l-26,40h-10l26,-40z" fill="#896847"/>
  <path d="m70,56 l26,40h10l-26,-40z" fill="#896847"/>
  <path d="M96,52.102l-64,-0l-0,-4.102l64,-0z" fill="#ae8862"/>
  <path d="M110,80L18,80A4,4 0,0 1,14 76L14,76A4,4 0,0 1,18 72L110,72A4,4 0,0 1,114 76L114,76A4,4 0,0 1,110 80z" fill="#ae8862"/>
  <path d="m24,42.08 l40,-16 40,16" fill="#00000000" stroke-linecap="square" stroke-width="11.2" stroke="#000"/>
  <path d="m24,38.08 l40,-16 40,16" fill="#00000000" stroke-linecap="square" stroke-width="11.2" stroke="#c84747"/>
  <path d="m14,76c0,2.216 1.784,4 4,4h92c2.216,0 4,-1.784 4,-4z" fill="#896847"/>
  <path d="M96,56l-64,-0l-0,-3.898l64,-0z" fill="#896847"/>
</svg>
