<?xml version="1.0" ?>
<svg xmlns="http://www.w3.org/2000/svg" width="128.0" height="128.0" viewBox="0 0 128.0 128.0">
  <path d="M128,64C128,99.35 99.35,128 64,128 28.65,128 0,99.35 0,64 0,28.65 28.65,0 64,0c35.35,0 64,28.65 64,64" fill="#ca72e2"/>
  <path d="M36.22,24L91.28,24A8.47,8.47 0,0 1,99.75 32.47L99.75,95.53A8.47,8.47 0,0 1,91.28 104L36.22,104A8.47,8.47 0,0 1,27.75 95.53L27.75,32.47A8.47,8.47 0,0 1,36.22 24z" fill="none" stroke-width="8" stroke="#000"/>
  <path d="M36.35,20.11L91.4,20.11A8.47,8.47 0,0 1,99.88 28.58L99.88,91.64A8.47,8.47 0,0 1,91.4 100.11L36.35,100.11A8.47,8.47 0,0 1,27.88 91.64L27.88,28.58A8.47,8.47 0,0 1,36.35 20.11z" fill="#495aad" stroke-width="8" stroke="#fff"/>
  <path d="m49.6,82.55 l6.65,-19.78h6.38" fill="none" stroke-linejoin="round" stroke-linecap="round" stroke-width="3" stroke="#fff"/>
  <path d="M65.54,82.55 L69.53,65.81" fill="none" stroke-linejoin="round" stroke-linecap="round" stroke-width="3" stroke="#fff"/>
  <path d="m69.53,65.81 l3.89,-0.01" fill="none" stroke-linejoin="round" stroke-linecap="round" stroke-width="3" stroke="#fff"/>
  <path d="M54.38,69 L65.54,82.55H78.3L69.53,69H54.38" fill="none" stroke-linejoin="round" stroke-linecap="round" stroke-width="3" stroke="#fff"/>
  <path d="M78.25,82.6m-8.83,0a8.83,8.83 0,1 1,17.66 0a8.83,8.83 0,1 1,-17.66 0" fill="none" stroke-linejoin="round" stroke-linecap="round" stroke-width="3" stroke="#fff"/>
  <path d="M49.47,82.6m-8.83,0a8.83,8.83 0,1 1,17.66 0a8.83,8.83 0,1 1,-17.66 0" fill="none" stroke-width="3" stroke="#fff"/>
  <path d="M78.02,48.35 L71.38,28.56h-6.38" fill="none" stroke-linejoin="round" stroke-linecap="round" stroke-width="3" stroke="#fff"/>
  <path d="M62.08,48.35 L58.09,31.6" fill="none" stroke-linejoin="round" stroke-linecap="round" stroke-width="3" stroke="#fff"/>
  <path d="m58.09,31.6 l-3.89,-0.01" fill="none" stroke-linejoin="round" stroke-linecap="round" stroke-width="3" stroke="#fff"/>
  <path d="M73.24,34.79 L62.08,48.35H49.32L58.09,34.79h15.15" fill="none" stroke-linejoin="round" stroke-linecap="round" stroke-width="3" stroke="#fff"/>
  <path d="M49.37,48.39m8.83,0a8.83,8.83 0,1 0,-17.66 0a8.83,8.83 0,1 0,17.66 0" fill="none" stroke-width="3" stroke="#fff"/>
  <path d="M78.15,48.4m8.83,0a8.83,8.83 0,1 0,-17.66 0a8.83,8.83 0,1 0,17.66 0" fill="none" stroke-width="3" stroke="#fff"/>
</svg>
