<svg xmlns="http://www.w3.org/2000/svg" width="16" height="16"><path d="M 6.5,2.0 A 0.5,0.5 0.0 0,0 6.1465,2.1465 L 3.1465,5.1465 A 0.5,0.5 0.0 0,0 3.5,6.0 L 6.0,6.0 L 6.0,7.25 L 2.1992,10.0996 A 0.5,0.5 0.0 0,0 2.5,11.0 L 5.6914,11.0 L 4.0527,14.2773 A 0.5,0.5 0.0 1,0 4.9473,14.7227 L 5.3086,14.0 L 9.6914,14.0 L 10.0527,14.7227 A 0.5,0.5 0.0 1,0 10.9473,14.2773 L 9.3086,11.0 L 12.5,11.0 A 0.5,0.5 0.0 0,0 12.8008,10.0996 L 9.0,7.25 L 9.0,6.0 L 11.5,6.0 A 0.5,0.5 0.0 0,0 11.8535,5.1465 L 8.8535,2.1465 A 0.5,0.5 0.0 0,0 8.5,2.0 L 6.5,2.0 M 7.0,3.0 L 8.0,3.0 L 8.0,5.0 L 7.0,5.0 L 7.0,3.0 M 6.0,3.707 L 6.0,5.0 L 4.707,5.0 L 6.0,3.707 M 9.0,3.707 L 10.293,5.0 L 9.0,5.0 L 9.0,3.707 M 7.0,6.0 L 8.0,6.0 L 8.0,7.0 L 7.0,7.0 L 7.0,6.0 M 7.0,8.0 L 8.0,8.0 L 8.0,10.0 L 7.0,10.0 L 7.0,8.0 M 9.0,8.5 L 11.0,10.0 L 9.0,10.0 L 9.0,8.5 M 6.0,8.502 L 6.0,10.0 L 4.0019,10.0 L 6.0,8.5019 L 6.0,8.502 M 6.8086,11.0 L 8.1914,11.0 L 9.1914,13.0 L 5.8086,13.0 L 6.8086,11.0" fill="#000" /></svg>