<svg xmlns="http://www.w3.org/2000/svg" width="16" height="16"><path d="M 1.5,2.0 C 1.2239,2.0 1.0,2.2239 1.0,2.5 L 1.0,13.5 C 1.0,13.7761 1.2239,14.0 1.5,14.0 C 1.7761,14.0 2.0,13.7761 2.0,13.5 L 2.0,4.0 L 5.0,4.0 L 5.0,4.5 C 5.0,4.7761 5.2239,5.0 5.5,5.0 L 7.0,5.0 L 7.0,7.5 C 7.0003,7.7262 7.1525,7.9241 7.3711,7.9824 C 7.4131,7.9939 7.4565,7.9998 7.5,8.0 C 7.7037,8.0 7.885,8.1205 7.9629,8.3086 C 8.0408,8.4968 7.9975,8.7095 7.8535,8.8535 C 7.7095,8.9975 7.4968,9.0409 7.3086,8.9629 C 7.1204,8.885 7.0,8.7037 7.0,8.5 C 7.0,8.2239 6.7761,8.0 6.5,8.0 C 6.2239,8.0 6.0,8.2239 6.0,8.5 C 6.0,9.1053 6.3666,9.6551 6.9258,9.8867 C 7.485,10.1183 8.1326,9.9885 8.5605,9.5606 C 8.9885,9.1326 9.1183,8.485 8.8867,7.9258 C 8.7215,7.5269 8.3936,7.2276 8.0,7.0879 L 8.0,5.0 L 9.5,5.0 C 9.7761,5.0 10.0,4.7761 10.0,4.5 L 10.0,4.0 L 13.0,4.0 L 13.0,13.5 C 13.0,13.7761 13.2239,14.0 13.5,14.0 C 13.7761,14.0 14.0,13.7761 14.0,13.5 L 14.0,2.5 C 14.0,2.2239 13.7761,2.0 13.5,2.0 C 13.2239,2.0 13.0,2.2239 13.0,2.5 L 13.0,3.0 L 10.0,3.0 L 10.0,2.5 C 10.0,2.2239 9.7761,2.0 9.5,2.0 L 5.5,2.0 C 5.2239,2.0 5.0,2.2239 5.0,2.5 L 5.0,3.0 L 2.0,3.0 L 2.0,2.5 C 2.0,2.2239 1.7761,2.0 1.5,2.0 L 1.5,2.0 M 5.6465,12.3965 C 5.2054,12.8376 4.8333,13.0 4.5,13.0 C 4.2855,13.0 4.0482,12.926 3.7773,12.7461 C 3.5476,12.5929 3.2371,12.655 3.084,12.8848 C 2.9308,13.1145 2.9929,13.425 3.2227,13.5781 C 3.6162,13.8395 4.0502,14.0 4.5,14.0 C 5.0394,14.0 5.5274,13.6558 6.0,13.2754 C 6.4726,13.6558 6.9606,14.0 7.5,14.0 C 8.0394,14.0 8.5274,13.6558 9.0,13.2754 C 9.4696,13.6539 9.9564,14.0 10.5,14.0 C 10.947,14.0 11.3815,13.844 11.7773,13.5801 C 12.0071,13.4269 12.0692,13.1165 11.916,12.8867 C 11.7628,12.657 11.4524,12.5949 11.2227,12.7481 C 10.9518,12.9286 10.7196,13.0 10.5,13.0 C 10.1719,13.0 9.7859,12.8289 9.3535,12.3965 C 9.1583,12.2013 8.8417,12.2013 8.6465,12.3965 C 8.2054,12.8376 7.8333,13.0 7.5,13.0 C 7.1667,13.0 6.7946,12.8376 6.3535,12.3965 C 6.1565,12.1992 5.8391,12.2035 5.6465,12.3965" fill="#000" /></svg>