<svg data-prefix="fas" data-icon="dumbbell" class="svg-inline--fa fa-dumbbell" role="img" viewBox="0 0 640 512" aria-hidden="true"><path fill="currentColor" d="M96 112c0-26.5 21.5-48 48-48s48 21.5 48 48l0 112 256 0 0-112c0-26.5 21.5-48 48-48s48 21.5 48 48l0 16 16 0c26.5 0 48 21.5 48 48l0 48c17.7 0 32 14.3 32 32s-14.3 32-32 32l0 48c0 26.5-21.5 48-48 48l-16 0 0 16c0 26.5-21.5 48-48 48s-48-21.5-48-48l0-112-256 0 0 112c0 26.5-21.5 48-48 48s-48-21.5-48-48l0-16-16 0c-26.5 0-48-21.5-48-48l0-48c-17.7 0-32-14.3-32-32s14.3-32 32-32l0-48c0-26.5 21.5-48 48-48l16 0 0-16z"></path></svg>