<svg xmlns="http://www.w3.org/2000/svg" width="16" height="16"><path d="M 7.5,2.0 C 7.223,2.0 7.0,2.224 7.0,2.5 L 7.0,3.0 L 2.5,3.0 C 2.223,3.0 2.0,3.224 2.0,3.5 C 2.0,3.776 2.223,4.0 2.499,4.0 L 7.0,4.0 L 7.0,5.0 L 2.5,5.0 C 2.223,5.001 2.0,5.224 2.0,5.5 C 2.0,5.776 2.223,5.999 2.499,6.0 L 7.0,6.0 L 7.0,7.0 L 2.5,7.0 C 2.223,7.001 2.0,7.224 2.0,7.5 C 2.0,7.776 2.223,7.999 2.499,8.0 L 7.0,8.0 L 7.0,14.5 C 7.0,14.776 7.223,15.0 7.499,15.0 L 8.5,15.0 C 8.777,15.0 9.0,14.776 9.0,14.5 L 9.0,2.501 C 9.0,2.224 8.777,2.0 8.501,2.0 L 7.5,2.0 M 2.5,8.5 C 2.224,8.5 2.0,8.724 2.0,9.0 L 2.0,10.0 C 2.0,10.276 2.224,10.5 2.5,10.5 C 2.776,10.5 3.0,10.276 3.0,10.0 L 3.0,9.0 C 3.0,8.724 2.776,8.5 2.5,8.5" fill="#000" /></svg>