<?xml version="1.0" ?>
<svg xmlns="http://www.w3.org/2000/svg" width="128" height="128" viewBox="0 0 128 128">
  <path d="m128,64c0,35.346 -28.654,64 -64,64s-64,-28.654 -64,-64 28.654,-64 64,-64 64,28.654 64,64" fill="#fd5"/>
  <path d="m116,66c0,28.719 -23.281,52 -52,52s-52,-23.281 -52,-52 23.281,-52 52,-52 52,23.281 52,52" fill="#000"/>
  <path d="m114,62c0,27.614 -22.386,50 -50,50s-50,-22.386 -50,-50 22.386,-50 50,-50 50,22.386 50,50" fill="#c84747" stroke-width="4" stroke="#fff"/>
  <path d="m99.741,62.001a35.756,35.756 0,0 1,-35.756 35.756,35.756 35.756,0 0,1 -35.756,-35.756 35.756,35.756 0,0 1,35.756 -35.756,35.756 35.756,0 0,1 35.756,35.756" fill="#444"/>
  <path d="m79.965,93.979c12.123,-6.049 19.785,-18.43 19.791,-31.979 -0.006,-13.548 -7.668,-25.929 -19.791,-31.979l-15.965,13.979 -15.938,-13.961c-12.128,6.039 -19.801,18.413 -19.818,31.961 0.018,13.548 7.691,25.922 19.818,31.961l15.938,-13.961z" fill="#fff"/>
  <path d="m54.001,48c-4.001,2 -5.001,12 -5.001,12 -2.121,0.558 -5.04,2.3 -5.04,4.078l0.039,3.922c0.002,2 1.001,3 4.001,3v5s-0.274,1.947 1,2h5c1.25,0 1,-2 1,-2v-4h18v4s-0.244,2 1.007,2h5.001c1.25,0 0.992,-2 0.992,-2v-5c3,0 4,-1 4.009,-3v-4c-0.545,-1.871 -3.259,-3.438 -5.001,-4 0,0 -1.008,-10 -5.001,-12zM71.506,52c2.501,3 2.501,8 2.501,8h-20.005s0,-5 2.501,-8z" fill="#444"/>
  <path d="m58.902,111.196l40.231,-69.682c0.767,-1.329 2.454,-1.781 3.783,-1.014l15.989,9.231c1.329,0.767 1.781,2.454 1.014,3.783l-40.231,69.682c-0.767,1.329 -2.454,1.781 -3.783,1.014l-15.989,-9.231c-1.329,-0.767 -1.781,-2.454 -1.014,-3.783z" fill="#000"/>
  <path d="m58.9,107.199l40.345,-69.88c0.735,-1.274 2.397,-1.682 3.726,-0.915l15.989,9.231c1.329,0.767 1.806,2.41 1.071,3.684l-40.345,69.88c-0.735,1.274 -2.397,1.682 -3.726,0.915l-15.989,-9.231c-1.329,-0.767 -1.806,-2.41 -1.071,-3.684z" fill="#cc826b"/>
  <path d="m60.07,105.173l13.856,8l3,-5.196l-13.856,-8zM66.07,94.781l6.928,4l3,-5.196l-6.928,-4zM72.07,84.388l13.856,8l3,-5.196l-13.856,-8zM78.07,73.996l6.928,4l3,-5.196l-6.928,-4zM84.07,63.604l13.856,8l3,-5.196l-13.856,-8zM90.26,52.881l6.928,4l2.81,-4.866l-6.928,-4zM96.07,42.819l13.856,8l3,-5.196l-13.856,-8z" fill="#ac573d"/>
</svg>
