<svg xmlns="http://www.w3.org/2000/svg" width="16" height="16"><path d="M 6.5,2.0 C 6.2308,2.0 6.0,2.2016 6.0,2.5 L 6.0001,8.3245 L 2.1095,13.1878 C 1.6927,13.7087 2.4739,14.3337 2.8907,13.8128 L 6.0,9.9238 L 6.0,13.4297 C 6.0,14.0 6.5005,14.1839 6.8837,13.8119 C 7.267,13.44 8.0,12.707 8.0,12.707 L 8.0,13.5 C 7.99,14.1762 9.0096,14.1762 9.0,13.5 L 9.0,9.9258 L 12.1094,13.8125 C 12.526,14.3334 13.3073,13.7084 12.8906,13.1875 L 9.0,8.3242 L 9.0,2.5 C 9.004,2.2177 8.7745,1.9878 8.4922,1.9922 C 8.216,1.9962 7.9957,2.2239 8.0,2.5 L 8.0,3.293 L 6.8984,2.1914 C 6.7857,2.0787 6.6633,2.0 6.5,2.0 M 7.0,3.707 L 8.0,4.707 L 8.0,5.293 L 7.0,6.293 L 7.0,3.707 M 8.0,6.707 L 8.0,9.293 L 7.0,8.293 L 7.0,7.707 L 8.0,6.707 M 7.0,9.707 L 8.0,10.707 L 8.0,11.293 L 7.0,12.293 L 7.0,9.707" fill="#000" /></svg>