<svg xmlns="http://www.w3.org/2000/svg" width="16" height="16"><path d="M 7.5,1.0 C 7.275,1.0 7.085,1.148 7.022,1.353 L 6.14,4.0 L 3.5,4.0 C 3.223,4.001 3.0,4.224 3.0,4.5 C 3.0,4.776 3.223,4.999 3.499,5.0 L 6.0,5.0 L 6.0,6.0 L 3.5,6.0 C 3.223,6.001 3.0,6.224 3.0,6.5 C 3.0,6.776 3.223,6.999 3.499,7.0 L 6.0,7.0 L 6.0,8.0 L 3.5,8.0 C 3.223,8.0 3.0,8.224 3.0,8.5 C 3.0,8.776 3.223,9.0 3.499,9.0 L 6.0,9.0 L 6.0,10.0 L 3.5,10.0 C 3.223,10.0 3.0,10.224 3.0,10.5 C 3.0,10.776 3.223,11.0 3.499,11.0 L 5.691,11.0 L 4.057,14.267 C 4.021,14.337 4.0,14.416 4.0,14.5 C 4.0,14.776 4.224,15.0 4.5,15.0 C 4.7,15.0 4.872,14.883 4.952,14.714 L 5.309,14.0 L 9.691,14.0 L 10.048,14.714 C 10.128,14.883 10.3,15.0 10.5,15.0 C 10.776,15.0 11.0,14.776 11.0,14.5 C 11.0,14.416 10.979,14.337 10.943,14.267 L 9.309,11.0 L 11.5,11.0 C 11.777,11.0 12.0,10.776 12.0,10.5 C 12.0,10.224 11.777,10.0 11.501,10.0 L 9.0,10.0 L 9.0,9.0 L 11.5,9.0 C 11.777,9.0 12.0,8.776 12.0,8.5 C 12.0,8.224 11.777,8.0 11.501,8.0 L 9.0,8.0 L 9.0,7.0 L 11.5,7.0 C 11.777,6.999 12.0,6.776 12.0,6.5 C 12.0,6.224 11.777,6.001 11.501,6.0 L 9.0,6.0 L 9.0,5.0 L 11.5,5.0 C 11.777,4.999 12.0,4.776 12.0,4.5 C 12.0,4.224 11.777,4.001 11.501,4.0 L 8.86,4.0 L 7.978,1.353 C 7.915,1.148 7.725,1.0 7.5,1.0 M 7.194,4.0 L 7.5,3.081 L 7.806,4.0 L 7.194,4.0 M 7.0,6.0 L 7.0,5.0 L 8.0,5.0 L 8.0,6.0 L 7.0,6.0 M 7.0,8.0 L 7.0,7.0 L 8.0,7.0 L 8.0,8.0 L 7.0,8.0 M 7.0,10.0 L 7.0,9.0 L 8.0,9.0 L 8.0,10.0 L 7.0,10.0 M 5.809,13.0 L 6.809,11.0 L 8.191,11.0 L 9.191,13.0 L 5.809,13.0" fill="#000" /></svg>