<?xml version="1.0" ?>
<svg xmlns="http://www.w3.org/2000/svg" width="128" height="128" viewBox="0 0 128 128">
  <path d="m128,64c0,35.346 -28.654,64 -64,64 -35.346,0 -64,-28.654 -64,-64 0,-35.346 28.654,-64 64,-64 35.346,0 64,28.654 64,64" fill="#e9a76f"/>
  <path d="m90.34,44c-7.028,-3.778 -0.34,-20 7.66,-34" fill="none" stroke-width="8" stroke="#000"/>
  <path d="M90.34,40C83.312,36.222 88,23 96,9" fill="none" stroke-width="8" stroke="#7077ce"/>
  <path d="m63.986,28 l-46,46v4l36,36h4l46,-46V30l-2,-2z" fill="#000"/>
  <path d="m64,24 l-46,46v4l36,36h4l46,-46L104,26l-2,-2zM90,32a6,6 0,0 1,6 6,6 6,0 0,1 -6,6 6,6 0,0 1,-6 -6,6 6,0 0,1 6,-6z" fill="#fff"/>
  <path d="m122,37.549c-11.141,6.167 -22.034,7.418 -32,2.451" fill="none" stroke-width="8" stroke="#000"/>
  <path d="M120.606,34.299C109.465,40.466 99.994,44.745 90.027,39.778" fill="none" stroke-width="8" stroke="#7077ce"/>
</svg>
