<?xml version="1.0" ?>
<svg xmlns="http://www.w3.org/2000/svg" width="128" height="128" viewBox="0 0 128 128">
  <path d="m119.44,96.041c-17.673,30.611 -56.815,41.099 -87.426,23.426s-41.099,-56.815 -23.426,-87.426 56.815,-41.099 87.426,-23.426 41.099,56.815 23.426,87.426" fill="#529add"/>
  <path d="m62.638,0.016c-21.611,0.484 -42.455,11.906 -54.053,31.994 -17.673,30.611 -7.185,69.753 23.426,87.426 4.444,2.566 9.07,4.519 13.781,5.922l62.238,-107.8c-3.571,-3.378 -7.576,-6.407 -12.02,-8.973 -10.523,-6.075 -22.053,-8.822 -33.373,-8.568z" fill="#999"/>
  <path d="m108.52,18.121 l-62.098,107.45c2.573,0.785 5.491,1.266 8.183,1.798l59.63,-103.08c-1.807,-2.066 -3.62,-4.319 -5.715,-6.162z" fill="#000000FF"/>
  <path d="m62.968,61.059a2,2 0,0 1,-2.732 0.732,2 2,0 0,1 -0.732,-2.732 2,2 0,0 1,2.732 -0.732,2 2,0 0,1 0.732,2.732" fill="#aaa"/>
  <path d="m91.968,36.059a2,2 0,0 1,-2.732 0.732,2 2,0 0,1 -0.732,-2.732 2,2 0,0 1,2.732 -0.732,2 2,0 0,1 0.732,2.732" fill="#aaa"/>
  <path d="m51.475,76.132a2,2 0,0 1,-2.732 0.732,2 2,0 0,1 -0.732,-2.732 2,2 0,0 1,2.732 -0.732,2 2,0 0,1 0.732,2.732" fill="#aaa"/>
  <path d="m42.475,120.132a2,2 0,0 1,-2.732 0.732,2 2,0 0,1 -0.732,-2.732 2,2 0,0 1,2.732 -0.732,2 2,0 0,1 0.732,2.732" fill="#aaa"/>
  <path d="m82.475,41.132a2,2 0,0 1,-2.732 0.732,2 2,0 0,1 -0.732,-2.732 2,2 0,0 1,2.732 -0.732,2 2,0 0,1 0.732,2.732" fill="#aaa"/>
  <path d="m65.272,78.101a6,6 0,0 1,-8.196 2.196,6 6,0 0,1 -2.196,-8.196 6,6 0,0 1,8.196 -2.196,6 6,0 0,1 2.196,8.196" fill="#aaa"/>
  <path d="m51.243,108.18a6,6 0,0 1,-8.196 2.196,6 6,0 0,1 -2.196,-8.196 6,6 0,0 1,8.196 -2.196,6 6,0 0,1 2.196,8.196" fill="#aaa"/>
  <path d="m78.814,63.281a6,6 0,0 1,-8.196 2.196,6 6,0 0,1 -2.196,-8.196 6,6 0,0 1,8.196 -2.196,6 6,0 0,1 2.196,8.196" fill="#bbb"/>
  <path d="m54.582,86.665a6,6 0,0 1,-8.196 2.196,6 6,0 0,1 -2.196,-8.196 6,6 0,0 1,8.196 -2.196,6 6,0 0,1 2.196,8.196" fill="#bbb"/>
  <path d="m95.7,16.375a6,6 0,0 1,-8.196 2.196,6 6,0 0,1 -2.196,-8.196 6,6 0,0 1,8.196 -2.196,6 6,0 0,1 2.196,8.196" fill="#aaa"/>
  <path d="m83.972,49.789a6,6 0,0 1,-8.196 2.196,6 6,0 0,1 -2.196,-8.196 6,6 0,0 1,8.196 -2.196,6 6,0 0,1 2.196,8.196" fill="#ccc"/>
  <path d="m80.011,34.328a4,4 0,0 1,-5.464 1.464,4 4,0 0,1 -1.464,-5.464 4,4 0,0 1,5.464 -1.464,4 4,0 0,1 1.464,5.464" fill="#bbb"/>
  <path d="m91.53,26.238a4,4 0,0 1,-5.464 1.464,4 4,0 0,1 -1.464,-5.464 4,4 0,0 1,5.464 -1.464,4 4,0 0,1 1.464,5.464" fill="#bbb"/>
  <path d="m69.227,54.206a4,4 0,0 1,-5.464 1.464,4 4,0 0,1 -1.464,-5.464 4,4 0,0 1,5.464 -1.464,4 4,0 0,1 1.464,5.464" fill="#aaa"/>
  <path d="m40.227,113.206a4,4 0,0 1,-5.464 1.464,4 4,0 0,1 -1.464,-5.464 4,4 0,0 1,5.464 -1.464,4 4,0 0,1 1.464,5.464" fill="#aaa"/>
  <path d="m58.516,94.734a4,4 0,0 1,-5.464 1.464,4 4,0 0,1 -1.464,-5.464 4,4 0,0 1,5.464 -1.464,4 4,0 0,1 1.464,5.464" fill="#bbb"/>
  <path d="m86.475,33.132a2,2 0,0 1,-2.732 0.732,2 2,0 0,1 -0.732,-2.732 2,2 0,0 1,2.732 -0.732,2 2,0 0,1 0.732,2.732" fill="#ccc"/>
  <path d="m80.388,24.858a2,2 0,0 1,-2.732 0.732,2 2,0 0,1 -0.732,-2.732 2,2 0,0 1,2.732 -0.732,2 2,0 0,1 0.732,2.732" fill="#ccc"/>
  <path d="m45.388,114.858a2,2 0,0 1,-2.732 0.732,2 2,0 0,1 -0.732,-2.732 2,2 0,0 1,2.732 -0.732,2 2,0 0,1 0.732,2.732" fill="#ccc"/>
  <path d="m95.388,21.858a2,2 0,0 1,-2.732 0.732,2 2,0 0,1 -0.732,-2.732 2,2 0,0 1,2.732 -0.732,2 2,0 0,1 0.732,2.732" fill="#ccc"/>
  <path d="m74.723,39.387a2,2 0,0 1,-2.732 0.732,2 2,0 0,1 -0.732,-2.732 2,2 0,0 1,2.732 -0.732,2 2,0 0,1 0.732,2.732" fill="#ccc"/>
  <path d="m88.699,40.753a2,2 0,0 1,-2.732 0.732,2 2,0 0,1 -0.732,-2.732 2,2 0,0 1,2.732 -0.732,2 2,0 0,1 0.732,2.732" fill="#777"/>
  <path d="m66.865,67.276a2,2 0,0 1,-2.732 0.732,2 2,0 0,1 -0.732,-2.732 2,2 0,0 1,2.732 -0.732,2 2,0 0,1 0.732,2.732" fill="#bbb"/>
  <path d="m70.525,74.008a2,2 0,0 1,-2.732 0.732,2 2,0 0,1 -0.732,-2.732 2,2 0,0 1,2.732 -0.732,2 2,0 0,1 0.732,2.732" fill="#ccc"/>
  <path d="m55.537,69.324a2,2 0,0 1,-2.732 0.732,2 2,0 0,1 -0.732,-2.732 2,2 0,0 1,2.732 -0.732,2 2,0 0,1 0.732,2.732" fill="#ccc"/>
  <path d="m42.792,91.528a2,2 0,0 1,-2.732 0.732,2 2,0 0,1 -0.732,-2.732 2,2 0,0 1,2.732 -0.732,2 2,0 0,1 0.732,2.732" fill="#bbb"/>
  <path d="m31.812,115.31a2,2 0,0 1,-2.732 0.732,2 2,0 0,1 -0.732,-2.732 2,2 0,0 1,2.732 -0.732,2 2,0 0,1 0.732,2.732" fill="#ccc"/>
  <path d="m97.378,28.746a2,2 0,0 1,-2.732 0.732,2 2,0 0,1 -0.732,-2.732 2,2 0,0 1,2.732 -0.732,2 2,0 0,1 0.732,2.732" fill="#ccc"/>
  <path d="m67.776,80.02a2,2 0,0 1,-2.732 0.732,2 2,0 0,1 -0.732,-2.732 2,2 0,0 1,2.732 -0.732,2 2,0 0,1 0.732,2.732" fill="#777"/>
  <path d="m69.776,45.02a2,2 0,0 1,-2.732 0.732,2 2,0 0,1 -0.732,-2.732 2,2 0,0 1,2.732 -0.732,2 2,0 0,1 0.732,2.732" fill="#777"/>
  <path d="m46.968,96.059a2,2 0,0 1,-2.732 0.732,2 2,0 0,1 -0.732,-2.732 2,2 0,0 1,2.732 -0.732,2 2,0 0,1 0.732,2.732" fill="#aaa"/>
  <path d="m83.968,19.059a2,2 0,0 1,-2.732 0.732,2 2,0 0,1 -0.732,-2.732 2,2 0,0 1,2.732 -0.732,2 2,0 0,1 0.732,2.732" fill="#aaa"/>
  <path d="m55.968,101.059a2,2 0,0 1,-2.732 0.732,2 2,0 0,1 -0.732,-2.732 2,2 0,0 1,2.732 -0.732,2 2,0 0,1 0.732,2.732" fill="#aaa"/>
  <path d="m61.122,63.733a3.225,3.225 0,0 1,-4.405 1.18,3.225 3.225,0 0,1 -1.18,-4.405 3.225,3.225 0,0 1,4.405 -1.18,3.225 3.225,0 0,1 1.18,4.405" fill="#bbb"/>
  <path d="m40.812,98.713a3.225,3.225 0,0 1,-4.405 1.18,3.225 3.225,0 0,1 -1.18,-4.405 3.225,3.225 0,0 1,4.405 -1.18,3.225 3.225,0 0,1 1.18,4.405" fill="#ccc"/>
  <path d="m37.157,106.73a3.225,3.225 0,0 1,-4.405 1.18,3.225 3.225,0 0,1 -1.18,-4.405 3.225,3.225 0,0 1,4.405 -1.18,3.225 3.225,0 0,1 1.18,4.405" fill="#777"/>
  <path d="m100.961,16.8a3.225,3.225 0,0 1,-4.405 1.18,3.225 3.225,0 0,1 -1.18,-4.405 3.225,3.225 0,0 1,4.405 -1.18,3.225 3.225,0 0,1 1.18,4.405" fill="#777"/>
  <path d="m63.866,87.424a3.225,3.225 0,0 1,-4.405 1.18,3.225 3.225,0 0,1 -1.18,-4.405 3.225,3.225 0,0 1,4.405 -1.18,3.225 3.225,0 0,1 1.18,4.405" fill="#bbb"/>
  <path d="m81.164,2.32 l-61.963,107.33c1.447,1.422 2.975,2.78 4.574,4.074l63.205,-109.48c-1.921,-0.738 -3.862,-1.382 -5.816,-1.924zM106.42,16 L43.676,124.68c2.643,0.893 5.321,1.589 8.014,2.121l60.576,-104.92c-1.807,-2.066 -3.75,-4.036 -5.846,-5.879z" fill="#fff"/>
</svg>
