<?xml version="1.0" encoding="UTF-8"?>
<!--Generator: Apple Native CoreSVG 123-->
<!DOCTYPE svg
PUBLIC "-//W3C//DTD SVG 1.1//EN"
       "http://www.w3.org/Graphics/SVG/1.1/DTD/svg11.dtd">
<svg version="1.1" xmlns="http://www.w3.org/2000/svg" xmlns:xlink="http://www.w3.org/1999/xlink" width="3300" height="2200">
 <!--glyph: "uni10013D.medium", point size: 100.000000, font version: "Version 15.0d7e11", template writer version: "5"-->
 <g id="Notes">
  <rect height="2200" id="artboard" style="fill:white;opacity:1" width="3300" x="0" y="0"/>
  <line id="" style="fill:none;stroke:black;opacity:1;stroke-width:0.5;" x1="263" x2="3036" y1="292" y2="292"/>
  <text style="stroke:none;fill:black;font-family:-apple-system,&quot;SF Pro Display&quot;,&quot;SF Pro Text&quot;,Helvetica,sans-serif;font-weight:bold;" transform="matrix(1 0 0 1 263 322)">Weight/Scale Variations</text>
  <text style="stroke:none;fill:black;font-family:-apple-system,&quot;SF Pro Display&quot;,&quot;SF Pro Text&quot;,Helvetica,sans-serif;text-anchor:middle;" transform="matrix(1 0 0 1 559.711 322)">Ultralight</text>
  <text style="stroke:none;fill:black;font-family:-apple-system,&quot;SF Pro Display&quot;,&quot;SF Pro Text&quot;,Helvetica,sans-serif;text-anchor:middle;" transform="matrix(1 0 0 1 856.422 322)">Thin</text>
  <text style="stroke:none;fill:black;font-family:-apple-system,&quot;SF Pro Display&quot;,&quot;SF Pro Text&quot;,Helvetica,sans-serif;text-anchor:middle;" transform="matrix(1 0 0 1 1153.13 322)">Light</text>
  <text style="stroke:none;fill:black;font-family:-apple-system,&quot;SF Pro Display&quot;,&quot;SF Pro Text&quot;,Helvetica,sans-serif;text-anchor:middle;" transform="matrix(1 0 0 1 1449.84 322)">Regular</text>
  <text style="stroke:none;fill:black;font-family:-apple-system,&quot;SF Pro Display&quot;,&quot;SF Pro Text&quot;,Helvetica,sans-serif;text-anchor:middle;" transform="matrix(1 0 0 1 1746.56 322)">Medium</text>
  <text style="stroke:none;fill:black;font-family:-apple-system,&quot;SF Pro Display&quot;,&quot;SF Pro Text&quot;,Helvetica,sans-serif;text-anchor:middle;" transform="matrix(1 0 0 1 2043.27 322)">Semibold</text>
  <text style="stroke:none;fill:black;font-family:-apple-system,&quot;SF Pro Display&quot;,&quot;SF Pro Text&quot;,Helvetica,sans-serif;text-anchor:middle;" transform="matrix(1 0 0 1 2339.98 322)">Bold</text>
  <text style="stroke:none;fill:black;font-family:-apple-system,&quot;SF Pro Display&quot;,&quot;SF Pro Text&quot;,Helvetica,sans-serif;text-anchor:middle;" transform="matrix(1 0 0 1 2636.69 322)">Heavy</text>
  <text style="stroke:none;fill:black;font-family:-apple-system,&quot;SF Pro Display&quot;,&quot;SF Pro Text&quot;,Helvetica,sans-serif;text-anchor:middle;" transform="matrix(1 0 0 1 2933.4 322)">Black</text>
  <line id="" style="fill:none;stroke:black;opacity:1;stroke-width:0.5;" x1="263" x2="3036" y1="1903" y2="1903"/>
  <g id="" transform="matrix(1 0 0 1 263 1933)">
   <path d="M 9.24805 0.830078 C 13.5547 0.830078 17.1387 -2.74414 17.1387 -7.05078 C 17.1387 -11.3574 13.5449 -14.9316 9.23828 -14.9316 C 4.94141 -14.9316 1.36719 -11.3574 1.36719 -7.05078 C 1.36719 -2.74414 4.95117 0.830078 9.24805 0.830078 Z M 9.24805 -0.654297 C 5.70312 -0.654297 2.87109 -3.49609 2.87109 -7.05078 C 2.87109 -10.6055 5.69336 -13.4473 9.23828 -13.4473 C 12.793 -13.4473 15.6348 -10.6055 15.6445 -7.05078 C 15.6543 -3.49609 12.8027 -0.654297 9.24805 -0.654297 Z M 9.22852 -3.42773 C 9.69727 -3.42773 9.9707 -3.74023 9.9707 -4.25781 L 9.9707 -6.31836 L 12.1973 -6.31836 C 12.6953 -6.31836 13.0371 -6.57227 13.0371 -7.04102 C 13.0371 -7.51953 12.7148 -7.7832 12.1973 -7.7832 L 9.9707 -7.7832 L 9.9707 -10.0098 C 9.9707 -10.5273 9.69727 -10.8496 9.22852 -10.8496 C 8.75977 -10.8496 8.50586 -10.5078 8.50586 -10.0098 L 8.50586 -7.7832 L 6.29883 -7.7832 C 5.78125 -7.7832 5.44922 -7.51953 5.44922 -7.04102 C 5.44922 -6.57227 5.80078 -6.31836 6.29883 -6.31836 L 8.50586 -6.31836 L 8.50586 -4.25781 C 8.50586 -3.75977 8.75977 -3.42773 9.22852 -3.42773 Z"/>
  </g>
  <g id="" transform="matrix(1 0 0 1 281.506 1933)">
   <path d="M 11.709 2.91016 C 17.1582 2.91016 21.6699 -1.60156 21.6699 -7.05078 C 21.6699 -12.4902 17.1484 -17.0117 11.6992 -17.0117 C 6.25977 -17.0117 1.74805 -12.4902 1.74805 -7.05078 C 1.74805 -1.60156 6.26953 2.91016 11.709 2.91016 Z M 11.709 1.25 C 7.09961 1.25 3.41797 -2.44141 3.41797 -7.05078 C 3.41797 -11.6504 7.08984 -15.3516 11.6992 -15.3516 C 16.3086 -15.3516 20 -11.6504 20.0098 -7.05078 C 20.0195 -2.44141 16.3184 1.25 11.709 1.25 Z M 11.6895 -2.41211 C 12.207 -2.41211 12.5195 -2.77344 12.5195 -3.33984 L 12.5195 -6.23047 L 15.5762 -6.23047 C 16.123 -6.23047 16.5039 -6.51367 16.5039 -7.03125 C 16.5039 -7.55859 16.1426 -7.86133 15.5762 -7.86133 L 12.5195 -7.86133 L 12.5195 -10.9277 C 12.5195 -11.5039 12.207 -11.8555 11.6895 -11.8555 C 11.1719 -11.8555 10.8789 -11.4844 10.8789 -10.9277 L 10.8789 -7.86133 L 7.83203 -7.86133 C 7.26562 -7.86133 6.89453 -7.55859 6.89453 -7.03125 C 6.89453 -6.51367 7.28516 -6.23047 7.83203 -6.23047 L 10.8789 -6.23047 L 10.8789 -3.33984 C 10.8789 -2.79297 11.1719 -2.41211 11.6895 -2.41211 Z"/>
  </g>
  <g id="" transform="matrix(1 0 0 1 304.924 1933)">
   <path d="M 14.9707 5.67383 C 21.9336 5.67383 27.6953 -0.078125 27.6953 -7.04102 C 27.6953 -14.0039 21.9238 -19.7559 14.9609 -19.7559 C 8.00781 -19.7559 2.25586 -14.0039 2.25586 -7.04102 C 2.25586 -0.078125 8.01758 5.67383 14.9707 5.67383 Z M 14.9707 3.85742 C 8.93555 3.85742 4.08203 -1.00586 4.08203 -7.04102 C 4.08203 -13.0762 8.92578 -17.9395 14.9609 -17.9395 C 21.0059 -17.9395 25.8594 -13.0762 25.8691 -7.04102 C 25.8789 -1.00586 21.0156 3.85742 14.9707 3.85742 Z M 14.9512 -1.06445 C 15.5176 -1.06445 15.8691 -1.45508 15.8691 -2.06055 L 15.8691 -6.13281 L 20.1074 -6.13281 C 20.6934 -6.13281 21.1133 -6.46484 21.1133 -7.02148 C 21.1133 -7.59766 20.7227 -7.93945 20.1074 -7.93945 L 15.8691 -7.93945 L 15.8691 -12.1875 C 15.8691 -12.8027 15.5176 -13.1934 14.9512 -13.1934 C 14.3848 -13.1934 14.0625 -12.7832 14.0625 -12.1875 L 14.0625 -7.93945 L 9.83398 -7.93945 C 9.21875 -7.93945 8.80859 -7.59766 8.80859 -7.02148 C 8.80859 -6.46484 9.23828 -6.13281 9.83398 -6.13281 L 14.0625 -6.13281 L 14.0625 -2.06055 C 14.0625 -1.47461 14.3848 -1.06445 14.9512 -1.06445 Z"/>
  </g>
  <text style="stroke:none;fill:black;font-family:-apple-system,&quot;SF Pro Display&quot;,&quot;SF Pro Text&quot;,Helvetica,sans-serif;font-weight:bold;" transform="matrix(1 0 0 1 263 1953)">Design Variations</text>
  <text style="stroke:none;fill:black;font-family:-apple-system,&quot;SF Pro Display&quot;,&quot;SF Pro Text&quot;,Helvetica,sans-serif;" transform="matrix(1 0 0 1 263 1971)">Symbols are supported in up to nine weights and three scales.</text>
  <text style="stroke:none;fill:black;font-family:-apple-system,&quot;SF Pro Display&quot;,&quot;SF Pro Text&quot;,Helvetica,sans-serif;" transform="matrix(1 0 0 1 263 1989)">For optimal layout with text and other symbols, vertically align</text>
  <text style="stroke:none;fill:black;font-family:-apple-system,&quot;SF Pro Display&quot;,&quot;SF Pro Text&quot;,Helvetica,sans-serif;" transform="matrix(1 0 0 1 263 2007)">symbols with the adjacent text.</text>
  <rect height="14" id="" style="fill:#00AEEF;stroke:none;opacity:0.4;" width="3" x="776" y="1919"/>
  <g id="" transform="matrix(1 0 0 1 779 1933)">
   <path d="M 10.5273 0 L 12.373 0 L 7.17773 -14.0918 L 5.43945 -14.0918 L 0.244141 0 L 2.08984 0 L 3.50586 -4.0332 L 9.11133 -4.0332 Z M 6.2793 -11.9531 L 6.33789 -11.9531 L 8.59375 -5.52734 L 4.02344 -5.52734 Z"/>
  </g>
  <rect height="14" id="" style="fill:#00AEEF;stroke:none;opacity:0.4;" width="3" x="791.617" y="1919"/>
  <text style="stroke:none;fill:black;font-family:-apple-system,&quot;SF Pro Display&quot;,&quot;SF Pro Text&quot;,Helvetica,sans-serif;font-weight:bold;" transform="matrix(1 0 0 1 776 1953)">Margins</text>
  <text style="stroke:none;fill:black;font-family:-apple-system,&quot;SF Pro Display&quot;,&quot;SF Pro Text&quot;,Helvetica,sans-serif;" transform="matrix(1 0 0 1 776 1971)">Leading and trailing margins on the left and right side of each symbol</text>
  <text style="stroke:none;fill:black;font-family:-apple-system,&quot;SF Pro Display&quot;,&quot;SF Pro Text&quot;,Helvetica,sans-serif;" transform="matrix(1 0 0 1 776 1989)">can be adjusted by modifying the width of the blue rectangles.</text>
  <text style="stroke:none;fill:black;font-family:-apple-system,&quot;SF Pro Display&quot;,&quot;SF Pro Text&quot;,Helvetica,sans-serif;" transform="matrix(1 0 0 1 776 2007)">Modifications are automatically applied proportionally to all</text>
  <text style="stroke:none;fill:black;font-family:-apple-system,&quot;SF Pro Display&quot;,&quot;SF Pro Text&quot;,Helvetica,sans-serif;" transform="matrix(1 0 0 1 776 2025)">scales and weights.</text>
  <g id="" transform="matrix(1 0 0 1 1289 1933)">
   <path d="M 2.83203 3.11523 L 4.375 4.6582 C 5.22461 5.48828 6.19141 5.41992 7.06055 4.46289 L 17.2754 -6.66016 C 17.7051 -6.36719 18.0957 -6.37695 18.5645 -6.47461 L 19.6094 -6.68945 L 20.3027 -5.99609 L 20.2539 -5.47852 C 20.1855 -4.95117 20.3516 -4.53125 20.8496 -4.0332 L 21.6602 -3.22266 C 22.168 -2.71484 22.8223 -2.68555 23.3008 -3.16406 L 26.5527 -6.41602 C 27.0312 -6.89453 27.0117 -7.54883 26.5039 -8.05664 L 25.6836 -8.87695 C 25.1855 -9.375 24.7754 -9.55078 24.2383 -9.47266 L 23.7109 -9.41406 L 23.0566 -10.0781 L 23.3398 -11.2207 C 23.4863 -11.7871 23.3398 -12.2559 22.7148 -12.8613 L 20.3027 -15.2539 C 16.7578 -18.7793 12.2266 -18.6719 9.11133 -15.5371 C 8.69141 -15.1074 8.64258 -14.5215 8.91602 -14.0918 C 9.15039 -13.7207 9.62891 -13.4961 10.2734 -13.6621 C 11.7871 -14.043 13.3008 -13.9258 14.7852 -12.9199 L 14.1602 -11.3379 C 13.9258 -10.752 13.9453 -10.2734 14.1797 -9.83398 L 3.01758 0.439453 C 2.08008 1.30859 1.97266 2.25586 2.83203 3.11523 Z M 10.6738 -15.1465 C 13.3398 -17.1387 16.6504 -16.8262 19.0527 -14.4141 L 21.6797 -11.8066 C 21.9141 -11.5723 21.9434 -11.3867 21.8848 -11.0938 L 21.5039 -9.53125 L 23.0762 -7.95898 L 24.043 -8.04688 C 24.3262 -8.07617 24.4141 -8.05664 24.6387 -7.83203 L 25.2637 -7.20703 L 22.5098 -4.46289 L 21.8848 -5.07812 C 21.6602 -5.30273 21.6406 -5.40039 21.6699 -5.68359 L 21.7578 -6.64062 L 20.1953 -8.20312 L 18.5742 -7.89062 C 18.291 -7.83203 18.1445 -7.83203 17.9102 -8.07617 L 15.7324 -10.2539 C 15.5078 -10.4883 15.4785 -10.625 15.6055 -10.9473 L 16.5527 -13.2227 C 14.9512 -14.7559 12.8418 -15.6055 10.8008 -14.9512 C 10.7129 -14.9219 10.6445 -14.9414 10.6152 -14.9805 C 10.5859 -15.0293 10.5859 -15.0781 10.6738 -15.1465 Z M 4.10156 2.41211 C 3.61328 1.91406 3.78906 1.61133 4.12109 1.30859 L 15.0781 -8.80859 L 16.3086 -7.57812 L 6.15234 3.34961 C 5.84961 3.68164 5.46875 3.7793 5.06836 3.37891 Z"/>
  </g>
  <text style="stroke:none;fill:black;font-family:-apple-system,&quot;SF Pro Display&quot;,&quot;SF Pro Text&quot;,Helvetica,sans-serif;font-weight:bold;" transform="matrix(1 0 0 1 1289 1953)">Exporting</text>
  <text style="stroke:none;fill:black;font-family:-apple-system,&quot;SF Pro Display&quot;,&quot;SF Pro Text&quot;,Helvetica,sans-serif;" transform="matrix(1 0 0 1 1289 1971)">Symbols should be outlined when exporting to ensure the</text>
  <text style="stroke:none;fill:black;font-family:-apple-system,&quot;SF Pro Display&quot;,&quot;SF Pro Text&quot;,Helvetica,sans-serif;" transform="matrix(1 0 0 1 1289 1989)">design is preserved when submitting to Xcode.</text>
  <text id="template-version" style="stroke:none;fill:black;font-family:-apple-system,&quot;SF Pro Display&quot;,&quot;SF Pro Text&quot;,Helvetica,sans-serif;text-anchor:end;" transform="matrix(1 0 0 1 3036 1933)">Template v.1.0</text>
  <text style="stroke:none;fill:black;font-family:-apple-system,&quot;SF Pro Display&quot;,&quot;SF Pro Text&quot;,Helvetica,sans-serif;text-anchor:end;" transform="matrix(1 0 0 1 3036 1951)">Generated from arrow.uturn.right</text>
  <text style="stroke:none;fill:black;font-family:-apple-system,&quot;SF Pro Display&quot;,&quot;SF Pro Text&quot;,Helvetica,sans-serif;text-anchor:end;" transform="matrix(1 0 0 1 3036 1969)">Typeset at 100 points</text>
  <text style="stroke:none;fill:black;font-family:-apple-system,&quot;SF Pro Display&quot;,&quot;SF Pro Text&quot;,Helvetica,sans-serif;" transform="matrix(1 0 0 1 263 726)">Small</text>
  <text style="stroke:none;fill:black;font-family:-apple-system,&quot;SF Pro Display&quot;,&quot;SF Pro Text&quot;,Helvetica,sans-serif;" transform="matrix(1 0 0 1 263 1156)">Medium</text>
  <text style="stroke:none;fill:black;font-family:-apple-system,&quot;SF Pro Display&quot;,&quot;SF Pro Text&quot;,Helvetica,sans-serif;" transform="matrix(1 0 0 1 263 1586)">Large</text>
 </g>
 <g id="Guides">
  <g id="H-reference" style="fill:#27AAE1;stroke:none;" transform="matrix(1 0 0 1 339 696)">
   <path d="M 54.9316 0 L 57.666 0 L 30.5664 -70.459 L 28.0762 -70.459 L 0.976562 0 L 3.66211 0 L 12.9395 -24.4629 L 45.7031 -24.4629 Z M 29.1992 -67.0898 L 29.4434 -67.0898 L 44.8242 -26.709 L 13.8184 -26.709 Z"/>
  </g>
  <line id="Baseline-S" style="fill:none;stroke:#27AAE1;opacity:1;stroke-width:0.577;" x1="263" x2="3036" y1="696" y2="696"/>
  <line id="Capline-S" style="fill:none;stroke:#27AAE1;opacity:1;stroke-width:0.577;" x1="263" x2="3036" y1="625.541" y2="625.541"/>
  <g id="H-reference" style="fill:#27AAE1;stroke:none;" transform="matrix(1 0 0 1 339 1126)">
   <path d="M 54.9316 0 L 57.666 0 L 30.5664 -70.459 L 28.0762 -70.459 L 0.976562 0 L 3.66211 0 L 12.9395 -24.4629 L 45.7031 -24.4629 Z M 29.1992 -67.0898 L 29.4434 -67.0898 L 44.8242 -26.709 L 13.8184 -26.709 Z"/>
  </g>
  <line id="Baseline-M" style="fill:none;stroke:#27AAE1;opacity:1;stroke-width:0.577;" x1="263" x2="3036" y1="1126" y2="1126"/>
  <line id="Capline-M" style="fill:none;stroke:#27AAE1;opacity:1;stroke-width:0.577;" x1="263" x2="3036" y1="1055.54" y2="1055.54"/>
  <g id="H-reference" style="fill:#27AAE1;stroke:none;" transform="matrix(1 0 0 1 339 1556)">
   <path d="M 54.9316 0 L 57.666 0 L 30.5664 -70.459 L 28.0762 -70.459 L 0.976562 0 L 3.66211 0 L 12.9395 -24.4629 L 45.7031 -24.4629 Z M 29.1992 -67.0898 L 29.4434 -67.0898 L 44.8242 -26.709 L 13.8184 -26.709 Z"/>
  </g>
  <line id="Baseline-L" style="fill:none;stroke:#27AAE1;opacity:1;stroke-width:0.577;" x1="263" x2="3036" y1="1556" y2="1556"/>
  <line id="Capline-L" style="fill:none;stroke:#27AAE1;opacity:1;stroke-width:0.577;" x1="263" x2="3036" y1="1485.54" y2="1485.54"/>
  <rect height="119.336" id="left-margin" style="fill:#00AEEF;stroke:none;opacity:0.4;" width="12.4512" x="1391.25" y="1030.79"/>
  <rect height="119.336" id="right-margin" style="fill:#00AEEF;stroke:none;opacity:0.4;" width="12.4512" x="1495.99" y="1030.79"/>
 </g>
 <g id="Symbols">
  <g id="Black-L" transform="matrix(1 0 0 1 2854.25 1556)">
   <path d="M 16.0645 -13.916 C 16.0645 14.9414 34.9121 33.2031 63.2324 33.2031 L 79.7363 33.2031 C 86.3281 33.2031 91.3574 28.125 91.3574 21.7773 C 91.3574 15.4785 86.3281 10.3516 79.7363 10.3516 L 65.0391 10.3516 C 48.7305 10.3516 38.3301 0.292969 38.3301 -14.1113 C 38.3301 -28.5156 48.7305 -38.8184 65.0391 -38.8184 L 93.5059 -38.8184 L 107.227 -39.4531 L 99.4141 -33.2031 L 90.1367 -24.2676 C 87.9883 -22.168 86.4258 -19.6777 86.4258 -16.1133 C 86.4258 -9.96094 90.8203 -5.32227 97.4121 -5.32227 C 100.391 -5.32227 103.32 -6.5918 105.615 -8.83789 L 138.916 -41.8457 C 140.967 -43.8965 142.236 -47.168 142.236 -50.2441 C 142.236 -53.3203 140.967 -56.5918 138.916 -58.6426 L 105.615 -91.6992 C 103.32 -93.9941 100.391 -95.2637 97.4121 -95.2637 C 90.8203 -95.2637 86.4258 -90.5762 86.4258 -84.4238 C 86.4258 -80.8594 87.9883 -78.3691 90.1367 -76.2695 L 99.4141 -67.2852 L 107.227 -61.0352 L 93.5059 -61.6699 L 63.5742 -61.6699 C 35.0586 -61.6699 16.0645 -42.1387 16.0645 -13.916 Z"/>
  </g>
  <g id="Heavy-L" transform="matrix(1 0 0 1 2558.47 1556)">
   <path d="M 16.0645 -13.1348 C 16.0645 14.4043 34.1309 32.0801 62.1582 32.0801 L 78.6133 32.0801 C 84.3262 32.0801 88.623 27.6855 88.623 22.2168 C 88.623 16.7969 84.3262 12.4023 78.6133 12.4023 L 63.5254 12.4023 C 46.0449 12.4023 35.3027 1.66016 35.3027 -13.4277 C 35.3027 -28.5645 46.0449 -39.2578 63.5254 -39.2578 L 96.3867 -39.2578 L 110.4 -39.9414 L 101.416 -32.5684 L 89.7949 -21.2891 C 87.9395 -19.4824 86.6211 -17.334 86.6211 -14.2578 C 86.6211 -8.93555 90.4297 -4.88281 96.1426 -4.88281 C 98.6816 -4.88281 101.27 -6.00586 103.223 -7.95898 L 137.5 -41.8945 C 139.307 -43.6523 140.381 -46.4844 140.381 -49.1211 C 140.381 -51.8066 139.307 -54.5898 137.5 -56.3965 L 103.223 -90.332 C 101.27 -92.334 98.6816 -93.4082 96.1426 -93.4082 C 90.4297 -93.4082 86.6211 -89.4043 86.6211 -84.0332 C 86.6211 -81.0059 87.9395 -78.8086 89.7949 -77.0508 L 101.416 -65.7227 L 110.4 -58.3496 L 96.3867 -58.9844 L 62.5977 -58.9844 C 34.3262 -58.9844 16.0645 -40.2832 16.0645 -13.1348 Z"/>
  </g>
  <g id="Bold-L" transform="matrix(1 0 0 1 2262.78 1556)">
   <path d="M 16.0645 -12.3047 C 16.0645 13.8184 33.3008 30.8105 60.9375 30.8105 L 77.3926 30.8105 C 82.1289 30.8105 85.5957 27.1973 85.5957 22.7051 C 85.5957 18.2617 82.1289 14.6484 77.3926 14.6484 L 61.8652 14.6484 C 43.0664 14.6484 31.9336 3.27148 31.9336 -12.6953 C 31.9336 -28.6133 43.0664 -39.7949 61.8652 -39.7949 L 99.6094 -39.7949 L 113.867 -40.4297 L 103.662 -31.8359 L 89.4043 -17.9199 C 87.8906 -16.4551 86.8652 -14.6484 86.8652 -12.207 C 86.8652 -7.76367 90.0391 -4.44336 94.7266 -4.44336 C 96.8262 -4.44336 98.9746 -5.37109 100.537 -6.93359 L 135.938 -41.8945 C 137.451 -43.457 138.33 -45.7031 138.33 -47.9004 C 138.33 -50.0977 137.451 -52.3438 135.938 -53.8574 L 100.537 -88.8672 C 98.9746 -90.4297 96.8262 -91.3574 94.7266 -91.3574 C 90.0391 -91.3574 86.8652 -88.0371 86.8652 -83.5938 C 86.8652 -81.1523 87.8906 -79.3457 89.4043 -77.8809 L 103.662 -63.916 L 113.867 -55.3711 L 99.6094 -55.957 L 61.5234 -55.957 C 33.5449 -55.957 16.0645 -38.1836 16.0645 -12.3047 Z"/>
  </g>
  <g id="Semibold-L" transform="matrix(1 0 0 1 1966.75 1556)">
   <path d="M 16.0645 -11.7676 C 16.0645 13.4277 32.7148 29.9316 60.1074 29.9316 L 76.5137 29.9316 C 80.5664 29.9316 83.4961 26.8555 83.4961 23.0469 C 83.4961 19.2383 80.6152 16.1621 76.5137 16.1621 L 60.7422 16.1621 C 41.0156 16.1621 29.5898 4.3457 29.5898 -12.1582 C 29.5898 -28.6621 41.0156 -40.1855 60.7422 -40.1855 L 101.807 -40.1855 L 116.211 -40.7715 L 105.225 -31.3477 L 89.1113 -15.5762 C 87.8906 -14.3555 87.0605 -12.8418 87.0605 -10.791 C 87.0605 -6.93359 89.7461 -4.15039 93.75 -4.15039 C 95.5078 -4.15039 97.3633 -4.93164 98.7305 -6.25 L 134.814 -41.9434 C 136.182 -43.2617 136.963 -45.166 136.963 -47.0215 C 136.963 -48.9258 136.182 -50.7812 134.814 -52.0996 L 98.7305 -87.793 C 97.3633 -89.1602 95.5078 -89.9414 93.75 -89.9414 C 89.7461 -89.9414 87.0605 -87.1094 87.0605 -83.3008 C 87.0605 -81.25 87.8906 -79.7363 89.1113 -78.4668 L 105.225 -62.6953 L 116.211 -53.2715 L 101.807 -53.9062 L 60.7422 -53.9062 C 33.0078 -53.9062 16.0645 -36.7676 16.0645 -11.7676 Z"/>
  </g>
  <g id="Medium-L" transform="matrix(1 0 0 1 1670.58 1556)">
   <path d="M 16.0645 -11.3281 C 16.0645 13.1348 32.2754 29.248 59.4727 29.248 L 75.8301 29.248 C 79.3945 29.248 81.8848 26.6113 81.8848 23.291 C 81.8848 20.0195 79.4434 17.3828 75.8789 17.3828 L 59.8633 17.3828 C 39.4531 17.3828 27.832 5.17578 27.832 -11.7676 C 27.832 -28.6621 39.4531 -40.4297 59.8633 -40.4297 L 103.467 -40.4297 L 117.969 -41.0156 L 106.396 -30.957 L 88.916 -13.8672 C 87.8418 -12.793 87.1582 -11.4746 87.1582 -9.66797 C 87.1582 -6.34766 89.502 -3.90625 93.0176 -3.90625 C 94.5312 -3.90625 96.1914 -4.58984 97.3145 -5.76172 L 133.984 -41.9434 C 135.254 -43.1641 135.889 -44.7266 135.889 -46.3867 C 135.889 -47.998 135.254 -49.6094 133.984 -50.7812 L 97.3145 -87.0117 C 96.1914 -88.1836 94.5312 -88.8672 93.0176 -88.8672 C 89.502 -88.8672 87.1582 -86.4258 87.1582 -83.1055 C 87.1582 -81.2988 87.8418 -79.9805 88.916 -78.9062 L 106.396 -61.7676 L 117.969 -51.7578 L 103.467 -52.3438 L 60.2051 -52.3438 C 32.6172 -52.3438 16.0645 -35.6445 16.0645 -11.3281 Z"/>
  </g>
  <g id="Regular-L" transform="matrix(1 0 0 1 1374.58 1556)">
   <path d="M 16.0645 -10.7422 C 16.0645 12.7441 31.7383 28.3691 58.6426 28.3691 L 75 28.3691 C 77.8809 28.3691 79.834 26.2695 79.834 23.6328 C 79.834 21.0449 77.9297 18.8965 75 18.8965 L 58.7402 18.8965 C 37.4023 18.8965 25.5371 6.25 25.5371 -11.2305 C 25.5371 -28.7109 37.4023 -40.7715 58.7402 -40.7715 L 105.664 -40.7715 L 120.215 -41.3574 L 107.91 -30.4688 L 88.623 -11.5723 C 87.793 -10.7422 87.3535 -9.66797 87.3535 -8.30078 C 87.3535 -5.56641 89.209 -3.56445 92.0898 -3.56445 C 93.2617 -3.56445 94.5801 -4.15039 95.5078 -5.07812 L 132.91 -41.9922 C 133.984 -43.0176 134.473 -44.1895 134.473 -45.5566 C 134.473 -46.875 133.984 -48.0469 132.91 -49.0723 L 95.5078 -85.9863 C 94.5801 -86.9141 93.2617 -87.5 92.0898 -87.5 C 89.209 -87.5 87.3535 -85.498 87.3535 -82.8125 C 87.3535 -81.3965 87.793 -80.3223 88.623 -79.4922 L 107.91 -60.5957 L 120.215 -49.707 L 105.664 -50.293 L 59.4727 -50.293 C 32.0801 -50.293 16.0645 -34.2285 16.0645 -10.7422 Z"/>
  </g>
  <g id="Light-L" transform="matrix(1 0 0 1 1078.3 1556)">
   <path d="M 16.0645 -11.377 C 16.0645 11.2305 31.4453 26.2695 56.6895 26.2695 L 75.4395 26.2695 C 77.5879 26.2695 79.0527 24.707 79.0527 22.7539 C 79.0527 20.8008 77.6367 19.1895 75.4883 19.1895 L 56.7871 19.1895 C 35.6934 19.1895 23.1445 6.44531 23.1445 -11.6699 C 23.1445 -29.834 35.6934 -42.2363 56.7871 -42.2363 L 108.789 -42.2363 L 122.949 -42.627 L 110.156 -30.9082 L 89.3555 -10.3027 C 88.7695 -9.7168 88.4277 -8.83789 88.4277 -7.8125 C 88.4277 -5.81055 89.8438 -4.29688 91.9922 -4.29688 C 92.8711 -4.29688 93.8477 -4.73633 94.5312 -5.41992 L 132.422 -43.1152 C 133.203 -43.8477 133.594 -44.7266 133.594 -45.752 C 133.594 -46.7773 133.203 -47.6562 132.422 -48.3887 L 94.5312 -86.084 C 93.8477 -86.8164 92.8711 -87.207 91.9922 -87.207 C 89.8438 -87.207 88.4277 -85.6934 88.4277 -83.6914 C 88.4277 -82.666 88.7695 -81.7871 89.3555 -81.2012 L 110.156 -60.6445 L 122.949 -48.877 L 108.789 -49.3164 L 57.1777 -49.3164 C 31.6895 -49.3164 16.0645 -33.9844 16.0645 -11.377 Z"/>
  </g>
  <g id="Thin-L" transform="matrix(1 0 0 1 782.179 1556)">
   <path d="M 16.0645 -12.207 C 16.0645 9.22852 31.1035 23.5352 54.0527 23.5352 L 76.0742 23.5352 C 77.1973 23.5352 78.0273 22.7051 78.0273 21.582 C 78.0273 20.459 77.2949 19.6289 76.123 19.6289 L 54.1992 19.6289 C 33.4473 19.6289 19.9707 6.78711 19.9707 -12.2559 C 19.9707 -31.3477 33.4473 -44.0918 54.1992 -44.0918 L 112.842 -44.0918 L 126.367 -44.3359 L 113.135 -31.4453 L 90.332 -8.69141 C 90.0391 -8.34961 89.8438 -7.8125 89.8438 -7.22656 C 89.8438 -6.15234 90.625 -5.27344 91.8457 -5.27344 C 92.4316 -5.27344 92.8711 -5.46875 93.2617 -5.85938 L 131.787 -44.6289 C 132.227 -45.0195 132.422 -45.459 132.422 -46.0449 C 132.422 -46.6309 132.227 -47.0703 131.787 -47.5098 L 93.2617 -86.2305 C 92.8711 -86.6211 92.4316 -86.8164 91.8457 -86.8164 C 90.625 -86.8164 89.8438 -85.9375 89.8438 -84.9121 C 89.8438 -84.2773 90.0391 -83.7402 90.332 -83.3984 L 113.135 -60.6934 L 126.367 -47.8027 L 112.842 -47.998 L 54.1992 -47.998 C 31.1523 -47.998 16.0645 -33.6426 16.0645 -12.207 Z"/>
  </g>
  <g id="Ultralight-L" transform="matrix(1 0 0 1 485.761 1556)">
   <path d="M 16.0645 -12.6465 C 16.0645 8.25195 30.957 22.1191 52.7344 22.1191 L 76.3672 22.1191 C 77.002 22.1191 77.4902 21.6309 77.4902 20.9961 C 77.4902 20.3125 77.0996 19.8242 76.4648 19.8242 L 52.9297 19.8242 C 32.3242 19.8242 18.3105 6.93359 18.3105 -12.5977 C 18.3105 -32.0801 32.3242 -45.0684 52.9297 -45.0684 L 114.941 -45.0684 L 128.076 -45.166 L 114.697 -31.6895 L 90.8691 -7.86133 C 90.6738 -7.66602 90.5762 -7.27539 90.5762 -6.88477 C 90.5762 -6.29883 91.0645 -5.76172 91.7969 -5.76172 C 92.1875 -5.76172 92.3828 -5.85938 92.627 -6.10352 L 131.494 -45.3613 C 131.689 -45.6055 131.836 -45.8008 131.836 -46.1914 C 131.836 -46.582 131.689 -46.7773 131.494 -47.0215 L 92.627 -86.2793 C 92.3828 -86.5234 92.1875 -86.6699 91.7969 -86.6699 C 91.0645 -86.6699 90.5762 -86.084 90.5762 -85.498 C 90.5762 -85.1562 90.6738 -84.7168 90.8691 -84.5703 L 114.697 -60.6934 L 128.076 -47.2656 L 114.941 -47.3145 L 52.6367 -47.3145 C 30.9082 -47.3145 16.0645 -33.4961 16.0645 -12.6465 Z"/>
  </g>
  <g id="Black-M" transform="matrix(1 0 0 1 2871.07 1126)">
   <path d="M 12.4512 -20.0195 C 12.4512 3.56445 27.9297 18.2617 49.3652 18.2617 L 63.5742 18.2617 C 69.4336 18.2617 74.0234 13.623 74.0234 7.91016 C 74.0234 2.14844 69.4336 -2.44141 63.5742 -2.44141 L 51.3672 -2.44141 C 40.4785 -2.44141 32.5195 -9.47266 32.5195 -20.0195 C 32.5195 -30.5664 40.4785 -38.1348 51.3672 -38.1348 L 70.2148 -38.1348 L 80.4688 -38.623 L 75.5371 -34.7168 L 70.752 -30.127 C 68.7988 -28.2227 67.2363 -25.9766 67.2363 -22.6562 C 67.2363 -17.1875 71.2402 -12.9395 77.1484 -12.9395 C 79.8828 -12.9395 82.4707 -14.1113 84.5215 -16.1621 L 109.326 -40.918 C 111.084 -42.6758 112.207 -45.7031 112.207 -48.4863 C 112.207 -51.2695 111.084 -54.2969 109.326 -56.0547 L 84.5215 -80.8594 C 82.4707 -82.9102 79.8828 -84.082 77.1484 -84.082 C 71.2402 -84.082 67.2363 -79.834 67.2363 -74.3652 C 67.2363 -71.0938 68.7988 -68.7988 70.752 -66.8945 L 75.5371 -62.2559 L 80.4688 -58.3496 L 70.2148 -58.8379 L 49.3652 -58.8379 C 27.9297 -58.8379 12.4512 -43.0176 12.4512 -20.0195 Z"/>
  </g>
  <g id="Heavy-M" transform="matrix(1 0 0 1 2575.24 1126)">
   <path d="M 12.4512 -19.043 C 12.4512 3.36914 27.1484 17.5293 48.7305 17.5293 L 62.207 17.5293 C 67.334 17.5293 71.2891 13.5742 71.2891 8.59375 C 71.2891 3.66211 67.334 -0.341797 62.207 -0.341797 L 50.2441 -0.341797 C 37.9883 -0.341797 29.834 -8.00781 29.834 -19.1895 C 29.834 -30.3223 37.9883 -38.2812 50.2441 -38.2812 L 72.5586 -38.2812 L 83.1543 -38.7695 L 77.1484 -33.9355 L 70.166 -27.1484 C 68.457 -25.5371 67.2363 -23.584 67.2363 -20.752 C 67.2363 -15.9668 70.6543 -12.3535 75.7812 -12.3535 C 78.125 -12.3535 80.3711 -13.3301 82.1777 -15.0879 L 107.91 -40.6738 C 109.473 -42.2363 110.449 -44.8242 110.449 -47.2168 C 110.449 -49.6094 109.473 -52.1973 107.91 -53.7598 L 82.1777 -79.3457 C 80.3711 -81.1523 78.125 -82.1289 75.7812 -82.1289 C 70.6543 -82.1289 67.2363 -78.4668 67.2363 -73.6816 C 67.2363 -70.8984 68.457 -68.9453 70.166 -67.2852 L 77.1484 -60.498 L 83.1543 -55.6641 L 72.5586 -56.1523 L 48.877 -56.1523 C 27.2461 -56.1523 12.4512 -41.0156 12.4512 -19.043 Z"/>
  </g>
  <g id="Bold-M" transform="matrix(1 0 0 1 2279.53 1126)">
   <path d="M 12.4512 -17.9688 C 12.4512 3.17383 26.3184 16.748 47.998 16.748 L 60.6934 16.748 C 64.9902 16.748 68.1641 13.4766 68.1641 9.42383 C 68.1641 5.32227 64.9902 2.05078 60.7422 2.05078 L 48.9746 2.05078 C 35.2051 2.05078 26.8555 -6.34766 26.8555 -18.2129 C 26.8555 -30.0781 35.2051 -38.4277 48.9746 -38.4277 L 75.1953 -38.4277 L 86.1328 -38.916 L 78.9551 -33.0078 L 69.4824 -23.877 C 68.1152 -22.5098 67.1875 -20.8984 67.1875 -18.6523 C 67.1875 -14.6484 70.0195 -11.6211 74.2676 -11.6211 C 76.1719 -11.6211 78.0762 -12.4512 79.541 -13.916 L 106.299 -40.3809 C 107.666 -41.6992 108.447 -43.7988 108.447 -45.8008 C 108.447 -47.7539 107.666 -49.8535 106.299 -51.2207 L 79.541 -77.6855 C 78.0762 -79.1504 76.1719 -79.9805 74.2676 -79.9805 C 70.0195 -79.9805 67.1875 -76.9531 67.1875 -72.9492 C 67.1875 -70.7031 68.1152 -69.0918 69.4824 -67.7734 L 78.9551 -58.5449 L 86.1328 -52.6367 L 75.1953 -53.125 L 48.3398 -53.125 C 26.4648 -53.125 12.4512 -38.7695 12.4512 -17.9688 Z"/>
  </g>
  <g id="Semibold-M" transform="matrix(1 0 0 1 1983.48 1126)">
   <path d="M 12.4512 -17.2363 C 12.4512 3.02734 25.7324 16.2109 47.4609 16.2109 L 59.668 16.2109 C 63.3789 16.2109 66.0156 13.3789 66.0156 9.96094 C 66.0156 6.49414 63.3789 3.66211 59.668 3.66211 L 48.1445 3.66211 C 33.3008 3.66211 24.7559 -5.22461 24.7559 -17.5293 C 24.7559 -29.8828 33.3008 -38.5254 48.1445 -38.5254 L 77.002 -38.5254 L 88.1348 -39.0625 L 80.1758 -32.4219 L 69.043 -21.582 C 67.9199 -20.459 67.1387 -19.0918 67.1387 -17.1875 C 67.1387 -13.7207 69.5801 -11.1328 73.2422 -11.1328 C 74.8047 -11.1328 76.5137 -11.8652 77.7344 -13.0859 L 105.176 -40.1855 C 106.445 -41.3574 107.129 -43.1152 107.129 -44.8242 C 107.129 -46.4844 106.445 -48.2422 105.176 -49.4141 L 77.7344 -76.5625 C 76.5137 -77.7832 74.8047 -78.4668 73.2422 -78.4668 C 69.5801 -78.4668 67.1387 -75.9277 67.1387 -72.4609 C 67.1387 -70.5566 67.9199 -69.1895 69.043 -68.0664 L 80.1758 -57.2266 L 88.1348 -50.5859 L 77.002 -51.0742 L 47.998 -51.0742 C 25.9766 -51.0742 12.4512 -37.2559 12.4512 -17.2363 Z"/>
  </g>
  <g id="Medium-M" transform="matrix(1 0 0 1 1687.3 1126)">
   <path d="M 12.4512 -16.6504 C 12.4512 2.92969 25.293 15.7715 47.0703 15.7715 L 58.8867 15.7715 C 62.1582 15.7715 64.4043 13.3301 64.4043 10.3516 C 64.4043 7.37305 62.1582 4.93164 58.8867 4.93164 L 47.4609 4.93164 C 31.8359 4.93164 23.1934 -4.3457 23.1934 -17.041 C 23.1934 -29.7363 31.8359 -38.623 47.4609 -38.623 L 78.3691 -38.623 L 89.6484 -39.1113 L 81.1035 -31.9336 L 68.7012 -19.8242 C 67.7246 -18.8477 67.1387 -17.6758 67.1387 -16.0645 C 67.1387 -12.9883 69.2383 -10.791 72.4609 -10.791 C 73.7793 -10.791 75.293 -11.4258 76.3672 -12.4512 L 104.346 -40.0391 C 105.469 -41.1133 106.055 -42.5781 106.055 -44.043 C 106.055 -45.5566 105.469 -47.0215 104.346 -48.0957 L 76.3672 -75.6836 C 75.293 -76.709 73.7793 -77.3438 72.4609 -77.3438 C 69.2383 -77.3438 67.1387 -75.1465 67.1387 -72.0703 C 67.1387 -70.459 67.7246 -69.2383 68.7012 -68.3105 L 81.1035 -56.2012 L 89.6484 -48.9746 L 78.3691 -49.5117 L 47.7051 -49.5117 C 25.5859 -49.5117 12.4512 -36.084 12.4512 -16.6504 Z"/>
  </g>
  <g id="Regular-M" transform="matrix(1 0 0 1 1391.25 1126)">
   <path d="M 12.4512 -15.918 C 12.4512 2.7832 24.707 15.2344 46.582 15.2344 L 57.8613 15.2344 C 60.5469 15.2344 62.3047 13.2812 62.3047 10.8887 C 62.3047 8.49609 60.5469 6.54297 57.8613 6.54297 L 46.6309 6.54297 C 29.9805 6.54297 21.1426 -3.22266 21.1426 -16.4062 C 21.1426 -29.541 29.9805 -38.7207 46.6309 -38.7207 L 80.127 -38.7207 L 91.6016 -39.209 L 82.3242 -31.2988 L 68.2617 -17.5781 C 67.4805 -16.7969 67.0898 -15.8691 67.0898 -14.5996 C 67.0898 -12.0605 68.7988 -10.3027 71.3867 -10.3027 C 72.4609 -10.3027 73.7305 -10.791 74.5605 -11.6699 L 103.271 -39.8438 C 104.248 -40.7715 104.736 -41.8945 104.736 -43.0664 C 104.736 -44.2871 104.248 -45.4102 103.271 -46.3379 L 74.5605 -74.5117 C 73.7305 -75.3418 72.4609 -75.8789 71.3867 -75.8789 C 68.7988 -75.8789 67.0898 -74.1211 67.0898 -71.582 C 67.0898 -70.3125 67.4805 -69.3848 68.2617 -68.6035 L 82.3242 -54.834 L 91.6016 -46.9238 L 80.127 -47.4609 L 47.3633 -47.4609 C 25.0488 -47.4609 12.4512 -34.5703 12.4512 -15.918 Z"/>
  </g>
  <g id="Light-M" transform="matrix(1 0 0 1 1094.93 1126)">
   <path d="M 12.4512 -16.4551 C 12.4512 1.46484 24.5117 13.3789 44.8242 13.3789 L 58.252 13.3789 C 60.2539 13.3789 61.6211 11.9141 61.6211 10.1074 C 61.6211 8.30078 60.3027 6.83594 58.3008 6.83594 L 44.873 6.83594 C 28.418 6.83594 18.9941 -3.02734 18.9941 -16.7969 C 18.9941 -30.5664 28.418 -39.9902 44.873 -39.9902 L 82.9102 -39.9902 L 94.0918 -40.3809 L 84.375 -31.6895 L 68.9453 -16.4551 C 68.3594 -15.918 68.0664 -15.1367 68.0664 -14.209 C 68.0664 -12.3047 69.3359 -10.9375 71.3379 -10.9375 C 72.168 -10.9375 73.0957 -11.3281 73.7305 -11.9629 L 102.832 -40.8203 C 103.564 -41.5527 103.955 -42.3828 103.955 -43.3105 C 103.955 -44.1895 103.564 -45.0195 102.832 -45.752 L 73.7305 -74.6094 C 73.0957 -75.2441 72.168 -75.6348 71.3379 -75.6348 C 69.3359 -75.6348 68.0664 -74.2676 68.0664 -72.3633 C 68.0664 -71.4355 68.3594 -70.6543 68.9453 -70.1172 L 84.375 -54.8828 L 94.0918 -46.1914 L 82.9102 -46.582 L 45.3125 -46.582 C 24.707 -46.582 12.4512 -34.375 12.4512 -16.4551 Z"/>
  </g>
  <g id="Thin-M" transform="matrix(1 0 0 1 798.756 1126)">
   <path d="M 12.4512 -17.1875 C 12.4512 -0.341797 24.1699 10.8887 42.4805 10.8887 L 58.7891 10.8887 C 59.9121 10.8887 60.6934 10.1074 60.6934 9.0332 C 60.6934 8.00781 59.9609 7.17773 58.8867 7.17773 L 42.5781 7.17773 C 26.416 7.17773 16.1621 -2.73438 16.1621 -17.334 C 16.1621 -31.8848 26.416 -41.6992 42.5781 -41.6992 L 86.5723 -41.6992 L 97.2168 -41.8945 L 87.0605 -32.1777 L 69.8242 -14.9902 C 69.4824 -14.6973 69.3359 -14.209 69.3359 -13.623 C 69.3359 -12.5977 70.0684 -11.8164 71.1914 -11.8164 C 71.7285 -11.8164 72.2168 -12.0117 72.5586 -12.4023 L 102.295 -42.1875 C 102.686 -42.5781 102.881 -43.0176 102.881 -43.5547 C 102.881 -44.0918 102.686 -44.5312 102.295 -44.9219 L 72.5586 -74.707 C 72.2168 -75.0977 71.7285 -75.293 71.1914 -75.293 C 70.0684 -75.293 69.3359 -74.4629 69.3359 -73.4375 C 69.3359 -72.9004 69.4824 -72.4121 69.8242 -72.0703 L 87.0605 -54.9316 L 97.2168 -45.166 L 86.5723 -45.4102 L 42.627 -45.4102 C 24.2676 -45.4102 12.4512 -34.082 12.4512 -17.1875 Z"/>
  </g>
  <g id="Ultralight-M" transform="matrix(1 0 0 1 502.314 1126)">
   <path d="M 12.4512 -17.5781 C 12.4512 -1.2207 24.0234 9.61914 41.2598 9.61914 L 59.082 9.61914 C 59.7168 9.61914 60.2051 9.17969 60.2051 8.49609 C 60.2051 7.86133 59.8145 7.37305 59.1797 7.37305 L 41.4062 7.37305 C 25.3906 7.37305 14.6973 -2.58789 14.6973 -17.5781 C 14.6973 -32.5684 25.3906 -42.5781 41.4062 -42.5781 L 88.4766 -42.5781 L 98.7793 -42.6758 L 88.4277 -32.4219 L 70.2637 -14.2578 C 70.0684 -14.0625 69.9707 -13.7207 69.9707 -13.3789 C 69.9707 -12.793 70.459 -12.2559 71.1426 -12.2559 C 71.5332 -12.2559 71.7285 -12.3535 71.9727 -12.5977 L 102.002 -42.8711 C 102.246 -43.1152 102.344 -43.3105 102.344 -43.7012 C 102.344 -44.043 102.246 -44.2871 102.002 -44.5312 L 71.9727 -74.7559 C 71.7285 -75 71.5332 -75.1465 71.1426 -75.1465 C 70.459 -75.1465 69.9707 -74.6094 69.9707 -74.0234 C 69.9707 -73.6328 70.0684 -73.291 70.2637 -73.0957 L 88.4277 -54.9805 L 98.7793 -44.6777 L 88.4766 -44.8242 L 41.2598 -44.8242 C 24.0234 -44.8242 12.4512 -33.9355 12.4512 -17.5781 Z"/>
  </g>
  <g id="Black-S" transform="matrix(1 0 0 1 2884.62 696)">
   <path d="M 9.76562 -23.2422 C 9.76562 -4.83398 21.8262 6.64062 38.6719 6.64062 L 49.707 6.64062 C 54.248 6.64062 57.8125 3.07617 57.8125 -1.36719 C 57.8125 -5.81055 54.248 -9.375 49.707 -9.375 L 40.1855 -9.375 C 31.543 -9.375 25.293 -14.9414 25.293 -23.2422 C 25.293 -31.543 31.543 -37.5 40.1855 -37.5 L 55.1758 -37.5 L 63.2324 -37.8906 L 59.2773 -34.7656 L 55.3711 -31.0059 C 53.8574 -29.541 52.6855 -27.7832 52.6855 -25.2441 C 52.6855 -20.9961 55.7617 -17.7246 60.3516 -17.7246 C 62.4512 -17.7246 64.4531 -18.6035 66.0645 -20.2148 L 85.5469 -39.6484 C 86.9141 -41.0156 87.793 -43.3594 87.793 -45.5078 C 87.793 -47.6562 86.9141 -50 85.5469 -51.3672 L 66.0645 -70.8496 C 64.4531 -72.4609 62.4512 -73.3398 60.3516 -73.3398 C 55.7617 -73.3398 52.6855 -70.0684 52.6855 -65.8203 C 52.6855 -63.2812 53.8574 -61.5234 55.3711 -60.0586 L 59.2773 -56.25 L 63.2324 -53.125 L 55.1758 -53.5156 L 38.6719 -53.5156 C 21.8262 -53.5156 9.76562 -41.1621 9.76562 -23.2422 Z"/>
  </g>
  <g id="Heavy-S" transform="matrix(1 0 0 1 2588.54 696)">
   <path d="M 9.76562 -22.4121 C 9.76562 -4.83398 21.2891 6.29883 38.3789 6.29883 L 48.6328 6.29883 C 52.6855 6.29883 55.7617 3.17383 55.7617 -0.732422 C 55.7617 -4.63867 52.6855 -7.76367 48.6328 -7.76367 L 39.502 -7.76367 C 29.834 -7.76367 23.4863 -13.8184 23.4863 -22.5586 C 23.4863 -31.25 29.834 -37.4512 39.502 -37.4512 L 56.6406 -37.4512 L 64.9902 -37.8418 L 60.3027 -34.1309 L 54.834 -28.8574 C 53.5156 -27.5879 52.5391 -26.0254 52.5391 -23.8281 C 52.5391 -20.0684 55.2734 -17.1875 59.3262 -17.1875 C 61.1328 -17.1875 62.9395 -17.9688 64.3555 -19.3848 L 84.5215 -39.3555 C 85.7422 -40.5762 86.5234 -42.627 86.5234 -44.5312 C 86.5234 -46.3867 85.7422 -48.4375 84.5215 -49.707 L 64.3555 -69.6777 C 62.9395 -71.0938 61.1328 -71.875 59.3262 -71.875 C 55.2734 -71.875 52.5391 -68.9941 52.5391 -65.2344 C 52.5391 -63.0371 53.5156 -61.4746 54.834 -60.2051 L 60.3027 -54.9316 L 64.9902 -51.1719 L 56.6406 -51.5625 L 38.5254 -51.5625 C 21.3379 -51.5625 9.76562 -39.6484 9.76562 -22.4121 Z"/>
  </g>
  <g id="Bold-S" transform="matrix(1 0 0 1 2292.54 696)">
   <path d="M 9.76562 -21.5332 C 9.76562 -4.83398 20.6543 5.95703 38.0371 5.95703 L 47.4121 5.95703 C 50.9277 5.95703 53.4668 3.27148 53.4668 -0.0488281 C 53.4668 -3.32031 50.9277 -6.00586 47.4121 -6.00586 L 38.7695 -6.00586 C 27.8809 -6.00586 21.4844 -12.5977 21.4844 -21.7773 C 21.4844 -30.9082 27.8809 -37.4512 38.7695 -37.4512 L 58.3008 -37.4512 L 66.8945 -37.8418 L 61.4258 -33.3984 L 54.2969 -26.4648 C 53.1738 -25.3906 52.3926 -24.0723 52.3926 -22.2656 C 52.3926 -18.9941 54.6875 -16.5527 58.1543 -16.5527 C 59.7168 -16.5527 61.2793 -17.2363 62.4512 -18.4082 L 83.3496 -39.0137 C 84.4727 -40.0879 85.1074 -41.7969 85.1074 -43.4082 C 85.1074 -45.0195 84.4727 -46.6797 83.3496 -47.8027 L 62.4512 -68.4082 C 61.2793 -69.5801 59.7168 -70.2637 58.1543 -70.2637 C 54.6875 -70.2637 52.3926 -67.8223 52.3926 -64.5508 C 52.3926 -62.7441 53.1738 -61.4258 54.2969 -60.3516 L 61.4258 -53.418 L 66.8945 -48.9746 L 58.3008 -49.3652 L 38.3789 -49.3652 C 20.8008 -49.3652 9.76562 -37.9883 9.76562 -21.5332 Z"/>
  </g>
  <g id="Semibold-S" transform="matrix(1 0 0 1 1996.32 696)">
   <path d="M 9.76562 -20.8984 C 9.76562 -4.78516 20.2148 5.66406 37.793 5.66406 L 46.582 5.66406 C 49.707 5.66406 51.9043 3.32031 51.9043 0.439453 C 51.9043 -2.44141 49.707 -4.78516 46.582 -4.78516 L 38.2812 -4.78516 C 26.5625 -4.78516 20.0684 -11.7676 20.0684 -21.2402 C 20.0684 -30.6641 26.5625 -37.4023 38.2812 -37.4023 L 59.4727 -37.4023 L 68.2129 -37.8418 L 62.207 -32.8613 L 53.8574 -24.8047 C 52.9297 -23.877 52.2949 -22.7539 52.2949 -21.1914 C 52.2949 -18.2617 54.2969 -16.1133 57.373 -16.1133 C 58.6914 -16.1133 60.1074 -16.748 61.1328 -17.7734 L 82.5195 -38.7695 C 83.5938 -39.7461 84.1309 -41.2109 84.1309 -42.627 C 84.1309 -44.043 83.5938 -45.5078 82.5195 -46.4844 L 61.1328 -67.5293 C 60.1074 -68.5547 58.6914 -69.1406 57.373 -69.1406 C 54.2969 -69.1406 52.2949 -67.041 52.2949 -64.1113 C 52.2949 -62.5488 52.9297 -61.377 53.8574 -60.4492 L 62.207 -52.3926 L 68.2129 -47.4609 L 59.4727 -47.8516 L 38.2812 -47.8516 C 20.459 -47.8516 9.76562 -36.8652 9.76562 -20.8984 Z"/>
  </g>
  <g id="Medium-S" transform="matrix(1 0 0 1 1699.97 696)">
   <path d="M 9.76562 -20.4102 C 9.76562 -4.78516 19.9219 5.46875 37.5977 5.46875 L 45.9473 5.46875 C 48.7793 5.46875 50.7324 3.36914 50.7324 0.830078 C 50.7324 -1.75781 48.7793 -3.85742 45.9473 -3.85742 L 37.8906 -3.85742 C 25.5371 -3.85742 18.9941 -11.1328 18.9941 -20.8008 C 18.9941 -30.5176 25.5371 -37.4023 37.8906 -37.4023 L 60.3516 -37.4023 L 69.2383 -37.793 L 62.793 -32.4707 L 53.5645 -23.584 C 52.7344 -22.7539 52.1973 -21.7285 52.1973 -20.3613 C 52.1973 -17.7246 54.0527 -15.8203 56.7871 -15.8203 C 57.9102 -15.8203 59.2285 -16.3574 60.1562 -17.2363 L 81.9336 -38.5742 C 82.9102 -39.502 83.3984 -40.7715 83.3984 -42.041 C 83.3984 -43.3105 82.9102 -44.5801 81.9336 -45.5078 L 60.1562 -66.8457 C 59.2285 -67.7734 57.9102 -68.3105 56.7871 -68.3105 C 54.0527 -68.3105 52.1973 -66.4062 52.1973 -63.7695 C 52.1973 -62.4023 52.7344 -61.377 53.5645 -60.5469 L 62.793 -51.6113 L 69.2383 -46.2891 L 60.3516 -46.7285 L 38.2324 -46.7285 C 20.166 -46.7285 9.76562 -35.9863 9.76562 -20.4102 Z"/>
  </g>
  <g id="Regular-S" transform="matrix(1 0 0 1 1403.75 696)">
   <path d="M 9.76562 -19.8242 C 9.76562 -4.78516 19.4824 5.22461 37.3535 5.22461 L 45.1172 5.22461 C 47.5586 5.22461 49.1699 3.4668 49.1699 1.26953 C 49.1699 -0.878906 47.5586 -2.63672 45.1172 -2.63672 L 37.3535 -2.63672 C 24.2188 -2.63672 17.627 -10.2539 17.627 -20.2637 C 17.627 -30.2734 24.2188 -37.3535 37.3535 -37.3535 L 61.4746 -37.3535 L 70.5078 -37.793 L 63.5254 -31.9824 L 53.1738 -21.9238 C 52.4902 -21.2402 52.0996 -20.4102 52.0996 -19.2871 C 52.0996 -16.9922 53.6621 -15.3809 56.0059 -15.3809 C 56.9336 -15.3809 58.1055 -15.8691 58.8379 -16.6016 L 81.1523 -38.3301 C 82.0312 -39.1602 82.4219 -40.2344 82.4219 -41.3086 C 82.4219 -42.3828 82.0312 -43.4082 81.1523 -44.2383 L 58.8379 -65.9668 C 58.1055 -66.748 56.9336 -67.1875 56.0059 -67.1875 C 53.6621 -67.1875 52.0996 -65.625 52.0996 -63.3301 C 52.0996 -62.207 52.4902 -61.3281 53.1738 -60.6445 L 63.5254 -50.5859 L 70.5078 -44.7754 L 61.4746 -45.2148 L 38.1348 -45.2148 C 19.8242 -45.2148 9.76562 -34.8145 9.76562 -19.8242 Z"/>
  </g>
  <g id="Light-S" transform="matrix(1 0 0 1 1107.38 696)">
   <path d="M 9.76562 -20.3125 C 9.76562 -6.00586 19.2871 3.56445 35.791 3.56445 L 45.5078 3.56445 C 47.3145 3.56445 48.5352 2.24609 48.5352 0.585938 C 48.5352 -1.07422 47.3633 -2.39258 45.5078 -2.39258 L 35.8398 -2.39258 C 22.9004 -2.39258 15.7227 -10.0586 15.7227 -20.6055 C 15.7227 -31.2012 22.9004 -38.4766 35.8398 -38.4766 L 63.916 -38.4766 L 72.7539 -38.8184 L 65.332 -32.3242 L 53.7598 -20.9473 C 53.2227 -20.459 52.9297 -19.7754 52.9297 -18.8965 C 52.9297 -17.1875 54.1504 -15.9668 55.9082 -15.9668 C 56.6406 -15.9668 57.5195 -16.3086 58.1055 -16.8945 L 80.7617 -39.2578 C 81.4453 -39.8926 81.7383 -40.625 81.7383 -41.4551 C 81.7383 -42.2852 81.4453 -43.0664 80.7617 -43.7012 L 58.1055 -66.0645 C 57.5195 -66.6504 56.6406 -66.9922 55.9082 -66.9922 C 54.1504 -66.9922 52.9297 -65.7715 52.9297 -64.0137 C 52.9297 -63.1836 53.2227 -62.5 53.7598 -61.9629 L 65.332 -50.6348 L 72.7539 -44.0918 L 63.916 -44.4336 L 36.3281 -44.4336 C 19.5312 -44.4336 9.76562 -34.6191 9.76562 -20.3125 Z"/>
  </g>
  <g id="Thin-S" transform="matrix(1 0 0 1 811.134 696)">
   <path d="M 9.76562 -20.9473 C 9.76562 -7.56836 19.043 1.36719 33.7402 1.36719 L 45.9961 1.36719 C 47.0215 1.36719 47.7539 0.634766 47.7539 -0.341797 C 47.7539 -1.31836 47.0703 -2.05078 45.9961 -2.05078 L 33.7891 -2.05078 C 21.0938 -2.05078 13.2324 -9.81445 13.2324 -21.0938 C 13.2324 -32.373 21.0938 -39.9902 33.7891 -39.9902 L 67.1387 -39.9902 L 75.5859 -40.1855 L 67.6758 -32.7148 L 54.541 -19.6777 C 54.248 -19.3848 54.0527 -18.9453 54.0527 -18.4082 C 54.0527 -17.4316 54.7852 -16.6992 55.8105 -16.6992 C 56.2988 -16.6992 56.7383 -16.8945 57.0801 -17.2363 L 80.2734 -40.4297 C 80.6152 -40.7715 80.8105 -41.2109 80.8105 -41.6992 C 80.8105 -42.1875 80.6152 -42.627 80.2734 -42.9688 L 57.0801 -66.1621 C 56.7383 -66.5039 56.2988 -66.6992 55.8105 -66.6992 C 54.7852 -66.6992 54.0527 -65.918 54.0527 -64.9902 C 54.0527 -64.4531 54.248 -64.0137 54.541 -63.7207 L 67.6758 -50.6348 L 75.5859 -43.2129 L 67.1387 -43.4082 L 33.9355 -43.4082 C 19.0918 -43.4082 9.76562 -34.375 9.76562 -20.9473 Z"/>
  </g>
  <g id="Ultralight-S" transform="matrix(1 0 0 1 514.667 696)">
   <path d="M 9.76562 -21.2891 C 9.76562 -8.34961 18.8965 0.244141 32.666 0.244141 L 46.2402 0.244141 C 46.875 0.244141 47.3145 -0.195312 47.3145 -0.830078 C 47.3145 -1.41602 46.9238 -1.9043 46.2891 -1.9043 L 32.7637 -1.9043 C 20.166 -1.9043 11.9141 -9.7168 11.9141 -21.3379 C 11.9141 -32.959 20.166 -40.7227 32.7637 -40.7227 L 68.7988 -40.7227 L 76.9531 -40.8691 L 68.8965 -32.959 L 54.9316 -18.9941 C 54.7852 -18.8477 54.6387 -18.5059 54.6387 -18.1641 C 54.6387 -17.5781 55.0781 -17.0898 55.7617 -17.0898 C 56.1035 -17.0898 56.3477 -17.2363 56.543 -17.4316 L 79.9805 -41.0156 C 80.2246 -41.2598 80.3223 -41.5039 80.3223 -41.7969 C 80.3223 -42.1387 80.2246 -42.3828 79.9805 -42.627 L 56.543 -66.2109 C 56.3477 -66.4062 56.1035 -66.5527 55.7617 -66.5527 C 55.0781 -66.5527 54.6387 -66.0645 54.6387 -65.4785 C 54.6387 -65.1367 54.7852 -64.7949 54.9316 -64.6484 L 68.8965 -50.6836 L 76.9531 -42.7734 L 68.7988 -42.8711 L 32.7148 -42.8711 C 18.8965 -42.8711 9.76562 -34.2773 9.76562 -21.2891 Z"/>
  </g>
 </g>
</svg>
