<svg xmlns="http://www.w3.org/2000/svg" width="16" height="16"><path d="M 6.5,1.0 C 6.361,1.0 6.237,1.056 6.146,1.146 L 3.147,4.146 C 3.056,4.237 3.0,4.362 3.0,4.5 C 3.0,4.776 3.223,4.999 3.499,5.0 L 5.0,5.0 L 2.205,7.096 C 2.081,7.188 2.0,7.334 2.0,7.5 C 2.0,7.776 2.223,7.999 2.499,8.0 L 5.293,8.0 L 3.146,10.146 C 3.056,10.237 3.0,10.362 3.0,10.5 C 3.0,10.776 3.223,11.0 3.499,11.0 L 5.691,11.0 L 4.057,14.267 C 4.021,14.337 4.0,14.416 4.0,14.5 C 4.0,14.776 4.224,15.0 4.5,15.0 C 4.7,15.0 4.872,14.883 4.952,14.714 L 5.309,14.0 L 9.691,14.0 L 10.048,14.714 C 10.128,14.883 10.3,15.0 10.5,15.0 C 10.776,15.0 11.0,14.776 11.0,14.5 C 11.0,14.416 10.979,14.337 10.943,14.267 L 9.309,11.0 L 11.5,11.0 C 11.777,11.0 12.0,10.776 12.0,10.5 C 12.0,10.362 11.944,10.237 11.854,10.146 L 9.707,8.0 L 12.5,8.0 C 12.777,7.999 13.0,7.776 13.0,7.5 C 13.0,7.334 12.919,7.188 12.795,7.097 L 10.0,5.0 L 11.5,5.0 C 11.777,4.999 12.0,4.776 12.0,4.5 C 12.0,4.362 11.944,4.237 11.854,4.146 L 8.854,1.147 C 8.763,1.056 8.639,1.0 8.501,1.0 L 6.5,1.0 M 7.0,4.0 L 7.0,2.0 L 8.0,2.0 L 8.0,4.0 L 7.0,4.0 M 9.0,4.0 L 9.0,2.707 L 10.293,4.0 L 9.0,4.0 M 4.707,4.0 L 6.0,2.707 L 6.0,4.0 L 4.707,4.0 M 7.0,7.0 L 7.0,5.0 L 8.0,5.0 L 8.0,7.0 L 7.0,7.0 M 4.0,7.0 L 6.0,5.5 L 6.0,7.0 L 4.0,7.0 M 9.0,7.0 L 9.0,5.5 L 11.0,7.0 L 9.0,7.0 M 7.0,10.0 L 7.0,8.0 L 8.0,8.0 L 8.0,10.0 L 7.0,10.0 M 9.0,10.0 L 9.0,8.707 L 10.293,10.0 L 9.0,10.0 M 4.707,10.0 L 6.0,8.707 L 6.0,10.0 L 4.707,10.0 M 5.809,13.0 L 6.809,11.0 L 8.191,11.0 L 9.191,13.0 L 5.809,13.0" fill="#000" /></svg>