<?xml version="1.0" ?>
<svg xmlns="http://www.w3.org/2000/svg" width="128" height="128" viewBox="0 0 128 128">
  <path d="m128,64a64,64 0,0 1,-64 64,64 64,0 0,1 -64,-64 64,64 0,0 1,64 -64,64 64,0 0,1 64,64" fill="#529add"/>
  <path d="m31.992,32.08v87.273a64,64 0,0 0,16 6.529v-93.803z" fill="#666"/>
  <path d="m79.992,32.08v93.84a64,64 0,0 0,16 -6.582v-87.258z" fill="#666"/>
  <path d="m23.992,44.08c-4.456,0 -8.043,3.587 -8.043,8.043v31.914c0,4.456 3.587,8.043 8.043,8.043h79.914c4.456,0 8.043,-3.587 8.043,-8.043v-31.914c0,-4.456 -3.587,-8.043 -8.043,-8.043z" fill="#000"/>
  <path d="m24.036,40.08h79.913c4.456,0 8.043,3.587 8.043,8.043v31.913c0,4.456 -3.587,8.043 -8.043,8.043h-79.913c-4.456,0 -8.043,-3.587 -8.043,-8.043v-31.913c0,-4.456 3.587,-8.043 8.043,-8.043z" fill="#fff"/>
  <path d="m23.992,40.08c-3.817,0 -6.987,2.648 -7.795,6.213l28.746,41.787h14.143l-32.332,-48zM40.611,40.08 L72.943,88.08h14.143l-32.332,-48zM68.611,40.08 L100.943,88.08h3.049c3.693,0 6.776,-2.48 7.705,-5.869l-28.943,-42.131zM96.611,40.08 L111.992,62.08v-14c0,-4.432 -3.568,-8 -8,-8zM15.992,66.08v14c0,4.432 3.568,8 8,8h7.094z" fill="#c84747"/>
  <path d="m24.03,40.08h79.924c4.453,0 8.038,3.585 8.038,8.038v31.924c0,4.453 -3.585,8.038 -8.038,8.038h-79.924c-4.453,0 -8.038,-3.585 -8.038,-8.038v-31.924c0,-4.453 3.585,-8.038 8.038,-8.038z" fill="none" stroke-linejoin="round" stroke-linecap="round" stroke-width="4" stroke="#555"/>
</svg>
