<?xml version="1.0" ?>
<svg xmlns="http://www.w3.org/2000/svg" width="128" height="128" viewBox="0 0 128 128">
  <path d="M119.416,95.983c-17.67,30.593 -56.805,41.075 -87.41,23.412C1.4,101.733 -9.088,62.612 8.582,32.019 26.253,1.422 65.39,-9.06 95.996,8.603c30.604,17.663 41.091,56.784 23.421,87.379" fill="#529add"/>
  <path d="m110.22,19.75 l-60.924,106.51c9.684,2.293 19.636,2.245 29.086,0.066l46.689,-81.455c-2.908,-9.281 -7.934,-17.911 -14.852,-25.121z" fill="#999"/>
  <path d="m123.55,41.986 l-49.141,85.078c3.636,-0.543 7.22,-1.391 10.707,-2.545l41.885,-72.52c-0.873,-3.423 -2.025,-6.773 -3.451,-10.014z" fill="#000"/>
  <path d="m107.92,17.455 l-62.561,107.71c2.68,0.819 5.387,1.464 8.109,1.918l60.135,-103.53c-1.745,-2.139 -3.643,-4.174 -5.684,-6.096zM122.557,38.176 L70.926,127.567c3.521,-0.385 7,-1.062 10.402,-2.018l44.68,-77.359c-0.873,-3.423 -2.025,-6.773 -3.451,-10.014z" fill="#fff"/>
  <path d="m32,32.148v87.273a64,64 0,0 0,16 6.53v-93.803zM80,32.148v93.84a64,64 0,0 0,16 -6.582v-87.258z" fill="#666"/>
  <path d="M24,44.148a8.025,8.025 0,0 0,-8.043 8.043v31.914A8.025,8.025 0,0 0,24 92.148h79.914a8.025,8.025 0,0 0,8.043 -8.043V52.191a8.025,8.025 0,0 0,-8.043 -8.043z" fill="#000"/>
  <path d="M24.044,40.148h79.913a8.026,8.026 0,0 1,8.043 8.043v31.913a8.026,8.026 0,0 1,-8.043 8.044L24.044,88.148a8.026,8.026 0,0 1,-8.043 -8.044L16.001,48.191a8.026,8.026 0,0 1,8.043 -8.043z" fill="#fff"/>
  <path d="M24,40.148a7.976,7.976 0,0 0,-7.795 6.213L44.951,88.148h14.143l-32.332,-48zM40.619,40.148 L72.951,88.148h14.143l-32.332,-48zM68.619,40.148 L100.951,88.148h3.049a7.973,7.973 0,0 0,7.705 -5.87L82.762,40.148zM96.619,40.148 L112,62.148v-14c0,-4.432 -3.568,-8 -8,-8zM16,66.148v14c0,4.432 3.568,8 8,8h7.094z" fill="#c84747"/>
  <path d="M24.038,40.148h79.924a8.02,8.02 0,0 1,8.038 8.038v31.924a8.02,8.02 0,0 1,-8.038 8.038L24.038,88.148a8.02,8.02 0,0 1,-8.038 -8.038L16,48.186a8.02,8.02 0,0 1,8.038 -8.038z" fill="none" stroke-linejoin="round" stroke-linecap="round" stroke-width="4" stroke="#555"/>
</svg>
