<svg xmlns="http://www.w3.org/2000/svg" width="16" height="16"><path d="M 7.5,2.0 C 7.223,2.0 7.0,2.224 7.0,2.5 L 7.0,3.0 L 2.5,3.0 C 2.223,3.0 2.0,3.224 2.0,3.5 C 2.0,3.776 2.223,4.0 2.499,4.0 L 7.0,4.0 L 7.0,14.5 C 7.0,14.776 7.223,15.0 7.499,15.0 L 8.5,15.0 C 8.777,15.0 9.0,14.776 9.0,14.5 L 9.0,4.0 L 13.5,4.0 C 13.777,4.0 14.0,3.776 14.0,3.5 C 14.0,3.224 13.777,3.0 13.501,3.0 L 9.0,3.0 L 9.0,2.501 C 9.0,2.224 8.777,2.0 8.501,2.0 L 7.5,2.0 M 2.5,4.5 C 2.224,4.5 2.0,4.724 2.0,5.0 L 2.0,6.0 C 2.0,6.276 2.224,6.5 2.5,6.5 C 2.776,6.5 3.0,6.276 3.0,6.0 L 3.0,5.001 C 3.0,4.724 2.776,4.5 2.5,4.5 M 13.5,4.5 C 13.224,4.5 13.0,4.724 13.0,5.0 L 13.0,6.0 C 13.0,6.276 13.224,6.5 13.5,6.5 C 13.776,6.5 14.0,6.276 14.0,6.0 L 14.0,5.001 C 14.0,4.724 13.776,4.5 13.5,4.5" fill="#000" /></svg>