<?xml version="1.0" ?>
<svg xmlns="http://www.w3.org/2000/svg" width="34" height="34" viewBox="0 0 34 34">
  <path d="m33.87,16.93c0,9.35 -7.58,16.93 -16.93,16.93 -9.35,0 -16.93,-7.58 -16.93,-16.93 0,-9.35 7.58,-16.93 16.93,-16.93 9.35,0 16.93,7.58 16.93,16.93" fill="#ca72e2"/>
  <path d="M9.58,6.35L24.15,6.35A2.24,2.24 0,0 1,26.39 8.59L26.39,25.28A2.24,2.24 0,0 1,24.15 27.52L9.58,27.52A2.24,2.24 0,0 1,7.34 25.28L7.34,8.59A2.24,2.24 0,0 1,9.58 6.35z" fill="none" stroke-width="2" stroke="#000"/>
  <path d="M9.62,5.32L24.18,5.32A2.24,2.24 0,0 1,26.43 7.56L26.43,24.25A2.24,2.24 0,0 1,24.18 26.49L9.62,26.49A2.24,2.24 0,0 1,7.38 24.25L7.38,7.56A2.24,2.24 0,0 1,9.62 5.32z" fill="#495aad" stroke-width="2" stroke="#fff"/>
  <path d="m15.9,21.97 l1.43,-4.26h1.37" fill="none" stroke-linejoin="round" stroke-linecap="round" stroke-width="0.66145831" stroke="#fff"/>
  <path d="m19.34,21.97 l0.86,-3.61" fill="none" stroke-linejoin="round" stroke-linecap="round" stroke-width="0.66145831" stroke="#fff"/>
  <path d="m20.2,18.36 l0.84,-0" fill="none" stroke-linejoin="round" stroke-linecap="round" stroke-width="0.66145831" stroke="#fff"/>
  <path d="m16.93,19.05 l2.41,2.92h2.75l-1.89,-2.92h-3.26" fill="none" stroke-linejoin="round" stroke-linecap="round" stroke-width="0.66145831" stroke="#fff"/>
  <path d="M22.08,21.98m-1.9,0a1.9,1.9 0,1 1,3.81 0a1.9,1.9 0,1 1,-3.81 0" fill="none" stroke-linejoin="round" stroke-linecap="round" stroke-width="0.66145831" stroke="#fff"/>
  <path d="M15.88,21.98m-1.9,0a1.9,1.9 0,1 1,3.81 0a1.9,1.9 0,1 1,-3.81 0" fill="none" stroke-linejoin="round" stroke-linecap="round" stroke-width="0.66145831" stroke="#fff"/>
  <path d="m11.64,20.11v-10.58h3.18c0,0 3.17,0 3.17,3.17 0,3.17 -3.17,3.17 -3.17,3.17L11.64,15.87" fill="none" stroke-linecap="square" stroke-width="2" stroke="#fff"/>
</svg>
