<?xml version="1.0" ?>
<svg xmlns="http://www.w3.org/2000/svg" width="128" height="128" viewBox="0 0 128 128">
  <path d="M119.416,95.995C101.746,126.6 62.611,137.087 32.005,119.416 1.4,101.746 -9.087,62.611 8.584,32.005 26.254,1.4 65.389,-9.087 95.995,8.584 126.6,26.254 137.087,65.389 119.416,95.995" fill="#9bbe55"/>
  <path d="M57.959,15.967h12.174v111.981h-12.174z" fill="#666"/>
  <path d="M40.472,32L87.528,32A8.472,8.472 0,0 1,96 40.472L96,91.528A8.472,8.472 0,0 1,87.528 100L40.472,100A8.472,8.472 0,0 1,32 91.528L32,40.472A8.472,8.472 0,0 1,40.472 32z" fill="none" stroke-width="8" stroke="#000"/>
  <path d="M40.472,28L87.528,28A8.472,8.472 0,0 1,96 36.472L96,87.528A8.472,8.472 0,0 1,87.528 96L40.472,96A8.472,8.472 0,0 1,32 87.528L32,36.472A8.472,8.472 0,0 1,40.472 28z" fill="#495aad" stroke-linejoin="miter" stroke-linecap="butt" stroke-width="8" stroke="#fff"/>
  <path d="M74.5,83.896H54.042v-3.901c2.198,-0.053 3.698,-0.646 3.958,-2.839v-7.156c-0.23,-2.661 -2.403,-3.277 -4.609,-3.672v-5.901l16.76,-0.677 0.391,0.391v16.677c0.065,1.814 1.208,2.417 2.656,2.917 0.417,0.122 0.851,0.208 1.302,0.26z" fill="#fff"/>
  <path d="M56.262,47.853a7.646,7.646 0,1 0,15.293 0a7.646,7.646 0,1 0,-15.293 0z" fill="#fff" stroke-width="8"/>
</svg>
