<svg xmlns="http://www.w3.org/2000/svg" width="16" height="16"><path d="M 4.5,2.0 C 4.224,2.0 4.0,2.224 4.0,2.5 L 4.0,3.0 L 2.5,3.0 C 2.223,3.0 2.0,3.224 2.0,3.5 C 2.0,3.776 2.223,4.0 2.499,4.0 L 4.0,4.0 L 4.0,5.0 L 2.5,5.0 C 2.223,5.001 2.0,5.224 2.0,5.5 C 2.0,5.776 2.223,5.999 2.499,6.0 L 4.0,6.0 L 4.0,14.5 C 4.0,14.776 4.224,15.0 4.5,15.0 C 4.776,15.0 5.0,14.776 5.0,14.5 L 5.0,12.0 L 10.0,12.0 L 10.0,14.5 C 10.0,14.776 10.224,15.0 10.5,15.0 C 10.776,15.0 11.0,14.776 11.0,14.5 L 11.0,6.0 L 12.5,6.0 C 12.777,5.999 13.0,5.776 13.0,5.5 C 13.0,5.224 12.777,5.001 12.501,5.0 L 11.0,5.0 L 11.0,4.0 L 12.5,4.0 C 12.777,4.0 13.0,3.776 13.0,3.5 C 13.0,3.224 12.777,3.0 12.501,3.0 L 11.0,3.0 L 11.0,2.501 C 11.0,2.224 10.776,2.0 10.5,2.0 C 10.224,2.0 10.0,2.224 10.0,2.5 L 10.0,3.0 L 5.0,3.0 L 5.0,2.501 C 5.0,2.224 4.776,2.0 4.5,2.0 M 5.0,5.0 L 5.0,4.0 L 10.0,4.0 L 10.0,5.0 L 5.0,5.0 M 5.0,11.0 L 5.0,6.0 L 10.0,6.0 L 10.0,11.0 L 5.0,11.0 M 7.5,6.5 C 7.224,6.5 7.0,6.724 7.0,7.0 L 7.0,8.0 C 7.0,8.276 7.224,8.5 7.5,8.5 C 7.776,8.5 8.0,8.276 8.0,8.0 L 8.0,7.001 C 8.0,6.724 7.776,6.5 7.5,6.5 M 2.5,6.5 C 2.224,6.5 2.0,6.724 2.0,7.0 L 2.0,8.0 C 2.0,8.276 2.224,8.5 2.5,8.5 C 2.776,8.5 3.0,8.276 3.0,8.0 L 3.0,7.001 C 3.0,6.724 2.776,6.5 2.5,6.5 M 12.5,6.5 C 12.224,6.5 12.0,6.724 12.0,7.0 L 12.0,8.0 C 12.0,8.276 12.224,8.5 12.5,8.5 C 12.776,8.5 13.0,8.276 13.0,8.0 L 13.0,7.001 C 13.0,6.724 12.776,6.5 12.5,6.5" fill="#000" /></svg>