<?xml version="1.0" encoding="UTF-8"?>
<svg version="1.1" xmlns="http://www.w3.org/2000/svg" xmlns:xlink="http://www.w3.org/1999/xlink" x="0" y="0" viewBox="0 0 15 15">
  <path d="M13.5 3L13.5 6L14.5 6L14.5 8.75L15 8.75L15 10.25L14.5 10.25L14.5 13L13.5 13L13.5 10.25L12.5 10.25L12.5 11.5L11.5 11.5L11.5 10.25L3.5 10.25L3.5 11.5L2.5 11.5L2.5 10.25L1.5 10.25L1.5 13L0.5 13L0.5 10.25L0 10.25L0 8.75L0.5 8.75L0.5 6L1.5 6L1.5 3L13.5 3zM13.5 7L13.5 7L13.5 8L12.5 8L12.5 8.75L13.5 8.75L13.5 7zM11.5 8L3.5 8L3.5 8.75L11.5 8.75L11.5 8zM1.5 7L1.5 7L1.5 8.75L2.5 8.75L2.5 8L1.5 8L1.5 7z"/>
</svg>